<?xml version="1.0" encoding="UTF-8" standalone="no"?>
<svg
   xmlns:dc="http://purl.org/dc/elements/1.1/"
   xmlns:cc="http://creativecommons.org/ns#"
   xmlns:rdf="http://www.w3.org/1999/02/22-rdf-syntax-ns#"
   xmlns:svg="http://www.w3.org/2000/svg"
   xmlns="http://www.w3.org/2000/svg"
   xmlns:sodipodi="http://sodipodi.sourceforge.net/DTD/sodipodi-0.dtd"
   xmlns:inkscape="http://www.inkscape.org/namespaces/inkscape"
   height="225pt"
   version="1.1"
   viewBox="-9 0 216.68105 225.0002"
   width="216.68105pt"
   id="svg31"
   sodipodi:docname="approfondimenti.svg"
   inkscape:version="0.92.3 (unknown)">
  <metadata
     id="metadata37">
    <rdf:RDF>
      <cc:Work
         rdf:about="">
        <dc:format>image/svg+xml</dc:format>
        <dc:type
           rdf:resource="http://purl.org/dc/dcmitype/StillImage" />
        <dc:title></dc:title>
      </cc:Work>
    </rdf:RDF>
  </metadata>
  <defs
     id="defs35" />
  <sodipodi:namedview
     pagecolor="#ffffff"
     bordercolor="#666666"
     borderopacity="1"
     objecttolerance="10"
     gridtolerance="10"
     guidetolerance="10"
     inkscape:pageopacity="0"
     inkscape:pageshadow="2"
     inkscape:window-width="1366"
     inkscape:window-height="741"
     id="namedview33"
     showgrid="false"
     fit-margin-top="0"
     fit-margin-left="0"
     fit-margin-right="0"
     fit-margin-bottom="0"
     inkscape:zoom="0.34570313"
     inkscape:cx="329.33251"
     inkscape:cy="341.33304"
     inkscape:window-x="0"
     inkscape:window-y="27"
     inkscape:window-maximized="1"
     inkscape:current-layer="svg31" />
  <g
     id="surface1"
     transform="matrix(0.43945467,0,0,0.43945467,-9.0002733,-6.8605284e-4)">
    <path
       d="M 468.35156,33.394531 C 465.56641,20.976562 459.45703,10.8125 451.14844,4.765625 l -0.84375,-0.613281 -1.03907,0.042968 c -2.58984,0.101563 -5.2539,0.28125 -7.59765,0.441407 -3.09766,0.203125 -5.87891,0.378906 -8.63672,0.464843 l -2.82422,0.085938 -6.20312,209.94141 c -0.004,0.21484 -0.14844,0.41015 -0.38282,0.49218 -0.0156,0.004 -0.0664,0.0195 -0.14843,0.0195 -0.0781,0 -0.27735,-0.0195 -0.41407,-0.1875 l -20.96484,-25.4414 -16.61328,23.64453 c -0.0977,0.13672 -0.26172,0.22266 -0.44141,0.22266 -0.0586,0 -0.12109,-0.0117 -0.18359,-0.0312 -0.21875,-0.0742 -0.36719,-0.29297 -0.35547,-0.51954 l 8.66016,-208.289058 -3.13282,0.00391 c -38.71875,0.035156 -81.16406,0.496093 -129.7539,1.410156 l -3.07813,0.058594 1.78906,39.0625 1.8125,0.710937 c 8.32813,3.265625 16.375,7.433594 23.91797,12.382813 l 1.74219,1.144531 1.80859,1.273438 c 21.73438,15.292945 38.48047,36.93357 47.15625,60.933569 9.39063,25.95703 9.94141,55.84766 1.55469,84.15625 -7.44922,25.12109 -21.11328,46.80859 -39.5039,62.71484 l -1.97657,1.71094 18.07813,27.90235 c 0.0234,0.0351 0.0312,0.0742 0.043,0.11328 l 0.51172,1.5664 1.59765,0.41016 c 9.46485,2.4375 16.56641,11.03125 21.08594,17.28516 l 83.30078,115.23046 1.36719,0.11719 c 2.71094,0.23828 4.39844,0.40625 5.77734,0.54688 l 0.26172,0.0273 c 2.55469,0.25 4.09766,0.40234 9.73828,0.75391 2.16406,0.125 4.30078,0.29297 6.10547,0.44531 l 0.73047,0.0586 0.67187,-0.28125 c 0.0664,-0.0273 0.125,-0.043 0.23047,-0.043 0.0234,0 0.0508,0.004 0.082,0.004 0.3086,0.0508 0.625,0.0781 0.94141,0.0781 5.77344,0 11.32422,-8.29297 13.45313,-12.67579 2.69531,-5.55078 2.85156,-12.11328 2.98828,-17.90234 l 7.89843,-336.097655 c 0.27735,-11.460937 0.5625,-23.316406 -2.00781,-34.746094 z m 0,0"
       style="fill:#f0f0fa;fill-opacity:1;fill-rule:nonzero;stroke:none"
       id="path2"
       inkscape:connector-curvature="0" />
    <path
       d="m 309.46875,387.39062 -3.98438,-8.55468 h -0.0117 l -2.41797,-5.21485 c -0.5586,-1.19531 -1.13672,-2.39453 -1.73047,-3.59375 l -0.77344,-1.58203 -0.0195,-0.004 -1.25391,-2.5625 c -0.24218,-0.4961 -0.48437,-0.98438 -0.74218,-1.49219 -5.6211,-11.23828 -11.4375,-22.85547 -12.75782,-35.14063 -0.17968,-1.64843 -0.2539,-3.32031 -0.21484,-4.96875 l 0.0234,-0.89062 -21.12891,-34.19531 -2.34375,0.94531 c -3.65625,1.47265 -7.47656,2.82812 -11.36328,4.02344 l -2.5625,0.79296 0.49609,2.63282 c 0.0195,0.0937 0.0234,0.14843 0.0234,0.14843 l -5.96875,132.66407 c -0.008,0.12109 -0.0508,0.20312 -0.0781,0.23828 l -3.34375,4.6914 5.76171,0.0508 c 12.26563,0.10156 24.9961,0.15234 38.92969,0.15234 12.86719,0 26.57422,-0.043 43.14453,-0.13281 l 4.67969,-0.0234 -22.35937,-47.98828 z m 0,0"
       style="fill:#f0f0fa;fill-opacity:1;fill-rule:nonzero;stroke:none"
       id="path4"
       inkscape:connector-curvature="0" />
    <path
       d="m 487.33984,55.550781 -0.0156,-1.152343 v -2.371094 c 0.0195,-1.828125 0.0742,-3.695313 0.1289,-5.519532 l 0.0274,-0.957031 c 0.42578,-12.375 0.90234,-26.40625 -8.64453,-34.453125 l -7.3711,-6.21875 0.60938,2.234375 c -3.46875,-1.441406 -7.33985,-2.351562 -11.8086,-2.761719 l -7.57421,-0.695312 5.0625,5.679688 c 5.49609,6.171874 9.52343,14.410156 11.64062,23.820312 2.59766,11.5625 2.31641,23.484375 2.03906,35.011719 l -7.90234,336.171871 c -0.14063,5.8711 -0.30469,12.52735 -3.10156,18.27344 -0.23438,0.48828 -2.39844,4.87109 -5.77344,8.50391 l -4.20313,4.51953 6.15235,0.51172 c 2.92969,0.24218 5.54687,0.42578 8.00781,0.55859 l 0.25781,0.0117 -0.66015,1.91406 6.23828,-2.6875 c 4.96484,-2.13672 10.27344,-8.35156 11.36328,-13.30859 0.70703,-3.23828 0.73047,-6.90625 0.75,-10.48047 0.008,-1.57422 0.0273,-3.39453 0.11719,-5.08594 l 0.0547,-1.08984 c 0.26172,-4.86719 0.52344,-9.73047 0.76563,-14.58985 1.0625,-20.89453 1.98047,-42.00781 2.73047,-62.7539 1.5625,-43.44531 2.47265,-87.46485 2.70312,-130.83203 0.25782,-46.99219 -0.27734,-94.79297 -1.59375,-142.050784 0,-0.06641 0,-0.132812 0,-0.203125 z m 0,0"
       style="fill:#d7deeb;fill-opacity:1;fill-rule:nonzero;stroke:none"
       id="path6"
       inkscape:connector-curvature="0" />
    <path
       d="m 28.984375,74.46875 c 0.105469,-12.046875 0.21875,-24.503906 3.511719,-36.417969 2.515625,-9.089843 6.429687,-16.070312 11.972656,-21.335937 l 5.925781,-5.625 -8.15625,0.457031 c -1.878906,0.101563 -3.375,0.210937 -4.757812,0.339844 L 38.390625,10.96875 28.242188,13.339844 C 19.507812,15.378906 13.582031,19.082031 10.132812,24.667969 6.324219,30.84375 6.277344,38.472656 6.234375,45.230469 L 4.074219,396.75391 c -0.042969,7.38281 0.238281,13.90234 4.117187,18.91796 2.761719,3.57813 7.109375,6.00782 13.292969,7.42188 l 9.054687,2.07422 -0.640624,-0.73047 0.195312,0.0234 c 0.429688,0.0469 0.859375,0.0937 1.261719,0.13281 1.535156,0.16016 3.058593,0.3125 4.585937,0.46094 l 8.757813,0.86718 -6.40625,-6.03515 c -4.070313,-3.83594 -5.347657,-8.42578 -6.96875,-14.23047 l -0.0625,-0.23047 c -0.375,-1.35547 -0.773438,-2.78125 -1.238281,-4.29297 -3.632813,-11.875 -3.824219,-24.26172 -3.695313,-38.05469 z m 0,0"
       style="fill:#d7deeb;fill-opacity:1;fill-rule:nonzero;stroke:none"
       id="path8"
       inkscape:connector-curvature="0" />
    <path
       d="m 247.73437,43.066406 c -12.1875,-3.328125 -24.30468,-5.015625 -36.01953,-5.015625 -26.41406,0 -51.53125,8.199219 -76.78515,25.0625 -21.47266,14.34375 -38.86719,33.101563 -50.30469,54.249999 -24.332031,45.02734 -20.34375,103.48438 9.480469,138.99609 21.097661,25.10157 54.777341,40.50391 94.843751,43.36329 4.3789,0.30859 8.79297,0.46875 13.12109,0.46875 33.58985,0 63.82422,-9.10157 87.44141,-26.31641 21.62109,-15.75781 38.11328,-39.91016 46.4375,-68.00391 8.32812,-28.07812 7.78906,-57.73047 -1.52344,-83.49218 C 320.64844,84.292969 287.42969,53.898438 247.73437,43.066406 Z m 78.1836,159.980464 c -7.69531,25.9375 -22.91797,48.23047 -42.85938,62.76954 -21.79687,15.89453 -49.72265,24.29687 -80.7539,24.29687 -3.9375,0 -8.01953,-0.14844 -12.12891,-0.43359 -36.99219,-2.63282 -68.08984,-16.84375 -87.5625,-40.01953 -13.867186,-16.51954 -21.910155,-37.97657 -23.253905,-62.04688 -1.277344,-23.00391 3.878906,-46.52344 14.523437,-66.22656 10.562498,-19.53516 26.624998,-36.863282 46.457028,-50.113282 23.33594,-15.589844 46.5,-23.164063 70.8125,-23.164063 10.82032,0 22.03907,1.5625 33.34375,4.644531 36.64453,9.996094 67.30469,38.050782 80.01953,73.214844 8.59375,23.76562 9.08985,51.14062 1.40235,77.07812 z m 0,0"
       style="fill:#9199a8;fill-opacity:1;fill-rule:nonzero;stroke:none"
       id="path10"
       inkscape:connector-curvature="0" />
    <path
       d="m 253.20703,6.589844 c -39.55469,0.773437 -80.11328,1.773437 -115.89844,2.652344 -26.42578,0.652343 -54.734371,1.34375 -82.699215,1.960937 l -1.113281,0.07813 -0.742188,0.613281 c -9.796875,5.632813 -15.726562,13.789063 -19.222656,26.4375 -3.25,11.742188 -3.363281,24.128907 -3.476562,36.152344 l -2.660157,288.60156 c -0.121093,13.71484 0.06641,26.01953 3.652344,37.73437 0.488281,1.59375 0.914063,3.125 1.3125,4.58203 2.574219,9.21094 4.128906,14.77344 17.582031,20.00782 0.05859,0.0195 0.128906,0.082 0.195313,0.16406 l 0.796875,0.9375 1.222656,0.11328 c 56.92188,5.23828 116.36719,8.00391 187.08984,8.70312 l 5.75391,0.0586 -3.25,-4.75 c -0.0859,-0.12891 -0.082,-0.23047 -0.0781,-0.28125 l 6.08204,-135.23828 -3.92579,1.00781 c -13.26562,3.40625 -27.3125,5.13672 -41.7539,5.13672 -4.33594,0 -8.77735,-0.16016 -13.19531,-0.47266 -6.71875,-0.48437 -13.41407,-1.33984 -19.89844,-2.53906 l -1.13281,-0.20703 -0.0547,0.0312 -3.82813,-0.83594 c -29.5664,-6.45312 -54.0039,-20.35156 -70.675778,-40.19922 -15.183593,-18.07031 -23.988281,-41.54687 -25.460937,-67.88672 -0.441406,-7.91797 -0.175781,-16.03906 0.792969,-24.13672 l 0.265625,-2.21093 0.234375,-1.55078 c 0.332031,-2.21485 0.734375,-4.50391 1.191406,-6.80469 l 0.445312,-2.21485 0.429688,-1.875 c 0.507812,-2.20703 1.058594,-4.38281 1.644531,-6.47265 l 0.554688,-1.97266 h 0.0078 l 0.632813,-2.03125 c 1.175781,-3.76172 2.40625,-7.19922 3.761718,-10.5039 l 0.933594,-2.27735 h 0.01172 l 0.773437,-1.73437 c 1.269532,-2.85938 2.675782,-5.72656 4.167969,-8.4961 0.460938,-0.83984 0.9375,-1.67187 1.417969,-2.5039 l 1.730469,-2.9961 0.703125,-1.14843 c 1.835937,-2.97657 3.640625,-5.70313 5.527344,-8.33594 l 2.109374,-2.94922 h 0.03906 L 96.0625,97.816406 c 10.48047,-13.660156 23.35547,-25.636718 38.26562,-35.589844 25.46094,-17.007812 50.73829,-25.273437 77.27735,-25.273437 11.8164,0 24.0664,1.707031 36.39453,5.066406 1.82031,0.503907 3.71094,1.074219 5.78125,1.742188 l 4.11719,1.332031 -1.77344,-38.5625 z m 0,0"
       style="fill:#ffffff;fill-opacity:1;fill-rule:nonzero;stroke:none"
       id="path12"
       inkscape:connector-curvature="0" />
    <path
       d="M 302.98437,133.76172 C 292.5625,104.94531 267.43359,81.949219 237.40234,73.746094 c -9.21875,-2.511719 -18.38281,-3.785156 -27.23828,-3.785156 -20.0039,0 -39.01562,6.203124 -58.11719,18.964843 -16.24218,10.839844 -29.40234,25.035159 -38.06249,41.050779 -18.402349,34.07031 -15.386724,78.28906 7.17187,105.14453 15.95703,18.9961 41.44141,30.64453 71.75781,32.80078 3.31641,0.23829 6.66016,0.35547 9.94141,0.35547 25.41406,0 48.29297,-6.88281 66.15625,-19.90234 16.34765,-11.92578 28.82422,-30.19141 35.1289,-51.44141 6.30079,-21.26172 5.89063,-43.69922 -1.15625,-63.17187 z m 0,0"
       style="fill:#b0e8f8;fill-opacity:1;fill-rule:nonzero;stroke:none"
       id="path14"
       inkscape:connector-curvature="0" />
    <path
       d="m 304.17578,285.95703 -2.75,-4.25391 -0.26172,-0.39062 h 0.004 l -6.4961,-10.03125 -2.57421,1.96094 -0.69532,0.53906 c -0.41406,0.32031 -0.82812,0.64062 -1.26562,0.95703 -6.52344,4.76172 -13.78906,9.00781 -21.60156,12.62109 l -3.07032,1.41797 5.16407,8.36719 h -0.004 l 0.37891,0.60547 0.65625,1.07031 h 0.004 l 3.87891,6.26953 -0.004,0.004 9.6211,15.57031 2.15625,-5.6914 c 2.14453,-5.64844 6.27343,-9.97657 11.9414,-12.51563 3.00391,-1.33984 5.96875,-2.16406 8.8086,-2.44141 l 4.90234,-0.48046 -8.79297,-13.58204 z m 0,0"
       style="fill:#ae7878;fill-opacity:1;fill-rule:nonzero;stroke:none"
       id="path16"
       inkscape:connector-curvature="0" />
    <path
       d="M 432.66797,452.28125 402.19141,410.125 v 0.004 l -5.58204,-7.71875 h -0.004 l -33.58594,-46.45704 0.004,-0.004 -6.19922,-8.55469 0.004,-0.004 -12.33984,-17.07031 -0.004,0.004 -8.53906,-11.82031 c -8.63672,-11.95704 -16.80078,-17.52344 -25.6914,-17.52344 -0.25782,0 -0.51954,0.004 -0.77735,0.0117 l -2.16797,0.082 -0.0156,-0.0391 -0.17969,0.043 -1.94531,0.0742 0.15625,0.375 -0.57422,0.14453 c -1.64844,0.41016 -3.34375,1 -5.05469,1.76172 -2.47656,1.11719 -6.01562,3.25782 -8.80469,7.13672 l -0.86328,1.19531 -0.16797,-0.0898 -0.34375,0.80469 -0.62109,0.86328 0.20703,0.10937 -0.52734,1.2461 c -1.7461,4.10937 -2.33203,8.96484 -1.73828,14.46094 0.0234,0.17578 0.0469,0.35156 0.0703,0.52343 l -0.50391,-0.3125 1.79297,7.19532 c 2.3711,9.50781 6.91016,18.57812 11.30078,27.35156 1.5,2.98828 3.08594,6.16406 4.52344,9.25 l 15.92578,34.17578 12.96094,27.80078 h -0.004 l 10.98438,23.55078 0.8164,0.47266 c 1.81641,1.05469 3.55469,2.25781 5.20313,3.57422 l -3.03906,2.36718 10.52734,22.5625 c 1.44531,3.125 3.03906,6.41016 4.88281,9.30469 l 5.64453,8.85547 -0.0273,-2.30469 c 0.90625,0.74219 1.82813,1.38672 2.78906,1.92188 2.5586,1.43359 5.55469,2.2539 8.90625,2.4375 l 0.89844,0.0508 -0.0195,0.19141 1.27734,-0.1211 1.01172,0.0547 v -0.15234 l 1.33594,-0.12891 c 3.5625,-0.34766 7.51562,-1.30469 11.81641,-2.875 l 0.83984,-0.32422 -0.0117,0.14453 4.58203,-2.00781 c 2.83985,-1.24609 5.69141,-2.68359 8.4961,-4.26563 l -0.11719,0.45313 6.58203,-4.43359 c 3.78125,-2.55079 7.34766,-5.35157 10.62891,-8.32032 l -0.0274,0.71485 5.5586,-6.14063 c 4.67187,-5.16406 6.8125,-9.65625 6.72656,-14.14062 -0.10156,-5.0625 -3.00391,-9.47266 -6.5,-14.30469 z m 0,0"
       style="fill:#f5b36e;fill-opacity:1;fill-rule:nonzero;stroke:none"
       id="path18"
       inkscape:connector-curvature="0" />
    <path
       d="M 426.07031,5.140625 C 416.91016,5.082031 407.43359,5.050781 397.10547,5.039062 h -2.87891 l -8.57422,206.499998 15.98047,-22.71875 c 0.0899,-0.13281 0.2461,-0.21875 0.42578,-0.22265 0.17578,0 0.31641,0.0625 0.42188,0.1875 l 20.49609,24.88671 6.16797,-208.51562 z m 0,0"
       style="fill:#eb6b66;fill-opacity:1;fill-rule:nonzero;stroke:none"
       id="path20"
       inkscape:connector-curvature="0" />
    <path
       d="m 245.01562,50.867188 c -11.43359,-3.121094 -22.80859,-4.703126 -33.80468,-4.703126 -24.76172,0 -48.30078,7.679688 -71.96485,23.480469 -20.09765,13.433594 -36.38281,30.999999 -47.093746,50.808599 -22.824219,42.24609 -19.054688,97.11328 8.960936,130.46874 19.8086,23.58594 51.39063,38.04297 88.92578,40.71094 4.09766,0.29297 8.22656,0.4375 12.27735,0.4375 31.4375,0 59.7539,-8.52734 81.89453,-24.66406 20.28906,-14.79297 35.76953,-37.44922 43.58593,-63.80469 7.8125,-26.32031 7.29688,-54.13281 -1.4414,-78.30078 C 313.42969,89.550781 282.26172,61.03125 245.01562,50.867188 Z m 24.6211,198.371092 c -18.03516,13.15625 -41.13281,20.10938 -66.79297,20.10938 -3.33594,0 -6.70313,-0.1211 -10.00781,-0.35938 -30.60547,-2.17187 -56.35157,-13.95312 -72.4961,-33.17969 -11.52343,-13.71484 -18.20703,-31.52734 -19.32031,-51.50781 -1.058592,-19.04297 3.21485,-38.51562 12.03516,-54.83594 8.73437,-16.16015 22.01172,-30.488278 38.39453,-41.429684 19.32031,-12.902344 38.49219,-19.171875 58.60547,-19.171875 8.96484,0 18.26172,1.296875 27.63281,3.851563 C 268.04297,81 293.44922,104.25 303.99609,133.39062 c 14.8125,40.96875 0.043,90.77344 -34.35937,115.84766 z m 0,0"
       style="fill:#bdc7d7;fill-opacity:1;fill-rule:nonzero;stroke:none"
       id="path22"
       inkscape:connector-curvature="0" />
    <path
       d="m 149.78906,85.542969 c -16.80469,11.222656 -30.41797,25.917971 -39.3789,42.500001 -9.07813,16.80078 -13.476566,36.84375 -12.382816,56.42969 1.148437,20.6289 8.070316,39.05078 20.011716,53.26953 16.67188,19.84375 43.16016,32.00781 74.58985,34.24218 3.43359,0.2461 6.83984,0.36719 10.21484,0.36719 26.01953,0 50.06641,-7.20312 68.5625,-20.6914 35.43359,-25.83594 50.65625,-77.11719 35.40625,-119.28516 -10.86719,-30.04297 -37.05078,-54.011719 -68.33984,-62.550781 -31.125,-8.496094 -60.13282,-3.355469 -88.6836,15.71875 z m 150.375,49.234371 c 6.82813,18.88282 7.21875,40.65235 1.09766,61.30078 -6.11328,20.6211 -18.19922,38.33594 -34.01953,49.8711 -19.55078,14.2539 -45.875,20.98828 -74.11328,18.98437 -29.5,-2.09765 -54.2461,-13.37109 -69.67578,-31.73828 -21.80079,-25.95703 -24.667974,-68.76562 -6.82422,-101.79297 8.41406,-15.57031 21.23828,-29.39843 37.08593,-39.984371 18.47266,-12.335938 37.11719,-18.457031 56.44532,-18.457031 8.66406,0 17.46875,1.230468 26.44921,3.683593 29.10547,7.941407 53.45704,30.218749 63.55469,58.132809 z m 0,0"
       style="fill:#000000;fill-opacity:1;fill-rule:nonzero;stroke:none"
       id="path24"
       inkscape:connector-curvature="0" />
    <path
       d="M 138.67578,68.785156 C 118.42969,82.304688 102.03125,100 91.246094,119.96094 c -10.90625,20.18359 -16.191406,44.26953 -14.875,67.8164 1.378906,24.73438 9.660156,46.80078 23.945316,63.8125 19.99218,23.80078 51.83203,38.38672 89.65234,41.07813 4.14844,0.29687 8.26172,0.4414 12.33984,0.4414 31.34375,0 60.28516,-8.66015 82.51953,-24.86718 20.47657,-14.9336 36.08985,-37.78125 43.96485,-64.33985 7.87109,-26.55078 7.35156,-54.58984 -1.46094,-78.95703 C 314.29297,88.882812 282.85156,60.113281 245.28516,49.859375 207.89453,39.65625 173.01953,45.84375 138.67578,68.785156 Z m 184.85938,57.535154 c 8.51953,23.5625 9.01562,50.70703 1.38671,76.4336 -7.625,25.71484 -22.70703,47.8125 -42.47656,62.22265 -24.35156,17.75781 -57.08984,26.16406 -92.1914,23.66406 -36.71875,-2.61328 -67.5625,-16.6914 -86.84375,-39.64843 C 76.15625,216.54297 72.535156,163.08594 94.800781,121.88281 105.27344,102.5 121.21875,85.300781 140.91797,72.144531 c 33.3164,-22.25 67.10547,-28.261719 103.30469,-18.386719 36.32031,9.914063 66.71093,37.714844 79.3125,72.562498 z m 0,0"
       style="fill:#000000;fill-opacity:1;fill-rule:nonzero;stroke:none"
       id="path26"
       inkscape:connector-curvature="0" />
    <path
       d="m 491.41016,55.621094 c -0.0899,-3.117188 0.0234,-6.429688 0.14062,-9.9375 C 492.05469,30.734375 492.62891,13.789062 477.44531,5.195312 466.30859,-1.113281 453.64062,-0.253906 441.39062,0.574219 437.22656,0.851562 433.30078,1.117188 429.53516,1.09375 331.94531,0.382812 232.94531,2.820312 137.21094,5.175781 107.73828,5.898438 77.265625,6.648438 47.253906,7.296875 31.625,7.632812 14.582031,9.707031 6.671875,22.53125 2.257812,29.6875 2.207031,38.292969 2.164062,45.207031 L 0.0078125,396.72266 c -0.0390625,6.28515 -0.09375,14.89843 4.9609375,21.4414 6.027344,7.8086 16.5625,9.50391 25.964844,10.48047 105.296876,10.92969 201.195316,11.35156 298.312496,10.8125 0.38282,0 0.7461,-0.0781 1.08985,-0.19531 l 23.36718,50.14062 c 2.98438,6.40235 7.07032,15.16797 14.98829,19.59375 C 372.27344,511 376.41016,512 381.0625,512 c 4.84375,0 10.25,-1.08594 16.17969,-3.25391 13.69922,-5.00781 26.34375,-13.15234 36.5664,-23.55078 4.11719,-4.18359 9.57032,-10.67578 9.42188,-18.6914 -0.12891,-6.73047 -4.25,-12.4336 -7.26172,-16.60157 l -8.70313,-12.03906 c 2.48829,0.25 4.14063,0.40234 9.73438,0.74609 4.19531,0.26172 8.52344,0.64844 12.70703,1.02735 5.39453,0.48437 10.97656,0.98437 16.44141,1.22656 0.16015,0.008 0.32031,0.008 0.48047,0.008 8.80468,0 17.63671,-10.39453 19.16015,-17.36718 0.79688,-3.66016 0.82422,-7.55469 0.84766,-11.32032 0.0117,-1.72265 0.0234,-3.35156 0.10547,-4.89062 0.28515,-5.23438 0.5625,-10.46485 0.82812,-15.69531 1.0586,-20.83594 1.97656,-41.96875 2.72656,-62.81641 1.56641,-43.42969 2.47657,-87.48828 2.71094,-130.95313 0.25391,-47.18359 -0.28515,-95.02734 -1.59765,-142.207026 z M 397.10547,8.042969 c 9.66015,0.00781 19.3125,0.039062 28.94922,0.101562 l -5.83594,197.457029 -15.42578,-18.71875 c -0.70313,-0.84765 -1.73438,-1.32812 -2.86328,-1.28125 -1.10547,0.0391 -2.125,0.59766 -2.75782,1.4961 l -10.10156,14.36718 z M 10.5625,413.84375 C 7.265625,409.57422 7.03125,403.58203 7.074219,396.76562 L 9.230469,45.25 C 9.269531,38.902344 9.316406,31.710938 12.6875,26.242188 16.03125,20.820312 21.984375,17.875 28.921875,16.261719 24.660156,20.554688 21.289062,26.25 19.199219,32.914062 16.121094,42.738281 16.027344,53.019531 15.9375,62.964844 L 13.085938,383 c -0.121094,13.47656 1.003906,27.97656 9.066406,37.17187 -4.753906,-1.09375 -8.949219,-2.91015 -11.589844,-6.32812 z m 21.101562,7.76953 c -0.644531,-0.0664 -1.292968,-0.14062 -1.9375,-0.21484 C 18.394531,414.1875 16.988281,397.96875 17.125,383.03516 L 19.976562,63.003906 C 20.0625,53.351562 20.152344,43.375 23.050781,34.125 25.757812,25.492188 30.769531,18.699219 37.066406,14.945312 38.832031,14.765625 40.617188,14.636719 42.40625,14.542969 36.421875,20.226562 32.261719,27.628906 29.605469,37.246094 26.214844,49.523438 26.097656,62.191406 25.988281,74.441406 L 23.328125,363.05078 c -0.128906,14.05078 0.07031,26.68359 3.824219,38.95703 0.484375,1.57422 0.898437,3.05469 1.285156,4.45703 1.710938,6.14063 3.125,11.20703 7.792969,15.60938 -1.519531,-0.15625 -3.039063,-0.30469 -4.566407,-0.46094 z M 239.27344,432.33203 C 178.62891,431.73047 117.19531,429.60156 52.433594,423.64453 52.0625,423.20312 51.59375,422.83594 51.019531,422.61328 38.964844,417.91797 37.722656,413.45703 35.25,404.56641 c -0.40625,-1.45313 -0.835938,-2.99219 -1.335938,-4.62891 -3.460937,-11.30859 -3.640624,-23.36719 -3.515624,-36.82031 l 2.65625,-288.609378 c 0.109374,-11.796874 0.21875,-23.996093 3.367187,-35.378906 3.269531,-11.84375 8.785156,-19.445312 17.875,-24.652344 0.140625,-0.08203 0.257813,-0.179687 0.382813,-0.273437 27.660156,-0.609375 55.605472,-1.296875 82.703122,-1.960937 38.20703,-0.941407 76.9375,-1.890626 115.88281,-2.648438 l 1.4375,31.320312 c -1.94921,-0.632812 -3.91406,-1.238281 -5.89843,-1.777343 -40.7461,-11.121094 -78.73828,-4.382813 -116.14063,20.597656 -5.73828,3.832031 -11.24609,8.011719 -16.47656,12.511719 -7.85547,6.769531 -14.95703,14.527344 -22.164062,21.867187 -7.324219,7.453129 -12.335938,19.621099 -16.476563,29.074219 -9.078125,20.73437 -13.976563,43.46094 -12.710937,66.14062 1.507812,26.98438 10.550781,51.06641 26.15625,69.64454 23.851562,28.39843 61.492182,42.23437 97.675782,44.80859 4.5039,0.32031 8.97265,0.47656 13.40234,0.47656 14.78516,0 29.07813,-1.77734 42.50391,-5.22265 l -5.90235,131.17968 c -0.0352,0.78516 0.19922,1.51172 0.60157,2.11719 z m 48.47265,-160.87891 c -26.01953,18.96875 -61.02343,27.94532 -98.57812,25.27344 -39.25391,-2.79297 -72.19531,-17.8164 -92.76172,-42.30078 C 67.34375,219.82422 63.5,162.78516 87.269531,118.79297 98.464844,98.074219 115.51953,79.683594 136.58984,65.613281 c 24.57813,-16.417969 49.39063,-24.5625 75.1211,-24.5625 11.53906,0 23.26562,1.636719 35.23047,4.902344 38.76953,10.582031 71.21093,40.257813 84.66015,77.449215 9.09766,25.14844 9.6211,54.13672 1.47266,81.6211 -8.14453,27.46484 -24.24219,51.05468 -45.32813,66.42968 z m 9.67969,11.1875 c 1.67188,2.875 3.55469,5.36329 5.47266,7.82813 1.63281,2.10156 3.29297,4.1875 4.86718,6.47656 -3.30078,0.69531 -6.57031,1.36328 -9.72656,2.77735 -6.51953,2.92187 -11.11328,7.83984 -13.52734,14.18359 -4.90625,-7.94141 -9.8125,-15.88281 -14.71485,-23.82813 7.8711,-3.64062 15.28907,-7.9375 22.10938,-12.91015 0.65625,-0.47656 1.28516,-0.98828 1.9375,-1.47266 1.57422,1.625 2.39844,4.91406 3.58203,6.94531 z m -52.32031,149.74219 c 0.36719,-0.52734 0.59765,-1.16015 0.6289,-1.84765 l 5.96485,-132.66797 c 0.0156,-0.28516 -0.0156,-0.5625 -0.0703,-0.83594 3.96093,-1.21875 7.83203,-2.59766 11.60937,-4.11719 l 19.32813,31.29297 c -0.043,1.73438 0.0234,3.51953 0.22265,5.36719 1.25391,11.54687 6.13281,22.47265 11.34766,32.72265 7.48828,14.71485 14.17969,29.72266 21.14062,44.66016 2.65235,5.6875 5.30469,11.37891 7.95703,17.06641 0.3086,0.66797 3.2461,8.38281 3.90235,8.3789 -27.35938,0.14453 -54.625,0.21094 -82.03125,-0.0195 z m 184.13281,22.2461 c 1.10156,1.83593 2.19141,3.67968 3.26953,5.53125 2.46094,4.21875 3.47656,7.41015 1.35156,11.85156 -1.80078,3.77344 -3.9375,7.32812 -6.55078,10.59765 -5.19922,6.50391 -11.95703,11.78125 -19.59375,15.11719 -9.47656,4.14453 -20.21484,5.26563 -30.36718,3.33594 -4.94922,-0.94141 -8.05079,-1.94922 -11.2461,-5.76953 -3.23047,-3.86328 -5.92187,-7.97266 -8.09765,-12.53125 -4.58594,-9.61719 -8.48047,-19.47266 -13.20313,-29.02344 -5.74219,-11.61719 -11.0625,-23.46094 -16.59766,-35.17578 -10.95703,-23.1875 -21.92187,-46.375 -32.77734,-69.61328 -4.75391,-10.1836 -8.64453,-22.91016 -2.90234,-33.5 3.70703,-6.83594 12.29687,-13.96875 20.33593,-11.58985 15.78125,4.67188 25.6836,22.82422 34.91797,35.34766 28.01953,37.98438 57.16016,74.8125 81.46094,115.42188 z m 16.33984,-22.85157 c -0.6914,-0.12109 -1.36718,-0.0234 -1.96484,0.23047 -2.0625,-0.16797 -4.13281,-0.32812 -6.18359,-0.45312 -5.76172,-0.35547 -7.22266,-0.5 -9.87891,-0.76563 -1.375,-0.14062 -3.07422,-0.3125 -5.80469,-0.55469 l -82.5039,-114.11718 c -5.32032,-7.35547 -12.75391,-15.84766 -22.76953,-18.4336 -0.0899,-0.27734 -0.20704,-0.55078 -0.375,-0.80859 L 299.4375,271.15625 c 18.625,-16.10938 32.82422,-38.53125 40.41406,-64.125 8.57422,-28.91797 8.00391,-59.47266 -1.60156,-86.03516 -6.33203,-17.50781 -16.67969,-33.468746 -29.74609,-46.703121 -6.14063,-6.214844 -12.94532,-12.863281 -20.48829,-17.183594 -4.5664,-2.617187 -9.08203,-5.3125 -13.72265,-7.792969 -1.34766,-0.71875 -12.36719,-5.226562 -12.39453,-5.824218 0,-0.0039 -1.5625,-34.039063 -1.5625,-34.039063 43.12109,-0.816406 86.48437,-1.375 129.69531,-1.410156 l -8.52344,205.152341 c -0.0625,1.56641 0.91016,2.98828 2.39844,3.49219 1.48437,0.50391 3.125,-0.0312 4.02734,-1.3125 l 14.35157,-20.41797 18.45703,22.39844 c 0.6875,0.82812 1.6914,1.28515 2.73047,1.28515 0.3789,0 0.76562,-0.0625 1.14453,-0.1875 1.39062,-0.48046 2.34375,-1.76953 2.38672,-3.24218 l 6.125,-207.113284 c 2.90234,-0.089844 5.84765,-0.277344 8.73828,-0.472656 2.49609,-0.171875 5.01562,-0.335938 7.51953,-0.441406 7.71484,5.625 13.40625,15.140625 16.03906,26.867187 2.48047,11.035157 2.20703,22.71875 1.94141,34.015625 l -7.90235,336.101564 c -0.1289,5.48437 -0.27734,11.69531 -2.6875,16.66015 -2.78125,5.72657 -7.92578,11.5 -11.19922,10.94922 z m 19.19141,1.92969 c -2.61719,-0.14062 -5.26562,-0.32812 -7.91406,-0.54687 3.5664,-3.83985 5.84765,-8.35157 6.28125,-9.24219 3.08203,-6.34766 3.25,-13.37891 3.39453,-19.58203 l 7.90234,-336.101565 c 0.27735,-11.722656 0.5625,-23.847656 -2.10937,-35.734375 -2.2461,-9.996094 -6.52735,-18.648438 -12.33203,-25.15625 4.1289,0.378906 8.10156,1.234375 11.77343,2.898438 6.38672,19.8125 6.13282,41.8125 5.90625,61.375 l -3.33593,285.527342 c -0.28516,24.47266 -0.63282,52.07031 -9.56641,76.5625 z M 485.9375,197.78906 c -0.23438,43.39453 -1.14453,87.37891 -2.70703,130.73828 -0.75,20.8125 -1.66406,41.91016 -2.72266,62.71094 -0.26562,5.22266 -0.53906,10.44531 -0.82422,15.67188 -0.0937,1.70703 -0.10547,3.49609 -0.11718,5.22656 -0.0234,3.40234 -0.0469,6.92187 -0.6875,9.85937 -0.8711,4 -5.45313,9.39844 -9.60938,11.19532 8.50781,-24.63282 8.82422,-51.82813 9.10547,-75.9961 l 3.33203,-285.527341 c 0.21875,-18.46875 0.44922,-39.070313 -4.80078,-58.28125 8.41797,7.101562 7.99219,19.769531 7.57812,32.058593 -0.11718,3.460938 -0.23437,7.039063 -0.14453,10.375 1.31641,47.097658 1.85157,94.863278 1.59766,141.968748 z m 0,0"
       style="fill:#000000;fill-opacity:1;fill-rule:nonzero;stroke:none"
       id="path28"
       inkscape:connector-curvature="0" />
  </g>
</svg>
