<?xml version="1.0" encoding="UTF-8" standalone="no"?>
<svg
   xmlns:dc="http://purl.org/dc/elements/1.1/"
   xmlns:cc="http://creativecommons.org/ns#"
   xmlns:rdf="http://www.w3.org/1999/02/22-rdf-syntax-ns#"
   xmlns:svg="http://www.w3.org/2000/svg"
   xmlns="http://www.w3.org/2000/svg"
   xmlns:sodipodi="http://sodipodi.sourceforge.net/DTD/sodipodi-0.dtd"
   xmlns:inkscape="http://www.inkscape.org/namespaces/inkscape"
   height="37.873009pt"
   version="1.1"
   viewBox="0 -27 42.353933 37.873009"
   width="42.353928pt"
   id="svg143"
   sodipodi:docname="bibliografia.svg"
   inkscape:version="1.0.2 (1.0.2+r75+1)">
  <metadata
     id="metadata149">
    <rdf:RDF>
      <cc:Work
         rdf:about="">
        <dc:format>image/svg+xml</dc:format>
        <dc:type
           rdf:resource="http://purl.org/dc/dcmitype/StillImage" />
        <dc:title></dc:title>
      </cc:Work>
    </rdf:RDF>
  </metadata>
  <defs
     id="defs147" />
  <sodipodi:namedview
     pagecolor="#ffffff"
     bordercolor="#666666"
     borderopacity="1"
     objecttolerance="10"
     gridtolerance="10"
     guidetolerance="10"
     inkscape:pageopacity="0"
     inkscape:pageshadow="2"
     inkscape:window-width="1366"
     inkscape:window-height="713"
     id="namedview145"
     showgrid="false"
     fit-margin-top="0"
     fit-margin-left="0"
     fit-margin-right="0"
     fit-margin-bottom="0"
     inkscape:zoom="0.41455078"
     inkscape:cx="-220.38446"
     inkscape:cy="195.71714"
     inkscape:window-x="0"
     inkscape:window-y="27"
     inkscape:window-maximized="1"
     inkscape:current-layer="svg143" />
  <g
     id="surface1"
     transform="matrix(0.08272287,0,0,0.08272287,-8.2314303e-5,-26.999853)"
     style="stroke-width:12.0886">
    <path
       d="m 37.257812,414.17969 c -0.285156,-0.0391 -0.574218,-0.0586 -0.859374,-0.0586 -2.441407,0 -4.984376,1.21094 -7.167969,3.40625 -1.898438,1.91016 -3.308594,4.34375 -3.867188,6.66797 -1.324219,5.46094 1.136719,11.59766 5.84375,14.59766 2.0625,1.3125 4.515625,2.00781 7.09375,2.00781 3.21875,0 6.261719,-1.07422 8.570313,-3.02344 4.367187,-3.67968 5.832031,-10.10547 3.492187,-15.28125 -2.4375,-5.3789 -8.632812,-7.84765 -13.105469,-8.3164 z m 0,0"
       style="fill:#ffffff;fill-opacity:1;fill-rule:nonzero;stroke:none;stroke-width:146.133"
       id="path2" />
    <path
       d="m 6.195312,397.48047 68.761719,2.73047 0.773438,-26.03516 -68.625,-0.0664 z m 0,0"
       style="fill:#ffffff;fill-opacity:1;fill-rule:nonzero;stroke:none;stroke-width:146.133"
       id="path4" />
    <path
       d="m 84.855469,67.699219 -66.015625,2.375 -1.03125,26.933593 66.246094,-2.597656 z m 0,0"
       style="fill:#ffffff;fill-opacity:1;fill-rule:nonzero;stroke:none;stroke-width:146.133"
       id="path6" />
    <path
       d="m 145.17969,129.00391 -4.10938,1.37109 c -0.14844,0.0508 -0.20703,0.0586 -0.20703,0.0586 l -56.816405,0.125 -0.488281,16.4961 61.003906,-1.59766 z m 0,0"
       style="fill:#ffffff;fill-opacity:1;fill-rule:nonzero;stroke:none;stroke-width:146.133"
       id="path8" />
    <path
       d="m 164.08984,418.48437 c -8.50781,0 -17.17578,-0.23828 -25.76562,-0.70703 l -3.05078,-0.16797 -0.44922,12.25 2.96484,0.14063 c 12.98047,0.60547 26.14844,0.91016 39.14063,0.91016 7.87109,0 15.80859,-0.10938 23.58984,-0.33594 l 3.125,0.33984 0.85938,-14.1289 -3.4336,0.26562 c -12.34765,0.94922 -24.78906,1.43359 -36.98047,1.43359 z m 0,0"
       style="fill:#ffffff;fill-opacity:1;fill-rule:nonzero;stroke:none;stroke-width:146.133"
       id="path10" />
    <path
       d="m 301.81641,408.98437 h 3.21484 l 0.0781,-2.92187 c 0.0781,-3.02734 0.16797,-6.04297 0.25782,-9.17188 l 0.0898,-3.0039 -98.34766,-2.6836 -0.9414,15.59766 95.5,2.15234 z m 0,0"
       style="fill:#ffffff;fill-opacity:1;fill-rule:nonzero;stroke:none;stroke-width:146.133"
       id="path12" />
    <path
       d="m 497.35156,357.82422 -101.87109,0.89453 -1.22656,25.33203 101.83203,1.69141 z m 0,0"
       style="fill:#ffffff;fill-opacity:1;fill-rule:nonzero;stroke:none;stroke-width:146.133"
       id="path14" />
    <path
       d="m 359.07031,153.67578 c 0.40235,0 0.8086,-0.008 1.20703,-0.0117 14.83594,-0.24219 29.4961,-5.34765 41.29688,-14.38672 0.0742,-0.0586 0.17969,-0.0898 0.35156,-0.0898 0.004,0 3.04688,0.18359 3.04688,0.18359 l 1.10937,-23.35546 -4.51562,2.13671 c -12.58594,5.95313 -26.85157,9.10157 -41.25782,9.10157 -12.79687,0 -25.58593,-2.51953 -36.98437,-7.28516 l -3.88281,-1.625 -0.26954,4.19922 c -0.33984,5.35547 -0.66796,10.71875 -0.98828,16.07031 l -0.10156,1.6875 1.38672,0.96094 c 11.56641,8.0039 25.625,12.41406 39.60156,12.41406 z m 0,0"
       style="fill:#ffffff;fill-opacity:1;fill-rule:nonzero;stroke:none;stroke-width:146.133"
       id="path16" />
    <path
       d="m 324.79687,24.328125 -99.57031,2.898437 -0.23828,11.929688 98.78906,-1.105469 z m 0,0"
       style="fill:#ffffff;fill-opacity:1;fill-rule:nonzero;stroke:none;stroke-width:146.133"
       id="path18" />
    <path
       d="m 454.85937,88.398438 c 0.5586,0.03125 1.11719,0.04297 1.67188,0.04297 7.03516,0 13.63281,-2.285156 18.57422,-6.4375 5.3789,-4.507812 8.47656,-11.683594 8.28125,-19.195312 -0.17969,-7.503906 -3.4961,-14.242188 -9.09766,-18.488282 -2.89844,-2.195312 -6.51172,-3.308593 -10.73047,-3.308593 -10.08593,0 -20.53125,6.253906 -25.24218,12.140625 -4.35938,5.457031 -7.96875,14.839844 -3.78907,23.320312 3.33594,6.753906 11.3125,11.4375 20.33203,11.925782 z m 0,0"
       style="fill:#ffffff;fill-opacity:1;fill-rule:nonzero;stroke:none;stroke-width:146.133"
       id="path20" />
    <path
       d="m 408.05078,97.601562 -12.51953,260.046878 101.86719,-0.89063 2.57812,-57.25 c 0.84766,-18.67187 1.84375,-37.66797 2.8086,-56.03515 l 0.10937,-2.0625 c 1.625,-30.82813 3.30469,-62.70704 4.34375,-94.44922 0.51172,-15.61719 0.74219,-31.22266 0.67969,-46.38281 l -0.0117,-2.98438 z m 23.9375,205.242188 3.3125,-1.42969 0.28125,1.75391 z m 0,0"
       style="fill:#cae37f;fill-opacity:1;fill-rule:nonzero;stroke:none;stroke-width:146.133"
       id="path22" />
    <path
       d="m 408.42969,55.617188 0.008,0.371093 c 0.19922,8.933594 0.40234,18.167969 0.36328,27.414063 0,0 -0.004,0.04297 -0.0234,0.140625 l -0.0625,0.257812 -0.61328,12.742188 99.78906,-0.01953 -0.0312,-3.03125 C 507.637,72.48047 506.86356,52.51172 505.49247,32.441407 l -0.19141,-2.761718 -97.26172,-1.253907 0.008,3.046875 c 0.0234,8.40625 0.22266,17.132813 0.38282,24.144532 z M 439.85547,54.375 c 4.4375,-5.554688 14.22656,-11.460938 23.62109,-11.460938 3.78516,0 7.02735,1 9.62891,2.96875 5.125,3.886719 8.15625,10.074219 8.32422,16.972657 0.17187,6.925781 -2.66407,13.523437 -7.57422,17.648437 -4.53906,3.800782 -10.84375,5.980469 -17.30469,5.980469 -0.52734,0 -1.06641,-0.01953 -1.58594,-0.04687 -8.44531,-0.460938 -15.60156,-4.613281 -18.67187,-10.832031 -3.11328,-6.304688 -1.71485,-14.636719 3.5625,-21.230469 z m 0,0"
       style="fill:#cae37f;fill-opacity:1;fill-rule:nonzero;stroke:none;stroke-width:146.133"
       id="path24" />
    <path
       d="m 390.91406,453.41016 102.10156,0.34375 3.03125,-66.94922 -101.84375,-1.67969 z m 0,0"
       style="fill:#cae37f;fill-opacity:1;fill-rule:nonzero;stroke:none;stroke-width:146.133"
       id="path26" />
    <path
       d="m 321.40625,87.8125 c -0.60938,9.058594 -1.1875,18.11719 -1.76953,27.21875 l -0.13281,2.07031 1.89062,0.85157 c 11.91016,5.39453 25.37891,8.24218 38.94922,8.24218 15.58594,0 30.83203,-3.68359 44.01953,-10.61718 l 0.0859,-0.0352 1.70312,-0.87109 1.5,-31.093755 -86.0625,1.480469 z m 0,0"
       style="fill:#b0e8f8;fill-opacity:1;fill-rule:nonzero;stroke:none;stroke-width:146.133"
       id="path28" />
    <path
       d="m 360.35156,154.73437 -1.17187,0.008 c -12.99219,0 -25.76172,-3.59375 -36.92969,-10.39063 l -4.25781,-2.59375 -0.29688,4.97656 c -5.20312,87.47266 -9.11719,175.9336 -11.625,262.92188 l -0.0859,3.03125 82.21094,1.43359 c 0.0508,0.004 0.0977,0.0156 0.14453,0.0234 l 3.3711,0.61328 13.30855,-276.5392 L 400,141.76172 c -11.53516,8.13672 -25.63281,12.74219 -39.64844,12.97265 z m -20.84765,107.71094 c 1.36328,-0.39844 2.72265,-0.82031 4.07812,-1.25781 l 0.17578,1.82812 c -1.42187,-0.17578 -2.83984,-0.36718 -4.2539,-0.57031 z m 0,0"
       style="fill:#b0e8f8;fill-opacity:1;fill-rule:nonzero;stroke:none;stroke-width:146.133"
       id="path30" />
    <path
       d="m 388.14062,415.18359 -82.19531,-1.42187 -0.0859,2.96875 c -0.30859,11.11328 -0.59765,22.22656 -0.86718,33.32812 l -0.0781,3.06641 84.9336,0.27734 1.85156,-38.49609 -3.38281,0.25781 z m 0,0"
       style="fill:#b0e8f8;fill-opacity:1;fill-rule:nonzero;stroke:none;stroke-width:146.133"
       id="path32" />
    <path
       d="m 225.1875,29.195312 99.46484,-2.902343 0.58985,-8 c 0.26562,-3.613281 0.53515,-7.226563 0.80859,-10.832031 L 326.30859,4.097656 225.60547,8.28125 Z m 0,0"
       style="fill:#ae7878;fill-opacity:1;fill-rule:nonzero;stroke:none;stroke-width:146.133"
       id="path34" />
    <path
       d="m 246.98828,378.09766 c -2.41797,1.10937 -5.29687,1.625 -9.05859,1.625 -1.4336,0 -2.82032,-0.0703 -4.16407,-0.13672 l -25.88281,-1.35547 -0.71484,11.90625 98.3164,2.6875 0.42969,-12.48828 -3.52344,0.47656 c -4.21093,0.5625 -8.375,0.85156 -12.38281,0.85156 -3.26953,0 -6.57422,-0.17578 -9.8164,-0.52344 -2.89454,-0.3125 -6.25391,-0.82031 -9.21875,-2.21875 -3.22266,-1.52343 -5.625,-4.02343 -6.59375,-6.85546 -1.11719,-3.28516 -0.0469,-7.16407 2.48437,-9.01563 1.00781,-0.73437 2.30469,-1.13672 3.64844,-1.13672 0.52734,0 1.05469,0.0625 1.5664,0.1836 1.63282,0.39453 2.96094,1.39453 3.64454,2.75 0.1289,0.2539 0.0156,0.58593 -0.23047,0.70703 -0.082,0.043 -0.16016,0.0625 -0.2461,0.0625 -0.16406,0 -0.3789,-0.0781 -0.44531,-0.21094 -0.52344,-1.12109 -1.61328,-1.94922 -2.97656,-2.26953 -0.42969,-0.10547 -0.8711,-0.15625 -1.32031,-0.15625 -1.1211,0 -2.1875,0.33203 -3,0.92578 -2.22657,1.62109 -3.10938,4.91797 -2.10938,7.8125 0.85547,2.54687 3.05078,4.82031 6.03125,6.23828 2.79688,1.32031 5.91797,1.80078 8.875,2.11719 3.17969,0.34375 6.41797,0.51562 9.625,0.51562 4.5,0 9.05859,-0.33984 13.53906,-1.00781 l 2.47266,-0.37109 0.082,-2.5 c 3.46875,-106.14453 8.99219,-213.65235 16.41406,-319.535159 l 0.23047,-3.320312 -25.0039,0.832031 c -3.69922,0.125 -7.52344,0.257812 -11.09766,1.34375 -3.90625,1.179688 -7.03125,3.515625 -8.58203,6.414062 -1.88672,3.542969 -1.26953,7.992188 1.46875,10.378907 1.08594,0.921875 2.54687,1.429687 4.10937,1.429687 0.4961,0 0.99219,-0.05469 1.41797,-0.148437 1.78125,-0.355469 3.19531,-1.378907 3.89063,-2.816407 0.10156,-0.222656 0.3125,-0.300781 0.47656,-0.300781 0.0781,0 0.15625,0.01953 0.23047,0.05469 0.16406,0.07813 0.23828,0.207031 0.27344,0.304687 0.0312,0.09375 0.0547,0.242188 -0.0274,0.414063 -0.82031,1.714843 -2.5,2.949219 -4.62109,3.390625 -0.53906,0.117187 -1.09766,0.175781 -1.65235,0.175781 -1.82421,0 -3.53515,-0.613281 -4.8164,-1.722656 -3.04297,-2.628907 -3.78516,-7.757813 -1.6875,-11.675781 1.69531,-3.179688 4.96484,-5.636719 9.20703,-6.925782 3.69531,-1.125 7.75781,-1.265625 11.41406,-1.390625 l 25.07422,-0.828125 0.21094,-2.996094 c 0.17187,-2.46875 0.34765,-4.933593 0.52734,-7.402343 l 0.24219,-3.257813 -98.75391,1.101563 -0.38672,19.144531 3.39844,-0.378906 c 3.6836,-0.40625 6.75391,-0.9375 10.00391,-1.496094 l 0.23437,-0.03906 c 3.47657,-0.609376 7.07422,-1.238282 11.40625,-1.679688 1.3125,-0.136719 2.80078,-0.289062 4.32032,-0.289062 2.6289,0 4.74218,0.480468 6.44921,1.453124 2.69532,1.554688 4.49219,4.5625 4.57813,7.667969 0.0859,3.054688 -1.57813,6.226563 -4.14453,7.894531 -1.35938,0.882813 -2.98047,1.371094 -4.54688,1.378907 -0.79687,0 -1.59765,-0.132813 -2.32422,-0.382813 -2.40625,-0.816406 -4.17187,-2.964844 -4.40234,-5.335937 -0.0234,-0.296875 0.1875,-0.558594 0.54297,-0.589844 0.26953,0 0.5,0.214844 0.52344,0.472656 0.17968,1.941407 1.6875,3.769531 3.69922,4.453125 0.60937,0.203125 1.26562,0.304688 1.94921,0.304688 1.38282,0 2.79688,-0.425782 3.97266,-1.195313 2.29297,-1.484375 3.73047,-4.21875 3.66797,-6.976562 -0.082,-2.734375 -1.66406,-5.386719 -4.05859,-6.769531 -1.55469,-0.886719 -3.42579,-1.296876 -5.87891,-1.296876 -1.38281,0 -2.85156,0.128907 -4.23828,0.269532 -4.21094,0.433594 -7.59766,1.019531 -11.17969,1.640625 l -0.16406,0.02734 c -3.03516,0.535157 -6.81641,1.195313 -11.19141,1.652344 l -2.63281,0.273438 -1.38672,69.187495 c 0,0.082 -0.0469,0.19141 -0.0898,0.26953 l -0.30469,0.57422 -14.83203,246.70703 25.71094,1.33985 c 1.29687,0.0664 2.76562,0.14453 4.24218,0.14453 2.27735,0 5.65235,-0.16016 8.63282,-1.53516 3.67187,-1.67968 6.84375,-6.0039 5.5625,-10.05859 -0.79688,-2.5 -3.27735,-4.37109 -5.90235,-4.44922 h -0.17187 c -2.56641,0 -5.08203,1.74219 -5.97266,4.13281 -0.0937,0.24219 -0.32422,0.35157 -0.51172,0.35157 -0.0586,0 -0.12109,-0.0117 -0.17187,-0.0312 -0.17969,-0.0664 -0.26953,-0.19141 -0.3125,-0.28516 -0.0391,-0.0898 -0.0742,-0.23047 -0.0117,-0.40234 1.07031,-2.84766 3.92969,-4.83985 6.94922,-4.83985 l 0.21093,0.004 c 3.12891,0.0859 5.97266,2.22265 6.91407,5.19922 1.46093,4.60547 -2.04297,9.48047 -6.12891,11.35547 z m 0,0"
       style="fill:#ae7878;fill-opacity:1;fill-rule:nonzero;stroke:none;stroke-width:146.133"
       id="path36" />
    <path
       d="m 203.60937,449.28906 -0.50781,3.48047 100.7461,0.34375 0.0703,-2.9375 c 0.30859,-12.85937 0.66015,-25.97656 1.07031,-40.09766 l 0.0898,-3.08593 h -3.08984 c -0.0703,0 -0.14062,0.004 -0.21094,0.008 l -95.48828,-2.16016 z m 0,0"
       style="fill:#ae7878;fill-opacity:1;fill-rule:nonzero;stroke:none;stroke-width:146.133"
       id="path38" />
    <path
       d="m 144.92578,163.85547 74.72656,0.92187 2.33203,-38.86718 -75.61328,0.0859 z m 0,0"
       style="fill:#f5b36e;fill-opacity:1;fill-rule:nonzero;stroke:none;stroke-width:146.133"
       id="path40" />
    <path
       d="m 144.89453,164.92578 -9.57422,251.625 2.94531,0.15625 c 8.56641,0.46484 17.28125,0.69922 25.89844,0.69922 12.61328,0 25.32813,-0.5 37.79297,-1.49219 l 2.59766,-0.20703 15.02734,-249.85547 z m 0,0"
       style="fill:#f5b36e;fill-opacity:1;fill-rule:nonzero;stroke:none;stroke-width:146.133"
       id="path42" />
    <path
       d="m 200.51172,428.61328 c -7.76172,0.22656 -15.76953,0.33984 -23.79297,0.33984 -12.79688,0 -25.85547,-0.30468 -38.80859,-0.90625 l -3.02344,-0.14062 -0.9336,24.63672 68.91797,0.23047 c 0,0 -0.32812,-3.39063 -0.32812,-3.4375 l 1.24609,-20.81641 z m 0,0"
       style="fill:#f5b36e;fill-opacity:1;fill-rule:nonzero;stroke:none;stroke-width:146.133"
       id="path44" />
    <path
       d="m 53.679688,33.976562 -0.710938,0.05859 c -10.152344,0.820317 -20.089844,1.59766 -30.074219,2.082036 L 20.148438,36.25 l -1.261719,32.757812 66,-2.375 1.039062,-34.84375 -3.246093,0.160157 c -9.703126,0.476562 -19.511719,1.265625 -29,2.027343 z m 0,0"
       style="fill:#eb6b66;fill-opacity:1;fill-rule:nonzero;stroke:none;stroke-width:146.133"
       id="path46" />
    <path
       d="m 7.140625,373.03906 68.621094,0.0664 8.261719,-277.625001 -66.265626,2.601562 z m 0,0"
       style="fill:#eb6b66;fill-opacity:1;fill-rule:nonzero;stroke:none;stroke-width:146.133"
       id="path48" />
    <path
       d="m 6.15625,398.54687 -2.066406,53.55469 68.457031,0.23047 1.335937,-5.69141 c -0.140624,-0.0703 -0.304687,-0.23437 -0.296874,-0.48828 l 1.328124,-44.86718 z m 39.449219,37.73438 c -1.964844,1.66016 -4.554688,2.57031 -7.292969,2.57031 -2.195312,0 -4.289062,-0.58984 -6.046875,-1.70703 -3.21875,-2.05469 -5.296875,-5.96094 -5.296875,-9.95312 0,-0.88282 0.101562,-1.73047 0.296875,-2.53516 0.980469,-4.05078 4.980469,-8.56641 9.152344,-8.56641 0.183593,0 0.371093,0.008 0.546875,0.0274 4.371094,0.46093 9.65625,2.85937 11.613281,7.18359 1.921875,4.24609 0.613281,9.94922 -2.972656,12.98047 z m 0,0"
       style="fill:#eb6b66;fill-opacity:1;fill-rule:nonzero;stroke:none;stroke-width:146.133"
       id="path50" />
    <path
       d="m 85.589844,78.953125 -1.511719,50.535155 56.781245,-0.125 c 0.0742,0 0.16407,0.0195 0.2461,0.0547 l 3.99609,1.67969 1.96094,-51.511722 z m 0,0"
       style="fill:#f8d787;fill-opacity:1;fill-rule:nonzero;stroke:none;stroke-width:146.133"
       id="path52" />
    <path
       d="m 77.222656,360.03516 5.289063,-5.05469 c 6.480469,-6.1875 15.175781,-9.92188 23.867191,-10.25 0.45312,-0.0195 0.90625,-0.0274 1.35937,-0.0274 8.6211,0 17.375,3.3125 24.01172,9.08204 l 4.73047,4.11328 8.03906,-211.36719 -60.996092,1.59766 z m 0,0"
       style="fill:#f8d787;fill-opacity:1;fill-rule:nonzero;stroke:none;stroke-width:146.133"
       id="path54" />
    <path
       d="m 135.57031,359.28516 c -0.0547,-0.0586 -0.11328,-0.1211 -0.17969,-0.1875 -6.54687,-8.22266 -17.15234,-13.32813 -27.6914,-13.32813 -0.42969,0 -0.85938,0.008 -1.28125,0.0234 -11.035158,0.41797 -21.726564,6.36719 -27.882814,15.5 -0.0039,0.004 -0.04297,0.0547 -0.1875,0.16015 l -1.191406,0.86719 -2.503906,83.86328 c -0.0078,0.28516 -0.210938,0.41016 -0.296875,0.45313 l 1.28125,5.70703 54.371091,0.1875 3.45703,-0.043 -0.46093,-3.26172 3.39062,-89.03515 z m 0,0"
       style="fill:#f8d787;fill-opacity:1;fill-rule:nonzero;stroke:none;stroke-width:146.133"
       id="path56" />
    <path
       d="m 509.32422,28.898438 c -0.12891,-1.832032 -1.64063,-3.257813 -3.48047,-3.285157 L 407.56641,24.34375 c -0.94532,-0.02734 -1.85157,0.351562 -2.52344,1.015625 -0.67188,0.660156 -1.05469,1.5625 -1.0586,2.503906 -0.0391,9.398438 0.17188,18.777344 0.375,27.851563 0.17579,7.789062 0.34766,15.8125 0.36719,23.84375 L 324.875,80.9375 c 1.73437,-25.765625 3.57422,-51.484375 5.53516,-77.132812 0.0781,-1.007813 -0.28125,-2 -0.98047,-2.726563 C 328.72656,0.351562 327.75,-0.03125 326.73828,0 L 224.94141,4.238281 c -1.86719,0.078125 -3.35157,1.59375 -3.39063,3.460938 l -2.28906,114.148441 -69.73828,0.0781 1.625,-42.734374 c 0.0391,-0.957031 -0.3125,-1.882812 -0.97266,-2.574218 -0.65625,-0.691407 -1.56641,-1.085938 -2.52344,-1.097657 L 88.707031,74.921875 90.003906,31.347656 c 0.03125,-0.980468 -0.347656,-1.929687 -1.046875,-2.617187 -0.695312,-0.691407 -1.636719,-1.066407 -2.628906,-1.019531 -11.261719,0.457031 -22.664063,1.378906 -33.6875,2.269531 -10.957031,0.882812 -22.289063,1.800781 -33.40625,2.25 -1.953125,0.07813 -3.46875,1.722656 -3.390625,3.675781 0.01563,0.355469 0.09766,0.691406 0.210938,1.011719 0,0.01563 -0.0078,0.03125 -0.0078,0.05078 L 0.00390625,452.5 c -0.03906245,0.95703 0.31640575,1.89062 0.98046875,2.58203 0.664063,0.69141 1.578125,1.08594 2.539063,1.08594 l 489.171872,1.65625 0.82422,0.004 c 0.004,0 0.008,0 0.0117,0 1.89062,0 3.44922,-1.48437 3.53125,-3.375 l 6.98437,-154.76171 c 0.8711,-19.35547 1.91016,-39.03516 2.91016,-58.07032 1.63281,-30.96875 3.32031,-62.99609 4.34766,-94.53125 1.36718,-41.73437 0.71875,-80.394528 -1.98047,-118.191402 z M 502.5,32.640625 c 1.35937,19.921875 2.14062,40.109375 2.36328,60.882813 l -93.61719,0.01562 0.44922,-9.324218 c 0.0625,-0.261719 0.10547,-0.53125 0.10547,-0.8125 0.043,-9.398438 -0.16797,-18.777344 -0.375,-27.847656 -0.17578,-7.875 -0.35547,-15.980469 -0.375,-24.097657 z m -9.27344,350.050785 -95.82422,-1.58594 0.9336,-19.41406 95.875,-0.83594 z m -483.238279,-5.57422 62.648438,0.0586 -0.59375,19.91797 -62.730469,-2.4922 z m 76.453125,-226.06641 54.957034,-1.4375 -7.67578,201.90625 C 126.21484,345 116.21875,341.33203 106.26172,341.72656 96.6875,342.09375 87.355469,346.19922 80.4375,352.80859 Z m 51.722654,269.72656 c 8.61328,0.46485 17.26563,0.70703 25.92188,0.70703 12.42968,0 24.86718,-0.48828 37.21093,-1.4414 l -0.45703,7.54687 c -0.0898,-0.008 -0.17968,-0.0195 -0.27734,-0.0156 -20.79688,0.59765 -41.84766,0.40234 -62.63672,-0.56641 z m 71.76172,-26.49218 92.44531,2.52343 c -0.0937,3.0586 -0.17578,6.11719 -0.26562,9.17578 -0.0547,-0.004 -0.10547,-0.0156 -0.16016,-0.0195 l -92.59765,-2.09765 z m 93.08984,-17.66797 c -7.41015,1.10156 -14.9414,1.26953 -22.39453,0.47265 -2.68359,-0.28906 -5.5039,-0.71093 -7.90625,-1.84765 -2.23828,-1.05469 -3.87109,-2.69141 -4.48047,-4.48047 -0.55859,-1.65235 -0.10546,-3.59766 1.03516,-4.42969 0.44922,-0.32422 1.19531,-0.44141 1.85156,-0.28125 0.46485,0.11328 0.82422,0.34375 0.96094,0.61719 0.87891,1.74219 3.00391,2.44922 4.74609,1.57031 1.7461,-0.87891 2.44922,-3.00391 1.57032,-4.74609 -1.07422,-2.13672 -3.1211,-3.70703 -5.61719,-4.3125 -2.67969,-0.64453 -5.55078,-0.10938 -7.67969,1.44531 -3.60937,2.63281 -5.10937,7.85547 -3.55859,12.41016 1.21875,3.59375 4.1914,6.73046 8.14844,8.59765 3.36328,1.58985 7.03125,2.14844 10.17578,2.48438 3.37109,0.36328 6.75781,0.54297 10.14453,0.54297 4.26953,0 8.53515,-0.30469 12.77344,-0.87891 -0.0664,1.98828 -0.12891,3.97266 -0.19141,5.96094 l -92.24609,-2.51563 0.35156,-5.84375 22.75,1.1836 c 1.40234,0.0742 2.91015,0.15234 4.47656,0.15234 3.34766,0 6.95703,-0.35938 10.30859,-1.89844 5.35938,-2.46094 9.72266,-8.74219 7.7461,-14.98437 -1.32422,-4.17578 -5.3086,-7.17578 -9.69141,-7.28907 -4.41015,-0.13281 -8.51172,2.67188 -10.05078,6.77344 -0.6875,1.82813 0.23828,3.86719 2.06641,4.55078 1.82422,0.6875 3.86328,-0.23828 4.55078,-2.0664 0.47265,-1.26563 1.8789,-2.23438 3.25,-2.19141 1.34765,0.0352 2.72656,1.07031 3.13281,2.35938 0.75391,2.37109 -1.48047,5.28906 -3.95312,6.42578 -3.34375,1.53125 -7.66016,1.30859 -11.46875,1.10937 l -22.69532,-1.17969 14.61328,-243.03515 c 0.26172,-0.48438 0.42969,-1.03125 0.4375,-1.61719 l 1.33594,-66.535155 c 4.3125,-0.449219 7.91406,-1.074219 11.39453,-1.679687 3.58203,-0.621094 6.96094,-1.207032 11.12891,-1.636719 3.33984,-0.339844 6.27734,-0.527344 8.33203,0.652343 1.46875,0.84375 2.49219,2.546876 2.53516,4.242188 0.0469,1.695312 -0.875,3.453125 -2.29688,4.378906 -1.03906,0.671875 -2.35156,0.890625 -3.34765,0.550782 -0.85157,-0.289063 -1.57813,-1.113282 -1.65235,-1.875 -0.18359,-1.941407 -1.90234,-3.367188 -3.85156,-3.183594 -1.94531,0.1875 -3.37109,1.910156 -3.18359,3.855468 0.33593,3.535157 2.91796,6.710938 6.41796,7.898438 1.05469,0.359375 2.16797,0.535156 3.29297,0.535156 2.12891,0 4.29688,-0.632812 6.17578,-1.855468 3.46485,-2.246094 5.62891,-6.371094 5.51172,-10.5 -0.11328,-4.128907 -2.5039,-8.125 -6.08593,-10.175782 -4.19141,-2.40625 -9.03125,-1.914062 -12.56641,-1.550781 -4.41406,0.449219 -8.07813,1.085937 -11.62109,1.703125 -3.26172,0.566406 -6.36329,1.101562 -10.04297,1.515625 l 0.25781,-12.820313 92.57812,-1.035156 c -0.1875,2.570313 -0.36718,5.140625 -0.55078,7.710938 l -22.36718,0.746094 c -3.79297,0.128906 -8.08985,0.269531 -12.19532,1.519531 -5.0039,1.519531 -8.90234,4.496093 -10.98047,8.382812 -2.77343,5.183594 -1.7539,11.789063 2.3711,15.355469 1.83984,1.59375 4.26953,2.453125 6.78515,2.449219 0.75782,0 1.52344,-0.07422 2.28125,-0.234375 3.02735,-0.628906 5.46875,-2.46875 6.69922,-5.039063 0.84375,-1.761719 0.0977,-3.871093 -1.66406,-4.714843 -1.76172,-0.84375 -3.87109,-0.09766 -4.71484,1.664062 -0.38282,0.804688 -1.35938,1.085938 -1.76172,1.171875 -1.10938,0.230469 -2.28516,-0.01953 -3,-0.640625 -1.63281,-1.414062 -1.97656,-4.410156 -0.76172,-6.679688 1.16797,-2.1875 3.64844,-3.992187 6.80078,-4.949218 3.21484,-0.976563 6.85547,-1.097656 10.375,-1.214844 l 21.62891,-0.722656 C 312,163.11328 306.50391,270.16797 303.01562,376.61719 Z m 17.97657,-341.531252 -92.9375,1.035156 0.11718,-5.976563 93.38672,-2.71875 c -0.1875,2.550781 -0.38281,5.101563 -0.5664,7.660157 z M 201.72266,412.92578 c -20.98047,1.66797 -42.25782,1.92578 -63.28907,0.78516 l 9.34375,-245.7461 68.625,0.84375 z m -60.05469,-270.39062 -55.015626,1.4375 0.308594,-10.42188 53.906252,-0.12109 c 0.40625,0 0.78906,-0.082 1.15234,-0.21094 z M 81.144531,91.519531 20.925781,93.886719 21.734375,72.976562 81.757812,70.816406 Z m -60.492187,9.449219 60.277344,-2.367188 -8.082032,271.503908 -62.585937,-0.0586 z m 57,345.30859 2.453125,-82.39453 c 0.335937,-0.23828 0.648437,-0.51953 0.890625,-0.88281 5.652344,-8.37891 15.433594,-13.82422 25.535156,-14.21094 10.08594,-0.38672 20.27344,4.30078 26.54297,12.22656 0.0859,0.10547 0.18359,0.1875 0.27734,0.28516 l -3.34765,88.03125 c -0.004,0.0664 0.008,0.12891 0.0117,0.19531 l -54.367182,-0.18359 c 1.148437,-0.55469 1.964843,-1.70313 2.003906,-3.06641 z m 60.121096,-15.23828 c 12.92187,0.60156 25.9414,0.91797 38.94531,0.91797 7.97656,0 15.94922,-0.11328 23.87891,-0.34375 l -1.05079,17.51563 c -0.0156,0.21875 0,0.42968 0.0234,0.63671 l -62.5,-0.21484 z m 68.82812,18.51563 2.50391,-41.65235 92.75,2.10157 c 0.0156,0 0.0312,0 0.0469,0 0.0274,0 0.0586,-0.008 0.0859,-0.008 -0.38672,13.38282 -0.75,26.75391 -1.07031,40.10938 l -94.35156,-0.32031 c 0.008,-0.0781 0.0312,-0.15235 0.0352,-0.23047 z m 102.26172,-32.74219 79.22656,1.375 c 0.0234,0 0.043,0 0.0664,0 0.12891,0 0.25781,-0.0234 0.38281,-0.0391 l -1.55078,32.25 -79,-0.26563 c 0.26563,-11.09765 0.5625,-22.20703 0.875,-33.32031 z m 80.01172,-5.61719 c -0.21484,-0.043 -0.43359,-0.0742 -0.66016,-0.0781 l -79.14843,-1.3711 c 2.52343,-87.375 6.41015,-175.26562 11.625,-262.83593 11.53125,7.02734 24.97265,10.82812 38.48437,10.82812 0.39063,0 0.78125,0 1.17188,-0.008 14.75,-0.23828 29.33203,-5.02344 41.38281,-13.52344 z m 13.24219,-274.99609 c -0.82813,-0.0547 -1.67188,0.16406 -2.38282,0.70703 -11.27343,8.64062 -25.30078,13.52734 -39.5,13.75781 -13.86328,0.25 -27.66796,-3.98828 -39.05468,-11.87109 0.32422,-5.35156 0.65234,-10.70703 0.98828,-16.05859 12.0039,5.01953 25.07031,7.51953 38.14453,7.51953 14.67187,0 29.34766,-3.14844 42.54297,-9.39453 z M 404.5,86.632812 403.24219,112.78906 c -0.0391,0.0195 -0.082,0.0312 -0.125,0.0508 -24.49219,12.91016 -55.26172,13.80469 -80.48438,2.38672 0.57422,-9.07422 1.16016,-18.148435 1.76563,-27.214841 z M 323.0625,7.230469 c -0.41016,5.375 -0.80469,10.761719 -1.20313,16.144531 l -93.60546,2.726562 0.30078,-14.9375 z m -104.26172,121.683591 -1.97656,32.82813 -68.78125,-0.84766 1.21484,-31.90234 z m -74.85156,-46.363279 -1.67578,44.105469 c -0.4336,-0.1875 -0.91016,-0.29687 -1.41407,-0.29687 0,0 -0.004,0 -0.008,0 L 87.171875,126.48047 88.5,81.984375 Z M 53.210938,37.023438 c 9.714843,-0.785157 19.722656,-1.59375 29.617187,-2.082032 L 81.96875,63.734375 22.007812,65.894531 23.039062,39.117188 C 33.152344,38.625 43.328125,37.820312 53.210938,37.023438 Z M 9.039062,401.66406 l 62.796876,2.4961 -1.25,41.90625 c -0.04297,1.42578 0.773437,2.67187 1.972656,3.26562 L 7.207031,449.11328 Z m 481.117188,49.08203 -96.08984,-0.32422 2.99609,-62.25 95.84375,1.58594 z m 14.08594,-303.88672 c -1.03125,31.46485 -2.71485,63.45313 -4.34375,94.39063 -1.00391,19.04687 -2.03907,38.73828 -2.91407,58.12109 l -2.45312,54.41407 -95.85547,0.83593 12.23047,-254.01171 94.00781,-0.0195 c 0.0664,15.0586 -0.15625,30.4375 -0.67187,46.26953 z m 0,0"
       style="fill:#000000;fill-opacity:1;fill-rule:nonzero;stroke:none;stroke-width:146.133"
       id="path58" />
    <path
       d="m 33.082031,347.1875 c 3.242188,2.42969 7.277344,3.67969 11.304688,3.67969 2.898437,0 5.792969,-0.64453 8.386719,-1.96094 3.070312,-1.55469 5.265624,-3.85156 6.179687,-6.46875 1.691406,-4.82813 -1.082031,-9.875 -4.378906,-12.51953 -3.40625,-2.73828 -7.644531,-3.89063 -11.382813,-4.91406 -0.578125,-0.15625 -1.203125,-0.0469 -1.695312,0.30078 -0.492188,0.34375 -0.800782,0.89453 -0.847656,1.49609 l -0.617188,8.10547 c -0.08594,1.11328 0.746094,2.08203 1.859375,2.16797 1.121094,0.0742 2.082031,-0.7461 2.164063,-1.85938 l 0.433593,-5.65234 c 2.742188,0.80469 5.417969,1.78516 7.558594,3.50391 2.292969,1.83984 4.089844,5.1914 3.097656,8.03515 -0.769531,2.19922 -2.960937,3.57422 -4.195312,4.20313 -4.871094,2.46484 -11.078125,1.92578 -15.449219,-1.34766 -4.367188,-3.27344 -6.632812,-9.07812 -5.632812,-14.44531 0.207031,-1.09766 -0.515626,-2.15235 -1.613282,-2.35547 -1.097656,-0.20703 -2.152344,0.51953 -2.355468,1.61328 -1.277344,6.84375 1.609374,14.24609 7.183593,18.41797 z m 0,0"
       style="fill:#000000;fill-opacity:1;fill-rule:nonzero;stroke:none;stroke-width:146.133"
       id="path60" />
    <path
       d="m 31.320312,316.43359 c 2.796876,1.89063 6.308594,1.96094 8.878907,2.01563 l 15.9375,0.32422 c 0.101562,0 0.21875,0.004 0.347656,0.004 0.957031,0 2.617187,-0.1289 3.6875,-1.46484 1.039063,-1.30078 0.832031,-2.92578 0.734375,-3.70703 l -1.210938,-9.62891 c -0.140624,-1.10547 -1.15625,-1.89844 -2.257812,-1.75 -1.105469,0.13672 -1.890625,1.14844 -1.75,2.25391 l 1.210938,9.6289 c 0.03125,0.25391 0.05078,0.45704 0.05469,0.60157 -0.144531,0.0156 -0.375,0.0312 -0.734375,0.0195 l -10.214844,-0.20703 -0.04687,-11.66407 c -0.0039,-1.11328 -0.910156,-2.01171 -2.019531,-2.01171 -0.0039,0 -0.0078,0 -0.0078,0 -1.117188,0.008 -2.015626,0.91406 -2.011719,2.03125 l 0.04687,11.5625 -1.683594,-0.0352 c -2.769531,-0.0547 -5.023438,-0.1875 -6.699219,-1.32031 -1.535156,-1.03516 -2.582031,-3.01563 -2.867187,-5.42578 -0.285156,-2.39844 0.144531,-4.96094 0.566406,-7.4336 0.183594,-1.10156 -0.554688,-2.14453 -1.65625,-2.32812 -1.101562,-0.1875 -2.140625,0.55468 -2.328125,1.65625 -0.445313,2.625 -0.949219,5.60547 -0.59375,8.58203 0.425781,3.57812 2.109375,6.60156 4.617187,8.29687 z m 0,0"
       style="fill:#000000;fill-opacity:1;fill-rule:nonzero;stroke:none;stroke-width:146.133"
       id="path62" />
    <path
       d="m 55.546875,269.46094 c -4.804687,-2.5625 -10.703125,-2.92188 -15.78125,-0.97266 -5.226563,2.01172 -9.152344,5.96094 -10.253906,10.3125 -0.59375,2.35547 -0.636719,5.94141 2.542969,9.64844 4.496093,5.23828 10.339843,7.42969 15.648437,7.42969 3.1875,0 6.179687,-0.78907 8.570313,-2.17969 5.691406,-3.32031 8.550781,-10.46094 6.503906,-16.26563 -1.152344,-3.26953 -3.722656,-6.10156 -7.230469,-7.97265 z m -1.308594,20.74609 c -6.40625,3.73438 -14.753906,0.69922 -19.117187,-4.38672 -1.648438,-1.92187 -2.214844,-3.94922 -1.691406,-6.03125 0.769531,-3.05078 3.824218,-6.00781 7.785156,-7.52734 1.707031,-0.65625 3.527344,-0.98047 5.351562,-0.98047 2.457032,0 4.910156,0.58594 7.078125,1.74219 2.578125,1.375 4.515625,3.47265 5.320313,5.7539 1.402344,3.96485 -0.71875,9.09375 -4.726563,11.42969 z m 0,0"
       style="fill:#000000;fill-opacity:1;fill-rule:nonzero;stroke:none;stroke-width:146.133"
       id="path64" />
    <path
       d="M 29.449219,243.04297 45.96875,249.875 c -4.894531,3.57422 -10.234375,6.47656 -15.914062,8.64062 -0.878907,0.33204 -1.410157,1.23047 -1.28125,2.16407 0.128906,0.93359 0.886718,1.65234 1.820312,1.73437 l 29.136719,2.56641 c 0.05859,0.008 0.121093,0.008 0.179687,0.008 1.035156,0 1.917969,-0.78906 2.007813,-1.83984 0.09766,-1.11328 -0.722657,-2.09375 -1.832031,-2.19141 l -21.371094,-1.88281 c 4.441406,-2.27344 8.632812,-5.00391 12.527344,-8.16016 0.554687,-0.44531 0.828124,-1.15234 0.726562,-1.85937 -0.101562,-0.70313 -0.566406,-1.30469 -1.226562,-1.57422 l -13.21875,-5.46875 c 8.175781,-1.10938 16.457031,-1.36719 24.699218,-0.75781 1.117188,0.0898 2.078125,-0.75 2.160156,-1.86329 0.08203,-1.11328 -0.75,-2.08203 -1.863281,-2.16406 -10.933593,-0.80859 -21.933593,-0.14453 -32.6875,1.96875 -0.875,0.17188 -1.535156,0.89453 -1.621093,1.78125 -0.08984,0.88672 0.414062,1.72266 1.238281,2.06641 z m 0,0"
       style="fill:#000000;fill-opacity:1;fill-rule:nonzero;stroke:none;stroke-width:146.133"
       id="path66" />
    <path
       d="m 37.695312,226.30859 c -0.492187,-0.44531 -0.550781,-1.79687 -0.582031,-2.52734 l -0.523437,-11.49609 c -0.05078,-1.11329 -0.984375,-1.96094 -2.109375,-1.92579 -1.113281,0.0469 -1.976563,0.99219 -1.925781,2.10938 l 0.523437,11.49609 c 0.0625,1.40235 0.167969,3.75 1.890625,5.32422 1.503906,1.3711 3.476562,1.46485 4.785156,1.52735 l 20.921875,0.99218 c 0.03125,0.004 0.0625,0.004 0.09375,0.004 0.535157,0 1.054688,-0.21484 1.433594,-0.59766 0.402344,-0.40234 0.613281,-0.96093 0.582031,-1.53125 l -1.019531,-19.14843 c -0.05859,-1.10938 -1.023437,-1.97657 -2.121094,-1.90625 -1.117187,0.0586 -1.972656,1.01171 -1.910156,2.12109 L 58.632812,227.66797 49.875,227.25 48.800781,217.39062 c -0.121093,-1.10937 -1.113281,-1.91015 -2.226562,-1.78906 -1.109375,0.1211 -1.910157,1.11719 -1.789063,2.22656 l 1.003906,9.23047 -5.84375,-0.27734 c -0.730468,-0.0312 -1.828124,-0.0859 -2.25,-0.47266 z m 0,0"
       style="fill:#000000;fill-opacity:1;fill-rule:nonzero;stroke:none;stroke-width:146.133"
       id="path68" />
    <path
       d="m 64.148438,193.25 c -0.01563,-1.11328 -0.957032,-1.98438 -2.046876,-1.99219 -8.453124,0.10547 -16.976562,-0.40234 -25.355468,-1.51562 l 0.160156,-5.5625 c 0.03125,-1.11719 -0.84375,-2.04688 -1.960938,-2.07813 -1.117187,-0.0195 -2.042968,0.84766 -2.074218,1.96094 l -0.527344,18.37109 c -0.03125,1.11719 0.847656,2.04688 1.960938,2.07813 0.01953,0 0.03906,0 0.05859,0 1.089844,0 1.988281,-0.86719 2.019531,-1.96094 l 0.25,-8.75781 c 7.6875,1 15.488282,1.51953 23.246094,1.51953 0.757813,0 1.519532,-0.004 2.277344,-0.0156 1.113281,-0.0156 2.003906,-0.92968 1.992188,-2.04687 z m 0,0"
       style="fill:#000000;fill-opacity:1;fill-rule:nonzero;stroke:none;stroke-width:146.133"
       id="path70" />
    <path
       d="m 63.023438,158.04297 -16.042969,13.15234 -0.3125,-3.91015 c -0.128907,-1.57813 -0.269531,-3.36719 -0.957031,-5.08594 -0.871094,-2.17969 -2.476563,-3.75781 -4.414063,-4.33594 -3.019531,-0.90625 -5.972656,0.79688 -7.558594,2.88281 -1.511719,1.99219 -2.105469,4.33985 -2.628906,6.41407 -0.496094,1.97656 -1.820313,7.23437 1.691406,10.1289 1.71875,1.41016 3.886719,1.59766 5.589844,1.59766 0.328125,0 0.644531,-0.004 0.929687,-0.0117 l 19.914063,-0.44531 c 1.117187,-0.0273 2,-0.94922 1.972656,-2.06641 -0.02344,-1.09766 -0.921875,-1.97266 -2.015625,-1.97266 -0.01563,0 -0.03125,0 -0.04687,0 l -9.957031,0.22266 h -0.0078 l 16.40625,-13.44922 c 0.859374,-0.70703 0.988281,-1.97656 0.28125,-2.83984 -0.707032,-0.86328 -1.980469,-0.99219 -2.84375,-0.28125 z m -23.789063,16.79297 c -1.566406,0.0312 -3.039063,0.0117 -3.863281,-0.66797 -1.035156,-0.85156 -1.148438,-2.82422 -0.339844,-6.02344 0.445312,-1.78125 0.910156,-3.62109 1.925781,-4.95312 0.625,-0.82813 1.675781,-1.53516 2.65625,-1.53516 0.179688,0 0.355469,0.0234 0.53125,0.0742 0.722657,0.21484 1.417969,0.96875 1.816407,1.96484 0.460937,1.15235 0.570312,2.55078 0.679687,3.90625 l 0.570313,7.14063 z m 0,0"
       style="fill:#000000;fill-opacity:1;fill-rule:nonzero;stroke:none;stroke-width:146.133"
       id="path72" />
    <path
       d="m 30.824219,136.76562 11.691406,6.64063 -9.644531,6.45703 c -0.925782,0.61719 -1.175782,1.875 -0.554688,2.80078 0.386719,0.58203 1.027344,0.89453 1.679688,0.89453 0.386718,0 0.777344,-0.10937 1.121094,-0.33984 l 12.363281,-8.27344 c 0.02344,-0.0195 0.04297,-0.043 0.06641,-0.0625 l 20.339844,2.53906 c 0.08203,0.0117 0.167969,0.0156 0.25,0.0156 1.003906,0 1.875,-0.74609 2,-1.76953 0.140625,-1.10547 -0.644531,-2.11328 -1.753907,-2.25391 L 47.175785,140.7695 c -0.328125,-0.043 -0.644531,0.004 -0.933593,0.10938 l -13.421876,-7.625 c -0.96875,-0.55079 -2.203124,-0.21094 -2.753906,0.75781 -0.550781,0.96875 -0.210937,2.20312 0.757813,2.7539 z m 0,0"
       style="fill:#000000;fill-opacity:1;fill-rule:nonzero;stroke:none;stroke-width:146.133"
       id="path74" />
    <path
       d="m 123.76172,304.55859 c 0.86328,0 1.66406,-0.55859 1.93359,-1.42968 0.32422,-1.06641 -0.27343,-2.19532 -1.33984,-2.52344 l -10.00391,-3.06641 -0.34375,-13.77734 8.36328,-3.09375 c 1.04297,-0.38672 1.57813,-1.54688 1.19141,-2.59375 -0.38672,-1.04688 -1.54687,-1.57813 -2.59375,-1.19141 l -28.351562,10.48047 c -0.757813,0.28125 -2.34375,0.86719 -2.964844,2.48047 -0.34375,0.89453 -0.300782,1.85937 0.117187,2.72266 0.855469,1.76171 2.953125,2.5664 3.8125,2.82812 l 29.585939,9.07422 c 0.19922,0.0586 0.39844,0.0898 0.59375,0.0898 z m -29.828126,-13.375 c 0.02734,-0.008 0.05469,-0.0195 0.08594,-0.0312 l 15.984376,-5.91015 0.27343,11.04687 -15.511712,-4.7539 c -0.328125,-0.10157 -0.609375,-0.22657 -0.832031,-0.35157 z m 0,0"
       style="fill:#000000;fill-opacity:1;fill-rule:nonzero;stroke:none;stroke-width:146.133"
       id="path76" />
    <path
       d="m 92.226562,272.99609 c 0.722657,0.26172 1.457032,0.34766 2.144532,0.34766 0.753906,0 1.457031,-0.10547 2.046875,-0.1875 l 27.453121,-3.98438 c 1.10547,-0.16015 1.8711,-1.18359 1.71094,-2.28906 -0.16015,-1.10156 -1.18359,-1.86719 -2.28906,-1.70703 l -13.94141,2.02344 c 3.91407,-5.9375 8.96094,-11.16797 14.76563,-15.25391 0.91015,-0.64453 1.1289,-1.90625 0.48828,-2.8164 -0.64453,-0.91016 -1.90234,-1.12891 -2.81641,-0.48829 -5.20312,3.66797 -9.84375,8.19141 -13.67187,13.29688 -0.0273,-0.53125 -0.0703,-1.0625 -0.13281,-1.59766 -0.44532,-3.75 -1.96094,-6.98828 -4.26563,-9.11718 -2.93359,-2.70313 -7.113281,-3.5 -10.402344,-1.97657 -2.675781,1.23438 -4.722656,4.00782 -5.472656,7.41797 -0.621094,2.83594 -0.355469,5.72656 -0.125,8.27735 0.167969,1.8164 0.613281,6.64843 4.507812,8.05468 z m -0.433593,-15.46484 c 0.480469,-2.18359 1.683593,-3.91016 3.21875,-4.62109 0.554687,-0.25391 1.183593,-0.37891 1.832031,-0.37891 1.429688,0 2.976562,0.58984 4.13672,1.66016 1.59766,1.47656 2.66016,3.82812 2.99219,6.625 0.27734,2.33203 0.0664,4.78515 -0.20703,7.1914 l -7.929692,1.14844 c -0.785157,0.11328 -1.671876,0.24609 -2.242188,0.0391 -0.992188,-0.35937 -1.597656,-1.87109 -1.847656,-4.62109 -0.21875,-2.3711 -0.441406,-4.82031 0.04687,-7.04297 z m 0,0"
       style="fill:#000000;fill-opacity:1;fill-rule:nonzero;stroke:none;stroke-width:146.133"
       id="path78" />
    <path
       d="m 93.105469,242.46875 c 0.01953,0 0.03906,0 0.05859,0 1.089844,0 1.988282,-0.86719 2.019532,-1.96094 l 0.386718,-13.39844 27.671881,0.13672 c 0.004,0 0.008,0 0.0117,0 1.10937,0 2.01562,-0.89453 2.01953,-2.00781 0.008,-1.11719 -0.89453,-2.02344 -2.01172,-2.03125 l -27.578129,-0.13672 0.246094,-8.54687 c 0.03125,-1.11328 -0.847657,-2.04297 -1.960938,-2.07422 -1.121094,-0.0391 -2.042969,0.84375 -2.074219,1.95703 l -0.746093,25.98047 c -0.03516,1.11719 0.84375,2.04687 1.957031,2.08203 z m 0,0"
       style="fill:#000000;fill-opacity:1;fill-rule:nonzero;stroke:none;stroke-width:146.133"
       id="path80" />
    <path
       d="m 156.39844,309.33984 c 0.0352,0 0.0703,0.004 0.10547,0.004 1.0664,0 1.95703,-0.83984 2.01562,-1.91797 l 0.40625,-7.92578 31.52344,1.65234 c 0.0352,0.004 0.0742,0.004 0.10547,0.004 1.07031,0 1.96093,-0.83594 2.01562,-1.91406 0.0586,-1.11328 -0.79687,-2.0625 -1.91015,-2.1211 l -31.52344,-1.65234 0.42578,-8.30078 c 0.0586,-1.11328 -0.79688,-2.06641 -1.91016,-2.1211 -1.11328,-0.0742 -2.0664,0.79688 -2.12109,1.91016 l -1.04688,20.26172 c -0.0586,1.11328 0.80079,2.0625 1.91407,2.12109 z m 0,0"
       style="fill:#000000;fill-opacity:1;fill-rule:nonzero;stroke:none;stroke-width:146.133"
       id="path82" />
    <path
       d="m 150.79297,358.57422 c 5.69922,0.97265 11.46094,1.6289 17.23828,1.97656 l 0.17187,13.94141 c -5.54296,-0.27344 -11.07421,-0.76172 -16.55859,-1.47266 -1.10156,-0.14062 -2.12109,0.63672 -2.26172,1.74219 -0.14453,1.10937 0.63672,2.12109 1.74219,2.26172 9.12109,1.18359 18.36719,1.77734 27.58203,1.77734 2.67188,0 5.33984,-0.0508 8.00391,-0.14844 1.11328,-0.043 1.98437,-0.98047 1.9414,-2.09765 -0.043,-1.11328 -0.97656,-1.9961 -2.09375,-1.94141 -4.75781,0.17969 -9.53515,0.1875 -14.3125,0.0391 l -0.17187,-13.91406 c 1.88281,0.0703 3.76953,0.10938 5.65625,0.10938 2.65234,0 5.30469,-0.0664 7.94922,-0.19922 1.11718,-0.0547 1.97265,-1.00391 1.91797,-2.11719 -0.0547,-1.11328 -0.99219,-1.99219 -2.11719,-1.91406 -11.35547,0.5625 -22.80078,-0.11719 -34.01172,-2.02344 -1.09375,-0.1875 -2.14063,0.55078 -2.32813,1.64844 -0.1875,1.10156 0.55079,2.14453 1.65235,2.33203 z m 0,0"
       style="fill:#000000;fill-opacity:1;fill-rule:nonzero;stroke:none;stroke-width:146.133"
       id="path84" />
    <path
       d="m 154.44141,343.46484 c 11.26953,1.98438 22.79687,3.07032 34.25,3.23047 0.008,0 0.0156,0 0.0273,0 1.10156,0 2.00391,-0.88672 2.01953,-1.99219 0.0156,-1.11328 -0.875,-2.03125 -1.99219,-2.04687 -11.23828,-0.15625 -22.54687,-1.22266 -33.60937,-3.16797 -1.09766,-0.19531 -2.14453,0.53906 -2.33594,1.63672 -0.19531,1.10156 0.53906,2.14844 1.64063,2.33984 z m 0,0"
       style="fill:#000000;fill-opacity:1;fill-rule:nonzero;stroke:none;stroke-width:146.133"
       id="path86" />
    <path
       d="m 157.04297,331.17187 c 1.63281,2.07813 3.86328,3.39063 6.11719,3.60157 3.73437,0.35937 6.88281,-2.21875 8.59375,-4.73438 1.07031,-1.5625 1.80468,-3.24609 2.51562,-4.87109 0.40625,-0.92188 0.78516,-1.79688 1.22266,-2.63281 0.88281,-1.70704 2.375,-3.86719 4.47656,-4.44922 1.90234,-0.53125 4.22266,0.39843 5.51953,2.20703 1.26172,1.75781 1.64844,4.28125 1.03125,6.74609 -0.55469,2.22656 -1.87109,4.44922 -3.91016,6.59766 -0.76562,0.8125 -0.73437,2.08984 0.0781,2.85547 0.38672,0.37109 0.88672,0.55468 1.38672,0.55468 0.53515,0 1.07031,-0.21093 1.46875,-0.6289 2.52344,-2.66406 4.17187,-5.48828 4.89844,-8.39844 0.89453,-3.60547 0.27343,-7.37109 -1.67188,-10.08203 -2.28516,-3.1875 -6.35156,-4.72656 -9.88281,-3.74609 -2.77344,0.77343 -5.1875,3.01562 -6.98438,6.48437 -0.49218,0.95703 -0.92187,1.92969 -1.33203,2.875 -0.66797,1.51953 -1.29687,2.96094 -2.15234,4.21484 -1.01953,1.49219 -2.89844,3.16797 -4.88672,2.98438 -1.15234,-0.10938 -2.35938,-0.86328 -3.3125,-2.07422 -0.99219,-1.26562 -1.63672,-2.84766 -2.26172,-4.48828 -0.66406,-1.74219 -1.23828,-3.42969 -1.00391,-4.96875 0.17969,-1.18359 1.10938,-2.25391 1.95704,-2.25391 0.0195,0.004 0.0391,0.004 0.0547,0.004 1.10157,0 2,-0.88281 2.01953,-1.98438 0.0195,-1.11718 -0.86718,-2.03515 -1.98046,-2.05468 -3.25782,-0.0234 -5.60938,2.84375 -6.04297,5.68359 -0.38282,2.50391 0.39453,4.83203 1.21875,7.00781 0.71484,1.8711 1.51953,3.83594 2.86328,5.55078 z m 0,0"
       style="fill:#000000;fill-opacity:1;fill-rule:nonzero;stroke:none;stroke-width:146.133"
       id="path88" />
    <path
       d="m 190.97656,260.91797 c -6.53125,-4.81641 -14.21875,-6.70313 -21.09375,-5.1836 -5.21094,1.15625 -11.72656,5.58204 -13.61328,10.9961 -1.09766,3.14453 -0.52734,6.22265 1.64453,8.89453 6,7.38672 14.55469,11.62109 23.2461,11.62109 0.76171,0 1.52734,-0.0312 2.28906,-0.0976 3.74219,-0.32032 6.9375,-1.36719 9.5039,-3.10938 3.17188,-2.15234 5.25,-5.35156 5.69922,-8.77734 0.64844,-4.95703 -2.21875,-10.32031 -7.67578,-14.34375 z m 3.67188,13.82031 c -0.29297,2.24609 -1.77735,4.47266 -3.96485,5.96094 -1.98437,1.34765 -4.53515,2.16406 -7.58203,2.42578 -8.11719,0.69922 -16.37109,-3.05078 -22.05078,-10.04688 -1.27734,-1.57031 -1.59375,-3.21484 -0.96484,-5.01953 1.35937,-3.90234 6.61328,-7.48047 10.67187,-8.3789 1.23047,-0.27344 2.51172,-0.40625 3.81641,-0.40625 4.68359,0 9.69922,1.71875 14.0039,4.89453 1.59375,1.17578 6.7461,5.41406 6.07032,10.57031 z m 0,0"
       style="fill:#000000;fill-opacity:1;fill-rule:nonzero;stroke:none;stroke-width:146.133"
       id="path90" />
    <path
       d="m 157.61719,251.50781 c 1.59375,1.01953 3.4375,1.06641 4.78515,1.10156 l 12.23047,0.32032 c 0.10938,0.0625 0.22266,0.11718 0.33985,0.16406 0.5625,0.21094 1.17187,0.16016 1.67578,-0.11328 l 18.875,0.48828 c 0.0195,0 0.0352,0 0.0547,0 1.08985,0 1.98829,-0.87109 2.01563,-1.96875 0.0312,-1.11328 -0.85156,-2.03906 -1.96484,-2.07031 l -15.48047,-0.39844 c 5.3164,-5.98828 11.46093,-11.14063 18.3125,-15.34766 0.95312,-0.58203 1.25,-1.82812 0.66406,-2.77734 -0.58203,-0.94922 -1.82813,-1.24609 -2.77344,-0.66406 -6.92969,4.2539 -13.16797,9.42578 -18.60547,15.41797 -0.16797,-2.9336 -0.74218,-5.91016 -2.22265,-8.6211 -2.52344,-4.62109 -8.55078,-8.1289 -13.89063,-5.73047 -3.70312,1.66016 -6.0664,5.64063 -6.83203,11.50782 -0.68359,5.2539 1.15625,7.6289 2.81641,8.6914 z m 1.1914,-8.17187 c 0.32813,-2.51172 1.34375,-6.9375 4.47657,-8.34375 0.62109,-0.27735 1.27734,-0.40625 1.94531,-0.40625 2.64453,0 5.4414,1.99609 6.75,4.38672 1.59375,2.91796 1.84765,6.49609 1.77344,9.89062 l -11.25,-0.29297 c -0.96875,-0.0234 -2.0625,-0.0508 -2.71094,-0.46484 -1.33594,-0.85547 -1.13281,-3.6211 -0.98438,-4.76953 z m 0,0"
       style="fill:#000000;fill-opacity:1;fill-rule:nonzero;stroke:none;stroke-width:146.133"
       id="path92" />
    <path
       d="m 158.60547,225.85937 c 0.39453,0 0.79297,-0.11328 1.14062,-0.35546 l 15.84766,-10.90625 24.22266,2.97265 c 0.082,0.008 0.16796,0.0156 0.24609,0.0156 1.00781,0 1.87891,-0.75391 2.00391,-1.77344 0.13671,-1.10938 -0.65235,-2.11719 -1.75782,-2.25 L 175.36719,210.5 161.69922,199.36328 c -0.86719,-0.70312 -2.13672,-0.57422 -2.84375,0.29297 -0.70313,0.86328 -0.57422,2.13672 0.28906,2.83984 l 12.32422,10.03907 -14.01172,9.64453 c -0.91797,0.6289 -1.15234,1.88672 -0.51953,2.80859 0.39453,0.56641 1.02344,0.87109 1.66797,0.87109 z m 0,0"
       style="fill:#000000;fill-opacity:1;fill-rule:nonzero;stroke:none;stroke-width:146.133"
       id="path94" />
    <path
       d="m 368.36328,361.56641 c -2.89453,-1.25391 -6.11719,-1.35938 -8.84375,-0.27735 -3.99609,1.58203 -6.39453,4.95703 -8.71484,8.21875 -1.73828,2.44922 -3.38672,4.76172 -5.59766,6.21094 -2.13281,1.39453 -4.95312,1.80469 -7.73047,1.11328 -2.78125,-0.6875 -5.08594,-2.35937 -6.32031,-4.59375 -1.23438,-2.23047 -1.42578,-5.07031 -0.53125,-7.79297 0.89453,-2.72265 2.73828,-4.89062 5.05469,-5.95703 1.01172,-0.46484 1.45703,-1.66406 0.99218,-2.67578 -0.46484,-1.01172 -1.66406,-1.45703 -2.67578,-0.99219 -3.33593,1.52735 -5.96484,4.57813 -7.20703,8.36719 -1.24609,3.78516 -0.9414,7.79687 0.83594,11.00781 1.77734,3.21094 5.01172,5.60547 8.88281,6.5625 3.8711,0.95703 7.84766,0.35156 10.91797,-1.66015 2.84766,-1.86719 4.79297,-4.60547 6.67578,-7.25 2.07031,-2.91016 4.02344,-5.66016 6.90625,-6.80469 1.73438,-0.6836 3.83203,-0.60156 5.7461,0.23047 1.91796,0.83203 3.41015,2.30468 4.09375,4.03906 0.68359,1.73828 0.59375,3.83203 -0.24219,5.75 -0.83985,1.91406 -2.31641,3.40234 -4.05469,4.07812 -1.03906,0.40625 -1.55078,1.57813 -1.14453,2.61719 0.3125,0.79688 1.07422,1.28516 1.88281,1.28516 0.24219,0 0.49219,-0.043 0.73438,-0.13672 2.72656,-1.06641 5.01953,-3.33594 6.28125,-6.22656 1.26562,-2.89453 1.375,-6.11719 0.30078,-8.84375 -1.07422,-2.72657 -3.34766,-5.01172 -6.24219,-6.26953 z m 0,0"
       style="fill:#000000;fill-opacity:1;fill-rule:nonzero;stroke:none;stroke-width:146.133"
       id="path96" />
    <path
       d="m 339.33203,326.68359 c -0.76953,-0.80859 -2.04687,-0.83593 -2.85547,-0.0664 -3.28125,3.125 -4.57812,8.29687 -3.30859,13.17187 1.02734,3.94922 3.61719,7.6875 7.48437,10.8125 4.70313,3.80078 10.20313,5.875 15.5586,5.875 0.19922,0 0.39843,-0.004 0.59765,-0.0117 6.35938,-0.18359 12.1836,-3.42578 15.19922,-8.46093 3.29297,-5.50782 2.64063,-12.98438 -1.52344,-17.38672 -0.76953,-0.8125 -2.04687,-0.84766 -2.85546,-0.082 -0.8125,0.76953 -0.84766,2.04687 -0.082,2.85546 2.96485,3.13672 3.39454,8.52735 0.99219,12.53907 -2.27734,3.80468 -6.92578,6.35547 -11.84375,6.5 -4.57031,0.13672 -9.375,-1.63282 -13.5,-4.96875 -2.22656,-1.79688 -5.09375,-4.76563 -6.11719,-8.69141 -0.89453,-3.42187 -0.0117,-7.12891 2.1875,-9.23047 0.80469,-0.76953 0.83594,-2.04687 0.0664,-2.85547 z m 0,0"
       style="fill:#000000;fill-opacity:1;fill-rule:nonzero;stroke:none;stroke-width:146.133"
       id="path98" />
    <path
       d="m 372.35156,314.16406 -37.68359,-2.39062 c -1.1211,-0.0664 -2.07422,0.77343 -2.14453,1.88672 -0.0703,1.11328 0.77734,2.07421 1.88672,2.14453 l 37.68359,2.39062 c 0.043,0.004 0.0898,0.004 0.13281,0.004 1.05469,0 1.94531,-0.82031 2.01172,-1.89063 0.0742,-1.11328 -0.77344,-2.07422 -1.88672,-2.14453 z m 0,0"
       style="fill:#000000;fill-opacity:1;fill-rule:nonzero;stroke:none;stroke-width:146.133"
       id="path100" />
    <path
       d="m 374.78125,275.26562 c -0.0273,-1.11718 -0.95703,-2.02343 -2.07031,-1.96484 -1.11719,0.0273 -1.9961,0.95703 -1.96875,2.07031 l 0.54297,20.47266 c 0.0156,0.63672 0.0469,1.70312 -0.27735,2.08594 -0.42187,0.5 -2.01172,0.41015 -2.60937,0.3789 l -12.54297,-0.6914 0.30078,-13.09375 c 0.0234,-1.11328 -0.85938,-2.03907 -1.97656,-2.06641 -1.13282,-0.0586 -2.03516,0.85938 -2.0625,1.97266 l -0.29688,12.96484 -11.20312,-0.61719 c -1.0625,-0.0586 -2.26172,-0.125 -2.97266,-0.61718 -1.11328,-0.76172 -1.37891,-2.73438 -1.53906,-4.51954 l -1.47266,-16.21093 c -0.10156,-1.11328 -1.08203,-1.92578 -2.1914,-1.82813 -1.11329,0.10156 -1.9336,1.08203 -1.83204,2.19141 l 1.47266,16.21094 c 0.17578,1.94921 0.50391,5.58203 3.27344,7.48437 1.64453,1.13281 3.60547,1.24219 5.03906,1.32031 l 27.78125,1.53125 c 0.30078,0.0156 0.67578,0.0391 1.08984,0.0391 1.46875,0 3.48438,-0.25782 4.82422,-1.83985 1.32032,-1.55469 1.26563,-3.58984 1.23438,-4.80469 z m 0,0"
       style="fill:#000000;fill-opacity:1;fill-rule:nonzero;stroke:none;stroke-width:146.133"
       id="path102" />
    <path
       d="M 376.46094,243.34375 C 363.03906,240.86719 349.32031,240 335.69141,240.77344 c -1.11329,0.0625 -1.96485,1.01562 -1.90235,2.1289 0.0664,1.11328 1.01953,1.95703 2.13281,1.90235 11.44532,-0.64844 22.94922,-0.10938 34.28516,1.58984 -11.3125,6.25391 -23.35547,11.08594 -35.875,14.38281 -0.92187,0.24219 -1.54687,1.09766 -1.50391,2.05078 0.0469,0.95313 0.75391,1.74219 1.69922,1.89454 13.36328,2.15625 27.00782,3.25781 40.54688,3.27343 0.004,0 0.004,0 0.004,0 1.11329,0 2.01954,-0.90234 2.01954,-2.01953 0.004,-1.11328 -0.90235,-2.01953 -2.01563,-2.02344 -10.25,-0.0117 -20.55469,-0.65234 -30.75391,-1.91406 11.45313,-3.74219 22.45704,-8.76172 32.8086,-14.98047 0.71875,-0.43359 1.09765,-1.26562 0.94922,-2.08984 -0.15625,-0.82422 -0.80078,-1.47266 -1.625,-1.625 z m 0,0"
       style="fill:#000000;fill-opacity:1;fill-rule:nonzero;stroke:none;stroke-width:146.133"
       id="path104" />
    <path
       d="m 377.27344,207.77734 c -1,0.4961 -1.40625,1.70703 -0.91016,2.70703 2.76953,5.58204 1.31641,13.23047 -3.38672,17.79297 -4.55859,4.42188 -11.94531,6.03907 -18.375,4.01563 -6.20312,-1.95313 -11.44922,-6.9961 -14.03125,-13.49219 -0.87109,-2.19922 -1.1914,-4.01562 -0.96875,-5.55859 0.23828,-1.67578 1.2461,-3.11719 2.50391,-3.58594 1.04297,-0.39063 1.57422,-1.55078 1.18359,-2.59766 -0.38672,-1.04687 -1.55078,-1.57812 -2.59765,-1.1875 -2.64063,0.98828 -4.64063,3.65625 -5.08985,6.80078 -0.32422,2.25782 0.0742,4.75 1.21094,7.61719 3.02734,7.61719 9.22266,13.54297 16.57812,15.85547 2.28907,0.71875 4.64844,1.07031 6.98438,1.07031 5.75781,0 11.375,-2.11718 15.41406,-6.03906 6.00391,-5.82422 7.76563,-15.28125 4.19141,-22.48828 -0.4961,-0.99609 -1.70703,-1.40625 -2.70703,-0.91016 z m 0,0"
       style="fill:#000000;fill-opacity:1;fill-rule:nonzero;stroke:none;stroke-width:146.133"
       id="path106" />
    <path
       d="m 339.5625,193.79297 c 2.8125,2.32422 6.60547,2.73828 9.37891,3.03906 l 18.99218,2.07422 c 1.125,0.125 2.26563,0.22656 3.39453,0.22656 2.19532,0 4.33204,-0.38672 6.17188,-1.75 3.00391,-2.22656 4.18359,-6.5039 3.23437,-11.73437 -0.14453,-0.79688 -0.32031,-1.59766 -0.49609,-2.39844 -0.5625,-2.57422 -1.09375,-5.00391 -0.55078,-7.21875 0.26953,-1.08203 -0.39453,-2.17578 -1.47656,-2.44531 -1.08594,-0.26563 -2.17578,0.39453 -2.44532,1.48047 -0.76953,3.125 -0.10937,6.13671 0.52735,9.04687 0.16406,0.75391 0.33203,1.50781 0.46875,2.25781 0.3125,1.73047 0.78125,5.95313 -1.66797,7.76563 -1.61328,1.19922 -4.10156,1.03906 -6.72266,0.7539 L 359.05859,193.875 358.75,180.21484 c -0.0273,-1.09765 -0.92578,-1.97265 -2.01953,-1.97265 -0.0156,0 -0.0312,0 -0.0469,0 -1.11328,0.0273 -2,0.95312 -1.97265,2.0664 l 0.29687,13.125 -5.6289,-0.61718 c -2.39063,-0.25782 -5.36329,-0.58204 -7.24219,-2.13672 -1.5586,-1.28907 -2.4961,-3.53516 -2.57422,-6.17188 -0.0742,-2.59765 0.62109,-5.29297 1.29687,-7.89844 0.28125,-1.07812 -0.36718,-2.17968 -1.44921,-2.46093 -1.07813,-0.28125 -2.17969,0.36718 -2.46094,1.44922 -0.71094,2.74218 -1.51953,5.85546 -1.42188,9.03125 0.10938,3.79687 1.58203,7.13671 4.03516,9.16406 z m 0,0"
       style="fill:#000000;fill-opacity:1;fill-rule:nonzero;stroke:none;stroke-width:146.133"
       id="path108" />
    <path
       d="m 477.21094,271.28906 -53.32422,3.9336 c -0.91016,0.0664 -1.66016,0.73828 -1.83203,1.63671 -0.17188,0.89844 0.28125,1.80079 1.10547,2.19532 l 26.62109,12.85937 -22.51953,9.69922 c -0.84766,0.36719 -1.33985,1.25781 -1.19141,2.17188 0.14453,0.91406 0.89063,1.60937 1.8125,1.69531 l 45.52735,4.12109 c 0.0625,0.004 0.12109,0.008 0.18359,0.008 1.03125,0 1.91406,-0.78906 2.00781,-1.83984 0.10156,-1.10937 -0.71875,-2.09375 -1.82812,-2.19141 l -37.60157,-3.40234 19.26954,-8.30469 c 0.72656,-0.3125 1.20312,-1.01953 1.21875,-1.80859 0.0156,-0.79297 -0.42969,-1.51953 -1.14063,-1.86328 l -23.81641,-11.50391 45.8086,-3.38281 c 1.10937,-0.082 1.94531,-1.04688 1.86328,-2.16016 -0.082,-1.11328 -1.04688,-1.95312 -2.16406,-1.86328 z m 0,0"
       style="fill:#000000;fill-opacity:1;fill-rule:nonzero;stroke:none;stroke-width:146.133"
       id="path110" />
    <path
       d="m 423.23437,254.82422 50.71485,7.4414 c 0.10156,0.0156 0.19922,0.0234 0.29687,0.0234 0.98438,0 1.84766,-0.72265 1.9961,-1.72656 0.16015,-1.10547 -0.60157,-2.12891 -1.70703,-2.29297 l -17.35547,-2.54687 -1.60547,-15.56641 c 5.01562,-1.67969 10.12109,-3.11328 15.3125,-4.27344 1.08984,-0.24219 1.77734,-1.32422 1.53125,-2.41015 -0.24219,-1.08985 -1.32031,-1.77344 -2.41016,-1.53125 -16.8164,3.7539 -32.80859,10.20312 -47.52734,19.16015 -0.72656,0.44141 -1.10156,1.29297 -0.92969,2.12891 0.16797,0.83203 0.83984,1.47265 1.68359,1.59375 z m 28.42188,-13.28516 1.40234,13.57813 -23.53125,-3.45313 c 7.10938,-3.97265 14.50782,-7.33594 22.12891,-10.125 z m 0,0"
       style="fill:#000000;fill-opacity:1;fill-rule:nonzero;stroke:none;stroke-width:146.133"
       id="path112" />
    <path
       d="m 435.80469,205.15234 -0.043,-11.59375 c -0.004,-1.10937 -0.91016,-2.01172 -2.01953,-2.01172 -0.004,0 -0.008,0 -0.008,0 -1.11718,0.004 -2.01953,0.91407 -2.01562,2.02735 l 0.14844,37.69531 c 0.004,1.11328 0.90625,2.01172 2.01953,2.01172 0,0 0.004,0 0.008,0 1.11328,-0.004 2.01563,-0.91016 2.01172,-2.02734 l -0.0859,-22.05469 37.01563,2.19531 c 0.043,0.004 0.082,0.004 0.125,0.004 1.05859,0 1.94922,-0.82422 2.01172,-1.89844 0.0664,-1.11328 -0.78125,-2.07031 -1.89454,-2.13672 z m 0,0"
       style="fill:#000000;fill-opacity:1;fill-rule:nonzero;stroke:none;stroke-width:146.133"
       id="path114" />
    <path
       d="m 432.46484,182.38672 c 13.12891,1.89062 26.51172,3.08594 39.76953,3.54687 0.0234,0 0.0469,0 0.0703,0 1.08203,0 1.98047,-0.85937 2.01953,-1.94922 0.0391,-1.11328 -0.83203,-2.04687 -1.94922,-2.08984 -5.39453,-0.1875 -10.80859,-0.50391 -16.22266,-0.9375 l 1.05469,-20.85156 c 0.0156,-0.3086 -0.0469,-0.60547 -0.16016,-0.875 l 13.64844,2.45312 c 0.1211,0.0195 0.23828,0.0312 0.35547,0.0312 0.96094,0 1.8125,-0.68359 1.98828,-1.66406 0.19531,-1.09766 -0.53515,-2.14844 -1.63281,-2.34375 l -36.94922,-6.63672 c -1.09766,-0.20312 -2.14844,0.53125 -2.34375,1.62891 -0.19922,1.09765 0.53125,2.14844 1.62891,2.34375 l 19.96875,3.58984 c -0.3125,0.33594 -0.51563,0.77735 -0.53907,1.26953 l -1.04687,20.71875 c -6.39063,-0.58203 -12.76563,-1.32422 -19.08203,-2.23437 -1.10547,-0.15625 -2.12891,0.60547 -2.28906,1.71094 -0.15625,1.10546 0.60937,2.1289 1.71093,2.28906 z m 0,0"
       style="fill:#000000;fill-opacity:1;fill-rule:nonzero;stroke:none;stroke-width:146.133"
       id="path116" />
    <path
       d="m 279.78125,322.68359 c -0.0664,-1.11328 -1.02734,-1.96484 -2.13672,-1.89453 -1.11328,0.0625 -1.96484,1.01953 -1.89844,2.13281 l 0.89844,15.21875 c 0.0312,0.51172 0.10938,1.88282 -0.26953,2.24219 -0.37109,0.35547 -1.72266,0.21485 -2.23047,0.16016 l -34.39844,-3.56641 c -1.11718,-0.1289 -2.10156,0.6875 -2.21484,1.80078 -0.11719,1.10938 0.6875,2.10157 1.79687,2.21485 l 34.39844,3.57031 c 0.41797,0.043 0.95313,0.0977 1.54688,0.0977 1.23828,0 2.72265,-0.24219 3.88672,-1.34766 1.73828,-1.65234 1.59375,-4.09766 1.51562,-5.41016 z m 0,0"
       style="fill:#000000;fill-opacity:1;fill-rule:nonzero;stroke:none;stroke-width:146.133"
       id="path118" />
    <path
       d="m 278.36328,318.76953 c 0.0117,0 0.0234,0 0.0352,0 1.09765,0 2,-0.88281 2.01953,-1.98437 0.0195,-1.11719 -0.86719,-2.03516 -1.98438,-2.05469 l -33.79687,-0.59766 c -1.125,0.0117 -2.03516,0.86719 -2.05469,1.98438 -0.0195,1.11328 0.87109,2.03515 1.98438,2.05468 z m 0,0"
       style="fill:#000000;fill-opacity:1;fill-rule:nonzero;stroke:none;stroke-width:146.133"
       id="path120" />
    <path
       d="m 281.31641,297.78125 c -11.91016,-0.66016 -24.01563,-1.23828 -35.97657,-1.71875 -0.0703,0 -0.13672,0.0117 -0.20703,0.0156 l -0.30469,-7.73437 c -0.043,-1.11328 -0.98437,-1.96875 -2.09765,-1.9375 -1.11328,0.043 -1.98047,0.98437 -1.9375,2.09766 l 0.72656,18.39062 c 0.043,1.08594 0.9375,1.9375 2.01953,1.9375 0.0273,0 0.0508,0 0.0781,0 1.11718,-0.043 1.98437,-0.98437 1.9375,-2.09766 l -0.26172,-6.6289 c 11.90625,0.47656 23.94922,1.05469 35.80078,1.71094 0.0352,0 0.0742,0 0.11328,0 1.0625,0 1.95313,-0.83204 2.01172,-1.90625 0.0625,-1.11329 -0.78906,-2.06641 -1.90234,-2.12891 z m 0,0"
       style="fill:#000000;fill-opacity:1;fill-rule:nonzero;stroke:none;stroke-width:146.133"
       id="path122" />
    <path
       d="m 281.32812,264.96484 c -1.10156,-0.0508 -2.0664,0.79297 -2.125,1.90625 l -0.84375,15.4336 -11.27734,-0.22657 -0.82422,-12.1914 c -0.0742,-1.11328 -1.03515,-1.97656 -2.14844,-1.87891 -1.11328,0.0742 -1.95703,1.03516 -1.8789,2.14844 l 0.79687,11.83984 -10.4375,-0.21093 c -1.17187,-0.0234 -2.26562,-0.0859 -2.8164,-0.55079 -0.69141,-0.58203 -0.79297,-2.03515 -0.80078,-3.52343 l -0.0586,-11.9961 c -0.004,-1.10937 -0.91015,-2.00781 -2.01953,-2.00781 -0.004,0 -0.008,0 -0.0117,0 -1.11328,0.004 -2.01172,0.91406 -2.00781,2.02734 l 0.0586,11.9961 c 0.008,1.65234 0.0234,4.72656 2.23828,6.59375 1.6875,1.42187 3.88282,1.46875 5.33594,1.5 l 27.72266,0.55859 c 0.0117,0 0.0273,0 0.0391,0 1.07031,0 1.95703,-0.83594 2.01563,-1.90625 l 0.95312,-17.38281 c 0.0586,-1.11719 -0.79297,-2.06641 -1.91016,-2.12891 z m 0,0"
       style="fill:#000000;fill-opacity:1;fill-rule:nonzero;stroke:none;stroke-width:146.133"
       id="path124" />
    <path
       d="m 244.75781,257.98437 c 1.59766,1.29688 3.4961,1.58985 5.41797,1.58985 0.57422,0 1.14844,-0.0234 1.71875,-0.0586 l 28.98047,-1.73828 c 1.11328,-0.0664 1.96484,-1.02343 1.89844,-2.13672 -0.0664,-1.11328 -1.03516,-1.95703 -2.13672,-1.89453 l -12.39844,0.74219 c 3.87109,-4.88281 8.35938,-9.22266 13.38281,-12.9375 0.89844,-0.66406 1.08594,-1.92969 0.42188,-2.82422 -0.66016,-0.89844 -1.92578,-1.08594 -2.82422,-0.42578 -4.69531,3.47266 -8.95313,7.46875 -12.70313,11.91406 -0.15625,-1.69922 -0.45703,-3.4414 -0.99218,-5.16015 -1.30469,-4.17969 -3.83985,-7.46094 -7.13282,-9.24219 -3.95703,-2.13672 -8.91015,-1.75781 -12.03906,0.92578 -3.66797,3.14453 -4.125,8.21484 -4.26953,12.72266 -0.0703,2.16406 -0.19531,6.1914 2.67578,8.52343 z m 1.36328,-8.39453 c 0.11719,-3.8164 0.4375,-7.71093 2.85938,-9.78515 1.02734,-0.88282 2.44922,-1.33203 3.93359,-1.33203 1.20313,0 2.44531,0.29687 3.55469,0.89453 2.32812,1.25781 4.22266,3.76953 5.19531,6.89062 0.88281,2.82422 1.00391,5.85547 0.94141,8.57031 l -10.95313,0.65625 c -1.75,0.10547 -3.40234,0.13282 -4.35156,-0.63281 -1.15625,-0.9414 -1.25,-3.08594 -1.17969,-5.26172 z m 0,0"
       style="fill:#000000;fill-opacity:1;fill-rule:nonzero;stroke:none;stroke-width:146.133"
       id="path126" />
    <path
       d="M 283.70312,230.44141 271.58594,225.5 l 0.54687,-13.88281 c 0.004,-0.0859 -0.008,-0.16797 -0.0117,-0.25 l 10.02735,-2.9336 c 1.07031,-0.3164 1.68359,-1.4375 1.37109,-2.50781 -0.3125,-1.07031 -1.4375,-1.6875 -2.50391,-1.37109 l -36.05468,10.55859 c -0.82422,0.24219 -1.40235,0.97656 -1.44922,1.83203 -0.043,0.85938 0.46094,1.65235 1.25781,1.97266 l 37.40625,15.26172 c 0.25,0.10547 0.51172,0.15234 0.76563,0.15234 0.79296,0 1.55078,-0.47266 1.87109,-1.25781 0.41797,-1.03125 -0.0742,-2.21094 -1.10938,-2.63281 z m -15.64843,-17.88282 -0.44922,11.31641 -15.96094,-6.51172 z m 0,0"
       style="fill:#000000;fill-opacity:1;fill-rule:nonzero;stroke:none;stroke-width:146.133"
       id="path128" />
    <path
       d="m 286.69531,190.59375 -37.09375,-4.58594 1.07813,-10.89062 c 0.10937,-1.10938 -0.70313,-2.09766 -1.8125,-2.20703 -1.10547,-0.11329 -2.09766,0.69921 -2.20703,1.8125 l -2.95313,29.87109 c -0.10937,1.10937 0.69922,2.09766 1.8125,2.20703 0.0664,0.008 0.13281,0.008 0.19922,0.008 1.02734,0 1.90234,-0.77734 2.00781,-1.82031 l 1.47656,-14.96094 36.9961,4.57422 c 0.082,0.0117 0.16797,0.0156 0.25,0.0156 1.0039,0 1.875,-0.75 2.0039,-1.76953 0.13672,-1.10938 -0.64843,-2.11719 -1.75781,-2.25391 z m 0,0"
       style="fill:#000000;fill-opacity:1;fill-rule:nonzero;stroke:none;stroke-width:146.133"
       id="path130" />
    <path
       d="m 289.23437,164.0625 c -2.30468,-1.84375 -5.07421,-2.74219 -7.48828,-3.44141 -7.90625,-2.29297 -16.08593,-3.57031 -24.3164,-3.80468 -1.09766,-0.0273 -2.04297,0.84765 -2.07422,1.96093 -0.0312,1.11719 0.84765,2.04688 1.96094,2.07813 7.88671,0.22265 15.73046,1.44922 23.30859,3.64453 2.03906,0.58984 4.35937,1.33594 6.08203,2.71484 1.59766,1.28125 2.5,3.11328 2.30078,4.67188 -0.17969,1.38672 -1.25781,2.79687 -2.8164,3.68359 -1.71485,0.96875 -3.8086,1.31641 -5.62891,1.52735 -7.74219,0.89062 -15.64844,-0.20313 -22.85938,-3.16407 -1.03125,-0.41797 -2.21093,0.0742 -2.63671,1.10157 -0.42188,1.03515 0.0703,2.21093 1.10156,2.63671 6.07031,2.48829 12.58984,3.76563 19.1289,3.76563 1.91016,0 3.82422,-0.10938 5.72657,-0.32813 2.22265,-0.25781 4.8125,-0.69921 7.16015,-2.02734 2.6836,-1.52344 4.48828,-4.02344 4.82813,-6.68359 0.38281,-2.96875 -1.06641,-6.16016 -3.77735,-8.33594 z m 0,0"
       style="fill:#000000;fill-opacity:1;fill-rule:nonzero;stroke:none;stroke-width:146.133"
       id="path132" />
    <path
       d="m 291,129.27734 -17.79297,17.98828 c -0.22656,-3.85937 -0.92187,-7.67968 -2.93359,-11.05468 -3.04688,-5.1211 -10.07032,-8.57422 -15.66407,-5.54688 -4.53515,2.45313 -6.01171,7.67188 -7.03906,12.3711 -0.35937,1.6289 -1.44531,6.59375 2.09375,8.9414 1.36719,0.90625 2.92969,1.00781 4.07031,1.08203 l 36.45313,2.3711 c 0.0469,0.004 0.0898,0.004 0.13281,0.004 1.05469,0 1.94531,-0.82031 2.01172,-1.88672 0.0742,-1.11328 -0.76953,-2.07421 -1.88281,-2.14843 l -14.70313,-0.95703 18.125,-18.32422 c 0.78516,-0.79297 0.77735,-2.07032 -0.0156,-2.85547 -0.79297,-0.78516 -2.07031,-0.77735 -2.85547,0.0156 z m -37.00391,19.75 c -0.76172,-0.0508 -1.6289,-0.10547 -2.09765,-0.41797 -0.8086,-0.53515 -0.94141,-2.16406 -0.38282,-4.71093 0.83985,-3.82422 1.98438,-8.04297 5.01563,-9.67969 0.82812,-0.44922 1.72656,-0.65234 2.64453,-0.65234 2.94531,0 6.0625,2.08593 7.62891,4.71093 1.99218,3.34766 2.39843,7.55078 2.45703,11.74219 z m 0,0"
       style="fill:#000000;fill-opacity:1;fill-rule:nonzero;stroke:none;stroke-width:146.133"
       id="path134" />
    <path
       d="m 255.60547,123.42188 c 0.0273,0 0.0586,-0.004 0.0859,-0.004 l 29.33203,-1.27734 c 1.52343,-0.0664 4.35937,-0.19141 5.98437,-2.37891 1.24219,-1.66797 1.11719,-3.69141 1.03906,-5.03125 l -0.72265,-12 c -0.0664,-1.11328 -1.03516,-1.98438 -2.13672,-1.89453 -1.11719,0.0664 -1.96484,1.02344 -1.89844,2.13672 l 0.72266,12 c 0.0469,0.7539 0.11719,1.89453 -0.2461,2.38281 -0.47656,0.64453 -2.125,0.71484 -2.91796,0.75 l -11.13672,0.48437 -0.16016,-15.33203 c -0.0117,-1.11328 -0.9375,-1.97265 -2.03906,-1.99609 -1.11328,0.0117 -2.01172,0.92187 -2,2.03906 l 0.16015,15.46485 -12.01562,0.52343 0.28906,-19.410154 c 0.0156,-1.113281 -0.875,-2.03125 -1.99219,-2.050781 -0.008,0 -0.0195,0 -0.0312,0 -1.10156,0 -2,0.886719 -2.01562,1.992187 L 253.58204,121.371 c -0.008,0.55469 0.21484,1.09375 0.61328,1.48047 0.37891,0.36328 0.88672,0.57032 1.41016,0.57032 z m 0,0"
       style="fill:#000000;fill-opacity:1;fill-rule:nonzero;stroke:none;stroke-width:146.133"
       id="path136" />
    <path
       d="m 37.277344,413.13281 c -5.917969,-0.60937 -11.570313,5.19922 -12.925782,10.82422 -1.421874,5.875 1.226563,12.48438 6.296876,15.71094 2.296874,1.46094 4.980468,2.17969 7.664062,2.17969 3.332031,0 6.660156,-1.10938 9.230469,-3.27735 4.636719,-3.91406 6.257812,-11.00781 3.769531,-16.50781 -2.617188,-5.77344 -9.195312,-8.42188 -14.035156,-8.92969 z m 7.664062,22.35156 c -3.273437,2.76172 -8.484375,3.09766 -12.121094,0.77735 -3.660156,-2.32813 -5.570312,-7.10547 -4.542968,-11.35547 0.886718,-3.66797 4.625,-7.78125 8.121094,-7.78125 0.152343,0 0.304687,0.008 0.457031,0.0234 4.074219,0.42968 8.988281,2.63281 10.777343,6.58203 1.769532,3.91015 0.613282,8.96484 -2.691406,11.7539 z m 0,0"
       style="fill:#000000;fill-opacity:1;fill-rule:nonzero;stroke:none;stroke-width:146.133"
       id="path138" />
    <path
       d="m 454.79687,89.433594 c 0.58594,0.03125 1.16797,0.04687 1.75,0.04687 7.1875,0 14.11329,-2.390625 19.23047,-6.679688 5.61328,-4.707031 8.84766,-12.191406 8.65235,-20.019531 -0.19141,-7.824219 -3.65625,-14.851562 -9.50782,-19.285156 -11.30859,-8.5625 -30.00781,-0.25 -37.41406,9.007812 -5.99609,7.496094 -7.53125,17.085938 -3.90625,24.425782 3.55078,7.195312 11.67188,11.988281 21.19531,12.503906 z m -14.13671,-34.40625 c 4.57031,-5.714844 14.41015,-11.015625 22.89843,-11.015625 3.3086,0 6.41407,0.804687 8.92578,2.707031 4.86329,3.683594 7.7461,9.574219 7.91016,16.160156 0.16406,6.613282 -2.53125,12.902344 -7.21094,16.824219 -4.75781,3.988281 -11.38672,6.054687 -18.16797,5.695313 -7.94531,-0.429688 -14.92968,-4.457032 -17.79296,-10.253907 -3.56641,-7.21875 -0.375,-15.347656 3.4375,-20.117187 z m 0,0"
       style="fill:#000000;fill-opacity:1;fill-rule:nonzero;stroke:none;stroke-width:146.133"
       id="path140" />
  </g>
</svg>
