<svg xmlns="http://www.w3.org/2000/svg" height="512pt" version="1.1" viewBox="-79 0 512 512.00002" width="512pt">
<g id="surface1">
<path d="M 350.886719 178.203125 L 349.828125 177.359375 C 346.265625 174.503906 339.933594 173.488281 335.195312 173.488281 C 332.035156 173.488281 327.453125 173.90625 323.585938 175.890625 C 316.8125 179.367188 312.46875 187.101562 313.023438 194.703125 C 313.144531 196.296875 313.421875 197.90625 313.742188 199.679688 C 314.621094 204.691406 315.453125 209.425781 312.269531 213.035156 C 310.429688 215.113281 307.550781 216.214844 303.945312 216.214844 C 303.09375 216.214844 302.195312 216.152344 301.273438 216.027344 C 299.914062 215.84375 298.539062 215.546875 297.207031 215.253906 L 296.855469 215.179688 C 294.671875 214.703125 292.414062 214.214844 290.105469 214.199219 C 281.457031 214.199219 274.507812 221.390625 271.710938 228.070312 C 268.371094 236.027344 268.703125 244.921875 269.472656 252.570312 C 269.664062 254.480469 269.886719 256.390625 270.117188 258.292969 C 270.867188 264.632812 271.644531 271.183594 271.097656 277.695312 C 270.535156 284.308594 267.734375 288.9375 263.578125 290.085938 C 262.90625 290.273438 262.203125 290.371094 261.496094 290.371094 C 256.640625 290.371094 252.34375 285.890625 250.277344 283.734375 C 240.550781 273.601562 229.523438 262.121094 223.78125 248.09375 C 217.398438 232.496094 219.28125 215.828125 228.570312 205.632812 C 235.921875 197.578125 247.746094 193.277344 263.785156 192.847656 C 266.585938 192.765625 270.070312 192.667969 271.878906 190.410156 C 273.285156 188.6875 273.273438 185.78125 271.851562 183.648438 C 270.617188 181.792969 268.480469 180.410156 265.660156 179.644531 C 263.96875 179.191406 262.160156 178.96875 260.125 178.96875 C 257.074219 178.96875 254.03125 179.457031 250.820312 179.972656 L 250.28125 180.050781 C 247.5 180.496094 244.53125 180.910156 241.683594 180.910156 C 238.949219 180.910156 236.585938 180.535156 234.453125 179.761719 C 229.535156 177.984375 224.953125 172.65625 226.128906 167.144531 C 227.097656 162.570312 231.164062 159.984375 235.164062 157.445312 C 238.496094 155.320312 241.941406 153.121094 243.464844 149.730469 C 246.449219 143.160156 241.066406 135.882812 235.5625 131.648438 C 234.464844 130.800781 233.359375 130.011719 232.1875 129.175781 L 231.855469 128.9375 C 227.214844 125.636719 221.957031 121.898438 219.757812 116.300781 C 217.023438 109.371094 219.746094 100.445312 226.375 94.605469 C 232.664062 89.074219 241.234375 86.742188 248 85.328125 C 257.851562 83.257812 268.015625 82.210938 278.203125 82.210938 C 287.464844 82.210938 296.765625 83.078125 305.847656 84.792969 L 314.8125 86.480469 L 308.601562 79.800781 C 295.992188 66.238281 281.429688 55.085938 265.316406 46.65625 C 260.929688 44.355469 256.359375 42.238281 251.742188 40.363281 L 247.730469 38.734375 L 247.613281 43.0625 C 247.550781 45.558594 246.695312 48.105469 245.207031 50.242188 C 242.933594 53.527344 239.464844 55.609375 235.941406 55.816406 C 235.675781 55.832031 235.414062 55.839844 235.152344 55.839844 C 233.941406 55.839844 232.6875 55.699219 231.585938 55.582031 C 230.425781 55.453125 229.109375 55.308594 227.824219 55.308594 C 226.804688 55.308594 225.898438 55.394531 225.027344 55.582031 C 222.390625 56.164062 220.226562 57.652344 218.144531 59.085938 C 216.804688 59.996094 215.421875 60.941406 213.949219 61.613281 C 212.363281 62.335938 210.613281 62.703125 208.761719 62.703125 C 205.039062 62.703125 201.285156 61.175781 198.722656 58.621094 L 195.757812 55.660156 L 193.910156 59.421875 C 191.851562 63.628906 187.289062 66.5625 182.832031 66.566406 L 182.710938 66.554688 L 182.59375 66.554688 C 177.726562 66.445312 172.980469 62.914062 171.304688 58.15625 L 170.058594 54.621094 L 166.882812 56.609375 C 162.988281 59.050781 158.355469 61.601562 153.511719 62.046875 C 153.117188 62.082031 152.714844 62.097656 152.308594 62.097656 C 147.355469 62.097656 141.761719 59.414062 140.65625 54.277344 C 140.207031 52.214844 140.605469 49.847656 141.773438 47.613281 L 146.074219 39.386719 L 137.773438 43.539062 C 94.449219 65.199219 61.300781 113.109375 51.261719 168.570312 C 46.683594 193.933594 47.453125 219.175781 53.496094 241.5625 C 60.09375 266.019531 72.523438 286.390625 90.445312 302.109375 C 103.527344 313.570312 118.132812 322.898438 133.855469 329.828125 L 137.125 331.269531 L 137.976562 327.796875 C 138.648438 325.058594 140.410156 322.527344 142.941406 320.667969 C 145.246094 318.976562 147.945312 318.042969 150.546875 318.042969 C 151.753906 318.042969 152.925781 318.238281 154.015625 318.628906 C 156.367188 319.46875 158.53125 321.039062 160.625 322.5625 C 163.820312 324.875 167.125 327.265625 171.183594 327.265625 L 171.472656 327.261719 C 174.636719 327.171875 177.390625 325.585938 180.113281 324.023438 C 182.628906 322.570312 185.230469 321.070312 187.996094 321.070312 L 188.160156 321.070312 C 190.675781 321.132812 192.933594 322.425781 195.363281 323.816406 C 197.527344 325.058594 199.761719 326.34375 202.316406 326.734375 C 202.882812 326.824219 203.464844 326.867188 204.046875 326.867188 C 208.304688 326.867188 212.132812 324.519531 215.855469 322.238281 L 216.03125 322.128906 C 217.234375 321.390625 218.476562 320.625 219.691406 319.984375 C 223.582031 317.921875 228.089844 316.832031 232.730469 316.832031 C 242.121094 316.832031 251.242188 321.261719 256.523438 328.390625 L 257.976562 330.347656 L 260.191406 329.324219 C 295.105469 313.203125 322.789062 285.007812 338.144531 249.933594 C 347.6875 228.105469 352.117188 203.769531 350.949219 179.558594 Z M 194.632812 152.746094 C 191.066406 163.40625 181.882812 174.445312 169.414062 175.09375 C 168.988281 175.117188 168.566406 175.125 168.148438 175.125 C 166.046875 175.125 163.921875 174.871094 162.046875 174.652344 C 160.085938 174.417969 158.0625 174.179688 156.085938 174.179688 C 155.125 174.179688 154.25 174.234375 153.417969 174.34375 C 150.25 174.757812 147.042969 176.722656 145.4375 179.238281 C 144.6875 180.410156 143.945312 182.25 144.628906 184.308594 C 145.433594 186.894531 147.777344 188.40625 150.285156 190.023438 C 151.894531 191.058594 153.722656 192.230469 155.039062 193.773438 C 158.707031 198.039062 158.5625 204.839844 154.617188 213.4375 L 154.273438 214.1875 C 151.621094 219.957031 148.613281 226.492188 150.914062 232.304688 C 153.328125 238.386719 160.449219 240.976562 166.71875 243.253906 L 167.78125 243.648438 C 177.082031 247.054688 182.304688 252.464844 182.105469 258.492188 C 182.042969 260.507812 181.382812 262.375 180.746094 264.183594 L 166.347656 305.113281 C 166.273438 305.328125 166.070312 305.46875 165.800781 305.46875 C 165.800781 305.46875 165.800781 305.46875 165.796875 305.46875 C 152.597656 304.445312 141.765625 297.050781 135 291.03125 C 126.367188 283.332031 119.535156 273.882812 112.925781 264.742188 L 92.429688 236.417969 C 91.144531 234.632812 89.199219 231.933594 89.582031 229.019531 C 89.988281 225.839844 92.894531 223.726562 94.824219 222.320312 L 125.308594 200.0625 L 124.117188 197.773438 C 120.777344 191.359375 112.933594 188.511719 108.566406 187.386719 C 106.414062 186.824219 104.304688 186.398438 101.6875 185.886719 C 96.523438 184.867188 91.183594 183.8125 86.519531 181.175781 C 82.296875 178.792969 78.9375 174.582031 77.75 170.179688 C 76.886719 167 77.21875 163.964844 78.71875 161.394531 C 80.503906 158.320312 83.570312 156.453125 86.527344 154.65625 C 87.265625 154.210938 87.992188 153.761719 88.710938 153.296875 C 91.285156 151.609375 95.53125 148.109375 95.003906 143.648438 C 94.640625 140.558594 92.210938 138.445312 89.601562 136.171875 C 87.5 134.351562 85.328125 132.472656 84.203125 129.945312 C 82.101562 125.242188 84.355469 119.890625 87.515625 116.683594 C 90.929688 113.242188 95.558594 111.34375 99.652344 109.664062 L 126.027344 98.78125 C 128.117188 97.925781 130.242188 96.886719 132.496094 95.792969 L 132.632812 95.726562 C 137.464844 93.371094 142.464844 90.9375 147.371094 90.097656 C 148.816406 89.847656 150.332031 89.722656 151.875 89.722656 C 165.148438 89.722656 179.410156 98.84375 186.636719 107.855469 C 196.5 120.164062 199.636719 137.785156 194.632812 152.746094 Z M 216.683594 193.75 C 214.832031 197.039062 211.113281 199.25 207.425781 199.25 C 207.078125 199.25 206.757812 199.234375 206.453125 199.199219 C 202.398438 198.753906 198.816406 195.351562 198.300781 191.460938 C 197.730469 187.085938 201.332031 183.34375 205.15625 181.570312 C 206.886719 180.773438 208.585938 180.367188 210.214844 180.367188 C 212.496094 180.367188 214.445312 181.183594 215.84375 182.722656 C 218.316406 185.457031 218.675781 190.195312 216.683594 193.75 Z M 212.371094 165.140625 C 211.15625 166.105469 209.527344 167.253906 207.722656 167.550781 C 207.476562 167.589844 207.203125 167.609375 206.90625 167.609375 C 205.503906 167.609375 204.203125 166.996094 203.59375 166.039062 C 203.261719 165.519531 203.097656 164.941406 203.097656 164.269531 C 203.097656 162.261719 204.5 160.007812 205.101562 159.035156 C 206.164062 157.3125 207.179688 155.410156 208.34375 153.203125 C 210.566406 149.035156 212.863281 144.722656 215.738281 141.804688 C 216.945312 140.578125 218.429688 139.875 219.808594 139.875 C 220.207031 139.875 220.59375 139.933594 220.960938 140.054688 C 222.972656 140.703125 223.585938 142.90625 223.769531 144.15625 C 224.070312 146.207031 223.488281 148.335938 223.023438 149.773438 C 221.085938 155.78125 217.308594 161.238281 212.371094 165.140625 Z M 306.21875 250.894531 C 303.949219 255.027344 299.128906 257.800781 294.226562 257.800781 C 293.261719 257.800781 292.300781 257.6875 291.363281 257.460938 C 285.804688 256.136719 281.285156 250.613281 281.074219 244.894531 C 280.871094 239.082031 284.886719 233.355469 290.414062 231.578125 C 291.773438 231.140625 293.164062 230.917969 294.546875 230.917969 C 298.46875 230.917969 302.074219 232.671875 304.703125 235.851562 C 308.320312 240.234375 308.902344 246.003906 306.21875 250.894531 Z M 306.21875 250.894531 " style=" stroke:none;fill-rule:nonzero;fill:rgb(35.686275%,81.568627%,98.823529%);fill-opacity:1;" />
<path d="M 135.5 330.5625 L 137.730469 331.476562 C 147.042969 335.292969 156.617188 338.21875 166.175781 340.179688 C 176.265625 342.246094 186.574219 343.296875 196.816406 343.292969 C 215.265625 343.292969 233.339844 339.964844 250.539062 333.402344 C 252.453125 332.671875 254.40625 331.878906 256.335938 331.046875 L 259.949219 329.488281 L 257.488281 326.414062 C 251.722656 319.222656 242.417969 314.929688 232.601562 314.929688 C 227.65625 314.929688 222.871094 316.078125 218.769531 318.253906 C 217.46875 318.945312 216.226562 319.710938 214.910156 320.519531 L 216.484375 323.074219 L 214.824219 320.574219 C 211.191406 322.804688 207.761719 324.910156 204.082031 324.910156 C 203.59375 324.910156 203.09375 324.871094 202.613281 324.796875 C 200.40625 324.449219 198.417969 323.3125 196.320312 322.109375 C 193.816406 320.667969 191.222656 319.179688 188.210938 319.113281 L 187.980469 319.109375 C 184.695312 319.109375 181.742188 320.816406 179.125 322.328125 C 176.546875 323.816406 174.109375 325.226562 171.414062 325.304688 L 171.152344 325.308594 C 167.761719 325.308594 164.863281 323.207031 161.777344 320.972656 C 159.566406 319.371094 157.277344 317.714844 154.671875 316.777344 C 153.367188 316.3125 151.980469 316.074219 150.546875 316.074219 C 147.535156 316.074219 144.425781 317.144531 141.777344 319.085938 C 138.605469 321.417969 136.523438 324.652344 135.910156 328.191406 Z M 135.5 330.5625 " style=" stroke:none;fill-rule:nonzero;fill:rgb(100%,100%,100%);fill-opacity:1;" />
<path d="M 152.339844 64.058594 C 152.792969 64.058594 153.242188 64.035156 153.691406 63.996094 C 159.460938 63.46875 164.542969 60.449219 169.078125 57.53125 C 170.539062 63.574219 176.28125 68.375 182.554688 68.519531 L 182.816406 68.523438 C 188.722656 68.519531 194.335938 64.335938 196.277344 58.832031 C 199.175781 62.425781 203.863281 64.65625 208.78125 64.65625 C 210.917969 64.65625 212.933594 64.230469 214.765625 63.394531 C 216.398438 62.65625 217.851562 61.660156 219.300781 60.664062 C 221.328125 59.285156 223.242188 57.980469 225.449219 57.492188 C 226.167969 57.339844 226.941406 57.265625 227.816406 57.265625 C 228.96875 57.265625 230.132812 57.390625 231.363281 57.523438 C 232.605469 57.660156 233.886719 57.800781 235.171875 57.800781 C 235.460938 57.800781 235.746094 57.792969 236.054688 57.777344 C 240.179688 57.53125 244.207031 55.136719 246.835938 51.355469 C 248.976562 48.25 249.921875 44.632812 249.492188 41.175781 L 249.269531 39.367188 L 247.5625 38.730469 C 231.308594 32.675781 214.542969 29.605469 197.738281 29.605469 C 181.132812 29.605469 164.785156 32.605469 149.085938 38.546875 L 148.769531 38.675781 L 148.535156 38.757812 L 148.316406 38.878906 C 146.3125 39.996094 144.675781 41.15625 143.304688 42.433594 C 140.410156 45.148438 137.691406 49.792969 138.734375 54.695312 C 140.0625 60.839844 146.585938 64.058594 152.339844 64.058594 Z M 152.339844 64.058594 " style=" stroke:none;fill-rule:nonzero;fill:rgb(100%,100%,100%);fill-opacity:1;" />
<path d="M 346.398438 148.601562 C 341.085938 127.375 330.738281 106.738281 316.46875 88.925781 L 315.84375 88.144531 L 314.875 87.894531 C 302.972656 84.824219 290.648438 83.269531 278.25 83.269531 C 268.132812 83.269531 258.027344 84.3125 248.222656 86.375 C 241.160156 87.855469 233.125 90.089844 227.082031 95.410156 C 221.933594 99.945312 217.757812 108.296875 220.753906 115.917969 C 222.828125 121.191406 227.726562 124.679688 232.472656 128.0625 L 232.730469 128.246094 C 233.886719 129.074219 235.085938 129.925781 236.207031 130.789062 C 242.023438 135.265625 247.671875 143.027344 244.453125 150.167969 C 242.78125 153.867188 239.179688 156.15625 235.691406 158.378906 C 231.765625 160.867188 228.058594 163.21875 227.171875 167.371094 C 226.125 172.308594 230.328125 177.128906 234.828125 178.761719 C 236.839844 179.492188 239.082031 179.84375 241.675781 179.84375 C 244.542969 179.84375 247.53125 179.40625 250.050781 179.003906 L 250.617188 178.921875 C 253.550781 178.449219 256.878906 177.910156 260.117188 177.910156 C 262.269531 177.910156 264.175781 178.140625 265.953125 178.621094 C 268.074219 179.1875 270.976562 180.414062 272.734375 183.039062 C 274.460938 185.617188 274.457031 188.914062 272.726562 191.0625 C 270.582031 193.734375 266.636719 193.84375 263.746094 193.921875 C 248.085938 194.335938 236.515625 198.519531 229.359375 206.359375 C 219.109375 217.59375 219.671875 235.210938 224.78125 247.6875 C 230.425781 261.476562 240.882812 272.386719 251.050781 282.996094 C 253.859375 285.925781 257.589844 289.285156 261.554688 289.285156 C 262.15625 289.285156 262.746094 289.207031 263.320312 289.050781 C 267.011719 288.027344 269.519531 283.746094 270.027344 277.605469 C 270.574219 271.234375 269.835938 265.011719 269.058594 258.417969 C 268.828125 256.507812 268.601562 254.585938 268.414062 252.671875 C 267.632812 244.890625 267.292969 235.835938 270.722656 227.660156 C 273.753906 220.429688 280.925781 213.128906 290.175781 213.128906 C 292.558594 213.148438 294.789062 213.636719 297.199219 214.164062 L 297.550781 214.238281 C 298.871094 214.523438 300.121094 214.792969 301.433594 214.972656 C 302.257812 215.085938 303.070312 215.140625 303.847656 215.140625 C 307.15625 215.140625 309.859375 214.140625 311.46875 212.320312 C 314.316406 209.089844 313.523438 204.609375 312.683594 199.867188 C 312.386719 198.191406 312.078125 196.457031 311.960938 194.78125 C 311.375 186.765625 315.957031 178.605469 323.105469 174.9375 C 326.152344 173.375 330.804688 172.441406 335.550781 172.441406 C 339.457031 172.441406 343.269531 173.070312 346.28125 174.214844 L 350.820312 175.9375 L 350.332031 171.109375 C 349.5625 163.503906 348.238281 155.929688 346.398438 148.601562 Z M 346.398438 148.601562 " style=" stroke:none;fill-rule:nonzero;fill:rgb(79.607843%,89.803922%,50.196078%);fill-opacity:1;" />
<path d="M 294.527344 228.949219 C 292.960938 228.949219 291.371094 229.207031 289.820312 229.714844 C 283.484375 231.746094 278.882812 238.300781 279.117188 244.960938 C 279.367188 251.632812 284.4375 257.824219 290.90625 259.367188 C 292.003906 259.632812 293.148438 259.765625 294.300781 259.765625 C 299.941406 259.765625 305.292969 256.65625 307.9375 251.839844 C 311.617188 245.132812 309.460938 238.535156 306.21875 234.597656 C 303.296875 231.0625 298.925781 228.949219 294.527344 228.949219 Z M 294.527344 228.949219 " style=" stroke:none;fill-rule:nonzero;fill:rgb(79.607843%,89.803922%,50.196078%);fill-opacity:1;" />
<path d="M 206.917969 169.570312 C 207.300781 169.570312 207.675781 169.539062 208.035156 169.480469 C 210.269531 169.113281 212.171875 167.796875 213.59375 166.679688 C 218.828125 162.527344 222.84375 156.734375 224.894531 150.367188 C 225.734375 147.746094 225.984375 145.738281 225.707031 143.867188 C 225.277344 140.976562 223.769531 138.90625 221.558594 138.183594 C 221.003906 138.003906 220.417969 137.914062 219.8125 137.914062 C 217.90625 137.914062 215.910156 138.828125 214.335938 140.425781 C 211.238281 143.582031 208.863281 148.050781 206.566406 152.371094 C 205.550781 154.285156 204.5 156.265625 203.421875 158.003906 C 201.75 160.714844 200.070312 164.203125 201.9375 167.089844 C 202.917969 168.644531 204.78125 169.570312 206.917969 169.570312 Z M 206.917969 169.570312 " style=" stroke:none;fill-rule:nonzero;fill:rgb(79.607843%,89.803922%,50.196078%);fill-opacity:1;" />
<path d="M 210.246094 178.421875 C 207.8125 178.421875 205.683594 179.171875 204.324219 179.800781 C 199.847656 181.878906 195.648438 186.371094 196.363281 191.71875 C 196.992188 196.542969 201.238281 200.597656 206.242188 201.152344 C 206.644531 201.195312 207.050781 201.21875 207.457031 201.21875 C 211.882812 201.21875 216.179688 198.664062 218.394531 194.707031 C 220.824219 190.371094 220.359375 184.777344 217.296875 181.410156 C 215.53125 179.453125 213.09375 178.421875 210.246094 178.421875 Z M 210.246094 178.421875 " style=" stroke:none;fill-rule:nonzero;fill:rgb(79.607843%,89.803922%,50.196078%);fill-opacity:1;" />
<path d="M 151.90625 90.789062 C 150.390625 90.789062 148.925781 90.914062 147.558594 91.152344 C 142.828125 91.964844 137.890625 94.363281 133.09375 96.691406 C 131.007812 97.707031 128.648438 98.855469 126.433594 99.765625 L 99.996094 110.671875 C 95.816406 112.398438 91.496094 114.183594 88.285156 117.4375 C 85.46875 120.285156 83.292969 125.273438 85.179688 129.515625 C 86.214844 131.835938 88.292969 133.632812 90.304688 135.367188 C 93.054688 137.753906 95.652344 140.003906 96.070312 143.519531 C 96.507812 147.265625 94.101562 151.058594 89.296875 154.195312 C 88.582031 154.65625 87.851562 155.109375 87.109375 155.558594 C 84.25 157.300781 81.300781 159.097656 79.648438 161.929688 C 78.296875 164.246094 77.996094 167.003906 78.785156 169.910156 C 79.914062 174.046875 83.082031 178.011719 87.058594 180.257812 C 91.582031 182.804688 96.617188 183.800781 101.992188 184.867188 C 104.449219 185.347656 106.660156 185.789062 108.835938 186.34375 C 118.21875 188.78125 124.558594 193.871094 126.222656 200.300781 C 126.277344 200.507812 126.195312 200.742188 126.019531 200.867188 L 95.453125 223.183594 C 93.195312 224.84375 90.964844 226.671875 90.644531 229.160156 C 90.34375 231.472656 91.734375 233.628906 93.320312 235.820312 L 113.828125 264.15625 C 120.402344 273.246094 127.203125 282.644531 135.714844 290.230469 C 141.710938 295.570312 151.3125 302.304688 163 304.078125 L 165.457031 304.449219 L 179.753906 263.792969 C 180.359375 262.066406 180.984375 260.28125 181.039062 258.460938 C 181.296875 250.640625 171.609375 246.195312 167.410156 244.640625 L 166.367188 244.261719 C 159.875 241.898438 152.515625 239.226562 149.929688 232.691406 C 147.457031 226.464844 150.5625 219.710938 153.304688 213.75 L 153.65625 212.996094 C 157.457031 204.683594 157.652344 198.453125 154.230469 194.472656 C 153.003906 193.042969 151.324219 191.960938 149.699219 190.914062 C 147.050781 189.210938 144.546875 187.605469 143.613281 184.65625 C 142.992188 182.660156 143.308594 180.59375 144.542969 178.664062 C 146.289062 175.90625 149.800781 173.742188 153.277344 173.28125 C 154.167969 173.160156 155.089844 173.105469 156.09375 173.105469 C 158.121094 173.105469 160.179688 173.351562 162.183594 173.589844 L 162.285156 173.601562 C 164.308594 173.835938 166.21875 174.054688 168.164062 174.054688 C 168.5625 174.054688 168.960938 174.046875 169.355469 174.023438 C 181.308594 173.402344 190.15625 162.722656 193.625 152.410156 C 198.519531 137.78125 195.449219 120.554688 185.800781 108.519531 C 178.730469 99.710938 164.820312 90.789062 151.90625 90.789062 Z M 151.90625 90.789062 " style=" stroke:none;fill-rule:nonzero;fill:rgb(79.607843%,89.803922%,50.196078%);fill-opacity:1;" />
<path d="M 114.824219 490.941406 C 113.035156 494.332031 111.613281 497.867188 110.59375 501.457031 L 109.523438 505.214844 L 277.21875 507.921875 L 277.679688 505.421875 C 278.617188 500.304688 278.535156 494.988281 277.4375 489.625 L 276.9375 487.195312 L 115.65625 489.363281 Z M 114.824219 490.941406 " style=" stroke:none;fill-rule:nonzero;fill:rgb(96.862745%,70.196078%,43.529412%);fill-opacity:1;" />
<path d="M 184.234375 463.578125 C 187.128906 465.011719 190.308594 465.734375 193.691406 465.734375 C 202.136719 465.734375 211.367188 460.96875 216.652344 453.871094 C 223.132812 445.175781 225.777344 432.601562 224.09375 418.464844 C 222.675781 406.585938 218.617188 394.898438 212.378906 384.714844 C 212.347656 384.660156 212.308594 384.578125 212.292969 384.421875 L 212.011719 381.417969 L 209.011719 381.714844 C 201.9375 382.417969 194.898438 382.769531 188.097656 382.769531 L 186.207031 382.769531 L 185.390625 384.472656 C 178.832031 398.148438 172.050781 412.285156 170.050781 427.699219 C 169.050781 435.480469 169.539062 442.367188 171.503906 448.160156 C 173.859375 455.128906 178.5 460.75 184.234375 463.578125 Z M 184.234375 463.578125 " style=" stroke:none;fill-rule:nonzero;fill:rgb(96.862745%,70.196078%,43.529412%);fill-opacity:1;" />
<path d="M 210.019531 358.710938 L 212.742188 358.335938 L 211.996094 343.621094 L 208.914062 343.871094 C 204.875 344.195312 200.804688 344.359375 196.816406 344.359375 C 194.578125 344.359375 192.230469 344.304688 189.84375 344.191406 L 186.714844 344.046875 L 186.667969 360.445312 L 189.753906 360.367188 C 196.515625 360.195312 203.332031 359.636719 210.019531 358.710938 Z M 210.019531 358.710938 " style=" stroke:none;fill-rule:nonzero;fill:rgb(96.862745%,70.196078%,43.529412%);fill-opacity:1;" />
<path d="M 102.746094 67.269531 C 106.652344 63.511719 110.8125 59.917969 115.105469 56.59375 L 117.273438 54.910156 L 115.792969 52.601562 C 115.722656 52.488281 115.703125 52.4375 115.695312 52.410156 C 114.804688 49.492188 112.824219 46.800781 110.269531 45.027344 L 108.269531 43.636719 L 106.5 45.308594 C 102.914062 48.691406 99.238281 52.527344 94.589844 57.742188 L 92.992188 59.535156 L 100.246094 69.679688 Z M 102.746094 67.269531 " style=" stroke:none;fill-rule:nonzero;fill:rgb(96.862745%,70.196078%,43.529412%);fill-opacity:1;" />
<path d="M 75.246094 34.480469 L 76.515625 34.734375 L 77.570312 33.988281 C 80.335938 32.035156 83.175781 30.226562 86.007812 28.617188 L 87.597656 27.71875 L 87.527344 25.894531 C 87.246094 18.597656 84.550781 12.148438 80.132812 8.191406 C 77.1875 5.5625 73.246094 4.058594 69.328125 4.058594 C 66.582031 4.058594 64.054688 4.796875 62.023438 6.195312 C 56.628906 9.886719 54.898438 18.308594 58.238281 24.582031 C 61.28125 30.285156 67.941406 34.15625 75.246094 34.480469 Z M 75.246094 34.480469 " style=" stroke:none;fill-rule:nonzero;fill:rgb(96.862745%,70.196078%,43.529412%);fill-opacity:1;" />
<path d="M 7.386719 241.46875 C 18.207031 295.464844 57.726562 343.226562 110.523438 366.121094 C 134.039062 376.324219 160.828125 381.714844 187.988281 381.714844 C 217.492188 381.710938 247.246094 375.414062 274.03125 363.503906 C 278.503906 361.523438 283.121094 359.261719 286.136719 355.324219 C 288.917969 351.703125 289.9375 345.769531 286.828125 342.113281 C 285.660156 340.742188 283.449219 339.109375 279.539062 339.109375 C 276.042969 339.109375 271.703125 340.363281 266.265625 342.941406 C 264.792969 343.644531 263.214844 344.359375 261.292969 345.203125 L 258.082031 346.609375 L 262.917969 354.199219 C 263.015625 354.347656 263.011719 354.496094 262.988281 354.597656 C 262.96875 354.695312 262.910156 354.832031 262.769531 354.921875 C 262.652344 354.996094 262.539062 355.011719 262.464844 355.011719 C 262.398438 355.011719 262.15625 354.992188 262.015625 354.765625 L 257.066406 347.027344 L 254.765625 347.945312 C 250.945312 349.46875 246.972656 350.902344 242.957031 352.207031 L 240.042969 353.15625 L 242.800781 361.054688 C 242.863281 361.230469 242.820312 361.375 242.777344 361.46875 C 242.734375 361.558594 242.648438 361.675781 242.480469 361.734375 C 242.410156 361.757812 242.34375 361.773438 242.296875 361.773438 C 242.113281 361.773438 241.875 361.65625 241.789062 361.40625 L 239.027344 353.46875 L 236.300781 354.246094 C 232.351562 355.375 228.226562 356.40625 224.042969 357.308594 L 221.726562 357.808594 L 221.675781 360.179688 C 221.628906 362.402344 222.421875 364.609375 223.851562 366.230469 C 224.042969 366.453125 224.023438 366.796875 223.820312 366.976562 C 223.707031 367.074219 223.582031 367.121094 223.445312 367.121094 C 223.339844 367.121094 223.1875 367.089844 223.046875 366.929688 C 221.710938 365.414062 220.863281 363.429688 220.660156 361.332031 L 220.347656 358.097656 L 217.148438 358.667969 C 212.210938 359.550781 207.179688 360.234375 202.203125 360.707031 L 198.953125 361.015625 L 200.203125 367.925781 C 200.234375 368.109375 200.171875 368.246094 200.113281 368.332031 C 200.054688 368.414062 199.949219 368.519531 199.773438 368.550781 L 199.664062 368.5625 C 199.453125 368.5625 199.199219 368.414062 199.148438 368.121094 L 197.875 361.085938 L 195.230469 361.226562 C 191.894531 361.410156 188.523438 361.503906 185.21875 361.503906 C 183.15625 361.503906 181.074219 361.464844 179.027344 361.394531 L 176.175781 361.296875 L 175.476562 369.589844 C 175.453125 369.855469 175.21875 370.070312 174.914062 370.074219 C 174.613281 370.046875 174.390625 369.785156 174.414062 369.492188 L 175.105469 361.238281 L 172.089844 361.011719 C 166.769531 360.609375 161.429688 359.953125 156.230469 359.066406 L 152.929688 358.5 L 152.480469 366.035156 C 152.460938 366.304688 152.253906 366.519531 151.976562 366.539062 L 151.910156 366.535156 C 151.734375 366.527344 151.617188 366.4375 151.550781 366.359375 C 151.484375 366.285156 151.40625 366.15625 151.417969 365.96875 L 151.867188 358.296875 L 149.359375 357.75 C 148.226562 357.503906 147.085938 357.25 145.964844 356.984375 C 142.207031 356.09375 138.445312 355.054688 134.789062 353.894531 L 131.644531 352.894531 L 129.816406 361.382812 C 129.761719 361.652344 129.515625 361.792969 129.304688 361.792969 L 129.191406 361.777344 C 128.898438 361.714844 128.714844 361.441406 128.777344 361.148438 L 129.9375 355.699219 L 131 352.667969 L 128.226562 351.644531 C 123.65625 349.964844 119.101562 348.058594 114.695312 345.972656 L 111.902344 344.648438 L 108.863281 351.601562 C 108.761719 351.839844 108.535156 351.921875 108.371094 351.921875 C 108.347656 351.921875 108.257812 351.917969 108.152344 351.871094 C 107.988281 351.800781 107.910156 351.675781 107.875 351.585938 C 107.835938 351.488281 107.808594 351.34375 107.882812 351.175781 L 110.949219 344.164062 L 108.488281 342.859375 C 103.953125 340.460938 99.515625 337.839844 95.289062 335.066406 L 92.78125 333.417969 L 88.609375 339.78125 C 88.460938 340.003906 88.222656 340.023438 88.152344 340.023438 C 88.011719 340.023438 87.929688 339.984375 87.859375 339.933594 C 87.617188 339.773438 87.550781 339.445312 87.710938 339.199219 L 91.894531 332.820312 L 89.570312 331.140625 C 86.132812 328.660156 82.695312 325.960938 79.359375 323.113281 L 77.324219 321.371094 L 72.328125 326.039062 C 72.210938 326.148438 72.070312 326.175781 71.976562 326.175781 C 71.867188 326.175781 71.707031 326.140625 71.582031 326.011719 C 71.375 325.792969 71.386719 325.445312 71.597656 325.25 L 76.519531 320.671875 L 74.175781 318.476562 C 70.710938 315.226562 67.398438 311.820312 64.320312 308.34375 L 62.445312 306.226562 L 56.195312 311.144531 C 56.101562 311.21875 55.988281 311.253906 55.863281 311.253906 C 55.765625 311.253906 55.582031 311.230469 55.441406 311.050781 C 55.328125 310.902344 55.316406 310.753906 55.332031 310.652344 C 55.34375 310.554688 55.386719 310.414062 55.53125 310.300781 L 61.757812 305.398438 L 59.863281 303.035156 C 56.859375 299.289062 54.074219 295.429688 51.585938 291.558594 L 49.90625 288.949219 L 42.371094 294.167969 C 42.269531 294.238281 42.160156 294.273438 42.042969 294.273438 C 41.957031 294.273438 41.742188 294.25 41.601562 294.042969 C 41.496094 293.894531 41.496094 293.746094 41.515625 293.644531 C 41.535156 293.542969 41.585938 293.398438 41.730469 293.300781 L 46.769531 289.820312 C 46.894531 289.75 47.015625 289.675781 47.132812 289.59375 L 49.339844 288.011719 L 47.984375 285.65625 C 45.933594 282.089844 43.988281 278.300781 42.203125 274.394531 L 40.851562 271.433594 L 33.578125 275.507812 C 33.476562 275.5625 33.378906 275.59375 33.285156 275.59375 C 33.210938 275.59375 32.957031 275.570312 32.8125 275.316406 C 32.726562 275.160156 32.738281 275.011719 32.769531 274.910156 C 32.792969 274.8125 32.863281 274.679688 33.019531 274.589844 L 40.425781 270.445312 L 39.449219 268 C 38.160156 264.765625 36.925781 261.273438 35.773438 257.628906 L 34.875 254.777344 L 26.441406 257.40625 C 26.289062 257.449219 26.222656 257.453125 26.214844 257.453125 C 26.023438 257.453125 25.78125 257.332031 25.699219 257.074219 C 25.644531 256.898438 25.6875 256.753906 25.738281 256.664062 C 25.78125 256.578125 25.875 256.460938 26.054688 256.40625 L 34.574219 253.746094 L 33.832031 250.96875 C 32.914062 247.535156 32.089844 243.957031 31.375 240.332031 L 30.746094 237.132812 L 20.847656 239.957031 C 20.78125 239.972656 20.730469 239.980469 20.664062 239.980469 C 20.46875 239.980469 20.222656 239.863281 20.152344 239.605469 C 20.097656 239.421875 20.148438 239.273438 20.199219 239.183594 C 20.246094 239.097656 20.339844 238.984375 20.515625 238.933594 L 30.582031 236.0625 L 30.1875 233.453125 C 29.457031 228.585938 28.929688 223.710938 28.625 218.957031 L 28.4375 216.007812 C 28.4375 216.007812 18.730469 216.484375 18.6875 216.488281 C 18.429688 216.460938 18.222656 216.246094 18.207031 215.976562 C 18.199219 215.796875 18.277344 215.671875 18.347656 215.597656 C 18.414062 215.519531 18.539062 215.425781 18.722656 215.417969 L 28.375 214.929688 L 28.300781 212.003906 C 28.152344 206.050781 28.289062 200.082031 28.714844 194.257812 L 28.898438 191.714844 L 17.871094 189.074219 C 17.582031 189.003906 17.402344 188.707031 17.46875 188.425781 C 17.539062 188.140625 17.78125 188.011719 17.996094 188.011719 C 18.039062 188.011719 18.085938 188.019531 18.117188 188.027344 L 28.96875 190.644531 L 29.34375 187.261719 C 29.921875 182.078125 30.734375 176.800781 31.757812 171.578125 L 32.277344 168.921875 L 23 166.09375 C 22.722656 166.007812 22.558594 165.695312 22.640625 165.421875 C 22.722656 165.164062 22.964844 165.046875 23.15625 165.046875 C 23.210938 165.046875 23.265625 165.054688 23.316406 165.070312 L 32.496094 167.875 L 33.234375 164.761719 C 34.414062 159.78125 35.757812 154.941406 37.246094 150.3125 C 37.324219 150.050781 37.414062 149.789062 37.5 149.53125 L 38.539062 146.414062 L 35.765625 145.433594 C 35.664062 145.398438 35.566406 145.367188 35.429688 145.324219 L 27.230469 141.804688 C 26.960938 141.6875 26.835938 141.375 26.949219 141.105469 C 27.050781 140.878906 27.273438 140.773438 27.453125 140.773438 C 27.519531 140.773438 27.585938 140.789062 27.652344 140.816406 L 38.800781 145.609375 L 39.890625 142.632812 C 41.90625 137.132812 44.175781 131.640625 46.636719 126.308594 L 47.835938 123.714844 L 39.109375 119.15625 C 38.945312 119.066406 38.871094 118.933594 38.84375 118.835938 C 38.8125 118.742188 38.792969 118.597656 38.886719 118.425781 C 38.992188 118.21875 39.199219 118.144531 39.355469 118.144531 C 39.4375 118.144531 39.519531 118.164062 39.605469 118.210938 L 48.285156 122.746094 L 49.648438 120.011719 C 50.210938 118.886719 50.773438 117.757812 51.355469 116.636719 C 52.898438 113.675781 54.570312 110.621094 56.328125 107.5625 L 57.820312 104.960938 L 49.691406 100.308594 C 49.433594 100.160156 49.347656 99.835938 49.496094 99.574219 C 49.640625 99.324219 49.890625 99.304688 49.960938 99.304688 C 50.054688 99.304688 50.140625 99.328125 50.222656 99.375 L 58.378906 104.054688 L 59.902344 101.570312 C 62.914062 96.660156 66.105469 91.824219 69.382812 87.195312 L 71.136719 84.722656 L 61.554688 78.09375 C 61.308594 77.925781 61.25 77.59375 61.417969 77.355469 C 61.566406 77.140625 61.78125 77.117188 61.871094 77.117188 C 61.976562 77.117188 62.078125 77.148438 62.164062 77.210938 L 71.765625 83.859375 L 73.496094 81.535156 C 76.152344 77.980469 78.960938 74.390625 81.851562 70.867188 L 83.621094 68.707031 L 76.457031 61.917969 C 76.328125 61.796875 76.296875 61.648438 76.292969 61.546875 C 76.292969 61.445312 76.316406 61.300781 76.4375 61.171875 C 76.574219 61.027344 76.730469 61 76.835938 61 C 76.933594 61 77.074219 61.023438 77.199219 61.140625 L 84.316406 67.894531 L 86.371094 65.496094 C 86.964844 64.804688 87.5625 64.109375 88.164062 63.417969 L 88.769531 62.722656 C 95.640625 54.871094 102.746094 46.757812 110.785156 40.046875 C 114.207031 37.191406 117.660156 32.8125 117.097656 29.074219 C 116.734375 26.71875 114.816406 24.8125 111.414062 23.414062 C 109.820312 22.75 108.039062 22.414062 106.121094 22.414062 C 102.707031 22.414062 98.714844 23.496094 93.910156 25.722656 C 62.238281 40.4375 37.5 72.414062 20.386719 120.765625 C 4.632812 165.292969 0.257812 205.90625 7.386719 241.46875 Z M 7.386719 241.46875 " style=" stroke:none;fill-rule:nonzero;fill:rgb(97.647059%,84.705882%,53.72549%);fill-opacity:1;" />
<path d="M 276.308594 485.304688 C 273.386719 475.964844 267.527344 467.988281 259.8125 462.84375 C 252.296875 457.839844 242.800781 455.082031 233.066406 455.082031 C 223.695312 455.082031 215.152344 457.675781 209 462.398438 C 208.953125 462.433594 208.890625 462.464844 208.824219 462.480469 L 208.398438 462.578125 L 208.019531 462.796875 C 203.414062 465.429688 198.46875 466.820312 193.632812 466.820312 C 190.136719 466.820312 186.816406 466.054688 183.757812 464.542969 C 182.875 464.105469 181.988281 463.585938 181.046875 462.945312 L 180.03125 462.257812 L 178.820312 462.480469 C 178.785156 462.488281 178.75 462.492188 178.710938 462.492188 C 178.660156 462.492188 178.613281 462.484375 178.59375 462.476562 C 174.238281 461.113281 169.644531 460.421875 164.9375 460.421875 C 155.136719 460.421875 144.886719 463.449219 135.289062 469.175781 C 128.171875 473.425781 121.964844 479.46875 117.335938 486.644531 L 114.304688 491.347656 L 277.511719 489.144531 Z M 276.308594 485.304688 " style=" stroke:none;fill-rule:nonzero;fill:rgb(97.647059%,84.705882%,53.72549%);fill-opacity:1;" />
<path d="M 350.347656 147.613281 C 339.328125 103.597656 308.242188 64.507812 267.199219 43.042969 C 228.898438 23.011719 186.460938 20.054688 147.703125 34.71875 C 137.703125 38.503906 128.136719 43.652344 119.117188 49.9375 C 118.019531 47.128906 116.222656 44.644531 113.929688 42.710938 C 116.78125 40.214844 122.070312 34.664062 121.121094 28.46875 C 120.714844 25.8125 118.972656 22.128906 112.964844 19.644531 C 105.546875 16.578125 97.5625 19.535156 92.203125 22.027344 C 91.90625 22.167969 91.613281 22.316406 91.320312 22.457031 C 90.394531 15.402344 87.398438 9.226562 82.84375 5.160156 C 76.277344 -0.703125 66.335938 -1.699219 59.722656 2.839844 C 52.585938 7.734375 50.308594 18.34375 54.648438 26.492188 C 57.359375 31.582031 62.382812 35.464844 68.300781 37.339844 C 46.875 55.292969 29.53125 82.761719 16.558594 119.398438 C 0.550781 164.628906 -3.878906 205.96875 3.394531 242.273438 C 14.472656 297.546875 54.902344 346.4375 108.902344 369.859375 C 131.113281 379.492188 155.480469 384.726562 180.328125 385.617188 C 174.078125 398.710938 167.945312 412.28125 166.023438 427.171875 C 164.941406 435.5625 165.488281 443.0625 167.648438 449.464844 C 168.527344 452.066406 169.695312 454.503906 171.097656 456.726562 C 158.765625 455.226562 145.601562 458.289062 133.210938 465.679688 C 119.035156 474.140625 108.695312 488.863281 105.550781 505.070312 C 105.351562 506.097656 105.617188 507.15625 106.273438 507.96875 C 106.933594 508.78125 107.917969 509.261719 108.960938 509.277344 L 277.480469 512 C 277.5 512 277.519531 512 277.539062 512 C 279.140625 512 280.542969 510.925781 280.953125 509.371094 C 285.832031 490.996094 277.890625 470.003906 262.070312 459.457031 C 249.667969 451.191406 234.863281 449.511719 222.621094 452.121094 C 229.082031 440.714844 229.273438 427.523438 228.132812 417.984375 C 226.703125 406.015625 222.71875 394.253906 216.605469 383.855469 C 236.816406 381.15625 256.808594 375.613281 275.6875 367.21875 C 280.429688 365.113281 285.785156 362.472656 289.367188 357.800781 C 293.078125 352.964844 294.539062 344.898438 289.933594 339.484375 C 282.5 330.753906 268.976562 337.15625 264.53125 339.261719 C 249.058594 346.589844 232.914062 351.730469 216.628906 354.632812 L 216.199219 346.136719 C 228.386719 344.601562 240.394531 341.628906 251.980469 337.210938 C 291.949219 321.96875 324.714844 290.75 341.867188 251.558594 C 356.023438 219.222656 359.035156 182.308594 350.347656 147.613281 Z M 347.347656 171.40625 C 339.335938 168.371094 328.105469 168.996094 321.734375 172.269531 C 313.542969 176.46875 308.292969 185.816406 308.96875 194.996094 C 309.097656 196.808594 309.417969 198.628906 309.730469 200.390625 C 310.585938 205.25 310.980469 208.34375 309.21875 210.339844 C 307.902344 211.824219 305.140625 212.441406 301.828125 211.996094 C 300.535156 211.820312 299.222656 211.53125 297.832031 211.226562 C 295.40625 210.695312 292.902344 210.148438 290.199219 210.136719 C 290.164062 210.136719 290.132812 210.136719 290.101562 210.136719 C 279.546875 210.136719 271.375 218.34375 267.957031 226.496094 C 264.265625 235.292969 264.605469 244.816406 265.421875 252.972656 C 265.617188 254.902344 265.84375 256.835938 266.074219 258.769531 C 266.832031 265.199219 267.550781 271.277344 267.039062 277.351562 C 266.722656 281.09375 265.367188 285.371094 262.519531 286.160156 C 259.496094 286.992188 255.757812 283.570312 253.214844 280.917969 C 243.273438 270.554688 232.992188 259.839844 227.550781 246.550781 C 222.800781 234.953125 222.207031 218.652344 231.578125 208.378906 C 238.152344 201.171875 249.003906 197.3125 263.828125 196.917969 C 267.101562 196.828125 272.046875 196.695312 275.066406 192.945312 C 277.605469 189.789062 277.675781 185.03125 275.230469 181.375 C 272.953125 177.976562 269.347656 176.421875 266.722656 175.71875 C 261.085938 174.203125 255.265625 175.136719 250.132812 175.957031 L 249.640625 176.035156 C 244.691406 176.824219 239.914062 177.414062 235.84375 175.9375 C 232.515625 174.734375 229.414062 171.253906 230.109375 167.992188 C 230.722656 165.089844 233.769531 163.152344 237.292969 160.914062 C 240.972656 158.574219 245.144531 155.921875 247.183594 151.402344 C 251.128906 142.664062 244.722656 133.558594 238.039062 128.417969 C 236.785156 127.453125 235.480469 126.519531 234.214844 125.621094 C 229.628906 122.355469 225.296875 119.273438 223.542969 114.816406 C 221.183594 108.820312 224.535156 101.648438 229.066406 97.660156 C 234.601562 92.796875 242.164062 90.707031 248.835938 89.308594 C 270.316406 84.800781 292.871094 85.324219 314.128906 90.804688 C 327.972656 108.082031 338.175781 128.109375 343.492188 149.335938 C 345.3125 156.609375 346.597656 163.992188 347.347656 171.40625 Z M 246.515625 41.535156 C 246.847656 44.214844 246.097656 47.140625 244.363281 49.648438 C 242.261719 52.675781 239.089844 54.59375 235.875 54.777344 C 234.539062 54.851562 233.15625 54.699219 231.691406 54.539062 C 229.472656 54.296875 227.179688 54.046875 224.8125 54.566406 C 222.007812 55.179688 219.742188 56.726562 217.550781 58.222656 C 216.183594 59.160156 214.890625 60.042969 213.523438 60.664062 C 208.03125 63.167969 200.605469 60.753906 197.628906 55.503906 C 197.207031 54.757812 196.355469 54.363281 195.519531 54.511719 C 194.675781 54.660156 194.019531 55.328125 193.878906 56.171875 C 193.023438 61.355469 187.851562 65.632812 182.617188 65.515625 C 177.363281 65.398438 172.40625 60.894531 171.785156 55.679688 C 171.699219 54.984375 171.265625 54.386719 170.636719 54.089844 C 170.003906 53.792969 169.265625 53.84375 168.679688 54.222656 C 164.136719 57.164062 158.984375 60.5 153.417969 61.007812 C 148.59375 61.445312 142.714844 58.921875 141.667969 54.0625 C 140.882812 50.394531 143.058594 46.78125 145.359375 44.625 C 146.667969 43.398438 148.175781 42.390625 149.777344 41.503906 C 149.917969 41.449219 150.058594 41.386719 150.203125 41.332031 C 181.277344 29.574219 214.867188 29.746094 246.515625 41.535156 Z M 49.566406 242.621094 C 56.382812 267.878906 69.238281 288.921875 87.769531 305.164062 C 110.273438 324.890625 137.101562 338.375 165.359375 344.164062 C 171.09375 345.339844 176.863281 346.175781 182.640625 346.703125 L 182.605469 357.40625 C 170.507812 357.222656 158.53125 355.773438 146.898438 353.019531 C 107.085938 343.597656 71.625 318.007812 52.042969 284.558594 C 30.347656 247.503906 26.261719 197.804688 41.105469 151.609375 C 44.675781 140.492188 49.34375 129.355469 54.976562 118.507812 C 64.292969 100.554688 76.488281 82.925781 91.222656 66.101562 L 91.835938 65.398438 C 91.902344 65.324219 91.96875 65.253906 92.03125 65.179688 L 95.628906 70.21875 C 71.648438 95.453125 54.148438 129.800781 47.265625 167.839844 C 42.570312 193.785156 43.367188 219.644531 49.566406 242.621094 Z M 100.671875 65.113281 L 96.828125 59.734375 C 100.605469 55.5 104.492188 51.328125 108.554688 47.492188 C 110.558594 48.886719 112.113281 50.96875 112.820312 53.292969 C 112.925781 53.632812 113.082031 53.941406 113.269531 54.226562 C 108.917969 57.589844 104.710938 61.222656 100.671875 65.113281 Z M 75.53125 31.492188 C 69.203125 31.257812 63.453125 27.988281 60.886719 23.171875 C 58.277344 18.269531 59.601562 11.492188 63.71875 8.667969 C 67.660156 5.960938 73.996094 6.738281 78.136719 10.433594 C 81.957031 13.84375 84.28125 19.515625 84.53125 26.003906 C 81.566406 27.695312 78.667969 29.535156 75.835938 31.535156 C 75.734375 31.523438 75.636719 31.496094 75.53125 31.492188 Z M 274.722656 504.886719 L 113.476562 502.277344 C 114.457031 498.839844 115.8125 495.511719 117.480469 492.34375 L 274.5 490.226562 C 275.488281 495.050781 275.617188 500.039062 274.722656 504.886719 Z M 258.148438 465.339844 C 265.496094 470.238281 270.8125 477.804688 273.453125 486.199219 L 119.855469 488.273438 C 124.179688 481.574219 129.992188 475.832031 136.832031 471.75 C 150.441406 463.628906 164.953125 461.351562 177.695312 465.339844 C 178.257812 465.515625 178.828125 465.527344 179.371094 465.429688 C 180.355469 466.101562 181.375 466.710938 182.429688 467.234375 C 186.0625 469.027344 189.894531 469.824219 193.710938 469.824219 C 199.234375 469.824219 204.714844 468.140625 209.503906 465.398438 C 209.976562 465.285156 210.433594 465.082031 210.839844 464.769531 C 222.746094 455.636719 243.96875 455.890625 258.148438 465.339844 Z M 209.800781 386.238281 C 215.832031 396.089844 219.742188 407.355469 221.113281 418.824219 C 222.710938 432.183594 220.273438 443.992188 214.246094 452.078125 C 208.226562 460.160156 195.550781 465.828125 185.5625 460.894531 C 180.53125 458.410156 176.441406 453.417969 174.347656 447.203125 C 172.53125 441.828125 172.085938 435.390625 173.03125 428.078125 C 174.953125 413.207031 181.625 399.257812 188.09375 385.769531 C 195.152344 385.765625 202.234375 385.402344 209.308594 384.699219 C 209.351562 385.230469 209.503906 385.753906 209.800781 386.238281 Z M 267.558594 345.652344 C 276.230469 341.542969 281.949219 341.007812 284.546875 344.0625 C 286.644531 346.527344 285.769531 350.878906 283.757812 353.5 C 281.1875 356.855469 276.941406 358.925781 272.816406 360.761719 C 221.136719 383.734375 160.914062 384.714844 111.714844 363.375 C 59.804688 340.859375 20.957031 293.921875 10.324219 240.882812 C 3.304688 205.847656 7.644531 165.765625 23.222656 121.757812 C 40.0625 74.195312 64.273438 42.800781 95.183594 28.4375 C 99.558594 26.40625 103.136719 25.40625 106.128906 25.40625 C 107.652344 25.40625 109.023438 25.664062 110.265625 26.179688 C 111.898438 26.855469 113.898438 27.984375 114.132812 29.535156 C 114.4375 31.523438 112.273438 34.898438 108.867188 37.738281 C 100.695312 44.554688 93.488281 52.78125 86.519531 60.742188 L 85.90625 61.445312 C 85.292969 62.140625 84.695312 62.839844 84.09375 63.542969 L 79.269531 58.964844 C 77.851562 57.617188 75.613281 57.679688 74.269531 59.09375 C 72.929688 60.511719 72.984375 62.746094 74.402344 64.09375 L 79.535156 68.964844 C 76.613281 72.523438 73.800781 76.117188 71.097656 79.738281 L 63.871094 74.742188 C 62.269531 73.632812 60.066406 74.035156 58.957031 75.640625 C 57.847656 77.246094 58.246094 79.449219 59.855469 80.558594 L 66.941406 85.460938 C 63.542969 90.261719 60.34375 95.113281 57.347656 99.996094 L 51.71875 96.773438 C 50.023438 95.800781 47.863281 96.386719 46.894531 98.082031 C 45.921875 99.777344 46.507812 101.9375 48.203125 102.90625 L 53.730469 106.074219 C 51.976562 109.121094 50.292969 112.179688 48.699219 115.25 C 48.109375 116.386719 47.539062 117.527344 46.96875 118.667969 L 40.996094 115.542969 C 39.269531 114.640625 37.132812 115.308594 36.226562 117.039062 C 35.324219 118.769531 35.992188 120.902344 37.722656 121.808594 L 43.914062 125.046875 C 41.390625 130.527344 39.105469 136.054688 37.078125 141.601562 L 28.839844 138.0625 C 27.042969 137.292969 24.96875 138.121094 24.195312 139.917969 C 23.425781 141.710938 24.257812 143.789062 26.050781 144.558594 L 34.339844 148.117188 C 34.480469 148.179688 34.625 148.214844 34.773438 148.253906 C 34.640625 148.652344 34.503906 149.046875 34.375 149.445312 C 32.820312 154.285156 31.472656 159.164062 30.316406 164.066406 L 24.195312 162.195312 C 22.324219 161.625 20.351562 162.679688 19.78125 164.542969 C 19.210938 166.410156 20.265625 168.386719 22.132812 168.957031 L 28.820312 171 C 27.773438 176.300781 26.957031 181.613281 26.371094 186.925781 L 18.824219 185.109375 C 16.921875 184.65625 15.019531 185.824219 14.5625 187.722656 C 14.105469 189.617188 15.273438 191.527344 17.171875 191.984375 L 25.726562 194.039062 C 25.289062 200.085938 25.152344 206.109375 25.308594 212.082031 L 18.574219 212.417969 C 16.621094 212.515625 15.121094 214.175781 15.21875 216.125 C 15.3125 218.015625 16.875 219.484375 18.746094 219.484375 C 18.804688 219.484375 18.863281 219.480469 18.925781 219.480469 L 25.632812 219.144531 C 25.957031 224.117188 26.492188 229.042969 27.230469 233.902344 L 19.699219 236.046875 C 17.820312 236.582031 16.734375 238.539062 17.269531 240.417969 C 17.710938 241.96875 19.125 242.984375 20.664062 242.984375 C 20.984375 242.984375 21.3125 242.9375 21.636719 242.847656 L 28.441406 240.90625 C 29.15625 244.566406 29.988281 248.179688 30.9375 251.742188 L 25.167969 253.535156 C 23.304688 254.113281 22.261719 256.09375 22.84375 257.957031 C 23.3125 259.472656 24.707031 260.445312 26.21875 260.445312 C 26.5625 260.445312 26.914062 260.394531 27.265625 260.285156 L 32.917969 258.53125 C 34.050781 262.117188 35.292969 265.648438 36.671875 269.101562 L 31.558594 271.964844 C 29.855469 272.921875 29.25 275.074219 30.203125 276.777344 C 30.851562 277.933594 32.050781 278.585938 33.289062 278.585938 C 33.875 278.585938 34.46875 278.4375 35.015625 278.132812 L 39.476562 275.632812 C 41.28125 279.582031 43.25 283.425781 45.390625 287.152344 C 45.316406 287.195312 45.238281 287.226562 45.167969 287.277344 L 40.035156 290.828125 C 38.429688 291.941406 38.027344 294.144531 39.140625 295.746094 C 39.824219 296.738281 40.929688 297.269531 42.050781 297.269531 C 42.742188 297.269531 43.445312 297.066406 44.058594 296.640625 L 49.066406 293.175781 C 51.671875 297.210938 54.5 301.128906 57.53125 304.910156 L 53.683594 307.933594 C 52.148438 309.140625 51.878906 311.359375 53.085938 312.894531 C 53.78125 313.785156 54.820312 314.246094 55.867188 314.246094 C 56.632812 314.246094 57.402344 314 58.050781 313.492188 L 62.082031 310.320312 C 65.25 313.90625 68.605469 317.355469 72.128906 320.652344 L 69.5625 323.046875 C 68.136719 324.378906 68.058594 326.613281 69.390625 328.042969 C 70.085938 328.789062 71.03125 329.167969 71.976562 329.167969 C 72.839844 329.167969 73.703125 328.851562 74.386719 328.21875 L 77.421875 325.382812 C 80.765625 328.242188 84.230469 330.976562 87.820312 333.5625 L 85.207031 337.542969 C 84.136719 339.175781 84.589844 341.367188 86.222656 342.4375 C 86.820312 342.832031 87.492188 343.019531 88.160156 343.019531 C 89.308594 343.019531 90.4375 342.457031 91.117188 341.425781 L 93.648438 337.570312 C 97.988281 340.421875 102.476562 343.070312 107.089844 345.507812 L 105.140625 349.964844 C 104.359375 351.753906 105.175781 353.835938 106.960938 354.621094 C 107.425781 354.820312 107.90625 354.917969 108.375 354.917969 C 109.738281 354.917969 111.035156 354.125 111.617188 352.796875 L 113.421875 348.675781 C 117.917969 350.804688 122.515625 352.738281 127.203125 354.453125 C 127.136719 354.625 127.074219 354.800781 127.03125 354.984375 L 125.847656 360.511719 C 125.441406 362.421875 126.65625 364.300781 128.566406 364.707031 C 128.8125 364.761719 129.0625 364.785156 129.308594 364.785156 C 130.941406 364.785156 132.40625 363.652344 132.761719 361.992188 L 133.886719 356.742188 C 137.640625 357.933594 141.4375 358.988281 145.277344 359.894531 C 146.425781 360.167969 147.574219 360.425781 148.730469 360.671875 L 148.429688 365.789062 C 148.3125 367.738281 149.800781 369.410156 151.75 369.527344 C 151.820312 369.53125 151.890625 369.53125 151.960938 369.53125 C 153.816406 369.53125 155.375 368.085938 155.484375 366.207031 L 155.734375 362.015625 C 161.066406 362.925781 166.449219 363.589844 171.867188 363.996094 L 171.429688 369.234375 C 171.265625 371.179688 172.710938 372.890625 174.65625 373.054688 C 174.757812 373.0625 174.859375 373.066406 174.957031 373.066406 C 176.777344 373.066406 178.320312 371.671875 178.476562 369.824219 L 178.929688 364.382812 C 184.402344 364.574219 189.898438 364.519531 195.40625 364.210938 L 196.199219 368.640625 C 196.507812 370.351562 197.996094 371.554688 199.675781 371.554688 C 199.882812 371.554688 200.09375 371.535156 200.300781 371.496094 C 202.222656 371.152344 203.5 369.316406 203.15625 367.394531 L 202.492188 363.679688 C 207.558594 363.203125 212.628906 362.511719 217.683594 361.617188 C 217.941406 364.292969 219.015625 366.878906 220.796875 368.90625 C 221.496094 369.703125 222.472656 370.109375 223.453125 370.109375 C 224.28125 370.109375 225.113281 369.820312 225.785156 369.234375 C 227.253906 367.945312 227.398438 365.710938 226.109375 364.246094 C 225.164062 363.167969 224.648438 361.683594 224.683594 360.238281 C 228.847656 359.339844 233 358.308594 237.125 357.125 L 238.964844 362.390625 C 239.472656 363.847656 240.839844 364.761719 242.300781 364.761719 C 242.6875 364.761719 243.078125 364.699219 243.464844 364.5625 C 245.308594 363.921875 246.28125 361.90625 245.640625 360.0625 L 243.890625 355.054688 C 247.917969 353.742188 251.917969 352.304688 255.886719 350.726562 L 259.488281 356.375 C 260.164062 357.433594 261.304688 358.007812 262.472656 358.007812 C 263.121094 358.007812 263.78125 357.828125 264.371094 357.453125 C 266.015625 356.402344 266.496094 354.21875 265.449219 352.574219 L 262.496094 347.949219 C 264.1875 347.207031 265.878906 346.445312 267.558594 345.652344 Z M 209.609375 355.746094 C 202.964844 356.664062 196.308594 357.199219 189.675781 357.367188 L 189.707031 347.191406 C 192.078125 347.300781 194.449219 347.363281 196.820312 347.363281 C 200.941406 347.363281 205.058594 347.1875 209.15625 346.859375 Z M 249.460938 330.605469 C 223.152344 340.636719 194.558594 342.929688 166.777344 337.238281 C 157.265625 335.289062 147.925781 332.40625 138.867188 328.695312 C 139.335938 325.984375 140.992188 323.390625 143.558594 321.503906 C 146.71875 319.183594 150.496094 318.472656 153.667969 319.605469 C 155.859375 320.386719 157.878906 321.847656 160.019531 323.398438 C 163.429688 325.871094 166.964844 328.4375 171.503906 328.296875 C 174.953125 328.199219 177.84375 326.53125 180.636719 324.921875 C 183.199219 323.441406 185.636719 322.046875 188.132812 322.109375 C 190.390625 322.164062 192.546875 323.398438 194.832031 324.710938 C 197.082031 326 199.410156 327.332031 202.148438 327.761719 C 207.503906 328.597656 212.027344 325.8125 216.402344 323.117188 C 217.707031 322.316406 218.9375 321.558594 220.179688 320.902344 C 231.511719 314.890625 247.144531 318.3125 255.144531 328.292969 C 253.269531 329.097656 251.375 329.875 249.460938 330.605469 Z M 335.394531 248.726562 C 320.371094 283.039062 292.828125 310.953125 258.941406 326.601562 C 249.863281 314.347656 231.796875 310.167969 218.285156 317.328125 C 216.929688 318.050781 215.585938 318.878906 214.285156 319.675781 C 210.363281 322.09375 206.652344 324.371094 202.773438 323.769531 C 200.769531 323.457031 198.863281 322.363281 196.839844 321.203125 C 194.222656 319.703125 191.511719 318.148438 188.234375 318.066406 C 184.601562 317.984375 181.550781 319.726562 178.617188 321.421875 C 176.148438 322.84375 173.816406 324.1875 171.386719 324.257812 C 168.222656 324.351562 165.386719 322.296875 162.386719 320.125 C 160.113281 318.476562 157.761719 316.773438 155.027344 315.796875 C 150.589844 314.214844 145.410156 315.132812 141.167969 318.246094 C 138.035156 320.546875 135.898438 323.691406 135.066406 327.074219 C 119.773438 320.34375 105.359375 311.179688 92.429688 299.847656 C 74.964844 284.539062 62.839844 264.664062 56.394531 240.777344 C 50.460938 218.804688 49.710938 194.019531 54.222656 169.097656 C 64.15625 114.179688 96.898438 67.332031 139.117188 46.214844 C 137.644531 49.027344 137.117188 52.09375 137.722656 54.910156 C 139.253906 62.023438 147.09375 65.636719 153.789062 65.027344 C 159.269531 64.527344 164.246094 61.800781 168.476562 59.148438 C 170.527344 64.96875 176.285156 69.410156 182.527344 69.550781 C 182.628906 69.554688 182.730469 69.554688 182.832031 69.554688 C 188.605469 69.554688 194.089844 65.878906 196.605469 60.742188 C 201.339844 65.453125 209.042969 67.140625 215.199219 64.339844 C 216.882812 63.570312 218.382812 62.546875 219.832031 61.554688 C 221.789062 60.21875 223.636719 58.953125 225.675781 58.507812 C 227.398438 58.132812 229.269531 58.335938 231.25 58.554688 C 232.816406 58.722656 234.4375 58.902344 236.105469 58.804688 C 240.554688 58.550781 244.878906 55.988281 247.679688 51.945312 C 249.542969 49.253906 250.535156 46.160156 250.617188 43.136719 C 255.097656 44.957031 259.539062 47.011719 263.921875 49.300781 C 279.871094 57.644531 294.246094 68.761719 306.402344 81.839844 C 286.949219 78.160156 266.753906 78.320312 247.382812 82.382812 C 240.253906 83.878906 231.199219 86.363281 224.398438 92.347656 C 216.835938 99 213.777344 109.300781 216.964844 117.398438 C 219.484375 123.808594 225.132812 127.828125 230.113281 131.375 C 231.378906 132.277344 232.578125 133.128906 233.726562 134.015625 C 238.734375 137.863281 242.84375 143.832031 240.738281 148.488281 C 239.566406 151.085938 236.621094 152.957031 233.5 154.941406 C 229.246094 157.644531 224.425781 160.710938 223.191406 166.519531 C 221.667969 173.699219 227.203125 180.324219 233.433594 182.578125 C 239.085938 184.625 245.089844 183.914062 250.753906 183.011719 L 251.25 182.929688 C 256.117188 182.152344 260.710938 181.417969 264.886719 182.539062 C 266.945312 183.089844 268.53125 184.074219 269.355469 185.300781 C 270.039062 186.324219 270.132812 187.792969 269.5625 188.503906 C 268.589844 189.710938 265.730469 189.789062 263.640625 189.84375 C 246.820312 190.296875 234.273438 194.925781 226.355469 203.609375 C 216.285156 214.648438 214.183594 232.554688 221.011719 249.222656 C 226.960938 263.753906 238.199219 275.46875 248.117188 285.804688 C 250.40625 288.195312 255.363281 293.363281 261.492188 293.363281 C 262.433594 293.363281 263.40625 293.242188 264.398438 292.96875 C 269.792969 291.476562 273.414062 285.859375 274.082031 277.941406 C 274.65625 271.152344 273.863281 264.433594 273.09375 257.933594 C 272.871094 256.042969 272.648438 254.152344 272.457031 252.261719 C 271.730469 244.988281 271.398438 236.5625 274.476562 229.226562 C 276.910156 223.425781 282.832031 217.199219 290.105469 217.199219 C 290.125 217.199219 290.144531 217.199219 290.164062 217.199219 C 292.121094 217.207031 294.160156 217.652344 296.316406 218.128906 C 297.785156 218.449219 299.300781 218.78125 300.882812 218.996094 C 306.703125 219.785156 311.546875 218.371094 314.515625 215.015625 C 318.660156 210.324219 317.613281 204.390625 316.691406 199.15625 C 316.398438 197.496094 316.125 195.929688 316.015625 194.472656 C 315.546875 188.042969 319.222656 181.496094 324.960938 178.550781 C 331.679688 175.105469 343.703125 176.296875 347.960938 179.691406 C 349.09375 203.371094 344.851562 227.117188 335.394531 248.726562 Z M 335.394531 248.726562 " style=" stroke:none;fill-rule:nonzero;fill:rgb(0%,0%,0%);fill-opacity:1;" />
<path d="M 188.976562 105.984375 C 180.070312 94.871094 162.285156 84.496094 146.867188 87.140625 C 141.558594 88.050781 136.351562 90.585938 131.3125 93.035156 C 129.054688 94.132812 126.925781 95.167969 124.886719 96.007812 L 98.503906 106.886719 C 94.144531 108.683594 89.203125 110.71875 85.390625 114.574219 C 81.5 118.507812 78.78125 125.164062 81.460938 131.175781 C 82.859375 134.304688 85.398438 136.503906 87.640625 138.445312 C 89.871094 140.378906 91.796875 142.046875 92.027344 144 C 92.386719 147.058594 88.320312 149.96875 87.066406 150.785156 C 86.382812 151.230469 85.683594 151.660156 84.976562 152.089844 C 81.84375 154.003906 78.289062 156.175781 76.125 159.886719 C 74.21875 163.160156 73.78125 166.996094 74.855469 170.972656 C 76.25 176.113281 80.152344 181.027344 85.046875 183.792969 C 90.160156 186.679688 95.773438 187.785156 101.199219 188.851562 C 103.5 189.304688 105.667969 189.730469 107.804688 190.285156 C 111.144531 191.152344 118.585938 193.648438 121.453125 199.164062 L 93.058594 219.894531 C 90.859375 221.503906 87.179688 224.191406 86.601562 228.636719 C 86.070312 232.738281 88.542969 236.15625 90.019531 238.203125 L 110.496094 266.5 C 117.207031 275.78125 124.148438 285.371094 133.007812 293.265625 C 140.117188 299.597656 151.535156 307.375 165.570312 308.460938 C 165.660156 308.46875 165.753906 308.46875 165.84375 308.46875 C 167.332031 308.46875 168.675781 307.53125 169.175781 306.109375 L 183.574219 265.179688 C 184.253906 263.246094 185.023438 261.054688 185.105469 258.589844 C 185.34375 251.1875 179.40625 244.710938 168.816406 240.824219 L 167.753906 240.4375 C 161.789062 238.265625 155.621094 236.019531 153.707031 231.191406 C 151.878906 226.578125 154.488281 220.910156 157.011719 215.429688 L 157.347656 214.691406 C 162.992188 202.386719 160.445312 195.460938 157.316406 191.816406 C 155.722656 189.960938 153.695312 188.652344 151.90625 187.496094 C 149.800781 186.140625 147.980469 184.964844 147.492188 183.417969 C 147.398438 183.113281 147.109375 182.199219 147.964844 180.851562 C 149.09375 179.074219 151.496094 177.621094 153.808594 177.316406 C 156.277344 176.984375 158.910156 177.296875 161.695312 177.625 C 164.226562 177.921875 166.835938 178.230469 169.566406 178.089844 C 183.445312 177.367188 193.582031 165.320312 197.472656 153.699219 C 202.800781 137.800781 199.460938 119.070312 188.976562 105.984375 Z M 190.773438 151.457031 C 187.640625 160.804688 179.757812 170.484375 169.199219 171.03125 C 167.078125 171.144531 164.867188 170.882812 162.523438 170.605469 C 159.429688 170.242188 156.222656 169.863281 152.878906 170.308594 C 148.511719 170.890625 144.242188 173.539062 142 177.058594 C 140.308594 179.71875 139.863281 182.734375 140.75 185.546875 C 142.007812 189.527344 145.230469 191.605469 148.074219 193.441406 C 149.59375 194.421875 151.027344 195.347656 151.953125 196.425781 C 155.183594 200.1875 153.175781 206.832031 150.921875 211.746094 L 150.589844 212.472656 C 147.738281 218.667969 144.191406 226.375 147.136719 233.800781 C 150.21875 241.574219 158.601562 244.628906 165.335938 247.082031 L 166.382812 247.464844 C 169.164062 248.488281 178.234375 252.292969 178.039062 258.363281 C 177.992188 259.738281 177.464844 261.242188 176.902344 262.835938 L 163.441406 301.105469 C 152.566406 299.457031 143.535156 293.175781 137.707031 287.988281 C 129.425781 280.609375 122.710938 271.328125 116.222656 262.359375 L 95.75 234.058594 C 94.582031 232.445312 93.453125 230.765625 93.613281 229.546875 C 93.785156 228.21875 95.570312 226.816406 97.230469 225.605469 L 127.789062 203.289062 C 128.957031 202.433594 129.488281 200.953125 129.125 199.550781 C 127.179688 192.035156 120.058594 186.164062 109.582031 183.441406 C 107.242188 182.835938 104.863281 182.367188 102.5625 181.914062 C 97.460938 180.910156 92.644531 179.964844 88.523438 177.636719 C 85.265625 175.796875 82.582031 172.453125 81.679688 169.121094 C 81.097656 166.980469 81.285156 165.070312 82.234375 163.441406 C 83.496094 161.277344 86.003906 159.742188 88.660156 158.121094 C 89.425781 157.652344 90.1875 157.1875 90.925781 156.707031 C 96.742188 152.914062 99.625 148.105469 99.046875 143.171875 C 98.496094 138.496094 95.1875 135.628906 92.265625 133.101562 C 90.417969 131.5 88.675781 129.988281 87.917969 128.292969 C 86.660156 125.476562 88.222656 121.761719 90.414062 119.546875 C 93.222656 116.707031 97.273438 115.035156 101.195312 113.421875 L 127.578125 102.542969 C 129.820312 101.617188 132.152344 100.484375 134.402344 99.390625 C 138.996094 97.15625 143.746094 94.847656 148.0625 94.105469 C 149.316406 93.890625 150.605469 93.785156 151.910156 93.785156 C 163.40625 93.785156 176.5 101.722656 183.457031 110.402344 C 192.480469 121.664062 195.351562 137.777344 190.773438 151.457031 Z M 190.773438 151.457031 " style=" stroke:none;fill-rule:nonzero;fill:rgb(0%,0%,0%);fill-opacity:1;" />
<path d="M 219.296875 195.21875 C 221.9375 190.515625 221.417969 184.410156 218.0625 180.707031 C 214.75 177.050781 209.320312 176.34375 203.894531 178.855469 C 199.074219 181.085938 194.554688 185.96875 195.332031 191.855469 C 196.027344 197.140625 200.667969 201.582031 206.128906 202.183594 C 206.5625 202.230469 206.992188 202.253906 207.429688 202.253906 C 212.15625 202.253906 216.898438 199.492188 219.296875 195.21875 Z M 215.773438 193.242188 C 213.925781 196.535156 210.148438 198.5625 206.570312 198.167969 C 202.964844 197.769531 199.789062 194.765625 199.335938 191.324219 C 198.832031 187.496094 202.226562 184.078125 205.589844 182.519531 C 208.542969 181.152344 212.582031 180.671875 215.066406 183.417969 C 217.292969 185.875 217.589844 190.007812 215.773438 193.242188 Z M 215.773438 193.242188 " style=" stroke:none;fill-rule:nonzero;fill:rgb(0%,0%,0%);fill-opacity:1;" />
<path d="M 206.90625 170.613281 C 207.335938 170.613281 207.773438 170.578125 208.210938 170.507812 C 210.695312 170.09375 212.734375 168.679688 214.234375 167.492188 C 219.632812 163.214844 223.769531 157.25 225.882812 150.691406 C 226.4375 148.96875 227.128906 146.371094 226.734375 143.71875 C 226.246094 140.421875 224.480469 138.042969 221.890625 137.199219 C 219.167969 136.3125 215.988281 137.269531 213.601562 139.699219 C 210.402344 142.949219 207.984375 147.492188 205.648438 151.882812 C 204.582031 153.890625 203.574219 155.785156 202.542969 157.457031 C 201.46875 159.199219 198.613281 163.824219 201.070312 167.664062 C 202.25 169.511719 204.492188 170.613281 206.90625 170.613281 Z M 205.980469 159.578125 C 207.082031 157.796875 208.117188 155.847656 209.214844 153.78125 C 211.414062 149.644531 213.691406 145.363281 216.480469 142.53125 C 217.765625 141.222656 219.398438 140.636719 220.640625 141.039062 C 221.734375 141.398438 222.480469 142.558594 222.742188 144.3125 C 222.949219 145.714844 222.730469 147.300781 222.039062 149.453125 C 220.167969 155.257812 216.507812 160.539062 211.726562 164.324219 C 210.609375 165.210938 209.121094 166.261719 207.550781 166.523438 C 206.464844 166.703125 205.058594 166.40625 204.472656 165.488281 C 203.730469 164.328125 204.210938 162.449219 205.980469 159.578125 Z M 205.980469 159.578125 " style=" stroke:none;fill-rule:nonzero;fill:rgb(0%,0%,0%);fill-opacity:1;" />
<path d="M 289.496094 228.722656 C 282.730469 230.902344 277.820312 237.898438 278.078125 244.996094 C 278.335938 252.113281 283.75 258.726562 290.667969 260.382812 C 291.839844 260.664062 293.03125 260.796875 294.226562 260.796875 C 300.113281 260.796875 305.996094 257.53125 308.847656 252.339844 C 312.140625 246.34375 311.4375 239.296875 307.019531 233.945312 C 302.648438 228.648438 295.933594 226.648438 289.496094 228.722656 Z M 305.308594 250.394531 C 302.722656 255.101562 296.835938 257.707031 291.609375 256.453125 C 286.394531 255.207031 282.3125 250.21875 282.117188 244.851562 C 281.921875 239.492188 285.628906 234.214844 290.734375 232.566406 C 292.054688 232.144531 293.320312 231.953125 294.523438 231.953125 C 298.589844 231.953125 301.914062 234.101562 303.90625 236.515625 C 306.527344 239.6875 308.269531 245 305.308594 250.394531 Z M 305.308594 250.394531 " style=" stroke:none;fill-rule:nonzero;fill:rgb(0%,0%,0%);fill-opacity:1;" />
</g>
</svg>