<svg xmlns="http://www.w3.org/2000/svg" height="511pt" version="1.1" viewBox="0 -10 511.99998 511" width="511pt">
<g id="surface1">
<path d="M 217.253906 250.464844 L 216.402344 249.609375 L 215.484375 243.78125 C 214.261719 236.027344 211.003906 228.480469 208.132812 221.824219 L 131.085938 43.988281 C 130.207031 41.957031 129.269531 39.175781 128.1875 35.953125 L 128.105469 35.703125 C 124.207031 24.0625 119.886719 12.417969 113.75 9.097656 L 111.328125 7.789062 L 111.332031 7.039062 L 110.507812 7.34375 L 109.367188 6.726562 L 109.359375 7.769531 L 107.25 8.554688 C 101.722656 10.601562 98.660156 18.722656 95.5 28.339844 C 94.683594 30.835938 94.011719 32.875 93.332031 34.457031 L 55.25 123.628906 C 50.5625 134.625 45.996094 146.203125 41.96875 156.414062 L 41.910156 156.558594 C 33.269531 178.433594 24.335938 201.054688 13.371094 221.730469 L 13.308594 221.84375 L 13.261719 221.960938 C 9.535156 230.691406 5.472656 240.816406 4.386719 250.503906 L 3.242188 260.742188 L 4.289062 259.441406 C 4.5 261.554688 4.886719 263.613281 5.445312 265.570312 C 9.148438 278.539062 20.667969 289.351562 39.683594 297.714844 C 60.203125 306.71875 83.125 311.480469 105.980469 311.476562 C 132.175781 311.476562 158.109375 305.324219 180.980469 293.679688 C 193.316406 287.410156 214.253906 273.742188 215.902344 252.636719 C 215.921875 252.378906 215.929688 252.113281 215.941406 251.824219 L 216.898438 252.761719 L 216.535156 250.46875 Z M 217.253906 250.464844 " style=" stroke:none;fill-rule:nonzero;fill:rgb(35.686275%,81.568627%,98.823529%);fill-opacity:1;" />
<path d="M 503.210938 263.511719 L 500.265625 265.113281 C 455.546875 289.433594 408.207031 309.550781 359.566406 324.90625 L 357.550781 325.542969 L 351.574219 486.242188 L 467 448.621094 C 474.480469 446.183594 482.964844 443.425781 488.847656 437.332031 C 488.976562 437.195312 489.097656 437.050781 489.21875 436.90625 L 489.359375 436.742188 L 490.300781 435.6875 L 490.421875 435.769531 L 490.921875 434.992188 L 491.625 434.207031 L 491.484375 434.113281 L 492.097656 433.15625 C 497.160156 425.25 498.359375 414.722656 499.152344 404.621094 L 507.191406 301.871094 C 508.074219 290.625 509.078125 277.875 504.480469 266.613281 Z M 503.210938 263.511719 " style=" stroke:none;fill-rule:nonzero;fill:rgb(79.607843%,89.803922%,50.196078%);fill-opacity:1;" />
<path d="M 246.460938 244.121094 L 244.332031 246.660156 L 356.417969 323.085938 L 356.792969 323.347656 L 357.25 323.480469 L 358.429688 324.152344 L 359.683594 323.757812 C 373.933594 319.246094 388.429688 314.199219 402.769531 308.75 L 402.769531 308.753906 L 403.65625 308.410156 L 404.734375 308 L 404.734375 307.992188 L 406.824219 307.183594 C 438.671875 294.851562 469.957031 280.375 499.804688 264.152344 L 502.675781 262.589844 L 500.875 259.863281 C 494.21875 249.792969 483.382812 242.523438 474.671875 236.683594 L 424.085938 202.726562 C 422.472656 201.640625 420.667969 200.234375 418.632812 198.625 C 414.609375 195.472656 409.605469 191.550781 405.089844 189.9375 L 402.988281 189.1875 L 402.984375 188.933594 L 402.394531 188.976562 L 401.019531 188.488281 L 401.027344 189.082031 L 399.804688 189.171875 C 395.851562 189.472656 391.21875 191.445312 387.140625 193.183594 L 386.773438 193.339844 C 384.847656 194.15625 383.027344 194.929688 381.402344 195.464844 L 265.726562 233.5625 C 258.144531 236.058594 250.96875 238.742188 246.460938 244.121094 Z M 246.460938 244.121094 " style=" stroke:none;fill-rule:nonzero;fill:rgb(79.607843%,89.803922%,50.196078%);fill-opacity:1;" />
<path d="M 243.757812 247.566406 L 242.5625 251.457031 C 240.820312 257.128906 240.964844 263.671875 241.261719 269.894531 L 246.683594 380.664062 C 247.148438 390.371094 247.730469 402.453125 252.785156 412.378906 L 252.828125 412.460938 L 252.480469 412.511719 L 255.246094 416.484375 C 259.832031 423.074219 266.535156 427.746094 273.015625 432.261719 L 350.503906 486.222656 L 354.058594 390.703125 L 354.050781 390.703125 L 356.519531 324.445312 Z M 243.757812 247.566406 " style=" stroke:none;fill-rule:nonzero;fill:rgb(79.607843%,89.803922%,50.196078%);fill-opacity:1;" />
<path d="M 311.414062 120.949219 C 305.5 116.609375 298.15625 114.21875 290.734375 114.21875 C 289.550781 114.21875 288.355469 114.28125 287.1875 114.402344 L 284.378906 114.695312 L 286.535156 164.328125 L 325.464844 144.871094 L 325.050781 142.648438 C 323.441406 134.035156 318.472656 126.125 311.414062 120.949219 Z M 311.414062 120.949219 " style=" stroke:none;fill-rule:nonzero;fill:rgb(92.941176%,42.745098%,40%);fill-opacity:1;" />
<path d="M 177.953125 479.527344 L 180.773438 479.296875 C 191.523438 478.417969 201.394531 477.46875 210.957031 476.386719 L 217.867188 475.609375 L 212.558594 471.117188 C 211.535156 470.25 210.421875 469.265625 209.195312 468.179688 L 209.070312 468.066406 C 207.613281 466.765625 206.691406 465.949219 206.148438 465.558594 C 200.8125 461.59375 195.710938 457.839844 190.996094 454.410156 C 190.3125 453.90625 189.617188 453.402344 188.921875 452.898438 L 186.964844 451.480469 L 185.160156 453.089844 C 178.648438 458.910156 175.601562 468.394531 177.566406 476.722656 L 177.558594 476.722656 Z M 177.953125 479.527344 " style=" stroke:none;fill-rule:nonzero;fill:rgb(92.941176%,42.745098%,40%);fill-opacity:1;" />
<path d="M 29.867188 448.699219 L 7.308594 447.902344 L 7.121094 468.035156 C 7.089844 471.765625 7.425781 475.464844 10.066406 477.246094 C 11.464844 478.175781 13.269531 478.347656 14.929688 478.507812 C 20.476562 479.011719 26.550781 479.496094 33.496094 479.992188 L 36.566406 480.210938 L 37.597656 457.347656 C 37.707031 454.976562 37.671875 452.296875 35.867188 450.535156 C 34.171875 448.855469 31.582031 448.761719 29.867188 448.699219 Z M 29.867188 448.699219 " style=" stroke:none;fill-rule:nonzero;fill:rgb(92.941176%,42.745098%,40%);fill-opacity:1;" />
<path d="M 34.546875 349.859375 C 33.617188 349.292969 32.324219 348.363281 30.78125 347.253906 C 23.144531 341.777344 17.222656 338.128906 13.144531 338.128906 C 12.550781 338.128906 11.988281 338.207031 11.457031 338.363281 C 10.140625 338.761719 9.207031 339.703125 8.59375 341.261719 C 7.265625 344.6875 7.605469 349.785156 7.90625 354.308594 L 7.925781 354.625 C 8.046875 356.472656 8.160156 358.21875 8.140625 359.75 L 8.042969 370.191406 L 11.121094 370.199219 C 21.578125 370.199219 31.953125 363.949219 36.933594 354.644531 L 38.257812 352.175781 L 35.886719 350.6875 C 35.445312 350.410156 35 350.136719 34.546875 349.859375 Z M 34.546875 349.859375 " style=" stroke:none;fill-rule:nonzero;fill:rgb(92.941176%,42.745098%,40%);fill-opacity:1;" />
<path d="M 34.496094 451.925781 C 35.605469 453.019531 35.757812 454.773438 35.644531 457.25 L 34.609375 480.082031 L 37.539062 480.28125 C 59.027344 481.726562 80.871094 482.460938 102.472656 482.460938 C 127.140625 482.460938 152.121094 481.503906 176.71875 479.617188 L 180.164062 479.355469 L 179.421875 475.980469 C 177.792969 468.59375 180.335938 460.382812 185.894531 455.0625 L 188.492188 452.578125 L 185.582031 450.46875 C 176.949219 444.210938 168.476562 438.15625 160.398438 432.472656 C 140.035156 418.121094 119.09375 403.875 98.15625 390.128906 C 79.144531 377.652344 59.347656 365.089844 39.320312 352.800781 L 36.625 351.144531 L 35.117188 353.921875 C 30.398438 362.597656 21.054688 368.214844 11.289062 368.257812 L 11.175781 368.246094 L 8.058594 368.246094 L 7.292969 449.863281 L 29.816406 450.65625 C 31.386719 450.714844 33.339844 450.789062 34.496094 451.925781 Z M 34.496094 451.925781 " style=" stroke:none;fill-rule:nonzero;fill:rgb(97.647059%,84.705882%,53.72549%);fill-opacity:1;" />
<path d="M 38.050781 301.433594 C 59.507812 310.855469 82.742188 315.539062 105.976562 315.539062 C 132.488281 315.539062 159 309.4375 182.828125 297.308594 C 195.921875 290.648438 218.15625 276.03125 219.957031 252.992188 C 220.886719 241.046875 215.851562 229.414062 211.800781 220.066406 L 134.820312 42.367188 C 133.984375 40.441406 133.046875 37.644531 131.960938 34.40625 C 127.96875 22.496094 123 7.671875 113.605469 4.617188 C 100.425781 0.324219 94.925781 17.0625 91.640625 27.0625 C 90.902344 29.296875 90.210938 31.410156 89.589844 32.863281 L 51.511719 122.03125 C 46.90625 132.808594 42.472656 144.046875 38.183594 154.917969 C 29.550781 176.785156 20.628906 199.402344 9.707031 219.957031 C 9.660156 220.042969 9.617188 220.132812 9.578125 220.226562 C 2.847656 235.992188 -2.835938 251.410156 1.535156 266.691406 C 5.589844 280.886719 17.878906 292.578125 38.050781 301.433594 Z M 7.167969 257.800781 C 15.433594 246.097656 26.496094 236.550781 39.3125 230.09375 C 40.308594 229.59375 40.710938 228.378906 40.207031 227.382812 C 39.707031 226.386719 38.492188 225.988281 37.496094 226.488281 C 25.824219 232.367188 15.542969 240.699219 7.375 250.835938 C 8.371094 241.902344 11.980469 232.609375 16.023438 223.136719 C 27.09375 202.269531 36.074219 179.515625 44.757812 157.511719 C 49.03125 146.6875 53.449219 135.496094 58.015625 124.804688 L 96.089844 35.636719 C 96.832031 33.90625 97.539062 31.757812 98.355469 29.265625 C 101.171875 20.6875 104.082031 12.929688 108.285156 11.363281 L 108.046875 35.820312 C 108.035156 36.933594 108.929688 37.847656 110.046875 37.855469 C 110.054688 37.855469 110.058594 37.855469 110.066406 37.855469 C 111.171875 37.855469 112.074219 36.964844 112.085938 35.855469 L 112.320312 11.734375 C 117.917969 14.761719 122.476562 28.355469 125.257812 36.652344 C 126.394531 40.042969 127.378906 42.972656 128.332031 45.175781 L 205.316406 222.875 C 208.195312 229.519531 211.34375 236.816406 212.519531 244.25 C 205.746094 237.585938 197.453125 232.613281 188.351562 229.804688 C 187.285156 229.472656 186.15625 230.074219 185.828125 231.140625 C 185.496094 232.207031 186.09375 233.335938 187.160156 233.664062 C 195.808594 236.335938 203.679688 241.097656 210.058594 247.496094 C 178.195312 247.632812 146.125 245.246094 114.644531 240.390625 L 114.644531 219.46875 C 114.644531 218.351562 113.742188 217.449219 112.625 217.449219 C 111.511719 217.449219 110.605469 218.351562 110.605469 219.46875 L 110.605469 240.992188 C 110.605469 241.441406 110.757812 241.851562 111.003906 242.1875 C 111 243.164062 111.707031 244.027344 112.703125 244.183594 C 143.964844 249.074219 175.816406 251.546875 207.480469 251.546875 C 209.304688 251.546875 211.128906 251.539062 212.949219 251.519531 C 212.933594 251.828125 212.929688 252.132812 212.90625 252.441406 C 211.375 272.042969 191.394531 285.019531 179.621094 291.007812 C 136.773438 312.8125 84.914062 314.289062 40.890625 294.960938 C 22.734375 286.992188 11.777344 276.824219 8.328125 264.746094 C 7.679688 262.464844 7.3125 260.148438 7.167969 257.800781 Z M 7.167969 257.800781 " style=" stroke:none;fill-rule:nonzero;fill:rgb(0%,0%,0%);fill-opacity:1;" />
<path d="M 507.792969 263.980469 C 501.515625 249.800781 487.890625 240.652344 476.941406 233.304688 L 426.351562 199.347656 C 424.824219 198.324219 423.042969 196.921875 421.152344 195.4375 C 415.480469 190.984375 409.050781 185.933594 402.597656 185.164062 C 397.109375 184.503906 390.960938 187.132812 385.535156 189.449219 C 383.558594 190.289062 381.695312 191.085938 380.128906 191.601562 L 264.453125 229.699219 C 257.453125 232.003906 247.867188 235.164062 242.324219 242.800781 C 236.738281 250.496094 236.714844 260.101562 237.203125 270.097656 L 242.617188 380.859375 C 243.1875 392.59375 243.902344 407.203125 251.757812 418.617188 C 256.773438 425.90625 264.167969 431.054688 270.6875 435.597656 L 348.75 489.960938 C 349.347656 490.378906 350.054688 490.59375 350.769531 490.59375 C 351.136719 490.59375 351.507812 490.539062 351.863281 490.421875 L 468.265625 452.488281 C 475.804688 450.027344 485.191406 446.96875 491.742188 440.183594 C 492.582031 439.316406 493.335938 438.402344 494.050781 437.464844 C 494.125 437.386719 494.203125 437.316406 494.265625 437.226562 C 494.296875 437.183594 494.3125 437.136719 494.339844 437.089844 C 500.832031 428.324219 502.273438 416.886719 503.207031 404.941406 L 511.25 302.1875 C 512.148438 290.679688 513.269531 276.355469 507.792969 263.980469 Z M 266.664062 236.414062 L 382.339844 198.316406 C 384.191406 197.707031 386.191406 196.851562 388.308594 195.949219 C 392.230469 194.277344 396.589844 192.425781 400.03125 192.167969 L 400.429688 220.375 C 400.445312 221.480469 401.34375 222.367188 402.445312 222.367188 C 402.457031 222.367188 402.464844 222.367188 402.476562 222.367188 C 403.589844 222.351562 404.480469 221.433594 404.46875 220.320312 L 404.078125 192.761719 C 408.140625 194.214844 412.863281 197.917969 416.785156 200.996094 C 418.78125 202.566406 420.667969 204.046875 422.414062 205.21875 L 473 239.171875 C 481.652344 244.976562 492.078125 252 498.375 261.511719 C 468.511719 277.753906 437.507812 292.089844 405.746094 304.382812 L 405.554688 274.804688 C 405.546875 273.6875 404.609375 272.777344 403.519531 272.796875 C 402.40625 272.804688 401.507812 273.714844 401.515625 274.832031 L 401.714844 305.933594 C 387.539062 311.332031 373.21875 316.328125 358.78125 320.894531 C 358.570312 320.777344 358.34375 320.679688 358.109375 320.605469 L 248.753906 246.050781 C 252.734375 241.300781 259.238281 238.859375 266.664062 236.414062 Z M 257.707031 414.773438 L 266.679688 413.441406 C 267.785156 413.277344 268.546875 412.25 268.382812 411.148438 C 268.21875 410.042969 267.1875 409.28125 266.089844 409.445312 L 255.464844 411.019531 C 250.71875 401.710938 250.144531 390.082031 249.675781 380.511719 L 244.265625 269.75 C 243.957031 263.476562 243.867188 257.417969 245.429688 252.335938 L 353.460938 325.988281 L 351.0625 390.402344 L 320.839844 398.253906 C 319.757812 398.535156 319.109375 399.636719 319.390625 400.714844 C 319.628906 401.625 320.445312 402.226562 321.34375 402.226562 C 321.511719 402.226562 321.683594 402.207031 321.851562 402.164062 L 350.90625 394.613281 L 347.707031 480.617188 L 274.730469 429.796875 C 268.464844 425.429688 261.992188 420.914062 257.707031 414.773438 Z M 504.203125 301.636719 L 496.160156 404.390625 C 495.363281 414.578125 494.199219 424.308594 489.574219 431.539062 L 473.484375 420.441406 C 472.566406 419.804688 471.308594 420.039062 470.675781 420.957031 C 470.042969 421.875 470.273438 423.132812 471.191406 423.765625 L 487.121094 434.75 C 486.964844 434.925781 486.820312 435.105469 486.65625 435.277344 C 481.332031 440.792969 473.226562 443.433594 466.074219 445.765625 L 354.726562 482.050781 L 360.46875 327.765625 C 409.25 312.371094 456.757812 292.1875 501.699219 267.75 C 506.011719 278.300781 505.058594 290.675781 504.203125 301.636719 Z M 504.203125 301.636719 " style=" stroke:none;fill-rule:nonzero;fill:rgb(0%,0%,0%);fill-opacity:1;" />
<path d="M 48.480469 225.421875 C 48.765625 225.421875 49.054688 225.359375 49.332031 225.230469 C 59.214844 220.644531 70.191406 217.988281 81.078125 217.550781 C 82.195312 217.507812 83.0625 216.566406 83.015625 215.453125 C 82.972656 214.335938 82.015625 213.46875 80.917969 213.515625 C 69.503906 213.972656 57.992188 216.757812 47.628906 221.570312 C 46.617188 222.039062 46.175781 223.242188 46.648438 224.25 C 46.988281 224.988281 47.71875 225.421875 48.480469 225.421875 Z M 48.480469 225.421875 " style=" stroke:none;fill-rule:nonzero;fill:rgb(0%,0%,0%);fill-opacity:1;" />
<path d="M 94.167969 215.75 C 94.324219 215.75 94.480469 215.730469 94.640625 215.695312 C 103.804688 213.507812 113.523438 213.382812 122.746094 215.332031 C 123.839844 215.558594 124.910156 214.863281 125.140625 213.769531 C 125.371094 212.679688 124.671875 211.609375 123.582031 211.378906 C 113.777344 209.308594 103.445312 209.445312 93.703125 211.765625 C 92.617188 212.023438 91.945312 213.113281 92.207031 214.199219 C 92.425781 215.125 93.253906 215.75 94.167969 215.75 Z M 94.167969 215.75 " style=" stroke:none;fill-rule:nonzero;fill:rgb(0%,0%,0%);fill-opacity:1;" />
<path d="M 137.589844 214.085938 C 137.316406 215.167969 137.972656 216.265625 139.054688 216.539062 L 170.253906 224.414062 C 170.421875 224.457031 170.585938 224.476562 170.75 224.476562 C 171.652344 224.476562 172.476562 223.867188 172.707031 222.949219 C 172.980469 221.867188 172.324219 220.769531 171.242188 220.496094 L 140.042969 212.621094 C 138.960938 212.347656 137.863281 213.003906 137.589844 214.085938 Z M 137.589844 214.085938 " style=" stroke:none;fill-rule:nonzero;fill:rgb(0%,0%,0%);fill-opacity:1;" />
<path d="M 402.644531 261.023438 C 402.648438 261.023438 402.65625 261.023438 402.664062 261.023438 C 403.777344 261.011719 404.675781 260.101562 404.664062 258.984375 L 404.421875 234.820312 C 404.410156 233.707031 403.492188 232.859375 402.378906 232.820312 C 401.265625 232.832031 400.371094 233.746094 400.378906 234.863281 L 400.625 259.027344 C 400.636719 260.132812 401.539062 261.023438 402.644531 261.023438 Z M 402.644531 261.023438 " style=" stroke:none;fill-rule:nonzero;fill:rgb(0%,0%,0%);fill-opacity:1;" />
<path d="M 403.445312 351.960938 C 403.457031 351.960938 403.46875 351.960938 403.480469 351.960938 C 404.578125 351.960938 405.480469 351.078125 405.5 349.976562 L 405.9375 323.617188 C 405.957031 322.5 405.066406 321.582031 403.953125 321.5625 C 402.839844 321.535156 401.917969 322.433594 401.898438 323.550781 L 401.460938 349.90625 C 401.441406 351.023438 402.328125 351.945312 403.445312 351.960938 Z M 403.445312 351.960938 " style=" stroke:none;fill-rule:nonzero;fill:rgb(0%,0%,0%);fill-opacity:1;" />
<path d="M 404.203125 355.847656 C 403.097656 355.757812 402.117188 356.578125 402.019531 357.691406 L 400.265625 378.339844 C 400.167969 379.449219 400.996094 380.425781 402.105469 380.519531 C 402.164062 380.527344 402.222656 380.527344 402.277344 380.527344 C 403.316406 380.527344 404.199219 379.734375 404.289062 378.679688 L 406.046875 358.03125 C 406.140625 356.921875 405.316406 355.945312 404.203125 355.847656 Z M 404.203125 355.847656 " style=" stroke:none;fill-rule:nonzero;fill:rgb(0%,0%,0%);fill-opacity:1;" />
<path d="M 395.09375 380.140625 L 369.597656 386.230469 C 368.515625 386.488281 367.84375 387.578125 368.101562 388.664062 C 368.324219 389.589844 369.152344 390.214844 370.066406 390.214844 C 370.222656 390.214844 370.378906 390.195312 370.535156 390.160156 L 396.03125 384.070312 C 397.117188 383.8125 397.785156 382.722656 397.527344 381.636719 C 397.269531 380.550781 396.179688 379.882812 395.09375 380.140625 Z M 395.09375 380.140625 " style=" stroke:none;fill-rule:nonzero;fill:rgb(0%,0%,0%);fill-opacity:1;" />
<path d="M 302.769531 402.910156 L 283 408.183594 C 281.921875 408.46875 281.28125 409.578125 281.566406 410.65625 C 281.808594 411.558594 282.625 412.15625 283.519531 412.15625 C 283.691406 412.15625 283.867188 412.132812 284.039062 412.085938 L 303.808594 406.8125 C 304.886719 406.527344 305.527344 405.421875 305.242188 404.34375 C 304.953125 403.265625 303.839844 402.625 302.769531 402.910156 Z M 302.769531 402.910156 " style=" stroke:none;fill-rule:nonzero;fill:rgb(0%,0%,0%);fill-opacity:1;" />
<path d="M 429.800781 395.675781 L 407.394531 384.253906 C 406.402344 383.746094 405.183594 384.140625 404.679688 385.136719 C 404.171875 386.128906 404.566406 387.34375 405.5625 387.851562 L 427.964844 399.273438 C 428.261719 399.421875 428.574219 399.496094 428.882812 399.496094 C 429.617188 399.496094 430.328125 399.089844 430.683594 398.390625 C 431.1875 397.398438 430.792969 396.179688 429.800781 395.675781 Z M 429.800781 395.675781 " style=" stroke:none;fill-rule:nonzero;fill:rgb(0%,0%,0%);fill-opacity:1;" />
<path d="M 461.597656 413.347656 L 446.640625 403.710938 C 445.707031 403.105469 444.453125 403.375 443.851562 404.3125 C 443.246094 405.25 443.515625 406.5 444.453125 407.105469 L 459.410156 416.742188 C 459.746094 416.960938 460.125 417.0625 460.5 417.0625 C 461.164062 417.0625 461.8125 416.738281 462.199219 416.136719 C 462.804688 415.203125 462.535156 413.953125 461.597656 413.347656 Z M 461.597656 413.347656 " style=" stroke:none;fill-rule:nonzero;fill:rgb(0%,0%,0%);fill-opacity:1;" />
<path d="M 111.367188 80.46875 C 111.394531 80.46875 111.421875 80.46875 111.449219 80.464844 C 112.5625 80.421875 113.433594 79.480469 113.386719 78.367188 L 112.289062 51.121094 C 112.246094 50.003906 111.292969 49.144531 110.1875 49.183594 C 109.074219 49.226562 108.207031 50.167969 108.253906 51.285156 L 109.351562 78.53125 C 109.394531 79.617188 110.289062 80.46875 111.367188 80.46875 Z M 111.367188 80.46875 " style=" stroke:none;fill-rule:nonzero;fill:rgb(0%,0%,0%);fill-opacity:1;" />
<path d="M 111.859375 90.488281 C 110.746094 90.5 109.851562 91.417969 109.867188 92.535156 L 110.257812 122.847656 C 110.269531 123.953125 111.171875 124.839844 112.277344 124.839844 C 112.285156 124.839844 112.292969 124.839844 112.304688 124.839844 C 113.417969 124.824219 114.3125 123.910156 114.296875 122.792969 L 113.90625 92.480469 C 113.894531 91.367188 112.972656 90.503906 111.859375 90.488281 Z M 111.859375 90.488281 " style=" stroke:none;fill-rule:nonzero;fill:rgb(0%,0%,0%);fill-opacity:1;" />
<path d="M 112.230469 136.617188 C 111.117188 136.632812 110.226562 137.550781 110.246094 138.667969 L 110.683594 165.027344 C 110.703125 166.128906 111.601562 167.011719 112.703125 167.011719 C 112.714844 167.011719 112.726562 167.011719 112.734375 167.011719 C 113.851562 166.992188 114.742188 166.074219 114.722656 164.957031 L 114.285156 138.601562 C 114.265625 137.484375 113.335938 136.550781 112.230469 136.617188 Z M 112.230469 136.617188 " style=" stroke:none;fill-rule:nonzero;fill:rgb(0%,0%,0%);fill-opacity:1;" />
<path d="M 112.429688 172.195312 C 111.3125 172.214844 110.425781 173.136719 110.449219 174.253906 L 110.875 195.78125 C 110.894531 196.882812 111.796875 197.757812 112.890625 197.757812 C 112.90625 197.757812 112.917969 197.757812 112.933594 197.757812 C 114.046875 197.738281 114.933594 196.8125 114.914062 195.699219 L 114.488281 174.171875 C 114.464844 173.058594 113.539062 172.167969 112.429688 172.195312 Z M 112.429688 172.195312 " style=" stroke:none;fill-rule:nonzero;fill:rgb(0%,0%,0%);fill-opacity:1;" />
<path d="M 260.738281 26.800781 C 261.351562 27.222656 262.046875 27.421875 262.738281 27.421875 C 263.863281 27.421875 264.96875 26.886719 265.652344 25.886719 L 275.816406 11.085938 L 282.5 165.328125 C 282.550781 166.527344 283.207031 167.613281 284.238281 168.222656 C 284.789062 168.546875 285.410156 168.710938 286.03125 168.710938 C 286.570312 168.710938 287.113281 168.585938 287.609375 168.339844 L 452.21875 86.058594 L 448.472656 95.09375 C 447.722656 96.894531 448.578125 98.964844 450.382812 99.710938 C 450.824219 99.894531 451.285156 99.984375 451.734375 99.984375 C 453.121094 99.984375 454.4375 99.164062 455 97.800781 L 463.484375 77.355469 C 463.886719 76.390625 463.835938 75.292969 463.351562 74.363281 C 462.867188 73.4375 461.992188 72.769531 460.96875 72.546875 C 453.472656 70.925781 445.820312 70.597656 438.214844 71.5625 C 436.28125 71.808594 434.910156 73.582031 435.15625 75.515625 C 435.402344 77.453125 437.167969 78.824219 439.109375 78.578125 C 444.5 77.890625 449.917969 77.933594 455.273438 78.703125 L 454.859375 79.699219 C 453.820312 78.570312 452.132812 78.203125 450.6875 78.921875 L 325.835938 141.328125 C 323.972656 132.902344 318.996094 125.222656 312.03125 120.113281 C 304.980469 114.941406 296.023438 112.507812 287.320312 113.351562 L 282.925781 11.90625 L 297.082031 20.082031 C 298.773438 21.058594 300.933594 20.480469 301.910156 18.789062 C 302.886719 17.097656 302.308594 14.9375 300.617188 13.960938 L 278.140625 0.972656 C 276.542969 0.0507812 274.503906 0.511719 273.460938 2.035156 L 259.828125 21.886719 C 258.722656 23.496094 259.128906 25.695312 260.738281 26.800781 Z M 309.644531 123.371094 C 316.097656 128.105469 320.632812 135.328125 322.101562 143.195312 L 289.324219 159.578125 L 287.5 117.390625 C 295.289062 116.578125 303.328125 118.734375 309.644531 123.371094 Z M 309.644531 123.371094 " style=" stroke:none;fill-rule:nonzero;fill:rgb(0%,0%,0%);fill-opacity:1;" />
<path d="M 220.847656 472.246094 C 219.066406 471.515625 214.070312 467.070312 211.902344 465.140625 C 210.40625 463.804688 209.324219 462.84375 208.578125 462.289062 C 203.542969 458.550781 198.433594 454.792969 193.390625 451.117188 C 183.289062 443.75 172.976562 436.355469 162.742188 429.144531 C 142.289062 414.734375 121.308594 400.464844 100.386719 386.730469 C 79.453125 372.988281 58.015625 359.417969 36.667969 346.386719 C 35.859375 345.894531 34.609375 344.996094 33.164062 343.957031 C 24.710938 337.886719 16.601562 332.589844 10.308594 334.464844 C 8.535156 334.992188 6.140625 336.34375 4.800781 339.792969 C 3.144531 344.0625 3.515625 349.65625 3.84375 354.585938 C 3.96875 356.472656 4.085938 358.25 4.074219 359.714844 L 3.054688 467.988281 C 3.027344 471.035156 2.96875 477.375 7.792969 480.617188 C 10.066406 482.144531 12.664062 482.378906 14.558594 482.550781 C 43.777344 485.214844 73.148438 486.542969 102.527344 486.542969 C 142.179688 486.542969 181.839844 484.121094 221.140625 479.285156 C 223.078125 479.046875 224.457031 477.285156 224.214844 475.347656 C 224 473.601562 222.550781 472.308594 220.847656 472.246094 Z M 11.390625 342.347656 C 11.757812 341.40625 12.125 341.296875 12.320312 341.238281 C 15.808594 340.203125 25.082031 346.855469 29.039062 349.699219 C 30.601562 350.820312 31.949219 351.789062 32.984375 352.421875 C 33.421875 352.6875 33.855469 352.960938 34.292969 353.226562 C 29.839844 361.539062 20.507812 367.21875 11.070312 367.199219 L 11.140625 359.78125 C 11.15625 358.046875 11.03125 356.136719 10.894531 354.117188 C 10.617188 349.917969 10.300781 345.15625 11.390625 342.347656 Z M 11.734375 474.75 C 10.261719 473.757812 10.101562 470.652344 10.125 468.054688 L 10.285156 451.011719 L 29.761719 451.699219 C 31.414062 451.757812 32.960938 451.875 33.765625 452.667969 C 34.6875 453.574219 34.679688 455.488281 34.601562 457.207031 L 33.707031 476.996094 C 27.53125 476.554688 21.359375 476.074219 15.199219 475.511719 C 13.9375 475.398438 12.507812 475.269531 11.734375 474.75 Z M 37.734375 477.289062 L 38.636719 457.390625 C 38.753906 454.800781 38.703125 451.863281 36.601562 449.789062 C 34.609375 447.828125 31.777344 447.726562 29.90625 447.660156 L 10.324219 446.96875 L 11.035156 371.25 C 11.085938 371.25 11.132812 371.257812 11.183594 371.257812 C 22.097656 371.257812 32.5625 364.910156 37.746094 355.351562 C 57.449219 367.445312 77.191406 379.960938 96.507812 392.636719 C 117.363281 406.328125 138.277344 420.554688 158.671875 434.921875 C 167.058594 440.832031 175.492188 446.863281 183.820312 452.902344 C 177.566406 458.882812 174.621094 468.128906 176.488281 476.628906 C 130.34375 480.171875 83.894531 480.394531 37.734375 477.289062 Z M 180.523438 476.300781 C 180.515625 476.234375 180.515625 476.164062 180.496094 476.09375 C 178.742188 468.746094 181.523438 460.371094 187.164062 455.328125 C 187.847656 455.828125 188.539062 456.328125 189.222656 456.824219 C 194.25 460.492188 199.34375 464.238281 204.367188 467.964844 C 204.859375 468.332031 205.996094 469.34375 207.203125 470.417969 C 208.453125 471.53125 209.585938 472.523438 210.617188 473.410156 C 200.605469 474.535156 190.570312 475.488281 180.523438 476.300781 Z M 180.523438 476.300781 " style=" stroke:none;fill-rule:nonzero;fill:rgb(0%,0%,0%);fill-opacity:1;" />
</g>
</svg>