<?xml version="1.0" encoding="UTF-8" standalone="no"?>
<svg
   xmlns:dc="http://purl.org/dc/elements/1.1/"
   xmlns:cc="http://creativecommons.org/ns#"
   xmlns:rdf="http://www.w3.org/1999/02/22-rdf-syntax-ns#"
   xmlns:svg="http://www.w3.org/2000/svg"
   xmlns="http://www.w3.org/2000/svg"
   xmlns:sodipodi="http://sodipodi.sourceforge.net/DTD/sodipodi-0.dtd"
   xmlns:inkscape="http://www.inkscape.org/namespaces/inkscape"
   height="210pt"
   viewBox="-4 0 206.95137 210.00017"
   width="206.95137pt"
   version="1.1"
   id="svg3274"
   sodipodi:docname="gruppo.svg"
   inkscape:version="0.92.3 (unknown)">
  <metadata
     id="metadata3280">
    <rdf:RDF>
      <cc:Work
         rdf:about="">
        <dc:format>image/svg+xml</dc:format>
        <dc:type
           rdf:resource="http://purl.org/dc/dcmitype/StillImage" />
        <dc:title></dc:title>
      </cc:Work>
    </rdf:RDF>
  </metadata>
  <defs
     id="defs3278" />
  <sodipodi:namedview
     pagecolor="#ffffff"
     bordercolor="#666666"
     borderopacity="1"
     objecttolerance="10"
     gridtolerance="10"
     guidetolerance="10"
     inkscape:pageopacity="0"
     inkscape:pageshadow="2"
     inkscape:window-width="1366"
     inkscape:window-height="741"
     id="namedview3276"
     showgrid="false"
     fit-margin-top="0"
     fit-margin-left="0"
     fit-margin-right="0"
     fit-margin-bottom="0"
     inkscape:zoom="0.30866868"
     inkscape:cx="23.123622"
     inkscape:cy="280.33624"
     inkscape:window-x="0"
     inkscape:window-y="27"
     inkscape:window-maximized="1"
     inkscape:current-layer="svg3274" />
  <g
     id="g3287"
     transform="matrix(0.41015701,0,0,0.41015701,-3.9996352,-3.0685346e-4)">
    <path
       id="path3264"
       d="m 350.48828,505.94922 c -38.14844,0 -71.67578,-1.28906 -102.50391,-3.9336 l -5.32031,-0.45312 1.9336,-4.97656 c 0.89453,-2.3086 1.28125,-4.63282 1.5625,-6.32813 4.33593,-26.0039 3.58203,-53.35156 -2.17969,-79.09375 -0.63281,-2.82422 -1.44141,-5.74609 -3.69922,-7.63281 -1.50781,-1.26172 -3.34766,-1.875 -5.62891,-1.875 -2.05078,0 -4.4414,0.50391 -7.10156,1.49609 -3.98047,1.48438 -8.01953,3.32422 -11.92969,5.10157 -9.65234,4.38672 -18.73047,8.51562 -28.07031,8.51562 -2.67187,0 -5.27344,-0.35156 -7.73047,-1.04687 -12.01172,-3.39453 -21.15625,-16.85938 -20.82422,-30.65625 0.3086,-12.41016 7.33203,-25.20704 18.78125,-34.23438 6.96485,-5.48828 14.59766,-8.51172 21.5,-8.51172 2.56641,0 5.01172,0.41407 7.25782,1.23438 3.28515,1.19922 6.15625,3.1914 9.1914,5.30078 l 0.16016,0.11328 c 3.9375,2.74609 7.63672,5.32812 12.21875,6.32422 1.24609,0.27344 2.51953,0.41015 3.78906,0.41015 4.50391,0 9.03125,-1.71093 13.09766,-4.94921 4.78125,-3.82032 8.46093,-9.39844 10.09765,-15.3086 2.82813,-10.21484 1.23047,-20.92578 -0.32031,-31.28125 l -0.0273,-0.1914 c -0.20313,-1.36329 -0.40625,-2.72657 -0.58985,-4.08204 -1.74218,-12.28125 -2.55078,-24.91406 -2.39453,-37.52734 l 0.0469,-4.05469 77.04687,2.01172 c 2.35938,0.0703 4.80078,0.14063 6.89844,1.14063 4.49219,2.16406 7.125,9.42968 3.58203,17.41406 -1.28516,2.88672 -3.01172,5.48828 -4.83984,8.24609 -2.14063,3.20313 -4.33203,6.49219 -5.69922,10.22657 -3.42969,9.33984 -1.02735,20.92187 6.11719,29.50781 7.64843,9.19922 18.63281,13.40234 26.5,15.3125 4.92578,1.19531 9.80859,1.80078 14.51953,1.80078 5.77734,0 11.23437,-0.90625 16.21875,-2.6875 10.41797,-3.73438 18.69531,-11.56641 22.14453,-20.95703 3.89844,-10.61719 1.64453,-21.95313 -0.53516,-32.91797 -1.125,-5.63281 -2.28515,-11.44922 -2.60547,-17.16016 -0.11328,-2.35547 0,-4.16015 0.92188,-5.59375 1.23828,-1.95312 3.59765,-2.75 7,-3.39453 l 0.10156,-0.0195 c 10.84766,-1.98437 21.91016,-2.99219 32.87891,-2.99219 9.60547,0 19.3125,0.77344 28.84765,2.29688 3.28125,0.51953 6.69922,1.20312 9.14453,3.28906 2.49219,2.11328 3.67969,5.46875 4.51563,8.47266 2.33203,8.47265 2.89062,17.5625 3.26172,26.14843 1.34765,31.42188 0.49609,63.42188 -0.32422,94.36719 l -0.0117,0.40235 c -0.6875,26.19531 -1.39844,53.27734 -0.78125,79.91796 0.21094,9.09766 -0.0156,17.08594 -4.91406,22.70313 -5.47266,6.28906 -14.80469,7.12109 -23.89844,7.42969 -38.23437,1.3125 -77.76953,2.67578 -117.40625,2.67578 z m 0,0"
       inkscape:connector-curvature="0"
       style="fill:#ed6d66" />
    <path
       id="path3266"
       d="m 375.92969,341.93359 c -4.54297,0 -9.26563,-0.58593 -14.03516,-1.74609 -7.58203,-1.84375 -18.14062,-5.88281 -25.41797,-14.64844 -6.67969,-8.02344 -8.94922,-18.8125 -5.77734,-27.48047 1.28125,-3.47656 3.30859,-6.52734 5.45312,-9.7539 1.83594,-2.77344 3.69141,-5.56641 5.03516,-8.60156 1.56641,-3.51954 2.11719,-7.60938 1.52344,-11.23047 -0.69532,-4.21485 -2.78907,-7.26953 -6.0625,-8.84375 -2.53516,-1.21094 -5.3711,-1.28516 -7.875,-1.34766 l -72.58594,-1.89844 1.64062,-5.08593 c 0.5625,-1.7461 0.67969,-3.58204 0.75782,-4.79297 1.33203,-21.625 0.27343,-43.42578 -3.14844,-64.78516 l -0.19922,-1.23047 c -0.78125,-4.88672 -1.51953,-9.5 -0.88281,-14.15234 0.28515,-2.08985 1.6875,-9.11328 7.63672,-11.9336 1.50781,-0.71875 3.18359,-1.08203 4.98047,-1.08203 5.91406,0 11.45703,3.96094 13.5664,5.66407 1.77735,1.44531 3.44531,3.0039 5.0586,4.50781 l 0.082,0.0742 c 3.70312,3.4414 7.20312,6.6914 11.70312,8.76562 3.16016,1.46094 6.55469,2.19922 10.08985,2.19922 12.5039,0 24.21875,-8.98828 30.27734,-17.89453 9.91797,-14.57422 11.94531,-33.33203 5.16797,-47.78125 -6.125,-13.07422 -20.20703,-22.207032 -34.24219,-22.207032 -2.50781,0 -4.97656,0.292968 -7.33203,0.871093 -3.75391,0.917969 -7.30078,2.496094 -10.73047,4.023438 -3.08594,1.378906 -6.1914,2.765625 -9.39844,3.679687 -2.15234,0.617188 -4.46093,0.945313 -6.67187,0.945313 -5.29688,0 -9.5,-1.835938 -11.83985,-5.175781 -1.73046,-2.453126 -2.37109,-5.5 -2.80078,-9.320313 -1.96875,-17.214844 0.31641,-34.8125 2.52735,-51.828125 l 0.0742,-0.570312 c 0.45312,-3.484376 0.90625,-6.964844 1.32031,-10.441407 0.13281,-1.144531 0.3164,-2.734375 0.19531,-4.3125 l -0.33594,-4.25 187.80469,-2.730469 c 1.10156,-0.015624 2.21485,-0.027343 3.33594,-0.027343 11.97265,0 25.24219,1.207031 32.91015,10.164062 6.4375,7.523438 7.05469,18.253907 7.15235,29.519531 l 1.32812,153.617188 c 0.1211,14.72656 -1.26562,30.21875 -2.60937,45.19922 l -0.0664,0.69531 c -0.29297,3.25 -0.59375,6.5625 -0.86719,9.86328 l -0.43359,5.25 -4.94141,-1.83203 c -2.03906,-0.75781 -4.21875,-1.16406 -6.08203,-1.46094 -9.63281,-1.53515 -19.43359,-2.3164 -29.13672,-2.3164 -11.10156,0 -22.29687,1.01953 -33.26953,3.03125 -2.25781,0.41015 -6.44531,1.16797 -8.45703,4.32422 -1.30469,2.03906 -1.35937,4.46484 -1.23047,6.78515 0.3125,5.75782 1.46875,11.60157 2.58985,17.25 l 0.0391,0.19532 c 2.13281,10.67187 4.33984,21.71484 0.63281,31.82812 -3.25,8.82813 -11.07031,16.20703 -20.92578,19.73828 -4.76172,1.70313 -9.98437,2.57031 -15.52734,2.57031 z m 0,0"
       inkscape:connector-curvature="0"
       style="fill:#59bd8b" />
    <path
       id="path3268"
       d="m 208.53906,255.66016 c -13.30469,0 -26.72265,-0.22657 -39.8789,-0.66797 -7.38672,-0.24219 -11.5586,-2.09766 -12.74219,-5.67188 -0.60156,-1.82422 -0.26563,-3.91797 0.1875,-5.91015 1.09765,-4.71875 2.76953,-9.27344 4.38672,-13.67579 1.98437,-5.43359 4.03906,-11.05859 5.04297,-16.91406 2.80859,-16.51172 -3.48438,-33.74609 -16.03516,-43.91015 -7.45703,-6.03516 -17.01563,-9.35938 -26.91406,-9.35938 -6.8711,0 -13.50391,1.64844 -19.17188,4.76563 -14.617185,8.04687 -22.703122,26.00781 -18.812498,41.77734 1.789063,7.25 5.773438,13.66797 9.625,19.87109 l -3.335937,2.20703 3.398437,-2.11328 c 2.445313,3.9336 4.757813,7.64453 6.640628,11.66797 1.3164,2.73828 1.75,4.7461 1.3789,6.47266 -0.94531,4.47656 -6.937496,6 -11.792965,6.48437 -12.394531,1.24219 -25.019531,1.8711 -37.527344,1.8711 -12.808593,0 -25.738281,-0.66016 -38.429687,-1.96485 l -3.398438,-0.34765 -0.195312,-3.59375 C 10.054688,228.29687 9.027344,207.51562 8.195312,187.5 6.433594,145.43359 5.796875,112.96094 6.128906,82.210938 c 0.203125,-18.675782 0.75,-35.867188 1.675782,-52.558594 0.066406,-1.089844 0.082031,-2.1875 0.097656,-3.25 l 0.00781,-0.542969 c 0.070313,-5.316406 0.136719,-10.34375 4.117188,-13.898437 4.125,-3.695313 10.265625,-4.3125 16.285156,-4.425782 l 0.27344,-0.00391 C 68.589844,6.796875 109.96094,6.039062 151.16016,6.039062 c 36.78515,0 69.27343,0.609376 99.32031,1.855469 4.18359,0.179688 9.19531,0.835938 10.91797,4.398438 0.84375,1.789062 0.67968,3.894531 0.40234,6.265625 -0.35937,3.050781 -0.75,6.082031 -1.14453,9.113281 l -0.24609,1.902344 c -2.22657,17.140625 -4.52735,34.859375 -2.53907,52.324219 0.47266,4.128906 1.1875,7.457031 3.16016,10.269531 1,1.425781 4.94141,6.097656 13.44531,6.097656 2.32031,0 4.77344,-0.367187 7.29688,-1.089844 3.3164,-0.941406 6.49218,-2.359375 9.5625,-3.730469 3.375,-1.503906 6.85547,-3.054687 10.48437,-3.945312 2.1875,-0.539062 4.48047,-0.8125 6.82031,-0.8125 13.29297,0 26.625,8.644531 32.42579,21.02734 6.47656,13.82032 4.51171,31.78516 -5.00782,45.76953 -6.90234,10.14844 -18.39843,16.97266 -28.60156,16.97266 -3.26562,0 -6.36719,-0.66797 -9.21875,-1.98437 -4.21484,-1.9375 -7.58984,-5.07422 -11.16406,-8.39454 l -0.0899,-0.082 c -1.72656,-1.61328 -3.40625,-3.16797 -5.16796,-4.60156 -4.85938,-3.93359 -10.14454,-6.10156 -14.8711,-6.10156 -2.10547,0 -4.0664,0.42578 -5.83594,1.26562 -4.63671,2.19922 -7.91796,7.2461 -8.77343,13.4961 -0.6875,4.99609 0.125,10.01562 0.90625,14.87109 l 0.17968,1.08984 c 3.39454,21.22657 4.44532,42.875 3.125,64.36329 -0.17578,2.97656 -0.55859,5.12109 -1.9375,6.5664 -1.54687,1.58985 -3.84375,1.96485 -7.29687,2.08203 -12.82813,0.42188 -25.86719,0.63282 -38.77344,0.63282 z m 0,0"
       inkscape:connector-curvature="0"
       style="fill:#f9d889" />
    <path
       id="path3270"
       d="m 180.28516,504.84766 c -22.24219,0 -44.57813,-0.76172 -66.1836,-1.5 L 36.070312,500.67969 C 26.472656,500.35547 16.960938,499.10937 12.375,492.26953 9.789062,488.40234 9.363281,483.73437 9.070312,478.03906 5.359375,404.57422 5.480469,329.98047 9.429688,256.32812 l 0.226562,-4.22656 c 0,0 4.582031,0.50781 4.742188,0.52735 12.734374,1.30859 25.710937,1.96875 38.566406,1.96875 12.582031,0 25.285156,-0.63282 37.75,-1.88282 5.535156,-0.55468 12.382816,-2.40625 13.585936,-8.08984 0.58985,-2.74219 -0.4414,-5.46484 -1.52344,-7.76953 -1.9414,-4.14063 -4.398434,-8.08594 -6.773434,-11.90625 -3.964844,-6.36719 -7.707031,-12.37891 -9.421875,-19.35156 -3.625,-14.64844 4.203125,-31.9961 17.816409,-39.48829 5.41015,-2.98437 11.71875,-4.55859 18.23828,-4.55859 9.37109,0 18.45703,3.17578 25.57422,8.94531 11.8125,9.5625 17.96484,26.4336 15.30468,41.98047 -0.94921,5.60547 -2.86328,10.85156 -4.88671,16.40235 l -0.0547,0.15234 c -1.64453,4.48047 -3.33985,9.10547 -4.45313,13.91406 -0.5039,2.16406 -0.91406,4.6875 -0.13281,7.01953 1.46875,4.41407 6.38281,6.79297 14.60938,7.07032 13.35937,0.4414 26.77734,0.66796 39.875,0.66796 12.26171,0 24.75781,-0.19921 37.13671,-0.58593 l 4.19532,-0.13282 -0.0703,4.19532 c -0.21875,13.05859 0.58594,26.1875 2.39063,39.01953 l 0.62891,4.27734 c 1.58593,10.62891 3.07812,20.64844 0.36718,30.42578 -2.55859,9.22266 -11.21093,18.76563 -21.26953,18.76563 -1.10937,0 -2.22265,-0.1211 -3.30469,-0.35938 -4.20703,-0.92187 -7.91015,-3.5039 -11.49218,-6.0039 -3.04688,-2.13672 -6.19141,-4.33985 -9.82032,-5.66407 -2.4375,-0.88671 -5.08984,-1.33593 -7.88671,-1.33593 -7.42188,0 -15.52735,3.16797 -22.82813,8.91797 -11.93359,9.41406 -19.24609,22.79296 -19.55859,35.79687 -0.36719,14.92188 9.22265,28.96484 22.30078,32.66406 2.71094,0.76563 5.43359,1.14063 8.3164,1.14063 9.71485,0 19.4336,-4.42188 28.83594,-8.69531 l 0.20703,-0.0937 c 4,-1.81641 7.78125,-3.53125 11.64844,-4.97266 2.44141,-0.91016 4.57813,-1.37109 6.34375,-1.37109 1.78125,0 3.25,0.47656 4.35938,1.41406 1.76171,1.46484 2.45312,4.00781 3.00781,6.48437 5.71484,25.49219 6.46484,52.57032 2.16797,78.32813 -0.625,3.73828 -1.53125,7.92969 -4.3711,10.3789 -2.64453,2.30469 -6.4414,2.73829 -10.42578,3.00782 -14.92187,1.03906 -30.97265,1.54297 -49.0664,1.54297 z m 0,0"
       inkscape:connector-curvature="0"
       style="fill:#5bd0fc" />
    <path
       id="path3272"
       d="m 503.85547,298.19531 c -0.37891,-8.91015 -0.96094,-18.37109 -3.47656,-27.49219 -0.53125,-1.92968 -1.25391,-4.125 -2.36328,-6.24218 0.0625,-0.25391 0.11328,-0.51172 0.13671,-0.78125 0.42188,-5.56641 0.94141,-11.3711 1.44922,-16.98047 1.36719,-15.17188 2.77735,-30.86719 2.64844,-45.94141 L 500.92969,47.132812 c -0.10938,-12.417968 -0.84766,-24.3125 -8.60938,-33.386718 -10.01562,-11.703125 -26.3789,-12.457032 -40.92187,-12.25 L 262.57813,4.238281 c -0.3125,0.00391 -0.61719,0.046875 -0.91407,0.105469 C 257.70313,2.164062 252.99609,1.957031 250.73438,1.863281 176.52344,-1.222656 101.12109,0.160156 28.199219,1.5 21.015625,1.628906 13.597656,2.445312 7.988281,7.460938 2.046875,12.773438 1.949219,19.988281 1.867188,25.785156 1.851562,27.015625 1.835938,28.179688 1.773438,29.3125 0.835938,46.234375 0.285156,63.519531 0.0820312,82.148438 -0.246094,112.89844 0.390625,145.46484 2.152344,187.75 c 0.820312,19.73828 1.8125,39.78906 2.773437,59.18359 l 0.019531,0.36719 c 0.019532,0.38672 0.046876,0.875 0.109376,1.41406 -0.820313,0.84375 -1.367188,1.96485 -1.4375,3.23438 -4.183594,75.09765 -4.375,151.26953 -0.574219,226.39062 0.25,4.95313 0.59375,11.73047 4.308593,17.28125 6.09375,9.10547 17.304688,10.71485 28.511719,11.09766 l 77.847659,2.66016 c 21.875,0.75 44.17187,1.51171 66.54687,1.51171 16.51563,0 33.07422,-0.41796 49.52344,-1.55859 3.39844,-0.23828 6.90625,-0.61719 10.09766,-2.03516 0.25,0.0664 0.50781,0.12891 0.77734,0.15235 36.34766,3.39453 72.99609,4.55078 109.53516,4.55078 39.625,0 79.11718,-1.35938 117.91406,-2.69531 9.95312,-0.34375 21.16797,-1.38672 28.23828,-9.4961 6.84375,-7.84375 6.58594,-18.80468 6.39844,-26.80859 -0.6211,-26.60938 0.0976,-53.73828 0.79297,-79.97266 0.82421,-31.0625 1.67187,-63.18359 0.32031,-94.83203 z M 451.54297,11.535156 c 12.26172,-0.179687 25.96094,0.335938 33.14844,8.738282 5.5664,6.503906 6.10937,16.457031 6.19922,26.945312 l 1.32031,153.625 c 0.1289,14.58203 -1.26172,30.02344 -2.60938,44.95703 -0.30859,3.4336 -0.62109,6.9375 -0.91797,10.42969 -2.28906,-0.84766 -4.64843,-1.30859 -6.83593,-1.65625 -21.19532,-3.38672 -42.64453,-3.14063 -63.75782,0.72656 -2.65234,0.48828 -8.16796,1.5 -11.11328,6.11328 -1.91015,2.98828 -2.00781,6.3086 -1.85156,9.16406 0.33203,6.09375 1.53906,12.14454 2.70313,17.9961 2.11328,10.61328 4.10937,20.63672 0.79687,29.66797 -2.83594,7.72265 -9.75781,14.21093 -18.51953,17.35156 -7.97266,2.85937 -17.40625,3.10547 -27.26953,0.70703 -6.98047,-1.69531 -16.6836,-5.38281 -23.28125,-13.3125 -5.79297,-6.96094 -7.79297,-16.20703 -5.09375,-23.55859 1.11328,-3.03907 3.02344,-5.91016 5.04297,-8.94922 1.89453,-2.84766 3.85547,-5.79688 5.34375,-9.15625 1.87109,-4.21094 2.53125,-9.13281 1.8125,-13.5 -0.90625,-5.48438 -3.84766,-9.67188 -8.28907,-11.80078 -3.29297,-1.57813 -6.73047,-1.66797 -9.48828,-1.74219 l -67.24609,-1.76172 c 0.71094,-2.19141 0.85156,-4.33594 0.9375,-5.76562 1.35156,-21.90625 0.28125,-44 -3.1836,-65.67188 l -0.17968,-1.11719 c -0.7461,-4.62109 -1.45313,-8.98828 -0.89063,-13.08593 0.44922,-3.26563 2.09766,-7.30469 5.38281,-8.86719 4.31641,-2.04688 10.22657,0.76953 14.32032,4.08594 1.6289,1.32031 3.1914,2.77343 4.84375,4.3164 3.79687,3.53125 7.71875,7.1836 12.84375,9.55078 16.66797,7.6836 35.80468,-3.0625 45.34765,-17.08203 10.69141,-15.71094 12.84375,-36.01562 5.48047,-51.72656 -8.21484,-17.53125 -28.49219,-27.867188 -46.15234,-23.523438 -4.12891,1.011719 -7.8711,2.683594 -11.49219,4.296876 -3.01953,1.34375 -5.87109,2.617187 -8.77734,3.445312 -4.91797,1.40625 -11.44532,1.167969 -14.14453,-2.675781 -1.23829,-1.765625 -1.73438,-4.265625 -2.10157,-7.480469 -1.90234,-16.710938 0.34766,-34.070312 2.52735,-50.859375 0.48047,-3.6875 0.95703,-7.375 1.39453,-11.054687 0.16406,-1.382813 0.36328,-3.175782 0.20703,-5.101563 z M 10.121094,82.257812 c 0.199218,-18.480468 0.746094,-35.617187 1.675781,-52.390624 0.07422,-1.339844 0.08984,-2.664063 0.109375,-3.945313 0.07422,-5.332031 0.246094,-8.71875 2.773438,-10.980469 3.167968,-2.832031 8.457031,-3.308594 13.703124,-3.40625 72.773438,-1.335937 148.027348,-2.714844 221.933598,0.355469 5.4414,0.226563 7.07031,1.289063 7.47656,2.140625 0.41406,0.871094 0.18359,2.804688 0.0312,4.082031 -0.4336,3.644531 -0.90625,7.296875 -1.37891,10.949219 -2.25781,17.386719 -4.59375,35.363281 -2.54687,53.289062 0.46484,4.101563 1.25781,8.40625 3.85547,12.109376 3.70703,5.28125 12.51171,10.167972 25.12109,6.566402 3.58984,-1.02734 6.90234,-2.503902 10.10547,-3.929684 3.36328,-1.5 6.54297,-2.917968 9.79687,-3.71875 12.96875,-3.183594 28.51953,4.90625 34.67188,18.035154 5.88672,12.56641 4.04297,28.98047 -4.69531,41.81641 -7.32032,10.76172 -21.60938,18.79297 -32.83985,13.61328 -3.66406,-1.6875 -6.83984,-4.64844 -10.20312,-7.78125 -1.70703,-1.58984 -3.47266,-3.23047 -5.36719,-4.76562 -8.37891,-6.78907 -17.70313,-8.79297 -24.94141,-5.35938 -5.86328,2.78516 -9.98828,8.98047 -11.03125,16.57422 -0.76562,5.58203 0.0977,10.90625 0.92969,16.05078 l 0.17578,1.10156 c 3.34766,20.94141 4.38281,42.29688 3.07813,63.46875 -0.0625,1.01563 -0.21094,3.39063 -0.83985,4.04297 -0.69531,0.72656 -3.39843,0.8125 -4.55078,0.85156 -26.0039,0.85157 -52.36719,0.83985 -78.36328,-0.0312 -5.21094,-0.17578 -8.51953,-1.24609 -9.08594,-2.9414 -0.30078,-0.89844 0,-2.48047 0.29297,-3.76172 1.01563,-4.39453 2.57813,-8.66406 4.23438,-13.1875 2.05078,-5.60938 4.17187,-11.41016 5.23047,-17.61328 3.05078,-17.90625 -3.80079,-36.625 -17.45704,-47.69141 -8.33593,-6.7539 -18.9414,-10.25 -29.42578,-10.25 -7.37109,0 -14.68359,1.72656 -21.10156,5.26172 -16.156249,8.89063 -25.085936,28.76953 -20.773436,46.23438 1.949218,7.89062 6.121094,14.59765 10.152344,21.08593 2.390624,3.83985 4.648437,7.46875 6.441406,11.28516 0.363281,0.77344 1.328125,2.82812 1.089844,3.94141 -0.332032,1.5625 -3.582032,2.875 -8.285157,3.34375 -24.9375,2.5 -50.222656,2.46875 -75.152343,-0.0859 0,-0.004 0,-0.004 0,-0.004 l -0.0078,-0.17969 C 13.992188,227.0625 13,207.03125 12.179688,187.32813 10.429688,145.23047 9.796875,112.82422 10.121094,82.257812 Z M 229.08203,499.31641 c -38.21875,2.65234 -77.26953,1.32031 -115.03125,0.0312 l -77.847655,-2.66407 c -8.535156,-0.28906 -16.929687,-1.29687 -20.507813,-6.64453 -2.011718,-3.00781 -2.367187,-7.1289 -2.625,-12.20703 -3.714843,-73.42578 -3.589843,-147.85156 0.355469,-221.28516 0.179688,0.0195 0.359375,0.0391 0.507813,0.0547 25.605468,2.62891 51.570312,2.66016 77.179687,0.0937 12.421879,-1.24609 16.156249,-6.80078 17.101559,-11.24219 0.83594,-3.91796 -0.53515,-7.5625 -1.82421,-10.30078 -2.03907,-4.35156 -4.5625,-8.40234 -7.000005,-12.32031 -3.785156,-6.09375 -7.363281,-11.84375 -8.929687,-18.19141 -3.207032,-12.98046 3.761718,-28.37109 15.863282,-35.03125 12.07422,-6.64843 28.26172,-5.00781 39.36719,3.99219 10.71875,8.6836 16.29687,24.03516 13.88281,38.20313 -0.90234,5.30078 -2.77734,10.42578 -4.76563,15.85156 -1.68359,4.60937 -3.42968,9.37891 -4.58203,14.37891 -0.6289,2.71875 -1.125,5.9375 -0.0352,9.19531 2.05468,6.16406 8.19922,9.46094 18.26953,9.80078 13.27734,0.44141 26.64062,0.66797 40.00781,0.66797 12.44922,0 24.89453,-0.19922 37.26172,-0.58594 -0.21875,13.22266 0.58984,26.54688 2.4375,39.64063 0.20312,1.42578 0.41406,2.85937 0.62891,4.29297 1.51953,10.1914 2.95312,19.8164 0.46484,28.78906 -2.45703,8.8789 -11.22656,17.45312 -19.85938,15.5625 -3.42187,-0.75 -6.64453,-3 -10.05468,-5.37891 -3.27735,-2.28906 -6.66797,-4.65234 -10.7461,-6.13672 -10.34375,-3.76953 -23.26562,-0.70312 -34.5625,8.20313 -12.85547,10.13672 -20.73828,24.65234 -21.07812,38.83203 -0.40235,16.69922 10.4375,32.4375 25.21484,36.61328 14.08594,3.97656 27.22266,-2 39.92578,-7.77344 3.9961,-1.82031 7.76953,-3.53515 11.5586,-4.94531 3.25781,-1.21484 5.77734,-1.45703 6.73828,-0.64844 0.88672,0.74219 1.40625,3.07422 1.6875,4.32813 5.59375,24.97656 6.32422,51.52343 2.11719,76.76953 -0.50782,3.04297 -1.20313,6.42187 -3.04297,8.01562 -1.70703,1.48438 -4.79297,1.8086 -8.07813,2.03907 z M 493.5,392.76172 c -0.69922,26.35937 -1.41797,53.61328 -0.79297,80.47265 0.19141,8.24219 0.0312,15.4375 -3.92969,19.97657 -4.42578,5.07812 -12.80859,5.77734 -21.01562,6.05859 -72.03906,2.48438 -146.45313,5.01953 -219.43359,-1.23828 1.03515,-2.68359 1.47656,-5.3125 1.78125,-7.11719 4.41796,-26.51172 3.64843,-54.38672 -2.22266,-80.61719 -0.75,-3.33984 -1.81641,-7.1289 -5.04297,-9.83203 -3.98828,-3.33984 -9.60156,-3.69922 -16.68359,-1.05859 -4.1211,1.53125 -8.23438,3.40234 -12.21094,5.21094 -11.57031,5.26172 -22.49609,10.23437 -33.04297,7.2539 C 170.57422,408.95312 162.70703,397.22266 163,385.16406 c 0.27344,-11.22656 6.72266,-22.88672 17.25781,-31.1914 8.54297,-6.73829 17.85938,-9.22657 24.91016,-6.65625 2.84766,1.03906 5.5625,2.93359 8.4375,4.9375 4.07031,2.83984 8.27734,5.77343 13.65234,6.95312 6.85547,1.5 14.04297,-0.39062 20.23438,-5.32812 5.41797,-4.32422 9.58984,-10.65235 11.44922,-17.36329 3.05468,-11.02734 1.39453,-22.16796 -0.21094,-32.94531 -0.21094,-1.41015 -0.42188,-2.8164 -0.61719,-4.21875 -1.72265,-12.20312 -2.50781,-24.61328 -2.35937,-36.9414 l 72.86328,1.90625 c 1.99219,0.0508 4.05469,0.10546 5.41797,0.75781 3.32422,1.59375 3.60547,7.73828 1.63672,12.17187 -1.14454,2.58594 -2.78907,5.05469 -4.53125,7.67188 -2.25391,3.39062 -4.58204,6.89844 -6.10547,11.05078 -3.91016,10.65234 -1.23828,23.77734 6.80078,33.4375 8.35156,10.03906 20.17578,14.59375 28.6289,16.64844 11.78125,2.85937 23.19922,2.50781 33.02735,-1.01563 11.52734,-4.13281 20.70703,-12.85937 24.55469,-23.33984 4.28515,-11.6836 1.91796,-23.58203 -0.3711,-35.08985 -1.14844,-5.75781 -2.23047,-11.19921 -2.52734,-16.58203 -0.0312,-0.63281 -0.13672,-2.54687 0.28515,-3.21484 0.59766,-0.92969 3.50782,-1.46484 4.46485,-1.63672 19.98828,-3.66406 40.29687,-3.89453 60.36328,-0.6875 2.72656,0.43359 5.53125,0.97656 7.17969,2.37891 1.69922,1.44531 2.63672,4.23437 3.26172,6.5 2.23046,8.10547 2.76562,16.92187 3.125,25.2539 1.33593,31.30469 0.48828,63.25 -0.32813,94.14063 z m 0,0"
       inkscape:connector-curvature="0" />
  </g>
</svg>
