<svg xmlns="http://www.w3.org/2000/svg" height="511pt" version="1.1" viewBox="0 -1 511.99885 511" width="511pt">
<g id="surface1">
<path d="M 477.453125 201.828125 C 471.359375 197.585938 464.230469 195.34375 456.835938 195.34375 C 452.367188 195.34375 447.988281 196.164062 443.816406 197.785156 C 437.210938 200.339844 431.460938 204.757812 427.625 210.226562 C 419.089844 222.363281 419.308594 239.84375 428.148438 251.785156 C 434.683594 260.625 445.824219 266.109375 457.222656 266.109375 C 460.851562 266.109375 464.394531 265.5625 467.742188 264.476562 C 481.839844 259.910156 492.230469 245.84375 492.449219 231.027344 C 492.625 219.222656 487.15625 208.578125 477.453125 201.828125 Z M 477.453125 201.828125 " style=" stroke:none;fill-rule:nonzero;fill:rgb(35.686275%,36.470588%,42.745098%);fill-opacity:1;" />
<path d="M 455.878906 99.464844 C 456.054688 87.671875 450.589844 77.03125 440.882812 70.269531 C 434.789062 66.03125 427.65625 63.792969 420.257812 63.792969 C 415.777344 63.792969 411.398438 64.609375 407.246094 66.222656 C 400.632812 68.789062 394.882812 73.207031 391.054688 78.664062 C 382.515625 90.808594 382.734375 108.292969 391.578125 120.234375 C 398.117188 129.066406 409.257812 134.550781 420.648438 134.550781 C 424.28125 134.550781 427.824219 134 431.171875 132.914062 C 445.269531 128.363281 455.660156 114.292969 455.878906 99.464844 Z M 455.878906 99.464844 " style=" stroke:none;fill-rule:nonzero;fill:rgb(35.686275%,36.470588%,42.745098%);fill-opacity:1;" />
<path d="M 56.320312 40.273438 L 56.386719 36.292969 L 52.542969 37.324219 C 44.699219 39.425781 37.03125 41.5625 29.921875 43.558594 L 28.816406 43.871094 C 21.636719 45.875 14.214844 47.953125 6.574219 49.992188 L 4.113281 50.652344 L 4.363281 53.1875 C 17.171875 182.523438 33.34375 298.90625 53.808594 408.980469 L 59.757812 408.402344 L 56.320312 43.855469 C 56.308594 42.660156 56.300781 41.464844 56.320312 40.273438 Z M 56.320312 40.273438 " style=" stroke:none;fill-rule:nonzero;fill:rgb(94.117647%,94.901961%,98.039216%);fill-opacity:1;" />
<path d="M 484.054688 192.578125 C 475.992188 186.96875 466.566406 184.003906 456.789062 184.003906 C 450.890625 184.003906 445.105469 185.089844 439.597656 187.222656 C 435.273438 188.894531 431.222656 191.167969 427.550781 193.980469 C 423.890625 196.789062 420.75 200.042969 418.214844 203.648438 C 406.941406 219.695312 407.234375 242.785156 418.90625 258.546875 C 427.542969 270.210938 442.265625 277.457031 457.332031 277.457031 C 462.121094 277.457031 466.792969 276.734375 471.210938 275.304688 C 489.835938 269.28125 503.558594 250.691406 503.847656 231.105469 C 504.074219 215.523438 496.855469 201.480469 484.054688 192.578125 Z M 467.140625 262.613281 C 464.007812 263.621094 460.6875 264.132812 457.28125 264.132812 C 446.449219 264.132812 435.886719 258.957031 429.722656 250.628906 C 421.375 239.34375 421.167969 222.828125 429.222656 211.355469 C 432.84375 206.199219 438.277344 202.027344 444.523438 199.609375 C 448.472656 198.078125 452.613281 197.304688 456.835938 197.304688 C 463.828125 197.304688 470.570312 199.421875 476.335938 203.433594 C 485.496094 209.816406 490.652344 219.863281 490.488281 230.996094 C 490.277344 245.003906 480.457031 258.300781 467.140625 262.613281 Z M 467.140625 262.613281 " style=" stroke:none;fill-rule:nonzero;fill:rgb(57.647059%,60.784314%,66.666667%);fill-opacity:1;" />
<path d="M 435.652344 142.726562 C 454.273438 136.703125 468 118.117188 468.289062 98.535156 C 468.523438 82.96875 461.308594 68.921875 448.492188 60 C 440.429688 54.398438 431.007812 51.433594 421.234375 51.433594 C 415.335938 51.433594 409.550781 52.519531 404.042969 54.652344 C 395.316406 58.039062 387.71875 63.871094 382.652344 71.078125 C 371.390625 87.109375 371.679688 110.199219 383.347656 125.976562 C 391.980469 137.640625 406.699219 144.886719 421.761719 144.886719 C 426.558594 144.886719 431.234375 144.160156 435.652344 142.726562 Z M 393.148438 119.066406 C 384.800781 107.789062 384.589844 91.273438 392.652344 79.796875 C 396.28125 74.636719 401.714844 70.464844 407.953125 68.046875 C 411.894531 66.519531 416.03125 65.746094 420.25 65.746094 C 427.25 65.746094 433.996094 67.867188 439.765625 71.882812 C 448.925781 78.257812 454.085938 88.300781 453.917969 99.4375 C 453.710938 113.445312 443.886719 126.742188 430.5625 131.058594 C 427.441406 132.070312 424.125 132.582031 420.710938 132.582031 C 409.882812 132.582031 399.320312 127.402344 393.148438 119.066406 Z M 393.148438 119.066406 " style=" stroke:none;fill-rule:nonzero;fill:rgb(57.647059%,60.784314%,66.666667%);fill-opacity:1;" />
<path d="M 363.183594 5.722656 L 360.882812 5.285156 C 360.382812 5.1875 359.761719 5.136719 358.925781 5.113281 C 345.125 4.75 330.503906 4.566406 315.472656 4.566406 C 260.324219 4.566406 204.695312 6.976562 150.898438 9.304688 C 130.347656 10.191406 109.09375 11.109375 88.121094 11.882812 C 78.835938 12.226562 69.28125 13.085938 63.410156 19.359375 C 57.679688 25.46875 57.292969 34.425781 57.390625 43.839844 L 61.46875 475.839844 C 61.554688 484.726562 62.148438 493.871094 68.210938 499.441406 C 73.257812 504.078125 80.339844 504.71875 87.246094 504.71875 C 88.386719 504.71875 89.542969 504.695312 90.710938 504.671875 L 346.230469 498.546875 L 345.71875 482.183594 C 345.714844 482.152344 345.71875 482.105469 345.746094 482.023438 L 346.597656 479.535156 L 344.246094 478.363281 C 324.757812 468.683594 307.066406 456.445312 291.671875 441.984375 C 284.132812 434.902344 276.113281 426.1875 273.816406 415.257812 C 272.175781 407.425781 273.402344 399.261719 277.675781 389.558594 L 272.945312 386.101562 L 257.160156 400.015625 C 257.066406 400.097656 256.941406 400.144531 256.789062 400.144531 C 256.636719 400.128906 256.488281 400.054688 256.394531 399.941406 C 246.722656 387.917969 239.027344 374.226562 233.515625 359.246094 C 223.890625 333.054688 221.601562 304.992188 226.894531 278.101562 C 227.066406 277.222656 227.234375 276.148438 227.445312 274.710938 C 227.652344 273.355469 227.867188 272.03125 228.09375 270.765625 L 228.332031 269.421875 L 227.476562 268.359375 C 227.433594 268.304688 227.390625 268.253906 227.339844 268.199219 L 162.820312 167.792969 C 162.671875 167.566406 162.730469 167.257812 162.957031 167.085938 C 163.050781 167.015625 163.15625 166.980469 163.277344 166.980469 C 163.371094 166.980469 163.542969 167.003906 163.679688 167.15625 L 242.515625 256.589844 L 243.945312 256.527344 C 245.597656 256.460938 247.253906 256.453125 248.679688 256.453125 L 249.527344 256.445312 C 250.160156 256.4375 250.75 256.433594 251.292969 256.421875 C 252.300781 256.394531 253.308594 256.378906 254.324219 256.378906 C 268.011719 256.378906 282.34375 258.902344 296.917969 263.882812 C 318.753906 271.34375 338.4375 283.238281 354.816406 293.886719 L 359.433594 296.890625 L 359.808594 168.402344 L 359.773438 165.472656 L 356.847656 165.390625 C 355.40625 165.351562 353.953125 165.3125 352.496094 165.253906 C 346.289062 165.035156 339.3125 164.410156 335.050781 159.753906 C 331.582031 155.972656 330.855469 150.476562 330.410156 145.171875 C 328.417969 121.324219 327.5 97.121094 327.691406 73.238281 C 327.765625 64.75 328.261719 55.917969 333.324219 49.4375 C 338.976562 42.207031 348.714844 39.890625 357.386719 38.292969 C 357.960938 38.1875 358.542969 38.09375 359.121094 37.996094 L 362.429688 37.441406 L 363.316406 9.449219 C 363.332031 9.164062 363.34375 8.550781 363.316406 8.0625 Z M 137.585938 53.332031 C 138.046875 51.898438 138.507812 50.464844 138.960938 49.039062 L 139.4375 53.527344 Z M 142.386719 99.125 L 144.199219 98.554688 L 144.78125 104.09375 C 144.082031 102.394531 143.265625 100.746094 142.386719 99.125 Z M 151.679688 163.511719 C 150.601562 164.085938 149.574219 164.707031 148.605469 165.371094 L 146.703125 165.371094 C 147.867188 164.605469 148.980469 163.785156 150.078125 162.976562 L 150.160156 162.917969 C 151.796875 161.710938 153.488281 160.464844 155.269531 159.484375 C 157.460938 158.277344 159.992188 157.585938 162.21875 157.585938 C 163.6875 157.585938 164.976562 157.867188 166.070312 158.429688 C 161.199219 159.675781 156.246094 161.082031 151.679688 163.511719 Z M 151.679688 163.511719 " style=" stroke:none;fill-rule:nonzero;fill:rgb(100%,100%,100%);fill-opacity:1;" />
<path d="M 218.152344 232.875 C 215.105469 233.515625 212.460938 235.851562 211.546875 238.644531 L 210.636719 240.222656 L 228.09375 267.390625 L 230.390625 262.445312 C 230.910156 261.328125 231.507812 260.433594 232.164062 259.796875 C 233.125 258.871094 234.480469 258.152344 236.308594 257.605469 L 240.796875 256.257812 L 219.863281 232.515625 Z M 218.152344 232.875 " style=" stroke:none;fill-rule:nonzero;fill:rgb(96.862745%,70.196078%,43.529412%);fill-opacity:1;" />
<path d="M 479.871094 477.003906 L 475.324219 458.851562 L 475.328125 458.851562 L 468.519531 431.6875 L 468.546875 431.679688 L 467.828125 428.957031 C 466.492188 423.882812 464.683594 418.210938 460.105469 415.167969 C 457.949219 413.722656 455.363281 412.988281 452.421875 412.988281 C 447.847656 412.988281 443.003906 414.671875 437.863281 416.460938 C 432.894531 418.1875 427.753906 419.96875 422.929688 419.96875 C 419.824219 419.96875 417.167969 419.210938 414.789062 417.632812 C 414.777344 417.625 414.59375 417.460938 414.363281 417.257812 L 414.480469 416.917969 C 414.519531 416.800781 414.554688 416.761719 414.554688 416.757812 C 421.148438 408.964844 427.964844 400.90625 432.355469 391.457031 C 432.824219 390.453125 433.246094 389.429688 433.644531 388.398438 L 434.152344 389.4375 L 435.601562 382.21875 L 437.492188 375.140625 L 436.585938 375.808594 C 436.988281 370.6875 436.367188 365.851562 434.730469 361.621094 C 433.644531 358.785156 432.070312 356.03125 429.925781 353.21875 L 430.1875 353.152344 L 426.707031 349.4375 C 423.71875 346.253906 420.332031 343.339844 416.167969 339.945312 C 414.847656 338.871094 413.515625 337.808594 412.175781 336.742188 L 412.210938 336.738281 L 407.003906 332.632812 C 402.367188 328.980469 397.488281 325.246094 392.492188 321.507812 L 392.589844 321.503906 L 385.625 316.425781 C 380.714844 312.847656 375.5 309.160156 370.105469 305.445312 L 370.292969 305.449219 L 361.691406 299.714844 C 359.554688 298.289062 357.417969 296.863281 355.269531 295.460938 C 348.234375 290.863281 342.1875 287.097656 336.460938 283.746094 L 336.84375 283.730469 L 327.230469 278.550781 C 316.386719 272.707031 306.355469 268.238281 296.570312 264.894531 C 294.804688 264.289062 292.941406 263.691406 291.03125 263.117188 L 290.253906 262.886719 L 282.707031 264.703125 L 282.699219 260.882812 C 273.039062 258.597656 263.511719 257.441406 254.386719 257.441406 C 253.363281 257.441406 252.339844 257.457031 251.296875 257.484375 C 250.5625 257.511719 249.734375 257.511719 248.835938 257.511719 C 248.785156 257.511719 248.566406 257.511719 248.566406 257.511719 C 243.332031 257.542969 237.945312 257.707031 234.660156 259.363281 L 232.894531 260.253906 L 232.398438 259.757812 L 232.070312 260.667969 L 229.976562 261.722656 L 231.367188 262.617188 L 230.796875 264.207031 C 229.652344 267.394531 228.964844 271.886719 228.503906 274.878906 L 228.484375 275.019531 C 228.289062 276.289062 228.121094 277.386719 227.945312 278.304688 C 226.203125 287.171875 225.28125 296.324219 225.210938 305.507812 L 225.121094 316.910156 L 225.511719 316.234375 C 226.253906 327.773438 228.320312 339.269531 231.710938 350.441406 L 234.011719 358.027344 L 234.128906 357.769531 C 234.257812 358.136719 234.378906 358.503906 234.515625 358.878906 C 237.179688 366.117188 240.457031 373.226562 244.253906 380.007812 L 247.117188 385.121094 L 247.183594 384.976562 C 249.589844 388.90625 252.179688 392.714844 254.902344 396.296875 L 256.855469 398.867188 L 270.640625 386.707031 L 277.355469 375.59375 L 280.386719 378.121094 L 287.433594 371.902344 C 287.535156 371.8125 287.652344 371.769531 287.789062 371.769531 C 287.875 371.769531 288.007812 371.792969 288.136719 371.902344 C 288.335938 372.074219 288.382812 372.371094 288.246094 372.59375 C 279.804688 386.105469 271.820312 400.507812 274.863281 415.027344 C 276.238281 421.550781 279.917969 428.039062 286.109375 434.859375 L 289.335938 438.410156 L 289.386719 438.285156 C 290.390625 439.289062 291.402344 440.261719 292.40625 441.207031 C 301.441406 449.691406 311.449219 457.535156 322.164062 464.515625 L 324.101562 465.78125 L 324.101562 465.792969 L 324.523438 466.054688 L 325.871094 466.933594 L 325.878906 466.898438 C 332 470.703125 338.28125 474.21875 344.554688 477.335938 L 348.089844 479.097656 L 348.097656 479.046875 L 348.363281 479.171875 C 356.730469 483.144531 365.472656 486.648438 374.347656 489.589844 L 375.699219 490.039062 L 375.695312 490.058594 L 376.6875 490.363281 L 378.082031 490.828125 L 378.082031 490.796875 L 378.34375 490.878906 C 386.609375 493.4375 395.128906 495.554688 403.664062 497.160156 L 405.15625 497.441406 L 405.15625 497.445312 L 405.296875 497.46875 L 407.105469 497.808594 L 407.105469 497.773438 L 407.742188 497.878906 C 415.660156 499.21875 423.652344 500.128906 431.496094 500.585938 L 434 500.734375 L 434.136719 500.742188 L 434.3125 500.75 L 434.3125 500.746094 L 435.84375 500.808594 C 438.6875 500.921875 441.570312 500.976562 444.40625 500.976562 C 450.839844 500.976562 457.308594 500.683594 463.648438 500.109375 C 468.988281 499.609375 474.921875 498.585938 478.417969 494.75 L 479.65625 493.394531 L 480.101562 493.628906 L 480.324219 492.664062 L 481.019531 491.898438 L 480.554688 491.648438 L 480.976562 489.808594 C 481.898438 485.757812 480.890625 481.074219 479.871094 477.003906 Z M 479.871094 477.003906 " style=" stroke:none;fill-rule:nonzero;fill:rgb(92.941176%,42.745098%,40%);fill-opacity:1;" />
<path d="M 188.914062 206.421875 L 211.585938 241.707031 L 214.113281 237.816406 C 214.839844 236.703125 215.878906 235.816406 217.121094 235.25 L 220.808594 233.578125 L 193.6875 202.816406 Z M 188.914062 206.421875 " style=" stroke:none;fill-rule:nonzero;fill:rgb(97.647059%,84.705882%,53.72549%);fill-opacity:1;" />
<path d="M 503.921875 56.066406 C 503.015625 50.753906 502.082031 45.257812 499.675781 40.601562 C 498.152344 37.664062 495.957031 35.515625 493.480469 34.546875 C 491.464844 33.761719 489.199219 33.714844 486.917969 33.671875 C 480.023438 33.535156 473.136719 33.328125 466.476562 33.125 L 465.566406 33.09375 C 453.957031 32.746094 442.988281 32.414062 431.890625 32.414062 C 418.566406 32.414062 407.308594 32.898438 396.464844 33.933594 C 383.476562 35.171875 370.394531 36.996094 357.578125 39.347656 C 349.105469 40.898438 339.609375 43.136719 334.164062 50.101562 C 329.304688 56.324219 328.835938 64.59375 328.757812 73.238281 C 328.570312 97.089844 329.480469 121.261719 331.46875 145.085938 C 331.925781 150.425781 332.605469 155.511719 335.835938 159.027344 C 339.824219 163.386719 346.546875 163.976562 352.53125 164.1875 C 361.339844 164.5 370.28125 164.65625 379.117188 164.65625 C 414.910156 164.65625 450.921875 162.105469 486.152344 157.082031 C 490.835938 156.414062 494.980469 155.667969 498.296875 153.261719 C 503.953125 149.167969 505.484375 141.601562 506.300781 134.035156 C 509.089844 108.097656 508.292969 81.902344 503.9375 56.171875 Z M 435.984375 143.746094 C 431.515625 145.195312 426.769531 145.929688 421.871094 145.929688 C 406.398438 145.929688 391.3125 138.527344 382.488281 126.605469 C 370.550781 110.480469 370.257812 86.871094 381.785156 70.464844 C 386.964844 63.089844 394.730469 57.121094 403.652344 53.65625 C 409.292969 51.472656 415.207031 50.363281 421.238281 50.363281 C 431.234375 50.363281 440.871094 53.394531 449.105469 59.125 C 462.210938 68.242188 469.59375 82.613281 469.359375 98.546875 C 469.058594 118.578125 455.023438 137.589844 435.984375 143.746094 Z M 435.984375 143.746094 " style=" stroke:none;fill-rule:nonzero;fill:rgb(74.901961%,78.039216%,84.705882%);fill-opacity:1;" />
<path d="M 450.820312 56.664062 C 436.65625 46.808594 418.621094 44.636719 402.570312 50.859375 C 393.105469 54.527344 384.851562 60.875 379.328125 68.738281 C 367.078125 86.171875 367.394531 111.257812 380.082031 128.390625 C 389.699219 141.390625 405.804688 148.929688 421.875 148.929688 C 426.957031 148.929688 432.039062 148.175781 436.902344 146.601562 C 457.132812 140.058594 472.042969 119.867188 472.359375 98.59375 C 472.609375 81.648438 464.761719 66.363281 450.820312 56.664062 Z M 434.730469 139.875 C 417.265625 145.527344 396.671875 138.925781 385.761719 124.1875 C 374.835938 109.425781 374.5625 87.816406 385.109375 72.804688 C 389.839844 66.070312 396.949219 60.621094 405.125 57.453125 C 418.980469 52.078125 434.554688 53.957031 446.78125 62.464844 C 458.761719 70.800781 465.507812 83.929688 465.292969 98.488281 C 465.019531 116.828125 452.164062 134.234375 434.730469 139.875 Z M 434.730469 139.875 " style=" stroke:none;fill-rule:nonzero;fill:rgb(0%,0%,0%);fill-opacity:1;" />
<path d="M 486.375 189.238281 C 472.214844 179.382812 454.175781 177.210938 438.128906 183.433594 C 428.660156 187.101562 420.40625 193.453125 414.882812 201.3125 C 402.636719 218.742188 402.953125 243.832031 415.636719 260.964844 C 425.257812 273.964844 441.359375 281.503906 457.429688 281.503906 C 462.511719 281.503906 467.59375 280.75 472.460938 279.175781 C 492.6875 272.632812 507.601562 252.441406 507.914062 231.167969 C 508.167969 214.222656 500.316406 198.9375 486.375 189.238281 Z M 470.285156 272.449219 C 452.820312 278.097656 432.230469 271.5 421.320312 256.761719 C 410.390625 242 410.117188 220.390625 420.667969 205.375 C 425.394531 198.644531 432.503906 193.195312 440.683594 190.023438 C 454.535156 184.652344 470.105469 186.53125 482.339844 195.039062 C 494.316406 203.375 501.0625 216.503906 500.847656 231.0625 C 500.574219 249.402344 487.722656 266.808594 470.285156 272.449219 Z M 470.285156 272.449219 " style=" stroke:none;fill-rule:nonzero;fill:rgb(0%,0%,0%);fill-opacity:1;" />
<path d="M 478.046875 200.976562 C 467.886719 193.90625 454.949219 192.351562 443.4375 196.8125 C 436.648438 199.441406 430.730469 203.996094 426.769531 209.628906 C 417.988281 222.128906 418.214844 240.121094 427.3125 252.410156 C 434.210938 261.730469 445.761719 267.136719 457.285156 267.136719 C 460.929688 267.136719 464.570312 266.597656 468.0625 265.46875 C 482.570312 260.773438 493.261719 246.292969 493.488281 231.039062 C 493.667969 218.886719 488.039062 207.929688 478.046875 200.976562 Z M 466.820312 261.621094 C 453.886719 265.808594 438.636719 260.917969 430.558594 250.003906 C 422.464844 239.074219 422.261719 223.070312 430.074219 211.949219 C 433.582031 206.964844 438.84375 202.925781 444.898438 200.578125 C 455.15625 196.601562 466.683594 197.988281 475.738281 204.289062 C 484.613281 210.464844 489.609375 220.191406 489.449219 230.976562 C 489.25 244.558594 479.730469 257.445312 466.820312 261.621094 Z M 466.820312 261.621094 " style=" stroke:none;fill-rule:nonzero;fill:rgb(0%,0%,0%);fill-opacity:1;" />
<path d="M 441.472656 69.417969 C 431.3125 62.347656 418.378906 60.792969 406.867188 65.253906 C 400.074219 67.886719 394.15625 72.4375 390.199219 78.070312 C 381.417969 90.570312 381.644531 108.558594 390.738281 120.847656 C 397.636719 130.167969 409.1875 135.578125 420.710938 135.578125 C 424.355469 135.578125 428 135.039062 431.488281 133.90625 C 445.996094 129.214844 456.691406 114.734375 456.917969 99.476562 C 457.097656 87.328125 451.46875 76.371094 441.472656 69.417969 Z M 430.246094 130.0625 C 417.316406 134.25 402.066406 129.359375 393.984375 118.445312 C 385.894531 107.515625 385.691406 91.511719 393.503906 80.394531 C 397.007812 75.40625 402.269531 71.367188 408.324219 69.019531 C 412.1875 67.523438 416.230469 66.785156 420.253906 66.785156 C 426.914062 66.785156 433.523438 68.804688 439.167969 72.734375 C 448.039062 78.90625 453.039062 88.632812 452.878906 99.417969 C 452.675781 113 443.15625 125.886719 430.246094 130.0625 Z M 430.246094 130.0625 " style=" stroke:none;fill-rule:nonzero;fill:rgb(0%,0%,0%);fill-opacity:1;" />
<path d="M 507.953125 55.488281 C 507.039062 50.09375 506 43.980469 503.285156 38.730469 C 501.304688 34.90625 498.347656 32.074219 494.960938 30.757812 C 492.246094 29.699219 489.453125 29.644531 486.90625 29.597656 C 479.886719 29.464844 472.78125 29.25 465.914062 29.039062 C 443.167969 28.347656 419.640625 27.628906 396.078125 29.878906 C 386.257812 30.820312 376.386719 32.085938 366.617188 33.664062 L 367.386719 9.539062 C 367.425781 8.230469 367.503906 5.796875 365.949219 3.796875 C 363.90625 1.171875 360.617188 1.085938 359.035156 1.042969 C 289.609375 -0.769531 219.003906 2.28125 150.726562 5.234375 C 130.148438 6.125 108.875 7.042969 87.964844 7.816406 C 77.84375 8.1875 67.378906 9.171875 60.441406 16.574219 C 56.230469 21.074219 54.464844 26.757812 53.753906 32.792969 C 45.148438 35.066406 36.851562 37.390625 28.820312 39.640625 C 20.394531 42.003906 11.679688 44.445312 2.636719 46.820312 C 0.957031 47.261719 -0.152344 48.855469 0.015625 50.585938 C 14.285156 195.429688 32.851562 324.808594 56.78125 446.109375 C 56.851562 446.453125 56.976562 446.765625 57.128906 447.058594 L 57.402344 475.878906 C 57.488281 485.226562 58.191406 495.757812 65.457031 502.4375 C 71.359375 507.863281 79.335938 508.78125 87.339844 508.78125 C 88.5 508.78125 89.652344 508.761719 90.804688 508.734375 L 346.871094 502.601562 C 347.8125 502.578125 348.707031 502.183594 349.355469 501.5 C 350.003906 500.8125 350.347656 499.898438 350.320312 498.957031 L 349.859375 484.355469 C 379.421875 497.820312 411.859375 505.054688 444.3125 505.054688 C 450.886719 505.054688 457.464844 504.757812 464.011719 504.15625 C 470.644531 503.550781 478.792969 502.019531 482.945312 495.535156 C 486.765625 489.574219 485.398438 482.335938 483.816406 476.015625 L 472.164062 429.488281 C 470.464844 422.703125 468.308594 415.75 462.367188 411.78125 C 454.34375 406.421875 444.886719 409.707031 436.535156 412.609375 C 430.792969 414.601562 425.292969 416.511719 420.757812 415.710938 C 426.511719 408.816406 432.144531 401.582031 436.054688 393.164062 C 441.40625 381.632812 442.289062 369.90625 438.53125 360.144531 C 434.78125 350.40625 427.027344 343.542969 418.734375 336.792969 C 401.035156 322.382812 382.457031 308.683594 363.429688 295.988281 C 363.472656 295.769531 363.5 295.539062 363.5 295.308594 L 363.878906 168.566406 C 368.960938 168.667969 374.046875 168.726562 379.136719 168.726562 C 415.105469 168.726562 451.183594 166.175781 486.726562 161.109375 C 490.761719 160.535156 496.289062 159.746094 500.683594 156.558594 C 507.648438 151.503906 509.476562 142.554688 510.347656 134.464844 C 513.175781 108.152344 512.371094 81.582031 507.953125 55.488281 Z M 7.347656 52.886719 C 15.402344 50.742188 23.179688 48.5625 30.730469 46.445312 C 38.03125 44.402344 45.5625 42.296875 53.320312 40.226562 C 53.304688 41.445312 53.304688 42.664062 53.316406 43.878906 L 56.761719 408.433594 C 36.355469 298.714844 20.132812 181.960938 7.347656 52.886719 Z M 211.597656 236.183594 L 191.4375 204.804688 L 215.875 232.523438 C 214.136719 233.308594 212.636719 234.582031 211.597656 236.183594 Z M 214.34375 239.742188 C 214.933594 237.792969 216.765625 236.230469 218.773438 235.8125 L 235.449219 254.730469 C 233.375 255.351562 231.503906 256.265625 230.078125 257.640625 C 229.105469 258.578125 228.320312 259.78125 227.664062 261.1875 L 214.144531 240.144531 C 214.21875 240.015625 214.300781 239.890625 214.34375 239.742188 Z M 360.03125 302.214844 L 287.460938 300.539062 C 282.734375 296.171875 277.875 291.953125 272.890625 287.886719 C 275.089844 287.371094 277.460938 287.261719 279.644531 287.171875 L 332.554688 284.949219 C 340.03125 289.242188 347.089844 293.703125 353.625 297.972656 C 355.765625 299.371094 357.898438 300.792969 360.03125 302.214844 Z M 383.859375 318.851562 L 308.453125 321.878906 C 303.148438 315.9375 297.605469 310.203125 291.855469 304.679688 L 365.945312 306.390625 C 366.027344 306.398438 366.105469 306.386719 366.183594 306.382812 C 372.128906 310.445312 378.027344 314.601562 383.859375 318.851562 Z M 405.152344 334.988281 L 329.960938 348.882812 C 324.3125 340.910156 318.28125 333.195312 311.882812 325.785156 L 388.402344 322.710938 C 388.59375 322.703125 388.773438 322.660156 388.945312 322.601562 C 394.414062 326.660156 399.816406 330.789062 405.152344 334.988281 Z M 279.476562 283.136719 C 276.339844 283.269531 272.546875 283.4375 269.132812 284.863281 C 264.574219 281.265625 259.917969 277.796875 255.171875 274.464844 C 256 274.230469 256.84375 274.019531 257.679688 273.820312 L 290.171875 265.988281 C 291.972656 266.53125 293.785156 267.109375 295.601562 267.730469 C 306.164062 271.339844 316.285156 276.058594 325.808594 281.191406 Z M 256.734375 269.890625 C 254.921875 270.328125 252.953125 270.808594 251.082031 271.628906 C 246.175781 268.304688 241.183594 265.109375 236.097656 262.085938 C 236.070312 262.066406 236.039062 262.058594 236.007812 262.042969 C 238.972656 260.554688 245.15625 260.53125 248.675781 260.515625 C 249.679688 260.511719 250.601562 260.507812 251.410156 260.484375 C 261.273438 260.203125 271.519531 261.320312 282.007812 263.800781 Z M 230.882812 278.882812 C 231.082031 277.878906 231.261719 276.695312 231.472656 275.328125 C 231.886719 272.589844 232.570312 268.144531 233.625 265.222656 C 233.746094 265.347656 233.878906 265.460938 234.03125 265.554688 C 238.542969 268.242188 242.984375 271.0625 247.355469 273.988281 C 245.34375 275.789062 244.003906 278.101562 242.8125 280.171875 L 228.207031 305.535156 C 228.277344 296.597656 229.152344 287.675781 230.882812 278.882812 Z M 246.3125 282.1875 C 247.5 280.125 248.726562 277.992188 250.496094 276.613281 C 250.601562 276.527344 250.722656 276.453125 250.835938 276.375 C 255.804688 279.800781 260.671875 283.382812 265.4375 287.105469 C 261.777344 290.148438 259.675781 294.726562 258.082031 298.210938 L 234.582031 349.570312 C 230.992188 337.730469 228.894531 325.582031 228.335938 313.398438 Z M 261.753906 299.890625 C 263.722656 295.589844 265.640625 291.851562 268.722656 289.691406 C 273.5 293.53125 278.152344 297.523438 282.691406 301.644531 L 246.867188 378.539062 C 243.1875 371.976562 239.988281 365.070312 237.335938 357.84375 C 237.015625 356.980469 236.730469 356.109375 236.425781 355.242188 Z M 285.796875 304.539062 L 285.851562 304.539062 C 292.515625 310.757812 298.902344 317.269531 304.984375 324.050781 L 268.304688 384.765625 L 257.285156 394.476562 C 254.441406 390.734375 251.800781 386.828125 249.34375 382.785156 Z M 290.070312 369.609375 C 289.414062 369.050781 288.601562 368.769531 287.789062 368.769531 C 286.953125 368.769531 286.117188 369.066406 285.449219 369.652344 L 278.398438 375.867188 L 307.78125 327.234375 C 314.421875 334.847656 320.675781 342.777344 326.507812 350.992188 C 312.289062 377.4375 299.46875 404.945312 288.328125 432.839844 C 283.476562 427.5 279.265625 421.390625 277.804688 414.414062 C 274.988281 401.003906 282.675781 387.183594 290.789062 374.175781 C 291.714844 372.6875 291.410156 370.742188 290.070312 369.609375 Z M 329.105469 354.703125 C 329.367188 355.085938 329.640625 355.457031 329.898438 355.835938 C 333.878906 361.691406 337.710938 367.777344 341.445312 373.839844 L 323.796875 462.003906 C 313.375 455.210938 303.53125 447.542969 294.460938 439.019531 C 293.441406 438.0625 292.410156 437.066406 291.390625 436.046875 C 302.378906 408.34375 315.054688 381.003906 329.105469 354.703125 Z M 344.554688 378.898438 C 345.121094 379.828125 345.695312 380.761719 346.257812 381.683594 C 350.980469 389.421875 355.765625 397.257812 360.863281 404.914062 C 358.6875 408.355469 357.886719 412.460938 357.230469 415.855469 L 345.886719 474.648438 C 339.574219 471.507812 333.425781 468.0625 327.449219 464.335938 Z M 378.34375 428.179688 L 375.289062 486.738281 C 366.539062 483.84375 357.972656 480.414062 349.648438 476.464844 L 361.195312 416.621094 C 361.699219 414.007812 362.261719 411.15625 363.410156 408.679688 C 368.046875 415.433594 372.96875 422 378.34375 428.179688 Z M 388.0625 438.386719 C 393.550781 443.601562 399.429688 448.3125 405.546875 452.667969 L 404.21875 494.210938 C 395.78125 492.625 387.433594 490.554688 379.230469 488.011719 C 379.261719 487.882812 379.28125 487.753906 379.289062 487.621094 L 382.167969 432.425781 C 384.074219 434.464844 386.03125 436.457031 388.0625 438.386719 Z M 465.921875 433.652344 L 471.734375 456.871094 L 438.214844 467.878906 C 429.085938 462.894531 420.007812 457.664062 411.382812 451.800781 Z M 434.90625 470.671875 L 431.671875 497.59375 C 423.820312 497.128906 415.996094 496.234375 408.234375 494.925781 L 409.5 455.414062 C 417.703125 460.964844 426.277344 465.9375 434.90625 470.671875 Z M 463.367188 497.117188 C 454.257812 497.953125 445.097656 498.167969 435.960938 497.808594 C 435.902344 497.683594 435.839844 497.558594 435.757812 497.449219 L 438.722656 472.753906 C 442.074219 474.566406 445.421875 476.351562 448.757812 478.125 L 476.203125 492.734375 C 473.417969 495.785156 468.210938 496.675781 463.367188 497.117188 Z M 478.046875 489.136719 L 450.652344 474.558594 C 448.144531 473.222656 445.625 471.878906 443.101562 470.523438 L 472.71875 460.800781 L 476.957031 477.730469 C 477.957031 481.726562 478.8125 485.824219 478.046875 489.136719 Z M 438.859375 419.285156 C 446.308594 416.695312 453.34375 414.253906 458.445312 417.660156 C 461.957031 420.007812 463.589844 424.628906 464.929688 429.726562 L 407.261719 448.914062 C 401.507812 444.789062 395.988281 440.347656 390.847656 435.457031 C 388.640625 433.363281 386.515625 431.1875 384.457031 428.953125 L 412.734375 419.824219 C 412.8125 419.890625 412.882812 419.964844 412.96875 420.023438 C 420.980469 425.496094 430.476562 422.199219 438.859375 419.285156 Z M 412.265625 414.820312 C 411.984375 415.152344 411.785156 415.53125 411.644531 415.929688 L 381.503906 425.660156 C 375.863281 419.191406 370.71875 412.261719 365.867188 405.117188 C 368.722656 402.304688 373.109375 400.933594 376.710938 399.832031 L 431.742188 382.964844 C 431.984375 382.890625 432.199219 382.773438 432.386719 382.625 C 431.71875 385.140625 430.804688 387.675781 429.640625 390.1875 C 425.433594 399.25 418.738281 407.167969 412.265625 414.820312 Z M 432.960938 380.152344 C 432.53125 379.273438 431.527344 378.8125 430.558594 379.105469 L 375.527344 395.972656 C 371.699219 397.144531 367.0625 398.570312 363.570312 401.699219 C 358.753906 394.410156 354.199219 386.949219 349.707031 379.582031 C 348.828125 378.144531 347.9375 376.691406 347.050781 375.238281 L 427.449219 354.914062 C 429.308594 357.328125 430.855469 359.890625 431.933594 362.6875 C 433.90625 367.8125 434.222656 373.875 432.960938 380.152344 Z M 424.519531 351.488281 L 344.832031 371.632812 C 341.089844 365.558594 337.246094 359.457031 333.238281 353.566406 C 333 353.214844 332.75 352.871094 332.507812 352.519531 L 408.902344 338.402344 C 409.042969 338.375 409.175781 338.335938 409.304688 338.285156 C 410.964844 339.609375 412.628906 340.933594 414.273438 342.273438 C 417.941406 345.261719 421.484375 348.257812 424.519531 351.488281 Z M 356.445312 291.375 C 339.75 280.511719 319.828125 268.542969 297.886719 261.042969 C 281.835938 255.554688 266.132812 253.007812 251.207031 253.417969 C 250.453125 253.441406 249.585938 253.441406 248.648438 253.445312 C 247.144531 253.453125 245.5 253.460938 243.816406 253.53125 L 165.925781 165.175781 C 164.703125 163.789062 162.621094 163.578125 161.144531 164.691406 C 159.671875 165.804688 159.304688 167.867188 160.300781 169.421875 L 224.898438 269.957031 C 224.96875 270.0625 225.058594 270.144531 225.140625 270.242188 C 224.90625 271.535156 224.695312 272.878906 224.484375 274.261719 C 224.285156 275.550781 224.117188 276.664062 223.945312 277.519531 C 218.550781 304.960938 220.886719 333.582031 230.699219 360.28125 C 236.316406 375.566406 244.175781 389.542969 254.058594 401.824219 C 254.660156 402.574219 255.546875 403.046875 256.507812 403.128906 C 257.46875 403.210938 258.425781 402.898438 259.148438 402.257812 L 274.925781 388.351562 C 271.023438 397.226562 268.898438 406.417969 270.882812 415.867188 C 273.351562 427.621094 281.742188 436.773438 289.621094 444.175781 C 305.429688 459.023438 323.480469 471.40625 342.90625 481.050781 C 342.78125 481.429688 342.710938 481.832031 342.722656 482.253906 L 343.144531 495.621094 L 90.636719 501.671875 C 82.640625 501.863281 75.0625 501.667969 70.238281 497.234375 C 65.058594 492.46875 64.546875 484.039062 64.46875 475.816406 L 60.386719 43.8125 C 60.304688 35.027344 60.640625 26.707031 65.601562 21.410156 C 70.699219 15.964844 79.574219 15.199219 88.226562 14.878906 C 109.15625 14.105469 130.445312 13.1875 151.03125 12.296875 C 219.191406 9.347656 289.667969 6.296875 358.847656 8.109375 C 359.621094 8.132812 360.0625 8.183594 360.3125 8.234375 C 360.34375 8.578125 360.328125 9.089844 360.320312 9.316406 L 359.503906 34.886719 C 358.621094 35.042969 357.726562 35.183594 356.84375 35.34375 C 347.632812 37.035156 337.273438 39.515625 330.960938 47.59375 C 325.308594 54.824219 324.765625 64.210938 324.691406 73.207031 C 324.5 97.203125 325.414062 121.5 327.421875 145.414062 C 327.90625 151.238281 328.730469 157.296875 332.835938 161.777344 C 337.886719 167.296875 345.578125 168.011719 352.386719 168.253906 C 353.863281 168.304688 355.339844 168.347656 356.8125 168.390625 Z M 503.320312 133.710938 C 502.582031 140.585938 501.25 147.417969 496.535156 150.835938 C 493.78125 152.832031 490.011719 153.5 485.730469 154.109375 C 441.777344 160.375 397.003906 162.757812 352.636719 161.191406 C 347.257812 161 341.253906 160.507812 338.046875 157.007812 C 335.441406 154.164062 334.863281 149.621094 334.460938 144.828125 C 332.476562 121.125 331.566406 97.046875 331.761719 73.265625 C 331.824219 65.164062 332.238281 57.4375 336.527344 51.949219 C 341.316406 45.824219 350.183594 43.753906 358.121094 42.296875 C 370.847656 39.964844 383.84375 38.152344 396.75 36.917969 C 419.867188 34.707031 442.128906 35.386719 465.699219 36.105469 C 472.585938 36.316406 479.710938 36.53125 486.859375 36.667969 C 488.914062 36.707031 490.851562 36.742188 492.394531 37.34375 C 494.179688 38.039062 495.816406 39.683594 497.003906 41.980469 C 499.214844 46.25 500.113281 51.546875 500.980469 56.667969 C 505.292969 82.121094 506.078125 108.042969 503.320312 133.710938 Z M 503.320312 133.710938 " style=" stroke:none;fill-rule:nonzero;fill:rgb(0%,0%,0%);fill-opacity:1;" />
<path d="M 102.289062 114.804688 C 108.695312 111.921875 113.21875 106.40625 116.441406 101.921875 C 120.339844 96.496094 123.648438 90.757812 126.542969 84.832031 C 136.027344 92.269531 142.828125 103.316406 144.910156 115.144531 C 145.082031 116.121094 145.933594 116.8125 146.898438 116.8125 C 146.992188 116.8125 147.085938 116.808594 147.179688 116.792969 C 148.257812 116.640625 149.023438 115.664062 148.90625 114.582031 L 141.453125 44.046875 C 141.351562 43.09375 140.597656 42.34375 139.644531 42.246094 C 138.6875 42.144531 137.804688 42.738281 137.519531 43.648438 C 133.8125 55.402344 130.027344 67.394531 124.929688 78.742188 C 123.855469 78.054688 122.753906 77.410156 121.628906 76.808594 C 119.421875 75.628906 116.058594 74.019531 112.351562 73.671875 C 108.484375 73.304688 104.84375 74.414062 102.363281 76.703125 C 100.378906 78.535156 99.191406 81.253906 99.105469 84.164062 C 99.019531 87.074219 100.046875 89.859375 101.925781 91.804688 C 103.800781 93.753906 106.546875 94.882812 109.457031 94.902344 C 109.484375 94.902344 109.515625 94.902344 109.542969 94.902344 C 112.421875 94.902344 115.148438 93.816406 117.035156 91.917969 C 117.820312 91.125 117.816406 89.847656 117.023438 89.0625 C 116.230469 88.273438 114.953125 88.28125 114.167969 89.070312 C 113.035156 90.214844 111.351562 90.863281 109.542969 90.863281 C 109.523438 90.863281 109.507812 90.863281 109.488281 90.863281 C 107.65625 90.851562 105.960938 90.171875 104.832031 89.003906 C 103.707031 87.835938 103.089844 86.113281 103.144531 84.285156 C 103.195312 82.453125 103.910156 80.769531 105.105469 79.671875 C 106.71875 78.179688 109.289062 77.441406 111.976562 77.691406 C 114.277344 77.910156 116.667969 78.734375 119.726562 80.371094 C 120.917969 81.007812 122.082031 81.699219 123.210938 82.4375 C 120.335938 88.40625 117.046875 94.160156 113.160156 99.566406 C 110.234375 103.636719 106.164062 108.632812 100.632812 111.121094 C 96.277344 113.078125 89.773438 113.398438 85.773438 109.472656 C 83.847656 107.582031 82.878906 104.742188 83.105469 101.683594 C 83.339844 98.625 84.722656 95.964844 86.910156 94.382812 C 88.789062 93.027344 91.707031 92.214844 93.992188 93.441406 C 94.996094 93.976562 95.789062 95.066406 96.0625 96.28125 C 96.1875 96.835938 96.300781 97.902344 95.660156 98.777344 C 95 99.675781 95.191406 100.9375 96.089844 101.597656 C 96.988281 102.261719 98.253906 102.066406 98.914062 101.167969 C 100.09375 99.5625 100.480469 97.511719 100.003906 95.390625 C 99.472656 93.03125 97.9375 90.972656 95.90625 89.882812 C 92.539062 88.070312 88.082031 88.554688 84.546875 91.109375 C 81.394531 93.386719 79.398438 97.132812 79.082031 101.378906 C 78.761719 105.628906 80.171875 109.628906 82.945312 112.351562 C 87.527344 116.859375 95.484375 117.863281 102.289062 114.804688 Z M 138.449219 54.046875 L 143.121094 98.273438 C 139.441406 91.601562 134.355469 85.675781 128.304688 81.09375 C 132.300781 72.308594 135.492188 63.167969 138.449219 54.046875 Z M 138.449219 54.046875 " style=" stroke:none;fill-rule:nonzero;fill:rgb(0%,0%,0%);fill-opacity:1;" />
<path d="M 192.824219 102.398438 C 192.042969 101.605469 190.765625 101.589844 189.964844 102.367188 C 188.015625 104.273438 186 106.246094 183.625 107.3125 C 181.316406 108.351562 178.816406 108.289062 177.261719 107.148438 C 175.121094 105.585938 174.71875 102.242188 174.753906 99.710938 C 174.773438 98.265625 174.894531 96.832031 175.109375 95.410156 C 176.914062 91.554688 178.359375 87.535156 179.429688 83.378906 C 179.679688 82.40625 179.175781 81.394531 178.246094 81.007812 C 177.316406 80.621094 176.25 80.980469 175.734375 81.84375 C 173.476562 85.65625 171.945312 89.855469 171.210938 94.199219 C 169.726562 97.300781 167.988281 100.28125 166.011719 103.128906 C 164.308594 105.582031 161.722656 108.402344 159.027344 107.929688 C 157.621094 107.683594 156.289062 106.40625 155.714844 104.753906 C 155.171875 103.199219 155.179688 101.28125 155.738281 99.054688 C 157.621094 91.539062 164.878906 85.546875 172.613281 85.113281 C 173.726562 85.050781 174.578125 84.097656 174.515625 82.980469 C 174.453125 81.871094 173.492188 81.027344 172.386719 81.078125 C 162.804688 81.617188 154.152344 88.765625 151.820312 98.074219 C 151.066406 101.074219 151.09375 103.769531 151.898438 106.082031 C 152.957031 109.121094 155.480469 111.40625 158.328125 111.90625 C 160.96875 112.375 165.023438 111.625 169.328125 105.433594 C 169.878906 104.644531 170.410156 103.84375 170.925781 103.035156 C 171.414062 106.339844 172.753906 108.859375 174.878906 110.410156 C 176.402344 111.527344 178.3125 112.09375 180.335938 112.09375 C 181.957031 112.09375 183.652344 111.730469 185.28125 110.996094 C 188.3125 109.636719 190.691406 107.308594 192.792969 105.257812 C 193.589844 104.476562 193.601562 103.199219 192.824219 102.398438 Z M 192.824219 102.398438 " style=" stroke:none;fill-rule:nonzero;fill:rgb(0%,0%,0%);fill-opacity:1;" />
<path d="M 212.425781 106.742188 C 212.617188 106.800781 212.808594 106.828125 212.996094 106.828125 C 213.871094 106.828125 214.675781 106.253906 214.933594 105.375 L 229.605469 55.425781 C 229.917969 54.355469 229.304688 53.234375 228.234375 52.917969 C 227.164062 52.601562 226.042969 53.21875 225.730469 54.289062 L 211.058594 104.234375 C 210.742188 105.304688 211.355469 106.429688 212.425781 106.742188 Z M 212.425781 106.742188 " style=" stroke:none;fill-rule:nonzero;fill:rgb(0%,0%,0%);fill-opacity:1;" />
<path d="M 233.28125 80.757812 C 237.5 78.296875 241.589844 75.328125 244.667969 71.269531 C 249.28125 65.179688 251.1875 55.160156 245.625 48.578125 C 242.683594 45.09375 237.972656 42.972656 232.363281 42.613281 C 221.128906 41.914062 209.945312 48.488281 205.144531 58.65625 C 204.667969 59.664062 205.097656 60.871094 206.109375 61.34375 C 207.113281 61.820312 208.320312 61.390625 208.796875 60.382812 C 212.84375 51.8125 222.636719 46.023438 232.105469 46.644531 C 234.710938 46.8125 239.535156 47.625 242.542969 51.183594 C 246.746094 56.160156 245.117188 63.988281 241.445312 68.828125 C 237.246094 74.371094 230.503906 77.808594 224.558594 80.847656 C 223.648438 81.3125 223.230469 82.382812 223.585938 83.34375 C 223.9375 84.304688 224.957031 84.847656 225.949219 84.609375 C 232.285156 83.097656 239.742188 86.796875 242.941406 93.03125 C 245.992188 98.976562 245.4375 106.855469 241.527344 113.101562 C 237.972656 118.785156 231.683594 123.246094 224.273438 125.351562 C 217.898438 127.160156 210.476562 127.394531 202.214844 126.054688 C 198.910156 125.519531 194.855469 124.550781 192.78125 121.777344 C 191.632812 120.238281 191.320312 118.042969 191.949219 115.898438 C 192.574219 113.753906 194.019531 112.066406 195.8125 111.390625 C 197.605469 110.714844 199.804688 111.023438 201.691406 112.222656 C 203.582031 113.421875 204.796875 115.277344 204.949219 117.1875 C 205.039062 118.296875 205.984375 119.117188 207.125 119.039062 C 208.234375 118.949219 209.066406 117.976562 208.976562 116.863281 C 208.722656 113.695312 206.808594 110.683594 203.855469 108.8125 C 200.902344 106.9375 197.367188 106.488281 194.390625 107.609375 C 191.414062 108.730469 189.054688 111.40625 188.074219 114.765625 C 187.09375 118.121094 187.644531 121.648438 189.546875 124.191406 C 192.484375 128.128906 197.515625 129.386719 201.566406 130.042969 C 205.292969 130.644531 208.871094 130.945312 212.28125 130.945312 C 216.972656 130.945312 221.355469 130.375 225.375 129.234375 C 233.859375 126.828125 240.8125 121.855469 244.953125 115.242188 C 249.601562 107.8125 250.222656 98.371094 246.539062 91.183594 C 243.808594 85.878906 238.769531 82.097656 233.28125 80.757812 Z M 233.28125 80.757812 " style=" stroke:none;fill-rule:nonzero;fill:rgb(0%,0%,0%);fill-opacity:1;" />
<path d="M 296.324219 78.191406 C 295.425781 77.53125 294.164062 77.722656 293.5 78.621094 C 292.15625 80.441406 290.777344 82.308594 289.125 83.753906 C 288.921875 82.410156 288.511719 81.207031 287.890625 80.128906 C 286.082031 76.988281 281.78125 74.941406 278.269531 76.894531 C 276.488281 77.882812 275.375 79.730469 275.214844 81.964844 C 275.027344 84.523438 276.101562 87.023438 278.015625 88.480469 C 279.988281 89.984375 282.371094 90.402344 284.652344 90.136719 C 282.070312 100.875 272.421875 109.695312 261.53125 111.453125 L 268.269531 77.5625 C 276.339844 72.019531 282.738281 64.027344 286.074219 54.777344 C 286.726562 52.976562 287.292969 51.023438 287.03125 48.925781 C 286.703125 46.269531 284.941406 44.070312 282.65625 43.460938 C 279.964844 42.738281 277.136719 44.121094 274.707031 47.351562 C 268.519531 55.570312 266.457031 65.953125 264.636719 75.117188 L 264.632812 75.136719 C 260.167969 77.964844 255.199219 79.992188 249.988281 80.992188 C 248.890625 81.199219 248.171875 82.257812 248.382812 83.355469 C 248.59375 84.453125 249.652344 85.171875 250.746094 84.957031 C 255.238281 84.097656 259.5625 82.539062 263.582031 80.40625 L 257.03125 113.359375 C 256.914062 113.972656 257.078125 114.605469 257.488281 115.078125 C 257.875 115.523438 258.429688 115.773438 259.015625 115.773438 C 259.050781 115.773438 259.089844 115.773438 259.125 115.769531 C 273.339844 115.003906 286.433594 103.417969 288.929688 89.402344 C 288.96875 89.175781 289.007812 88.957031 289.039062 88.738281 C 289.175781 88.664062 289.3125 88.585938 289.441406 88.507812 C 292.625 86.609375 294.816406 83.636719 296.75 81.019531 C 297.414062 80.121094 297.222656 78.855469 296.324219 78.191406 Z M 277.933594 49.78125 C 278.390625 49.171875 279.902344 47.316406 281.253906 47.316406 C 281.375 47.316406 281.496094 47.332031 281.609375 47.359375 C 282.292969 47.542969 282.898438 48.429688 283.023438 49.425781 C 283.179688 50.675781 282.757812 52.082031 282.277344 53.410156 C 279.722656 60.488281 275.203125 66.757812 269.472656 71.585938 C 271.066406 64.023438 273.210938 56.050781 277.933594 49.78125 Z M 280.464844 85.269531 C 279.648438 84.648438 279.15625 83.4375 279.242188 82.257812 C 279.277344 81.757812 279.457031 80.855469 280.230469 80.425781 C 280.542969 80.253906 280.882812 80.175781 281.238281 80.175781 C 282.433594 80.175781 283.765625 81.054688 284.390625 82.144531 C 284.96875 83.144531 285.25 84.394531 285.234375 85.929688 C 283.601562 86.355469 281.796875 86.285156 280.464844 85.269531 Z M 280.464844 85.269531 " style=" stroke:none;fill-rule:nonzero;fill:rgb(0%,0%,0%);fill-opacity:1;" />
<path d="M 122.191406 166.6875 C 119.429688 166.332031 116.460938 167.316406 114.277344 169.339844 C 112.296875 171.167969 111.234375 173.625 111.355469 176.078125 C 111.414062 177.1875 112.335938 178.058594 113.476562 177.988281 C 114.589844 177.933594 115.445312 176.984375 115.390625 175.871094 C 115.304688 174.160156 116.371094 172.902344 117.015625 172.304688 C 118.3125 171.105469 120.09375 170.488281 121.675781 170.695312 C 124.804688 171.101562 127.609375 174.097656 128.195312 177.667969 C 128.734375 180.980469 127.613281 184.785156 125.109375 188.101562 C 119.726562 195.234375 109.304688 198.28125 100.332031 195.347656 C 91.757812 192.542969 84.832031 184.652344 82.6875 175.242188 C 80.679688 166.449219 82.78125 156.347656 88.300781 148.214844 C 93.375 140.742188 101.394531 134.640625 110.882812 131.035156 C 116 129.089844 120.558594 128.214844 124.78125 128.367188 C 129.710938 128.542969 134.167969 130.195312 137.335938 133.015625 C 140.738281 136.039062 142.570312 140.613281 142.003906 144.664062 C 141.40625 148.921875 138.007812 152.601562 134.097656 153.222656 C 130.132812 153.851562 125.820312 150.9375 125.214844 147.230469 C 125.035156 146.132812 124.007812 145.390625 122.894531 145.5625 C 121.792969 145.746094 121.046875 146.785156 121.226562 147.882812 C 122.203125 153.839844 128.515625 158.195312 134.730469 157.210938 C 140.417969 156.308594 145.160156 151.265625 146.003906 145.222656 C 146.761719 139.789062 144.472656 133.953125 140.023438 129.996094 C 136.152344 126.554688 130.792969 124.542969 124.925781 124.332031 C 120.128906 124.167969 115.078125 125.117188 109.445312 127.257812 C 99.191406 131.15625 90.496094 137.792969 84.960938 145.945312 C 78.820312 154.984375 76.496094 166.273438 78.746094 176.140625 C 81.203125 186.902344 89.179688 195.949219 99.074219 199.1875 C 101.753906 200.0625 104.546875 200.484375 107.324219 200.484375 C 115.5 200.480469 123.5625 196.851562 128.332031 190.535156 C 131.5 186.339844 132.898438 181.414062 132.179688 177.015625 C 131.304688 171.667969 127.105469 167.324219 122.191406 166.6875 Z M 122.191406 166.6875 " style=" stroke:none;fill-rule:nonzero;fill:rgb(0%,0%,0%);fill-opacity:1;" />
<path d="M 153.816406 156.863281 C 151.839844 157.957031 150.039062 159.28125 148.296875 160.5625 C 146.125 162.160156 144.074219 163.667969 141.789062 164.6875 C 138.191406 166.292969 133.148438 166.125 131.269531 163.046875 C 130.6875 162.09375 129.441406 161.796875 128.492188 162.375 C 127.539062 162.957031 127.238281 164.203125 127.820312 165.152344 C 131 170.355469 138.238281 170.695312 143.4375 168.375 C 143.441406 168.371094 143.449219 168.371094 143.453125 168.367188 C 141.304688 170.621094 139.675781 173.136719 138.667969 175.804688 C 136.226562 182.277344 137.769531 189.695312 142.417969 193.84375 C 144.972656 196.117188 148.351562 197.355469 151.746094 197.355469 C 152.832031 197.355469 153.921875 197.230469 154.984375 196.96875 C 159.371094 195.890625 163.082031 192.601562 164.679688 188.382812 C 165.074219 187.339844 164.546875 186.171875 163.503906 185.777344 C 162.464844 185.382812 161.292969 185.910156 160.898438 186.953125 C 159.785156 189.902344 157.085938 192.292969 154.023438 193.042969 C 150.960938 193.796875 147.460938 192.925781 145.105469 190.828125 C 141.675781 187.769531 140.582031 182.175781 142.445312 177.226562 C 144.09375 172.859375 147.875 168.925781 153.089844 166.152344 C 157.957031 163.566406 163.488281 162.167969 168.839844 160.816406 C 169.546875 160.636719 170.105469 160.085938 170.292969 159.378906 C 170.484375 158.671875 170.273438 157.917969 169.75 157.410156 C 165.511719 153.296875 158.691406 154.171875 153.816406 156.863281 Z M 155.167969 160.746094 C 155.367188 160.628906 155.566406 160.511719 155.765625 160.402344 C 157.375 159.515625 159.308594 158.859375 161.195312 158.675781 C 159.167969 159.273438 157.144531 159.941406 155.167969 160.746094 Z M 155.167969 160.746094 " style=" stroke:none;fill-rule:nonzero;fill:rgb(0%,0%,0%);fill-opacity:1;" />
</g>
</svg>