<?xml version="1.0" encoding="UTF-8" standalone="no"?>
<svg
   xmlns:dc="http://purl.org/dc/elements/1.1/"
   xmlns:cc="http://creativecommons.org/ns#"
   xmlns:rdf="http://www.w3.org/1999/02/22-rdf-syntax-ns#"
   xmlns:svg="http://www.w3.org/2000/svg"
   xmlns="http://www.w3.org/2000/svg"
   xmlns:sodipodi="http://sodipodi.sourceforge.net/DTD/sodipodi-0.dtd"
   xmlns:inkscape="http://www.inkscape.org/namespaces/inkscape"
   enable-background="new 0 0 512 512"
   height="50"
   id="Layer_1"
   version="1.1"
   viewBox="0 0 50 50"
   width="50"
   xml:space="preserve"
   inkscape:version="0.91 r"
   sodipodi:docname="link.svg"><metadata
     id="metadata15"><rdf:RDF><cc:Work
         rdf:about=""><dc:format>image/svg+xml</dc:format><dc:type
           rdf:resource="http://purl.org/dc/dcmitype/StillImage" /><dc:title></dc:title></cc:Work></rdf:RDF></metadata><defs
     id="defs13" /><sodipodi:namedview
     pagecolor="#ffffff"
     bordercolor="#666666"
     borderopacity="1"
     objecttolerance="10"
     gridtolerance="10"
     guidetolerance="10"
     inkscape:pageopacity="0"
     inkscape:pageshadow="2"
     inkscape:window-width="1722"
     inkscape:window-height="1030"
     id="namedview11"
     showgrid="false"
     inkscape:zoom="9.3622602"
     inkscape:cx="27.98259"
     inkscape:cy="14.072169"
     inkscape:window-x="0"
     inkscape:window-y="0"
     inkscape:window-maximized="0"
     inkscape:current-layer="Layer_1" /><g
     id="g4143"
     transform="matrix(0.08056589,0,0,0.08056589,4.3642967,41.637863)"><path
       style="fill:#0a5772"
       inkscape:connector-curvature="0"
       id="path3"
       d="m 492.879,-19.268 c 0,34.171 -27.701,61.872 -61.873,61.872 l -349.743,0 C 47.092,42.604 19.39,14.903 19.39,-19.268 l 0,-349.745 c 0,-34.171 27.702,-61.873 61.873,-61.873 l 349.743,0 c 34.172,0 61.873,27.701 61.873,61.873 l 0,349.745 z" /><path
       style="fill:#0083be"
       inkscape:connector-curvature="0"
       id="path5"
       d="m 492.879,-44.012 c 0,34.172 -27.701,61.873 -61.873,61.873 l -349.743,0 C 47.092,17.861 19.39,-9.84 19.39,-44.012 l 0,-349.745 c 0,-34.17 27.702,-61.872 61.873,-61.872 l 349.743,0 c 34.172,0 61.873,27.702 61.873,61.872 l 0,349.745 z" /><path
       style="fill:#0064a2"
       inkscape:connector-curvature="0"
       id="path7"
       d="m 492.879,-44.012 0,-207.306 c -0.899,-0.877 -1.803,-1.749 -2.725,-2.599 -3.994,-4.324 -8.334,-8.374 -12.49,-12.542 -4.164,-4.139 -8.192,-8.479 -12.51,-12.458 -3.994,-4.324 -8.334,-8.374 -12.49,-12.542 -4.164,-4.139 -8.192,-8.479 -12.51,-12.458 -3.994,-4.324 -8.334,-8.374 -12.49,-12.542 -4.164,-4.139 -8.192,-8.479 -12.51,-12.458 -3.994,-4.324 -8.334,-8.374 -12.49,-12.542 -4.142,-4.117 -8.15,-8.419 -12.419,-12.404 -6.795,-6.343 -17.782,-6.168 -24.353,0.411 -2.156,2.158 -4.313,4.317 -6.468,6.477 -8.469,8.479 -16.938,16.959 -25.406,25.439 -1.064,1.066 -2.129,2.132 -3.194,3.198 -0.09,0.09 -0.315,0.417 -0.445,0.446 -2.477,-1.644 -5.035,-3.162 -7.667,-4.544 -10.269,-5.396 -21.605,-8.685 -33.165,-9.642 -21.488,-1.78 -43.446,4.52 -60.502,17.764 -7.104,5.517 -13.306,12.383 -19.657,18.734 -8.996,8.996 -17.992,17.992 -26.988,26.988 -5.435,5.435 -11.042,10.746 -16.291,16.364 -13.302,14.236 -21.514,32.787 -23.135,52.202 -1.597,19.127 3.212,38.574 13.655,54.691 0.46,0.709 0.615,0.607 0.136,1.088 -0.39,0.39 -0.78,0.781 -1.17,1.17 -1.442,1.443 -2.884,2.887 -4.326,4.33 -4.372,4.377 -8.745,8.752 -13.117,13.129 -4.147,4.15 -8.294,8.301 -12.441,12.451 -2.689,2.691 -5.741,5.295 -7.446,8.756 -2.038,4.138 -2.347,9.025 -0.853,13.389 0.763,2.229 1.985,4.291 3.571,6.033 1.927,2.115 4.039,4.167 6.135,6.113 1.995,2.16 4.29,4.059 6.233,6.263 1.931,2.19 4.167,4.2 6.24,6.258 4.142,4.173 8.219,8.479 12.527,12.479 1.995,2.16 4.29,4.059 6.233,6.263 1.931,2.19 4.167,4.2 6.24,6.258 4.142,4.173 8.219,8.479 12.527,12.479 1.995,2.16 4.29,4.059 6.233,6.263 1.931,2.19 4.167,4.2 6.24,6.258 4.142,4.173 8.219,8.479 12.527,12.479 1.995,2.16 4.29,4.059 6.233,6.263 1.931,2.19 4.167,4.2 6.24,6.258 3.036,3.058 6.039,6.187 9.121,9.216 l 207.295,0 c 34.171,0 61.872,-27.701 61.872,-61.873 z" /><path
       style="fill:#ffffff"
       inkscape:connector-curvature="0"
       id="path9"
       d="m 390.664,-353.458 c -6.825,-6.806 -17.986,-6.806 -24.765,0 l -35.521,35.567 c -14.58,-9.681 -31.289,-14.485 -48.059,-14.485 -22.353,0 -44.981,8.521 -61.715,25.579 l -52.374,52.375 c -29.863,29.832 -33.55,75.971 -11.119,109.827 l -35.522,35.553 c -6.826,6.811 -6.826,17.91 0,24.688 3.396,3.419 7.84,5.146 12.323,5.146 4.485,0 8.941,-1.727 12.329,-5.146 l 35.57,-35.556 c 14.544,9.688 31.363,14.515 48.134,14.515 22.03,0 44.649,-8.538 61.709,-25.612 l 52.248,-52.367 c 29.882,-29.824 33.605,-75.981 11.126,-109.801 l 35.636,-35.587 c 6.846,-6.813 6.846,-17.87 0,-24.696 z m -56.098,108.369 c 0,13.985 -5.451,27.167 -15.349,37.022 l -52.264,52.375 c -9.894,9.91 -23.31,15.348 -37.009,15.348 -7.922,0 -15.484,-1.919 -22.431,-5.243 l 25.749,-26.069 c 6.826,-6.795 6.826,-17.859 0,-24.648 -6.516,-6.824 -17.581,-6.824 -24.375,0 l -26.077,26.025 c -3.346,-6.91 -5.242,-14.501 -5.242,-22.43 0,-13.975 5.451,-27.157 15.358,-37.021 l 52.053,-52.375 c 9.89,-9.903 23.352,-15.354 37.341,-15.354 7.878,0 15.425,1.94 22.379,5.25 l -26.551,26.595 c -6.828,6.827 -6.828,17.859 0,24.695 3.402,3.388 7.896,5.093 12.338,5.093 4.448,0 8.891,-1.705 12.311,-5.093 l 26.525,-26.593 c 3.342,6.912 5.244,14.512 5.244,22.423 z" /></g></svg>