<svg xmlns="http://www.w3.org/2000/svg" height="512pt" version="1.1" viewBox="-17 0 512 512.00512" width="512pt">
<g id="surface1">
<path d="M 105.308594 109.261719 C 93.667969 129.597656 93.621094 154.605469 105.1875 171.496094 C 116.171875 187.53125 135.609375 195.308594 153.167969 200.800781 C 155.558594 201.554688 157.96875 202.289062 160.390625 203.023438 C 176.382812 207.875 192.921875 212.894531 205.984375 223.535156 C 216.03125 231.722656 223.335938 242.75 230.402344 253.410156 L 230.484375 253.53125 C 237.339844 263.875 243.816406 273.640625 252.777344 281.519531 C 265.757812 292.953125 283.199219 299.25 301.890625 299.25 C 308.542969 299.25 315.179688 298.429688 321.621094 296.8125 C 344.171875 291.160156 365.253906 275.632812 379.449219 254.21875 C 397.214844 227.445312 403.328125 192.804688 395.808594 161.554688 C 391.398438 143.289062 382.363281 125.972656 369.675781 111.484375 C 364.632812 105.730469 356.898438 97.492188 347.96875 92.378906 C 344.492188 90.390625 340.714844 89.257812 337.066406 88.160156 C 334.59375 87.414062 332.039062 86.640625 329.550781 85.609375 C 322.050781 82.492188 314.9375 78.644531 308.035156 74.914062 C 297.835938 69.394531 288.199219 64.1875 276.914062 60.789062 C 260.027344 55.710938 242.515625 53.132812 224.867188 53.132812 C 222.867188 53.132812 220.832031 53.167969 218.828125 53.234375 C 196.601562 53.976562 174.558594 58.992188 155.078125 67.746094 C 132.183594 78.039062 114.972656 92.394531 105.308594 109.261719 Z M 105.308594 109.261719 " style=" stroke:none;fill-rule:nonzero;fill:rgb(69.803922%,91.764706%,97.647059%);fill-opacity:1;" />
<path d="M 452.359375 134.664062 L 473.707031 131.371094 L 468.527344 127.113281 C 460.34375 120.386719 450.101562 116.113281 439.675781 115.085938 C 439.464844 115.0625 439.285156 114.90625 439.222656 114.675781 C 439.164062 114.46875 439.246094 114.25 439.433594 114.113281 L 470.257812 91.953125 L 462.035156 91.339844 C 460.566406 91.230469 459.074219 91.175781 457.601562 91.175781 C 448.746094 91.175781 439.863281 93.179688 431.921875 96.96875 C 431.84375 97.003906 431.757812 97.023438 431.675781 97.023438 C 431.585938 97.023438 431.457031 97.003906 431.339844 96.902344 C 431.179688 96.765625 431.109375 96.542969 431.164062 96.347656 L 442.546875 55.042969 L 435.984375 59.195312 C 422.675781 67.625 412.476562 81.09375 408.003906 96.164062 C 407.949219 96.351562 407.792969 96.488281 407.609375 96.523438 C 407.574219 96.53125 407.539062 96.535156 407.503906 96.535156 C 407.335938 96.535156 407.175781 96.460938 407.078125 96.335938 L 401.996094 90.039062 C 384.855469 68.765625 370.035156 51.40625 348.542969 37.710938 C 328.671875 25.058594 306.375 15.90625 282.269531 10.503906 C 263.324219 6.253906 242.472656 4.097656 220.296875 4.097656 C 184.179688 4.097656 150.570312 9.761719 128.449219 14.019531 C 127.339844 14.226562 126.246094 14.445312 125.160156 14.664062 L 124.285156 14.839844 C 116.789062 16.332031 109.710938 17.742188 101.953125 17.742188 C 101.210938 17.742188 100.460938 17.730469 99.707031 17.703125 C 97.5625 17.628906 95.375 17.589844 93.210938 17.589844 C 85.257812 17.589844 77.175781 18.101562 69.191406 19.113281 C 49.234375 21.640625 29.972656 27.222656 11.9375 35.707031 C 8.605469 37.285156 5.378906 39.171875 4.367188 42.28125 C 3.003906 46.472656 6.609375 51.054688 10.710938 52.554688 C 12.507812 53.203125 14.546875 53.519531 16.9375 53.519531 C 19.125 53.519531 21.410156 53.257812 23.65625 53.003906 L 24.488281 52.914062 C 26.148438 52.722656 28.113281 52.53125 30.058594 52.53125 C 33.566406 52.53125 36.292969 53.136719 38.671875 54.449219 C 38.828125 54.535156 38.925781 54.699219 38.929688 54.890625 C 38.933594 55.085938 38.839844 55.261719 38.671875 55.363281 C 28.128906 61.816406 18.441406 69.640625 9.878906 78.613281 C 4.632812 84.121094 2.984375 89.316406 5.355469 92.863281 C 6.726562 94.921875 9.121094 95.964844 12.476562 95.964844 C 15.160156 95.964844 18.074219 95.285156 20.042969 94.714844 L 51.78125 85.542969 C 51.832031 85.527344 51.878906 85.519531 51.929688 85.519531 C 52.113281 85.519531 52.335938 85.632812 52.425781 85.867188 C 52.523438 86.132812 52.398438 86.421875 52.140625 86.542969 C 46.835938 88.953125 43.382812 94.914062 43.921875 100.710938 C 44.464844 106.511719 48.960938 111.730469 54.660156 113.136719 C 54.886719 113.1875 55.121094 113.226562 55.355469 113.265625 L 55.585938 113.300781 L 56.257812 113.425781 L 56.914062 113.246094 C 56.960938 113.234375 57.007812 113.226562 57.027344 113.226562 C 57.09375 113.226562 57.175781 113.246094 57.269531 113.285156 L 57.875 113.550781 L 58.539062 113.53125 C 62.289062 113.4375 66.199219 112.050781 69.84375 109.523438 C 74.378906 106.371094 77.894531 102.015625 81.28125 97.824219 C 81.4375 97.636719 81.632812 97.617188 81.710938 97.617188 C 81.789062 97.617188 81.867188 97.636719 81.953125 97.679688 C 82.175781 97.78125 82.289062 98.03125 82.234375 98.273438 C 80.863281 104.375 81.8125 110.445312 84.832031 114.933594 C 87.207031 118.476562 90.6875 120.820312 94.941406 121.757812 L 97.675781 124.488281 L 99.253906 119.984375 C 100.625 116.0625 102.351562 112.273438 104.386719 108.722656 C 114.152344 91.667969 131.53125 77.164062 154.644531 66.777344 C 174.226562 57.964844 196.410156 52.910156 218.792969 52.160156 C 220.8125 52.09375 222.859375 52.058594 224.878906 52.058594 C 242.609375 52.058594 260.222656 54.652344 277.226562 59.765625 C 288.5625 63.179688 298.695312 68.648438 308.550781 73.96875 C 315.058594 77.492188 322.429688 81.488281 329.960938 84.621094 C 332.414062 85.640625 334.9375 86.398438 337.402344 87.140625 C 341.113281 88.261719 344.953125 89.417969 348.5 91.457031 C 357.574219 96.648438 365.394531 104.976562 370.484375 110.789062 C 383.292969 125.421875 392.40625 142.894531 396.847656 161.316406 C 404.445312 192.835938 398.273438 227.789062 380.34375 254.8125 C 365.992188 276.445312 344.683594 292.132812 321.882812 297.851562 C 315.363281 299.484375 308.652344 300.3125 301.933594 300.3125 C 298.425781 300.3125 294.910156 300.085938 291.484375 299.644531 L 286.828125 299.046875 L 288.242188 303.523438 C 288.296875 303.695312 288.277344 303.777344 288.273438 303.804688 C 285.585938 315.96875 287.773438 329.046875 294.261719 339.683594 C 295.832031 342.253906 300.105469 348.230469 305.878906 348.226562 C 306.433594 348.226562 306.988281 348.167969 307.519531 348.058594 C 308.636719 347.820312 309.75 347.324219 310.863281 346.820312 C 312.417969 346.113281 314.03125 345.382812 315.835938 345.382812 L 316.09375 345.390625 C 318.445312 345.480469 320.753906 346.914062 322.597656 349.433594 C 323.472656 350.617188 324.160156 351.898438 324.824219 353.132812 C 325.332031 354.082031 325.832031 355.007812 326.386719 355.859375 C 329.746094 361.105469 335.695312 364.675781 341.921875 365.183594 C 342.421875 365.222656 342.925781 365.242188 343.425781 365.242188 C 349.203125 365.242188 354.921875 362.707031 358.726562 358.464844 C 364.082031 352.488281 365.375 344.152344 366.625 336.09375 L 366.664062 335.863281 C 367.035156 333.472656 367.421875 331 367.910156 328.632812 C 370.472656 316.261719 378.003906 298.828125 390.777344 290.421875 C 392.144531 289.527344 393.640625 288.988281 395.117188 288.453125 C 396.292969 288.039062 397.441406 287.617188 398.527344 287.03125 C 401.953125 285.1875 405.140625 282.757812 408.371094 280.226562 C 414.089844 275.757812 419.859375 270.40625 426 263.863281 C 440.429688 248.480469 450.203125 227.855469 453.519531 205.792969 C 455.164062 194.90625 455.234375 183.957031 453.734375 173.238281 C 452.597656 165.082031 451.085938 156.519531 446.3125 149.421875 L 445.976562 148.917969 C 443.726562 145.609375 442.089844 142.84375 443.171875 139.878906 C 444.46875 136.3125 448.761719 135.21875 452.359375 134.664062 Z M 452.359375 134.664062 " style=" stroke:none;fill-rule:nonzero;fill:rgb(68.627451%,47.45098%,47.45098%);fill-opacity:1;" />
<path d="M 355.945312 365.859375 C 355.921875 365.835938 355.890625 365.796875 355.859375 365.742188 L 354.523438 363.425781 L 352.070312 364.488281 C 349.3125 365.679688 346.324219 366.308594 343.429688 366.308594 C 342.929688 366.308594 342.402344 366.289062 341.820312 366.242188 C 335.28125 365.714844 329.023438 361.960938 325.488281 356.445312 C 324.878906 355.496094 324.351562 354.511719 323.878906 353.625 C 323.191406 352.359375 322.546875 351.164062 321.730469 350.0625 C 320.085938 347.8125 318.066406 346.53125 315.996094 346.453125 L 315.875 346.449219 C 314.277344 346.449219 312.691406 347.167969 311.265625 347.8125 C 310.132812 348.320312 308.96875 348.847656 307.742188 349.105469 C 307.132812 349.234375 306.511719 349.296875 305.890625 349.296875 C 301.433594 349.296875 296.863281 346 293.351562 340.25 C 289.898438 334.585938 287.566406 328.054688 286.609375 321.355469 L 285.210938 311.601562 L 280.9375 320.476562 C 268.261719 346.78125 246.351562 369.519531 219.238281 384.515625 C 206.910156 391.328125 193.167969 397.324219 177.234375 402.84375 L 171.332031 404.890625 L 176.621094 408.21875 C 203.167969 424.921875 216.117188 453.660156 211.261719 485.117188 C 211.179688 485.664062 211.085938 486.210938 210.996094 486.753906 L 210.878906 487.445312 C 210.367188 490.441406 209.839844 493.542969 210.023438 496.660156 C 210.285156 500.996094 212.046875 504.546875 214.859375 506.394531 C 216.398438 507.410156 218.195312 507.921875 220.199219 507.921875 C 223.769531 507.921875 228.011719 506.332031 233.546875 502.910156 C 275.617188 476.882812 317.621094 449.757812 358.402344 422.289062 C 363.675781 418.734375 370.242188 414.308594 373.300781 407.789062 C 376.398438 401.214844 375.726562 392.535156 371.503906 384.558594 C 367.644531 377.289062 361.683594 371.464844 355.945312 365.859375 Z M 355.945312 365.859375 " style=" stroke:none;fill-rule:nonzero;fill:rgb(100%,82.352941%,73.333333%);fill-opacity:1;" />
<path d="M 286.917969 302.277344 L 287.871094 299.164062 L 284.691406 298.46875 C 272.269531 295.761719 260.984375 290.179688 252.0625 282.332031 C 242.976562 274.316406 236.132812 263.992188 229.5 253.992188 C 222.171875 242.925781 215.25 232.46875 205.304688 224.363281 C 192.433594 213.878906 176.003906 208.882812 160.074219 204.039062 C 157.652344 203.308594 155.246094 202.574219 152.855469 201.828125 C 135.113281 196.273438 115.464844 188.394531 104.304688 172.105469 C 95.859375 159.773438 93.320312 143.144531 97.335938 126.484375 L 98.066406 123.460938 L 95.019531 122.839844 C 90.34375 121.886719 86.515625 119.359375 83.941406 115.535156 C 82.371094 113.199219 81.332031 110.492188 80.855469 107.484375 L 79.917969 101.640625 L 75.757812 105.847656 C 73.9375 107.691406 72.203125 109.179688 70.457031 110.398438 C 67.3125 112.585938 63.859375 113.980469 60.464844 114.433594 L 57.675781 114.808594 L 57.871094 117.617188 C 58.371094 124.839844 58.753906 131.886719 59.128906 138.707031 L 59.183594 139.722656 C 59.613281 147.65625 60.058594 155.859375 60.691406 164.324219 C 61.226562 171.449219 61.777344 178.816406 60.554688 186.089844 C 58.304688 199.417969 50.226562 211.042969 43.097656 221.296875 L 18.777344 256.339844 C 12.140625 265.902344 5.332031 277.019531 8.640625 287.921875 C 11.0625 295.890625 19.148438 302.257812 29.242188 304.140625 C 31.820312 304.617188 34.503906 304.851562 37.4375 304.851562 C 44.042969 304.851562 50.621094 303.652344 57.070312 302.484375 C 57.179688 302.484375 57.289062 302.519531 57.390625 302.589844 C 57.507812 302.671875 57.585938 302.796875 57.609375 302.941406 L 71.667969 393.222656 C 73.128906 402.585938 74.964844 411.441406 81.324219 416.914062 C 85.316406 420.347656 90.507812 422.019531 97.1875 422.019531 C 103.382812 422.019531 110.117188 420.527344 115.289062 419.230469 C 150.308594 410.457031 186.515625 401.378906 218.722656 383.574219 C 251.882812 365.242188 276.738281 335.609375 286.917969 302.277344 Z M 286.917969 302.277344 " style=" stroke:none;fill-rule:nonzero;fill:rgb(100%,82.352941%,73.333333%);fill-opacity:1;" />
<path d="M 476.890625 129.433594 C 469.375 121.238281 459.367188 115.320312 448.585938 112.546875 L 472.980469 95 C 474.109375 94.1875 474.65625 92.792969 474.378906 91.429688 C 474.105469 90.066406 473.058594 88.992188 471.703125 88.683594 C 460.195312 86.0625 448.113281 86.726562 436.992188 90.515625 L 444.824219 62.082031 C 445.988281 57.859375 444.554688 55.660156 443.148438 54.554688 C 441.960938 53.621094 439.375 52.414062 435.371094 54.796875 C 422.3125 62.574219 411.957031 74.757812 406.261719 88.839844 L 405.164062 87.480469 C 387.777344 65.910156 372.730469 48.296875 350.726562 34.28125 C 330.472656 21.378906 307.738281 12.042969 283.15625 6.527344 C 255.941406 0.425781 210.210938 -5.855469 127.664062 10.023438 C 126.253906 10.296875 124.867188 10.570312 123.492188 10.84375 C 115.527344 12.429688 108.007812 13.9375 99.855469 13.640625 C 89.5625 13.28125 79.074219 13.765625 68.675781 15.082031 C 48.285156 17.667969 28.617188 23.367188 10.210938 32.027344 C 7.609375 33.253906 2.195312 35.800781 0.496094 41.03125 C -1.613281 47.527344 3.359375 54.210938 9.320312 56.371094 C 14.285156 58.171875 19.519531 57.570312 24.136719 57.042969 L 24.945312 56.949219 C 26.363281 56.792969 27.847656 56.648438 29.324219 56.613281 C 21.246094 62.238281 13.738281 68.671875 6.9375 75.808594 C 0.265625 82.8125 -1.546875 89.855469 1.972656 95.125 C 5.328125 100.15625 11.789062 101.332031 21.175781 98.617188 L 41.109375 92.859375 C 40.070312 95.464844 39.609375 98.292969 39.871094 101.089844 C 40.566406 108.5625 46.359375 115.285156 53.648438 117.074219 C 53.683594 117.085938 53.722656 117.089844 53.757812 117.097656 C 54.289062 124.691406 54.695312 132.085938 55.082031 139.25 C 55.523438 147.421875 55.976562 155.875 56.632812 164.628906 C 57.148438 171.527344 57.679688 178.667969 56.539062 185.414062 C 54.441406 197.832031 46.640625 209.066406 39.757812 218.984375 L 15.4375 254.015625 C 10.246094 261.492188 0.585938 275.410156 4.75 289.113281 C 7.609375 298.515625 16.925781 305.984375 28.492188 308.136719 C 37.183594 309.757812 46.046875 308.558594 54.140625 307.140625 L 67.652344 393.851562 C 69.230469 403.988281 71.261719 413.617188 78.671875 419.996094 C 83.914062 424.511719 90.269531 426.105469 97.097656 426.105469 C 103.261719 426.105469 109.8125 424.808594 116.28125 423.183594 C 134.613281 418.589844 153.269531 413.898438 171.546875 407.933594 C 171.566406 409.109375 172.160156 410.25 173.242188 410.90625 C 199.21875 426.613281 211.933594 454.121094 207.246094 484.488281 C 207.128906 485.25 207 486.015625 206.867188 486.78125 C 206.320312 490.027344 205.753906 493.382812 205.964844 496.910156 C 206.300781 502.535156 208.726562 507.230469 212.617188 509.796875 C 215.019531 511.375 217.570312 512.003906 220.144531 512.003906 C 225.734375 512.003906 231.402344 509.027344 235.6875 506.375 C 277.683594 480.402344 319.734375 453.253906 360.671875 425.675781 C 366.363281 421.84375 373.445312 417.070312 376.992188 409.527344 C 380.628906 401.792969 379.921875 391.753906 375.105469 382.667969 C 371.105469 375.121094 364.921875 368.957031 359.347656 363.5 C 360.203125 362.785156 361.015625 362.015625 361.757812 361.1875 C 367.910156 354.324219 369.300781 345.378906 370.644531 336.722656 C 371.039062 334.195312 371.410156 331.808594 371.898438 329.464844 C 374.496094 316.929688 382.035156 301.046875 393.019531 293.824219 C 393.992188 293.183594 395.15625 292.765625 396.507812 292.28125 C 397.726562 291.84375 399.109375 291.347656 400.46875 290.613281 C 404.136719 288.632812 407.484375 286.089844 410.875 283.4375 C 416.78125 278.824219 422.699219 273.332031 428.964844 266.652344 C 443.949219 250.679688 454.097656 229.28125 457.546875 206.394531 C 459.242188 195.125 459.316406 183.78125 457.765625 172.679688 C 456.613281 164.421875 454.941406 154.957031 449.675781 147.136719 L 449.339844 146.640625 C 448.09375 144.800781 446.542969 142.511719 446.992188 141.273438 C 447.417969 140.113281 449.433594 139.242188 452.984375 138.695312 L 474.828125 135.320312 C 476.117188 135.121094 477.191406 134.226562 477.621094 133 C 478.050781 131.761719 477.773438 130.394531 476.890625 129.433594 Z M 114.5625 416.324219 C 102.765625 419.28125 90.816406 421.125 83.28125 414.636719 C 77.695312 409.824219 76.003906 401.542969 74.632812 392.757812 L 60.570312 302.476562 C 60.421875 301.535156 59.902344 300.691406 59.125 300.140625 C 58.347656 299.589844 57.378906 299.371094 56.445312 299.542969 C 47.617188 301.148438 38.492188 302.804688 29.785156 301.1875 C 20.785156 299.507812 13.613281 293.960938 11.511719 287.054688 C 8.585938 277.433594 15 267.035156 21.242188 258.046875 L 45.5625 223.011719 C 52.867188 212.488281 61.148438 200.5625 63.507812 186.585938 C 64.792969 178.992188 64.226562 171.421875 63.679688 164.097656 C 63.03125 155.417969 62.578125 147.003906 62.140625 138.867188 C 61.765625 131.925781 61.371094 124.769531 60.863281 117.40625 C 64.683594 116.894531 68.578125 115.355469 72.167969 112.859375 C 74.253906 111.414062 76.144531 109.734375 77.886719 107.960938 C 78.433594 111.339844 79.632812 114.496094 81.453125 117.207031 C 84.496094 121.730469 88.972656 124.667969 94.417969 125.777344 C 90.3125 142.820312 92.777344 160.585938 101.828125 173.796875 C 113.507812 190.847656 133.722656 198.980469 151.957031 204.6875 C 154.359375 205.441406 156.78125 206.175781 159.207031 206.914062 C 174.832031 211.65625 190.988281 216.5625 203.410156 226.6875 C 212.972656 234.476562 219.785156 244.761719 227.003906 255.648438 C 233.730469 265.804688 240.691406 276.300781 250.085938 284.574219 C 259.5625 292.921875 271.351562 298.632812 284.050781 301.394531 C 274.089844 334.007812 249.808594 362.960938 217.273438 380.945312 C 185.417969 398.558594 149.394531 407.589844 114.5625 416.324219 Z M 254.757812 279.269531 C 246.066406 271.617188 239.667969 261.964844 232.894531 251.746094 C 225.707031 240.898438 218.273438 229.679688 207.875 221.207031 C 194.378906 210.207031 177.542969 205.09375 161.261719 200.148438 C 158.855469 199.417969 156.453125 198.691406 154.066406 197.945312 C 136.992188 192.597656 118.121094 185.074219 107.660156 169.804688 C 96.726562 153.84375 96.828125 130.109375 107.914062 110.746094 C 117.246094 94.445312 133.984375 80.523438 156.3125 70.484375 C 175.429688 61.886719 197.082031 56.957031 218.929688 56.226562 C 238.28125 55.589844 257.503906 58.082031 276.054688 63.660156 C 287.015625 66.957031 296.535156 72.105469 306.613281 77.554688 C 313.566406 81.308594 320.753906 85.195312 328.398438 88.375 C 331.011719 89.464844 333.648438 90.257812 336.199219 91.027344 C 339.863281 92.132812 343.324219 93.179688 346.476562 94.984375 C 355.027344 99.878906 362.523438 107.875 367.417969 113.464844 C 379.796875 127.605469 388.605469 144.480469 392.886719 162.265625 C 400.222656 192.710938 394.265625 226.46875 376.949219 252.566406 C 363.15625 273.359375 342.722656 288.425781 320.894531 293.902344 C 297.125 299.867188 271.78125 294.261719 254.757812 279.269531 Z M 353.816406 367.976562 C 359.429688 373.464844 365.230469 379.136719 368.855469 385.976562 C 372.636719 393.105469 373.285156 400.78125 370.59375 406.511719 C 367.875 412.292969 361.6875 416.460938 356.714844 419.808594 C 315.855469 447.332031 273.882812 474.433594 231.964844 500.359375 C 224.640625 504.890625 219.726562 506.011719 216.503906 503.886719 C 214.519531 502.582031 213.214844 499.8125 213.019531 496.480469 C 212.855469 493.757812 213.332031 490.9375 213.835938 487.953125 C 213.972656 487.15625 214.105469 486.359375 214.230469 485.558594 C 219.285156 452.789062 205.832031 423.046875 178.214844 405.679688 C 192.792969 400.625 207.078125 394.664062 220.691406 387.136719 C 248.613281 371.699219 270.757812 348.511719 283.636719 321.777344 C 284.652344 328.835938 287.054688 335.695312 290.785156 341.804688 C 295.503906 349.539062 302.074219 353.359375 308.355469 352.039062 C 309.917969 351.710938 311.304688 351.082031 312.527344 350.53125 C 313.855469 349.929688 315.011719 349.433594 315.925781 349.449219 C 316.984375 349.492188 318.25 350.378906 319.3125 351.824219 C 320.007812 352.777344 320.609375 353.894531 321.246094 355.074219 C 321.773438 356.050781 322.316406 357.054688 322.957031 358.058594 C 326.996094 364.351562 334.128906 368.632812 341.582031 369.234375 C 342.199219 369.285156 342.8125 369.308594 343.429688 369.308594 C 346.792969 369.308594 350.15625 368.578125 353.253906 367.238281 C 353.410156 367.503906 353.589844 367.753906 353.816406 367.976562 Z M 451.902344 131.703125 C 449.308594 132.105469 442.417969 133.171875 440.347656 138.847656 C 438.660156 143.480469 441.449219 147.597656 443.484375 150.601562 L 443.808594 151.082031 C 448.234375 157.648438 449.667969 165.832031 450.761719 173.652344 C 452.21875 184.082031 452.148438 194.738281 450.550781 205.335938 C 447.316406 226.816406 437.816406 246.875 423.804688 261.808594 C 417.789062 268.222656 412.132812 273.476562 406.519531 277.863281 C 403.375 280.320312 400.289062 282.671875 397.101562 284.390625 C 396.214844 284.871094 395.195312 285.234375 394.117188 285.625 C 392.566406 286.179688 390.808594 286.8125 389.128906 287.914062 C 375.589844 296.820312 367.652344 315.085938 364.96875 328.023438 C 364.449219 330.542969 364.046875 333.128906 363.65625 335.632812 C 362.414062 343.621094 361.242188 351.164062 356.488281 356.464844 C 352.941406 360.421875 347.445312 362.605469 342.148438 362.191406 C 336.851562 361.761719 331.777344 358.71875 328.90625 354.242188 C 328.410156 353.46875 327.953125 352.617188 327.46875 351.722656 C 326.746094 350.382812 326 348.996094 325.011719 347.648438 C 322.621094 344.386719 319.496094 342.519531 316.207031 342.386719 C 313.621094 342.296875 311.492188 343.242188 309.613281 344.089844 C 308.632812 344.535156 307.707031 344.953125 306.894531 345.125 C 303.105469 345.929688 299.203125 342.03125 296.816406 338.125 C 290.726562 328.144531 288.675781 315.871094 291.195312 304.449219 C 291.332031 303.816406 291.28125 303.191406 291.097656 302.617188 C 294.667969 303.078125 298.289062 303.3125 301.933594 303.3125 C 308.816406 303.3125 315.777344 302.476562 322.613281 300.761719 C 346.128906 294.859375 368.082031 278.71875 382.839844 256.476562 C 401.222656 228.769531 407.546875 192.933594 399.757812 160.613281 C 395.207031 141.71875 385.863281 123.808594 372.734375 108.8125 C 367.507812 102.839844 359.460938 94.273438 349.988281 88.851562 C 346.140625 86.648438 342.125 85.4375 338.242188 84.265625 C 335.75 83.511719 333.398438 82.800781 331.113281 81.851562 C 323.796875 78.8125 316.773438 75.011719 309.976562 71.339844 C 300.027344 65.960938 289.742188 60.398438 278.089844 56.894531 C 258.800781 51.097656 238.816406 48.496094 218.695312 49.167969 C 195.9375 49.925781 173.363281 55.070312 153.410156 64.039062 C 129.714844 74.695312 111.859375 89.632812 101.78125 107.238281 C 99.613281 111.023438 97.832031 114.96875 96.421875 118.988281 C 96.414062 118.988281 96.410156 118.984375 96.402344 118.984375 C 92.542969 118.34375 89.402344 116.363281 87.320312 113.265625 C 84.753906 109.445312 83.964844 104.222656 85.160156 98.929688 C 85.523438 97.328125 84.730469 95.6875 83.253906 94.972656 C 81.773438 94.253906 79.996094 94.652344 78.964844 95.929688 C 75.6875 99.976562 72.296875 104.167969 68.132812 107.058594 C 64.972656 109.257812 61.585938 110.449219 58.460938 110.53125 C 57.953125 110.3125 57.394531 110.191406 56.800781 110.234375 C 56.570312 110.25 56.347656 110.292969 56.128906 110.351562 C 55.863281 110.304688 55.59375 110.277344 55.335938 110.214844 C 50.949219 109.136719 47.328125 104.933594 46.910156 100.4375 C 46.488281 95.941406 49.273438 91.144531 53.382812 89.277344 C 55.070312 88.507812 55.878906 86.570312 55.234375 84.832031 C 54.59375 83.09375 52.71875 82.144531 50.9375 82.664062 L 19.210938 91.832031 C 15.785156 92.820312 9.753906 94.054688 7.851562 91.207031 C 6.082031 88.558594 8.863281 84.035156 12.054688 80.6875 C 20.417969 71.914062 29.902344 64.253906 40.246094 57.921875 C 41.316406 57.261719 41.960938 56.085938 41.933594 54.824219 C 41.902344 53.566406 41.207031 52.417969 40.105469 51.808594 C 34.988281 48.992188 29.1875 49.359375 24.148438 49.929688 L 23.328125 50.023438 C 19.113281 50.507812 15.128906 50.964844 11.730469 49.730469 C 8.988281 48.734375 6.421875 45.675781 7.21875 43.21875 C 7.878906 41.179688 10.492188 39.710938 13.222656 38.429688 C 30.953125 30.082031 49.910156 24.585938 69.566406 22.09375 C 79.585938 20.824219 89.691406 20.351562 99.605469 20.707031 C 108.578125 21.019531 116.492188 19.445312 124.871094 17.777344 C 126.230469 17.507812 127.605469 17.234375 129 16.964844 C 167.914062 9.480469 226.066406 0.96875 281.609375 13.425781 C 305.390625 18.761719 327.363281 27.78125 346.925781 40.242188 C 368.023438 53.679688 382.683594 70.855469 399.660156 91.917969 L 404.742188 98.21875 C 405.566406 99.242188 406.890625 99.722656 408.179688 99.46875 C 409.46875 99.214844 410.507812 98.265625 410.882812 97.003906 C 415.167969 82.558594 424.855469 69.785156 437.585938 61.726562 L 428.273438 95.546875 C 427.90625 96.878906 428.351562 98.304688 429.414062 99.195312 C 430.472656 100.085938 431.957031 100.269531 433.203125 99.675781 C 442.109375 95.425781 452.023438 93.601562 461.808594 94.324219 L 437.675781 111.683594 C 436.484375 112.542969 435.945312 114.050781 436.328125 115.46875 C 436.707031 116.890625 437.929688 117.925781 439.394531 118.070312 C 449.300781 119.046875 458.917969 123.101562 466.625 129.425781 Z M 451.902344 131.703125 " style=" stroke:none;fill-rule:nonzero;fill:rgb(0%,0%,0%);fill-opacity:1;" />
<path d="M 176.121094 130.835938 L 154.296875 152.332031 C 152.875 153.730469 152.859375 156.015625 154.257812 157.4375 C 154.515625 157.699219 154.804688 157.914062 155.113281 158.082031 C 156.472656 158.816406 158.203125 158.617188 159.363281 157.476562 L 178.753906 138.378906 L 181.792969 147.089844 C 182.101562 147.972656 182.722656 148.664062 183.484375 149.074219 C 184.347656 149.542969 185.394531 149.65625 186.394531 149.308594 C 188.277344 148.652344 189.269531 146.59375 188.613281 144.710938 L 184.445312 132.773438 L 204.546875 112.976562 C 205.96875 111.578125 205.984375 109.292969 204.585938 107.871094 C 203.1875 106.449219 200.898438 106.429688 199.480469 107.832031 L 181.8125 125.230469 L 175.847656 108.140625 C 175.1875 106.261719 173.128906 105.265625 171.246094 105.921875 C 169.363281 106.578125 168.371094 108.636719 169.027344 110.523438 Z M 176.121094 130.835938 " style=" stroke:none;fill-rule:nonzero;fill:rgb(0%,0%,0%);fill-opacity:1;" />
<path d="M 205.074219 138.730469 C 205.320312 138.863281 205.585938 138.972656 205.867188 139.046875 L 219.203125 142.59375 L 215.300781 162.445312 C 214.988281 164.035156 215.769531 165.585938 217.125 166.320312 C 217.4375 166.488281 217.78125 166.613281 218.148438 166.683594 C 220.105469 167.070312 222.003906 165.792969 222.386719 163.839844 L 226.195312 144.457031 L 236.679688 147.242188 C 238.605469 147.757812 240.582031 146.609375 241.097656 144.683594 C 241.609375 142.757812 240.472656 140.777344 238.535156 140.265625 L 227.59375 137.355469 L 229.859375 125.816406 C 230.242188 123.859375 228.976562 121.949219 227.011719 121.578125 C 225.054688 121.191406 223.15625 122.46875 222.773438 124.425781 L 220.597656 135.492188 L 207.722656 132.066406 C 205.796875 131.554688 203.820312 132.703125 203.308594 134.628906 C 202.867188 136.273438 203.640625 137.957031 205.074219 138.730469 Z M 205.074219 138.730469 " style=" stroke:none;fill-rule:nonzero;fill:rgb(0%,0%,0%);fill-opacity:1;" />
<path d="M 257.546875 164.769531 C 260.507812 167.15625 264.050781 168.183594 267.507812 167.65625 C 271.4375 167.0625 274.507812 164.652344 276.480469 162.890625 C 277.777344 161.730469 279 160.480469 280.140625 159.15625 C 279.9375 161.816406 279.6875 164.484375 279.300781 167.070312 C 278.335938 173.527344 275.390625 185.101562 266.460938 190.050781 C 258.90625 194.242188 248.289062 191.832031 243.285156 184.789062 C 242.128906 183.160156 239.875 182.78125 238.25 183.9375 C 236.625 185.09375 236.242188 187.347656 237.398438 188.972656 C 239.5625 192.015625 242.40625 194.445312 245.621094 196.183594 C 253.039062 200.195312 262.429688 200.546875 269.964844 196.367188 C 278.589844 191.582031 284.441406 181.558594 286.445312 168.136719 C 287.066406 163.976562 287.351562 159.773438 287.625 155.707031 C 287.929688 151.203125 288.222656 146.882812 288.925781 142.683594 C 289.371094 141.066406 289.71875 139.429688 289.957031 137.777344 C 290.230469 135.878906 288.972656 134.097656 287.09375 133.71875 C 285.210938 133.339844 283.367188 134.5 282.886719 136.359375 C 282.480469 137.933594 282.148438 139.515625 281.875 141.101562 C 280.089844 147.367188 276.5 153.183594 271.667969 157.507812 C 269.628906 159.328125 267.964844 160.285156 266.429688 160.519531 C 264.589844 160.796875 263.046875 159.929688 262.078125 159.144531 C 259.984375 157.457031 258.519531 154.605469 258.339844 151.886719 C 258.007812 146.722656 260.425781 141.707031 263.621094 135.691406 C 264.550781 133.9375 263.894531 131.765625 262.148438 130.820312 C 262.140625 130.816406 262.132812 130.8125 262.125 130.808594 C 260.363281 129.871094 258.175781 130.542969 257.242188 132.304688 C 254.300781 137.84375 250.644531 144.734375 251.132812 152.351562 C 251.4375 157.066406 253.894531 161.824219 257.546875 164.769531 Z M 257.546875 164.769531 " style=" stroke:none;fill-rule:nonzero;fill:rgb(0%,0%,0%);fill-opacity:1;" />
<path d="M 301.722656 160.269531 C 301.972656 160.402344 302.246094 160.511719 302.535156 160.585938 L 321.523438 165.523438 C 323.453125 166.023438 325.425781 164.867188 325.925781 162.9375 C 326.429688 161.007812 325.265625 159.035156 323.339844 158.535156 L 304.351562 153.597656 C 302.417969 153.097656 300.449219 154.253906 299.945312 156.183594 C 299.519531 157.824219 300.292969 159.496094 301.722656 160.269531 Z M 301.722656 160.269531 " style=" stroke:none;fill-rule:nonzero;fill:rgb(0%,0%,0%);fill-opacity:1;" />
<path d="M 295.632812 167.847656 C 295.015625 169.554688 295.757812 171.414062 297.304688 172.25 C 297.460938 172.335938 297.625 172.410156 297.800781 172.472656 L 320.429688 180.652344 C 322.304688 181.332031 324.371094 180.359375 325.050781 178.484375 C 325.730469 176.609375 324.761719 174.527344 322.882812 173.859375 L 300.253906 165.679688 C 298.378906 165.003906 296.3125 165.972656 295.632812 167.847656 Z M 295.632812 167.847656 " style=" stroke:none;fill-rule:nonzero;fill:rgb(0%,0%,0%);fill-opacity:1;" />
<path d="M 342.875 200.117188 C 344.863281 199.980469 346.367188 198.257812 346.234375 196.269531 C 345.878906 191.015625 345.964844 185.332031 349.285156 182.984375 C 351.328125 181.542969 354.277344 181.558594 357.691406 181.578125 C 361.359375 181.601562 365.515625 181.625 369.257812 179.59375 C 374.195312 176.910156 377.109375 171.136719 376.511719 165.222656 C 375.996094 160.117188 372.917969 155.214844 368.277344 152.105469 C 362.261719 148.078125 354.132812 147.464844 347.578125 150.539062 C 345.773438 151.386719 344.996094 153.539062 345.847656 155.34375 C 346.691406 157.144531 348.84375 157.921875 350.648438 157.078125 C 354.957031 155.054688 360.296875 155.464844 364.257812 158.109375 C 367.128906 160.03125 369.027344 162.960938 369.324219 165.949219 C 369.625 168.910156 368.148438 171.980469 365.8125 173.246094 C 363.699219 174.394531 360.800781 174.375 357.734375 174.359375 C 353.664062 174.335938 349.050781 174.3125 345.121094 177.085938 C 338.878906 181.492188 338.539062 189.503906 339.027344 196.757812 C 339.113281 198.042969 339.863281 199.121094 340.914062 199.691406 C 341.496094 200.003906 342.167969 200.164062 342.875 200.117188 Z M 342.875 200.117188 " style=" stroke:none;fill-rule:nonzero;fill:rgb(0%,0%,0%);fill-opacity:1;" />
<path d="M 340.195312 216.085938 C 341.851562 214.976562 342.292969 212.734375 341.179688 211.074219 L 340.441406 209.96875 C 339.332031 208.316406 337.085938 207.871094 335.429688 208.984375 C 333.773438 210.09375 333.332031 212.335938 334.445312 213.992188 L 335.183594 215.101562 C 335.519531 215.601562 335.964844 215.992188 336.460938 216.261719 C 337.605469 216.878906 339.039062 216.859375 340.195312 216.085938 Z M 340.195312 216.085938 " style=" stroke:none;fill-rule:nonzero;fill:rgb(0%,0%,0%);fill-opacity:1;" />
</g>
</svg>