<?xml version="1.0" encoding="UTF-8" standalone="no"?>
<svg
   xmlns:dc="http://purl.org/dc/elements/1.1/"
   xmlns:cc="http://creativecommons.org/ns#"
   xmlns:rdf="http://www.w3.org/1999/02/22-rdf-syntax-ns#"
   xmlns:svg="http://www.w3.org/2000/svg"
   xmlns="http://www.w3.org/2000/svg"
   xmlns:sodipodi="http://sodipodi.sourceforge.net/DTD/sodipodi-0.dtd"
   xmlns:inkscape="http://www.inkscape.org/namespaces/inkscape"
   id="svg2"
   xml:space="preserve"
   width="49.762878"
   viewBox="0 0 49.762879 49.762699"
   version="1.0"
   height="49.762699"
   inkscape:version="0.91 r"
   sodipodi:docname="mind_map.svg"><sodipodi:namedview
     pagecolor="#ffffff"
     bordercolor="#666666"
     borderopacity="1"
     objecttolerance="10"
     gridtolerance="10"
     guidetolerance="10"
     inkscape:pageopacity="0"
     inkscape:pageshadow="2"
     inkscape:window-width="917"
     inkscape:window-height="480"
     id="namedview20"
     showgrid="false"
     inkscape:zoom="4.742508"
     inkscape:cx="24.881439"
     inkscape:cy="24.88135"
     inkscape:window-x="0"
     inkscape:window-y="0"
     inkscape:window-maximized="0"
     inkscape:current-layer="svg2" /><metadata
     id="metadata61"><rdf:RDF><cc:Work
         rdf:about=""><dc:format>image/svg+xml</dc:format><dc:type
           rdf:resource="http://purl.org/dc/dcmitype/StillImage" /><dc:title></dc:title></cc:Work></rdf:RDF></metadata><defs
     id="defs59" /><g
     id="g4148"
     transform="matrix(1.1696931,0,0,1.1696931,-4.2222077,-4.2221928)"><path
       id="path9"
       style="fill:#ffffff"
       d="M 5,7.3857619 C 5,6.0680013 6.0680013,5 7.3857619,5 l 17.4955871,0 9.940675,8.350167 0,29.02677 c 0,1.317761 -1.068001,2.385762 -2.385762,2.385762 l -25.0505001,0 C 6.0680013,44.762699 5,43.694698 5,42.376937 L 5,7.3857619 Z"
       inkscape:connector-curvature="0" /><path
       d="m 23.017473,34.200732 6.212922,0 c 0.342332,0 0.621292,-0.278339 0.621292,-0.621292 l 0,-3.106461 c 0,-0.342953 -0.27896,-0.621292 -0.621292,-0.621292 l -6.212922,0 c -0.342332,0 -0.621292,0.278339 -0.621292,0.621292 l 0,3.106461 c 0,0.342953 0.27896,0.621292 0.621292,0.621292 z"
       style="fill:#e2e4e5"
       id="path13"
       inkscape:connector-curvature="0" /><path
       d="m 29.230395,35.443316 -6.212922,0 c -1.027617,0 -1.863877,-0.836259 -1.863877,-1.863876 l 0,-3.106461 c 0,-1.027617 0.83626,-1.863877 1.863877,-1.863877 l 6.212922,0 c 1.027617,0 1.863876,0.83626 1.863876,1.863877 l 0,3.106461 c 0,1.027617 -0.836259,1.863876 -1.863876,1.863876 z m -6.212922,-5.591629 c -0.342332,0 -0.621292,0.278339 -0.621292,0.621292 l 0,3.106461 c 0,0.342953 0.27896,0.621292 0.621292,0.621292 l 6.212922,0 c 0.342332,0 0.621292,-0.278339 0.621292,-0.621292 l 0,-3.106461 c 0,-0.342953 -0.27896,-0.621292 -0.621292,-0.621292 l -6.212922,0 z"
       style="fill:#b6bcbd"
       id="path15"
       inkscape:connector-curvature="0" /><path
       d="m 9.3490452,34.200732 6.2129218,0 c 0.342332,0 0.621292,-0.278339 0.621292,-0.621292 l 0,-3.106461 c 0,-0.342953 -0.27896,-0.621292 -0.621292,-0.621292 l -6.2129218,0 c -0.342332,0 -0.6212922,0.278339 -0.6212922,0.621292 l 0,3.106461 c 0,0.342953 0.2789602,0.621292 0.6212922,0.621292 z"
       style="fill:#e2e4e5"
       id="path17"
       inkscape:connector-curvature="0" /><path
       d="m 15.561967,35.443316 -6.2129218,0 c -1.0276172,0 -1.8638765,-0.836259 -1.8638765,-1.863876 l 0,-3.106461 c 0,-1.027617 0.8362593,-1.863877 1.8638765,-1.863877 l 6.2129218,0 c 1.027617,0 1.863876,0.83626 1.863876,1.863877 l 0,3.106461 c 0,1.027617 -0.836259,1.863876 -1.863876,1.863876 z M 9.3490452,29.851687 c -0.342332,0 -0.6212922,0.278339 -0.6212922,0.621292 l 0,3.106461 c 0,0.342953 0.2789602,0.621292 0.6212922,0.621292 l 6.2129218,0 c 0.342332,0 0.621292,-0.278339 0.621292,-0.621292 l 0,-3.106461 c 0,-0.342953 -0.27896,-0.621292 -0.621292,-0.621292 l -6.2129218,0 z"
       style="fill:#b6bcbd"
       id="path19"
       inkscape:connector-curvature="0" /><path
       d="m 16.183259,21.774889 6.212922,0 c 0.342332,0 0.621292,-0.278339 0.621292,-0.621293 l 0,-3.10646 c 0,-0.342954 -0.27896,-0.621293 -0.621292,-0.621293 l -6.212922,0 c -0.342332,0 -0.621292,0.278339 -0.621292,0.621293 l 0,3.10646 c 0,0.342954 0.27896,0.621293 0.621292,0.621293 z"
       style="fill:#9ce5f4"
       id="path21"
       inkscape:connector-curvature="0" /><polygon
       id="polygon25"
       style="fill:#cfd3d4"
       points="52.728,61 54.986,61 50.272,52 48.014,52 "
       transform="matrix(0.62129217,0,0,0.62129217,-9.2897199,-9.2897199)" /><polygon
       id="polygon29"
       style="fill:#cfd3d4"
       points="39.272,61 43.986,52 41.728,52 37.014,61 "
       transform="matrix(0.62129217,0,0,0.62129217,-9.2897199,-9.2897199)" /><path
       d="m 22.396181,23.017473 -6.212922,0 c -1.027617,0 -1.863876,-0.836259 -1.863876,-1.863877 l 0,-3.10646 c 0,-1.027618 0.836259,-1.863877 1.863876,-1.863877 l 6.212922,0 c 1.027617,0 1.863876,0.836259 1.863876,1.863877 l 0,3.10646 c 0,1.027618 -0.836259,1.863877 -1.863876,1.863877 z m -6.212922,-5.59163 c -0.342332,0 -0.621292,0.278339 -0.621292,0.621293 l 0,3.10646 c 0,0.342954 0.27896,0.621293 0.621292,0.621293 l 6.212922,0 c 0.342332,0 0.621292,-0.278339 0.621292,-0.621293 l 0,-3.10646 c 0,-0.342954 -0.27896,-0.621293 -0.621292,-0.621293 l -6.212922,0 z"
       style="fill:#40c9e7"
       id="path31"
       inkscape:connector-curvature="0" /><path
       id="path35"
       style="fill:#f4d0a1"
       d="m 42.988288,26.433337 -13.173257,14.891131 -3.651335,0.751764 c -0.105619,-0.508217 -0.368426,-0.989719 -0.787177,-1.360009 -0.418751,-0.37029 -0.928831,-0.572831 -1.446368,-0.615701 l 0.300706,-3.715948 13.173257,-14.890509 5.584174,4.939272 z"
       inkscape:connector-curvature="0" /><path
       id="path39"
       style="fill:#059bbf"
       d="m 42.970271,26.417805 c 0.0099,0.0087 0.01056,0.02361 0.0019,0.03355 L 30.09834,41.003881 c -0.0205,0.02361 -0.05343,-0.0012 -0.03852,-0.0292 0.404461,-0.745551 0.257215,-1.694886 -0.405704,-2.281385 -0.699575,-0.618807 -1.730299,-0.618186 -2.426146,-0.03852 -0.01988,0.01677 -0.0466,-0.0068 -0.03231,-0.02858 0.490821,-0.761083 0.365941,-1.78373 -0.333634,-2.403158 -0.670374,-0.593334 -1.645182,-0.616943 -2.337301,-0.107484 -0.02237,0.01677 -0.04784,-0.0093 -0.0292,-0.03044 L 37.388582,21.510839 c 0.0087,-0.0099 0.02361,-0.01056 0.03355,-0.0019 l 5.548139,4.908829 z"
       inkscape:connector-curvature="0" /><rect
       id="rect43"
       y="-9.927269"
       x="42.257866"
       width="7.4556541"
       transform="matrix(0.74898512,0.66258682,-0.66258682,0.74898512,0,0)"
       style="fill:#facb1b"
       height="1.242609" /><path
       id="path47"
       style="fill:#f79392"
       d="m 43.517629,20.26577 -0.05592,-0.0497 c -1.526515,-1.35069 -3.858846,-1.207792 -5.209535,0.318722 l -0.02485,0.02796 5.584174,4.939894 0.02485,-0.02796 c 1.350689,-1.526514 1.207792,-3.858845 -0.318723,-5.208913 z"
       inkscape:connector-curvature="0" /><path
       id="path51"
       style="fill:#0484ab"
       d="m 42.972756,26.451355 -12.89057,14.570544 c -0.01864,0.02112 -0.04784,-0.0012 -0.03417,-0.02609 0.418751,-0.748657 0.275854,-1.710417 -0.393899,-2.30313 -0.698332,-0.617564 -1.725328,-0.618185 -2.421176,-0.04225 -0.0118,0.0093 -0.02547,-0.005 -0.01553,-0.01615 L 40.180669,23.980476 c 0.0087,-0.0099 0.02361,-0.01056 0.03293,-0.0019 l 2.756673,2.438572 c 0.0099,0.0093 0.01118,0.02423 0.0025,0.03417 z"
       inkscape:connector-curvature="0" /><path
       id="path55"
       style="fill:#3e3e3f"
       d="m 26.163696,42.07561 -2.434222,0.501383 0.200677,-2.477092 c 0.517537,0.04287 1.027617,0.245411 1.446368,0.615701 0.418751,0.37029 0.681558,0.851791 0.787177,1.360008 z"
       inkscape:connector-curvature="0" /></g></svg>