<?xml version="1.0" encoding="UTF-8" standalone="no"?>
<svg
   xmlns:dc="http://purl.org/dc/elements/1.1/"
   xmlns:cc="http://creativecommons.org/ns#"
   xmlns:rdf="http://www.w3.org/1999/02/22-rdf-syntax-ns#"
   xmlns:svg="http://www.w3.org/2000/svg"
   xmlns="http://www.w3.org/2000/svg"
   xmlns:sodipodi="http://sodipodi.sourceforge.net/DTD/sodipodi-0.dtd"
   xmlns:inkscape="http://www.inkscape.org/namespaces/inkscape"
   height="216.38219pt"
   version="1.1"
   viewBox="0 -10 225.00062 216.38219"
   width="224.99998pt"
   id="svg2968"
   sodipodi:docname="spiegazione.svg"
   inkscape:version="0.92.3 (unknown)">
  <metadata
     id="metadata2974">
    <rdf:RDF>
      <cc:Work
         rdf:about="">
        <dc:format>image/svg+xml</dc:format>
        <dc:type
           rdf:resource="http://purl.org/dc/dcmitype/StillImage" />
        <dc:title></dc:title>
      </cc:Work>
    </rdf:RDF>
  </metadata>
  <defs
     id="defs2972" />
  <sodipodi:namedview
     pagecolor="#ffffff"
     bordercolor="#666666"
     borderopacity="1"
     objecttolerance="10"
     gridtolerance="10"
     guidetolerance="10"
     inkscape:pageopacity="0"
     inkscape:pageshadow="2"
     inkscape:window-width="1366"
     inkscape:window-height="741"
     id="namedview2970"
     showgrid="false"
     fit-margin-top="0"
     fit-margin-left="0"
     fit-margin-right="0"
     fit-margin-bottom="0"
     inkscape:zoom="0.43652344"
     inkscape:cx="183.46751"
     inkscape:cy="254.52407"
     inkscape:window-x="0"
     inkscape:window-y="27"
     inkscape:window-maximized="1"
     inkscape:current-layer="svg2968" />
  <g
     id="surface1"
     transform="matrix(0.4394533,0,0,0.4394533,3.1887071e-4,-10.000585)">
    <path
       d="m 387.12891,231.41406 c -1.47266,-4.79297 -4.6875,-8.45312 -9.05469,-10.30859 -2.02344,-0.86328 -4.20313,-1.29688 -6.47266,-1.29688 -2.85937,0 -5.79297,0.71485 -8.47265,2.06641 -11.10938,5.61328 -20.13672,20.45312 -26.73047,31.28906 l -0.0547,0.0937 c -0.58594,0.96875 -1.16016,1.91016 -1.71875,2.82031 -2.50781,4.08985 -4.97266,8.48829 -7.32422,13.07813 l -0.21094,0.44141 -0.0703,0.38281 c -1.25391,2.83203 -2.6875,6.08984 -3.51562,9.53906 l -0.42969,-2.26172 -3.79688,9.75781 c -2.29687,5.89844 -4.29297,11.8711 -5.93359,17.75391 -2.18359,7.82813 -3.87891,15.96484 -5.04297,24.18359 0,0 -0.15234,1.07422 -0.16016,1.07032 l -0.0547,0.45312 -0.20703,1.46094 0.0312,0.004 c 0,0 -0.12891,1.0664 -0.12891,1.0664 -3.21094,26.84375 -0.60938,55.53516 7.54297,81.24219 0.71484,2.23047 1.5664,4.5 3.42969,5.66016 0.59375,0.35937 1.25,0.57421 1.95703,0.65234 l -0.98438,3.34375 4.14453,-3.22656 2.98047,0.0859 -1.03125,-1.60156 1.25391,-0.97265 c 1.01953,-0.79688 2.01953,-1.72266 2.98437,-2.76563 18,-19.74219 32.67188,-45.01172 42.42578,-73.07812 l 2.53907,-7.30469 -0.16016,0.0898 c 3.05078,-9.76953 5.60938,-19.98828 7.59375,-30.41015 l 0.74609,-3.90625 -0.0391,0.004 0.0625,-0.34375 c 1.02344,-5.79687 1.83985,-11.20312 2.49219,-16.53125 1.05859,-8.6875 1.80859,-17.6914 2.22656,-26.76172 0.0664,-1.38281 0.16016,-2.8125 0.25391,-4.25781 l 0.0195,-0.27734 c 0.45703,-7.22266 0.92578,-14.69922 -1.08984,-21.23438 z m 0,0"
       style="fill:#915151;fill-opacity:1;fill-rule:nonzero;stroke:none"
       id="path2891"
       inkscape:connector-curvature="0" />
    <path
       d="m 348.64844,24.675781 c -0.96875,-1.425781 -3,-3.121093 -7.16016,-3.121093 -1.3125,0 -2.75,0.164062 -4.27734,0.484374 -12.42969,2.632813 -24.27344,9.039063 -33.35157,18.046876 l -2.70312,2.679687 3.23828,2 c 12.25,7.578125 23.32422,17.015625 32.91406,28.046875 l 2.10938,2.429688 2.27734,-2.273438 c 2.36719,-2.371094 3.82031,-5.550781 3.98438,-8.726562 0.20703,-4.050782 -1.63282,-8.175782 -4.71094,-10.832032 1.37891,-0.617187 2.62891,-1.628906 3.58594,-2.933594 1.38672,-1.917968 1.98437,-4.25 1.64453,-6.386718 -0.33203,-2.15625 -1.625,-4.191406 -3.55469,-5.589844 -0.44531,-0.320312 -0.91406,-0.597656 -1.39844,-0.832031 1.82422,-0.582031 3.63282,-1.394531 5.15235,-2.664063 2.84765,-2.359375 4.52343,-6.980468 2.25,-10.328125 z m 0,0"
       style="fill:#915151;fill-opacity:1;fill-rule:nonzero;stroke:none"
       id="path2893"
       inkscape:connector-curvature="0" />
    <path
       d="m 285.15234,192.94141 -6.21875,2.17187 5.72266,3.26953 c 7.55859,4.3125 15.91797,6.59766 24.18359,6.59766 0.67188,0 1.34766,-0.0156 2.01563,-0.0469 6.36328,-0.28515 12.64062,-1.91015 18.65625,-4.82812 l 0.72265,-0.35156 0.45313,-0.66407 c 12.90234,-19.04297 17.52734,-43.79297 12.37891,-66.20703 l -0.5,-2.17578 -2.23047,-0.14453 c -5.64453,-0.36719 -11.13672,-0.65234 -16.31641,-0.85547 l -3.65625,-0.14453 0.57813,3.61328 c 2.07421,13.03125 -0.8086,26.83984 -7.91016,37.88672 -6.50391,10.10547 -16.40234,17.875 -27.87891,21.87891 z m 0,0"
       style="fill:#915151;fill-opacity:1;fill-rule:nonzero;stroke:none"
       id="path2895"
       inkscape:connector-curvature="0" />
    <path
       d="m 122.11719,114.25 -2.17188,4.52734 5.01953,-0.23437 c 3.14063,-0.14844 6.29297,-0.29297 9.41016,-0.41016 10.64844,-0.40234 21.55078,-0.60937 32.39844,-0.60937 7.08203,0 14.25781,0.0859 21.32812,0.26172 0.94922,0.0234 1.92578,0.0312 2.91016,0.0312 0.76562,0 1.53515,-0.008 2.30078,-0.0117 0.75,-0.004 1.51562,-0.008 2.28516,-0.008 12.21875,0 19.74609,1.96093 22.0625,11.99218 l 0.53515,2.32813 22.87891,-0.0117 c 0.0156,0 0.043,0.004 0.082,0.0156 l 2.99219,0.76953 0.67968,-3.01171 c 2.28907,-10.10547 9.78907,-12.08594 21.97266,-12.08594 0.80859,0 1.60938,0.008 2.40625,0.0117 0.75781,0.004 1.52344,0.0117 2.28906,0.0117 0.98438,0 1.96094,-0.008 2.91016,-0.0312 6.99609,-0.17188 14.12109,-0.25782 21.17969,-0.25782 10.83984,0 21.78906,0.20313 32.54687,0.60547 2.05469,0.0742 4.10938,0.16797 6.17578,0.26172 l 4.98047,0.22266 -1.63672,-4.27344 C 330.24219,94.972656 314.10156,79.675781 294.47266,73.429688 287.92969,71.339844 281.04297,70.28125 274.00781,70.28125 c -14.875,0 -29.4375,4.746094 -41.07812,13.375 -12.3125,-8.1875 -27.33203,-12.6875 -42.38672,-12.6875 -7.16016,0 -14.22266,0.992188 -20.98828,2.957031 -20.45313,5.929688 -38.19141,21.003907 -47.4375,40.324219 z m 0,0"
       style="fill:#915151;fill-opacity:1;fill-rule:nonzero;stroke:none"
       id="path2897"
       inkscape:connector-curvature="0" />
    <path
       d="m 301.58594,216.21875 c -9.47266,-1.16016 -18.92969,-4.60547 -27.34375,-9.95313 l -2.625,-1.67187 -0.008,-0.0742 -1.08593,-0.79687 c -9.83203,-7.1875 -17.3086,-16.57422 -21.625,-27.15235 -1.07032,-2.62109 -2.00391,-5.4414 -2.77344,-8.39062 l -0.64063,-2.45703 -2.52343,0.22656 c -0.10157,0.008 -0.19922,0.0195 -0.30078,0.0352 l -23.19141,1.28516 -2.69141,-0.375 -0.71093,2.51563 c -0.69922,2.47656 -1.52344,4.88671 -2.44922,7.16015 -2.98047,7.27735 -7.41407,13.95313 -13.17969,19.84766 l -0.96094,0.98437 0.0781,0.90235 c -0.25,0.25 -0.49219,0.50781 -0.73438,0.76562 l -8.52344,5.85547 c -11.03515,7.57813 -24.0625,11.75 -36.68359,11.75 -0.23828,0 -0.48047,-0.008 -0.72266,-0.0156 l -9.94921,-0.24219 7.65234,5.64453 c 21.87109,16.11719 48.82422,24.99609 75.89844,24.99609 h 0.0937 c 27.33593,-0.0234 54.48047,-9.0625 76.43359,-25.45703 l 5.98828,-4.47265 z m -69.22266,17.64453 c -0.0742,0.0352 -0.15625,0.0508 -0.24219,0.0508 -0.10937,0 -0.20703,-0.0273 -0.3125,-0.10156 -4.20312,-2.91406 -8.55078,-5.92578 -12.13281,-9.74609 -1.69141,-1.79688 -3.14844,-3.75782 -4.32812,-5.82813 l -0.92579,-1.62109 -0.67968,-1.82032 c -0.58985,-1.58203 -0.98047,-3.11718 -1.16407,-4.57031 -0.72265,-5.82031 1.92188,-13.57812 6.58204,-19.3125 3.60546,-4.4414 7.97265,-7.08594 12.28906,-7.44922 0.30078,-0.0234 0.60156,-0.0352 0.89844,-0.0352 2.95312,0 5.73437,1.1914 8.27343,3.54297 5.48438,5.10546 8.69532,14.7539 8.63282,21.14062 -0.0195,2.41406 -0.38672,4.88281 -1.09375,7.32813 l -0.39063,1.35937 0.0586,0.0898 -1.05468,2.35938 c -2.91016,6.51172 -8.16797,11.83984 -14.41016,14.61328 z m 0,0"
       style="fill:#915151;fill-opacity:1;fill-rule:nonzero;stroke:none"
       id="path2899"
       inkscape:connector-curvature="0" />
    <path
       d="m 270.47656,447.80859 -2.63281,0.83594 c -5.64844,1.79688 -11.47656,3.26172 -17.32031,4.35156 l -2.98828,0.5586 0.59375,2.97656 c 0.92968,4.66406 1.89062,9.48828 1.64843,14.42578 -0.16015,3.15234 -0.85937,6.09375 -2.08593,8.73828 l -0.8125,1.75391 1.26171,1.46484 c 2.3125,2.6836 6.10157,4.28906 10.13282,4.28906 2.33593,0 4.61718,-0.53906 6.59765,-1.5625 5.46094,-2.82812 9.34375,-9.01562 10.13282,-16.14843 0.625,-5.66407 -0.51172,-11.92188 -3.47657,-19.12891 z m 0,0"
       style="fill:#915151;fill-opacity:1;fill-rule:nonzero;stroke:none"
       id="path2901"
       inkscape:connector-curvature="0" />
    <path
       d="m 247.03516,456.48828 -0.55079,-2.76172 -2.79296,0.375 c -4.89063,0.65625 -9.83204,1.0586 -14.6836,1.19141 l -3.1289,0.0898 0.21875,3.1211 c 0.34375,4.88281 0.48437,10.60156 -1.07422,15.96484 -0.56641,1.93359 -1.35157,3.74609 -2.33203,5.39453 l -1.15625,1.94141 1.55468,1.64843 c 2.4961,2.64844 5.97266,4.29297 9.51953,4.50391 0.29297,0.0195 0.58204,0.0273 0.875,0.0273 3.73829,0 7.40235,-1.48828 10.05079,-4.08984 3.0664,-3.01953 4.90234,-7.63281 5.17187,-12.99219 0.23828,-4.82031 -0.72266,-9.64843 -1.67187,-14.41406 z m 0,0"
       style="fill:#915151;fill-opacity:1;fill-rule:nonzero;stroke:none"
       id="path2903"
       inkscape:connector-curvature="0" />
    <path
       d="m 225.00391,458.08594 -0.19922,-2.71094 -2.71485,-0.0664 c -4.35547,-0.10937 -8.66406,-0.42187 -12.80859,-0.92968 -1.01953,-0.12891 -2.03125,-0.27344 -3.04297,-0.42969 l -3.89453,-0.60156 0.46094,3.91796 c 0.8164,6.9375 0.0508,14.0625 -2.22266,20.6211 -0.24609,0.72265 -0.52344,1.42969 -0.84766,2.15234 l -0.69531,1.55078 0.97656,1.39453 c 1.89844,2.72266 5.45313,4.41407 9.26563,4.41407 1.57031,0 3.08203,-0.28516 4.49609,-0.84766 4.67969,-1.87109 8.5,-6.5 10.21485,-12.38281 1.53906,-5.24219 1.39453,-10.82813 1.01172,-16.08203 z m 0,0"
       style="fill:#915151;fill-opacity:1;fill-rule:nonzero;stroke:none"
       id="path2905"
       inkscape:connector-curvature="0" />
    <path
       d="m 201.38672,455.09375 -0.34766,-2.00781 -1.99219,-0.41797 c -3.59765,-0.75 -7.23437,-1.6836 -10.8125,-2.77344 l -2.33593,-0.71094 -1.17188,2.14453 c -3.17969,5.83985 -4.98828,12.39454 -5.22265,18.96485 -0.17188,5.02734 0.6875,8.88672 2.63281,11.80078 1.53906,2.30469 4.63672,4.625 8.08594,4.625 0.75,0 1.48828,-0.11328 2.1914,-0.33594 3.06641,-0.99219 5.47656,-3.97265 7.16406,-8.85937 2.48047,-7.17969 3.10547,-14.9375 1.8086,-22.42969 z m 0,0"
       style="fill:#915151;fill-opacity:1;fill-rule:nonzero;stroke:none"
       id="path2907"
       inkscape:connector-curvature="0" />
    <path
       d="m 153.66797,204.97656 c 4.82812,0 9.70703,-0.78125 14.49609,-2.32812 l 7.67578,-2.47657 -7.42968,-3.14062 c -11.22266,-4.74609 -20.55079,-13.72656 -25.59375,-24.64453 -5.49219,-11.90235 -5.875,-26.33203 -1.02344,-38.60156 l 1.6914,-4.27344 -4.59765,0.17578 c -5.97266,0.22656 -12.17969,0.55859 -18.97656,1.01172 l -2.04688,0.14062 -0.61328,1.95703 c -6.40625,20.45313 -3.22266,44.30079 8.30469,62.25782 l 0.30469,0.84765 0.8125,0.54688 c 7.64062,5.16406 16.27734,8.09765 24.97265,8.48437 0.67578,0.0312 1.34766,0.043 2.02344,0.043 z m 0,0"
       style="fill:#915151;fill-opacity:1;fill-rule:nonzero;stroke:none"
       id="path2909"
       inkscape:connector-curvature="0" />
    <path
       d="m 111.89453,64.242188 c 0.23438,4.433593 2.91797,8.707031 6.84766,10.894531 l 2.15625,1.199219 1.59375,-1.882813 c 9.32422,-11.035156 20.13281,-20.554687 32.125,-28.296875 l 3.03515,-1.960938 -2.48047,-2.621093 c -9.28515,-9.816407 -21.65234,-16.753907 -34.82031,-19.535157 -1.51953,-0.320312 -2.95703,-0.484374 -4.27343,-0.484374 -4.16797,0 -6.19141,1.699218 -7.16016,3.128906 -2.26563,3.34375 -0.58984,7.960937 2.24609,10.3125 1.51953,1.273437 3.32422,2.085937 5.16016,2.671875 -0.48438,0.234375 -0.95313,0.511719 -1.39453,0.832031 -1.91406,1.375 -3.21094,3.40625 -3.5625,5.574219 -0.34375,2.164062 0.26172,4.5 1.65625,6.402343 0.9414,1.300782 2.1914,2.316407 3.57031,2.933594 -3.07812,2.65625 -4.91797,6.785156 -4.69922,10.832032 z m 0,0"
       style="fill:#915151;fill-opacity:1;fill-rule:nonzero;stroke:none"
       id="path2911"
       inkscape:connector-curvature="0" />
    <path
       d="m 322.32812,129.66016 -2.43359,-0.082 c -1.17578,-0.043 -2.35547,-0.082 -3.53516,-0.11328 l -4.29687,-0.10937 1.38672,4.09375 c 3.1289,12.25781 -0.40235,26.13672 -9.01953,35.40234 -7.0586,7.57813 -17.625,12.10547 -28.26563,12.10547 -1.16797,0 -2.40234,-0.0664 -3.77344,-0.19531 l -6.98828,-0.67188 4.34375,5.51172 c 2.88672,3.66797 6.32422,6.95313 10.21875,9.76563 l 1.17188,0.85156 1.39453,-0.39453 c 13.09375,-3.66016 24.8125,-12.29688 32.14453,-23.69531 7.53906,-11.73047 10.48047,-26.33594 8.07031,-40.07032 z m 0,0"
       style="fill:#634a4a;fill-opacity:1;fill-rule:nonzero;stroke:none"
       id="path2913"
       inkscape:connector-curvature="0" />
    <path
       d="m 186.62109,184.05469 c -11.70312,0 -23.35156,-5.6836 -30.39062,-14.82813 -7.61328,-9.88672 -9.85156,-23.9414 -5.70703,-35.8125 l 1.42578,-4.07812 -4.31641,0.0898 c -0.99219,0.0195 -1.98047,0.0508 -2.96484,0.082 l -3.13672,0.0898 -0.80078,1.60546 c -0.0703,0.13672 -0.125,0.27344 -0.17578,0.41797 -5.67188,13.08985 -5.4961,28.6211 0.48437,41.58985 5.90625,12.78906 17.47656,22.96875 30.94922,27.22265 l 1.11719,0.35547 1.0625,-0.5 c 5.78906,-2.71484 11.16797,-6.58594 15.55859,-11.19531 l 5.04297,-5.29688 -7.66406,0.24219 c -0.16406,0.008 -0.32422,0.0156 -0.48438,0.0156 z m 0,0"
       style="fill:#634a4a;fill-opacity:1;fill-rule:nonzero;stroke:none"
       id="path2915"
       inkscape:connector-curvature="0" />
    <path
       d="m 358.92187,120.91406 c -10.36718,-0.76172 -20.74218,-1.33984 -30.83593,-1.71875 -10.63672,-0.39843 -21.4961,-0.60156 -32.27735,-0.60156 -7.11328,0 -14.30859,0.0859 -21.375,0.26172 -0.95312,0.0234 -1.91406,0.0312 -2.87109,0.0312 -0.79297,0 -1.58203,-0.008 -2.33594,-0.0117 -0.64453,-0.0117 -1.28125,-0.0117 -1.89844,-0.0117 -9.47656,0 -20.22265,0 -21.88671,13.75781 -2.03125,16.69532 -0.53516,31.34375 4.4414,43.54688 9.48047,23.22265 33.7461,39.4414 59.00781,39.4414 0.83985,0 1.67969,-0.0195 2.52344,-0.0586 25.85938,-1.15234 50.16406,-19.94531 57.79297,-44.6875 3.41016,-11.09766 3.72656,-22.89453 4.03125,-34.3125 0.11719,-4.41406 0.0117,-8.62109 -2.5,-11.55078 -2.72266,-3.17578 -7.33203,-3.76172 -11.81641,-4.08594 z m -2.17968,23.27735 c -0.23438,8.51953 -0.47657,17.33203 -3.01563,25.57031 -3.64453,11.83984 -12.4414,22.07812 -24.13672,28.08594 l -0.78906,0.39843 -0.14844,0.26172 -0.30078,-0.0352 -0.75,0.34765 c -5.45703,2.5 -11.12109,3.90235 -16.83203,4.16016 -0.625,0.0273 -1.25,0.0352 -1.87891,0.0352 -9.15625,0 -18.625,-3.01562 -26.66015,-8.48828 l -0.27344,-0.1875 -0.0547,-0.0195 -0.0508,-0.0586 -0.24609,-0.17188 c -7.57422,-5.32422 -13.30078,-12.375 -16.57031,-20.39062 -3.71094,-9.07813 -4.82422,-20.00391 -3.3086,-32.47266 1.01172,-8.3164 6.07031,-9.83984 15.66797,-9.83984 l 3.17578,0.0117 c 0.8086,0 1.61719,-0.004 2.41406,-0.0234 5.23829,-0.12891 10.58594,-0.19531 15.89454,-0.19531 8.1289,0 16.35156,0.15234 24.4375,0.45312 7.63281,0.28516 15.43359,0.72266 23.1875,1.29688 3.2539,0.23437 6.58593,0.64843 8.48828,2.87109 1.89843,2.20703 1.8125,5.71094 1.75,8.26563 l 3,0.0742 z m 0,0"
       style="fill:#595c6b;fill-opacity:1;fill-rule:nonzero;stroke:none"
       id="path2917"
       inkscape:connector-curvature="0" />
    <path
       d="m 284.65625,144.44141 c -0.93359,-0.33594 -1.87891,-0.50782 -2.80469,-0.50782 -2.67578,0 -5.07422,1.41016 -6.74609,3.96485 -2.45703,3.73828 -2.95703,9.79297 0.44922,13.45703 1.82812,1.96875 4.57422,3.14453 7.34765,3.14453 1.1836,0 2.32032,-0.20703 3.36719,-0.61719 3.82813,-1.47656 5.99219,-4.66406 5.94141,-8.75781 -0.0664,-3.89453 -2.46485,-8.90234 -7.55469,-10.68359 z m 0,0"
       style="fill:#595c6b;fill-opacity:1;fill-rule:nonzero;stroke:none"
       id="path2919"
       inkscape:connector-curvature="0" />
    <path
       d="m 195.16016,118.86719 c -0.60157,0 -1.21875,0.004 -1.84766,0.008 -0.78125,0.004 -1.57422,0.0117 -2.36719,0.0117 -0.96094,0 -1.92578,-0.008 -2.87109,-0.0312 -7.07031,-0.17578 -14.26563,-0.26172 -21.37891,-0.26172 -10.78515,0 -21.64453,0.20313 -32.27734,0.60156 -10.09375,0.37891 -20.47266,0.95703 -30.83594,1.71875 -4.480468,0.32422 -9.085936,0.91016 -11.804686,4.08203 -2.527344,2.92969 -2.632813,7.14063 -2.515625,11.5625 0.304687,11.41016 0.621093,23.20703 4.042969,34.3086 7.617192,24.73828 31.921872,43.53125 57.792972,44.6875 0.84765,0.0352 1.69531,0.0547 2.54296,0.0547 25.2461,0 49.4961,-16.21875 58.97657,-39.4414 4.97656,-12.19531 6.47265,-26.84375 4.44922,-43.54297 -1.66407,-13.75781 -12.41797,-13.75781 -21.90625,-13.75781 z m 2.3164,54.83203 c -7.05469,17.26172 -25.08984,29.3164 -43.86328,29.3164 -0.62891,0 -1.25391,-0.0117 -1.87891,-0.0391 -19.21875,-0.85547 -37.28515,-14.82422 -42.95703,-33.21484 -2.55078,-8.27735 -2.78125,-17.10938 -3.00781,-25.66016 -0.0703,-2.5625 -0.16797,-6.07031 1.75,-8.30469 1.90235,-2.21875 5.23438,-2.63281 8.48438,-2.87109 7.73828,-0.57031 15.53515,-1.00781 23.17968,-1.29297 8.09375,-0.30078 16.32032,-0.45312 24.44922,-0.45312 5.30469,0 10.65235,0.0625 15.89844,0.1914 0.83203,0.0234 1.67578,0.0273 2.52344,0.0273 0.47265,0 0.95312,0 1.43359,-0.004 0.60547,-0.004 1.22656,-0.0117 1.85156,-0.0117 9.23828,0 14.4375,1.56641 15.4336,9.84375 1.51562,12.46485 0.40625,23.39063 -3.29688,32.47266 z m 0,0"
       style="fill:#595c6b;fill-opacity:1;fill-rule:nonzero;stroke:none"
       id="path2921"
       inkscape:connector-curvature="0" />
    <path
       d="m 181.38672,144.44141 c -0.9336,-0.33594 -1.87891,-0.50782 -2.80469,-0.50782 -2.67969,0 -5.07422,1.41016 -6.74609,3.96485 -2.45703,3.73828 -2.95703,9.79297 0.44922,13.45703 1.82812,1.96875 4.57421,3.14453 7.34765,3.14453 1.1836,0 2.31641,-0.20703 3.36719,-0.61719 3.82422,-1.47656 5.99219,-4.66406 5.94141,-8.75781 -0.0664,-3.89453 -2.46485,-8.90234 -7.55469,-10.68359 z m 0,0"
       style="fill:#595c6b;fill-opacity:1;fill-rule:nonzero;stroke:none"
       id="path2923"
       inkscape:connector-curvature="0" />
    <path
       d="m 207.27344,360.09375 c -2.12891,1.59375 -4.58203,2.64844 -6.55078,3.49219 -16.78125,7.17578 -34.19922,13.64843 -51.76954,19.23828 l -3.25781,1.03906 6.90235,14.74219 64.84765,-26.66016 -7.35937,-13.96094 z m 0,0"
       style="fill:#59cffa;fill-opacity:1;fill-rule:nonzero;stroke:none"
       id="path2925"
       inkscape:connector-curvature="0" />
    <path
       d="m 157.27344,316.4375 c 11.72656,0 23.44531,2.95312 33.88281,8.53125 l 8.625,4.61328 -4.55469,-8.65625 c -9.18359,-17.44141 -17.4414,-35.40625 -24.54297,-53.39453 l -1.07422,-2.71484 -53.93749,19.65625 1.29687,2.93359 c 4.61719,10.42969 6.75391,21.80078 6.1875,32.89453 l -0.25391,4.98438 4.51954,-2.11329 c 7.61328,-3.55859 15.58984,-5.73046 23.69921,-6.45703 2.02735,-0.18359 4.09766,-0.27734 6.15235,-0.27734 z m 0,0"
       style="fill:#59cffa;fill-opacity:1;fill-rule:nonzero;stroke:none"
       id="path2927"
       inkscape:connector-curvature="0" />
    <path
       d="m 243.57812,150.48047 -0.0898,-2.37891 h 0.004 l 0.008,-1.91015 c 0.0117,-2.02735 0.0703,-3.97657 0.1875,-5.96094 l 0.26562,-4.6211 -3.69921,1.40235 -0.70313,-3.83594 h -21.32031 l 0.30469,3.27734 c 0.1875,2.0586 0.32421,4.1875 0.40625,6.51172 l 0.0781,2.11328 -0.004,0.004 -0.0117,2.05078 c -0.0234,2.58594 -0.13282,5.10547 -0.33204,7.48047 l -0.24218,2.88281 -0.0234,0.0117 -0.22656,1.6211 c -0.16407,1.17187 -0.35938,2.32421 -0.5625,3.47265 l -0.66407,3.72656 28.28125,-1.55078 -0.55468,-3.30859 c -0.58594,-3.50391 -0.95703,-7.20313 -1.10157,-10.98828 z m 0,0"
       style="fill:#ffffff;fill-opacity:1;fill-rule:nonzero;stroke:none"
       id="path2929"
       inkscape:connector-curvature="0" />
    <path
       d="m 372.41406,167.21484 -4.61328,10.4375 c -9.83984,22.24219 -32.48047,37.90235 -56.33984,38.96485 -0.85547,0.0391 -1.71485,0.0586 -2.56641,0.0586 -0.72266,0 -1.43359,-0.0195 -2.15234,-0.0469 l -2.46485,-0.0977 -0.49218,2.05859 c -21.97657,17.07422 -49.37891,26.48828 -77.29297,26.50782 -27.75,0 -55.08594,-9.33985 -77.05078,-26.32813 v -2.1875 l -2.64454,-0.31641 c -24.82421,-2.93359 -47.242182,-21.47265 -54.51562,-45.07812 -0.523438,-1.71094 -1.007812,-3.55469 -1.429688,-5.47656 l -5.871093,0.0547 c -3.984375,19.87891 -4.0625,38.1836 -0.230469,54.39844 0.03516,0.16016 0.0078,0.32813 -0.07813,0.44922 -15.289063,21.40625 -25.257813,47.05859 -28.832031,74.1875 -0.07031,0.53125 -0.128906,1.06641 -0.191406,1.59766 l -0.253907,2.20703 -0.222656,-0.35547 -0.523437,9.53125 c -1.25,22.73828 2.144531,45.60547 9.816406,66.125 2.5,6.6875 5.902344,14.07422 12.171875,18.18359 3.75,2.44922 8.296875,3.64063 13.890625,3.64063 5.578125,0 11.515631,-1.23047 16.066411,-2.30469 32,-7.54297 63.52734,-17.91406 93.71093,-30.82031 3.48828,-1.48828 6.53907,-2.9336 8.58203,-5.48438 2.97657,-3.71484 2.78907,-8.83593 1.61719,-12.39062 l -0.51954,-1.57813 0.14063,-0.0781 -0.33203,-0.50781 -0.42969,-1.3086 -0.30859,0.17578 -0.67578,-1.03515 c -1.72657,-2.64453 -4.26563,-5.26172 -7.75391,-8.00391 -0.32031,-0.25391 -0.65234,-0.5 -0.98438,-0.74219 l 0.2461,-0.10937 -4.69921,-2.99219 c -4.21485,-2.69141 -8.8086,-4.94922 -13.65235,-6.71875 l -0.83204,-0.30469 -0.86328,0.19532 c -2.07422,0.47265 -4.14062,0.97656 -6.1914,1.51562 l -0.0469,-3.79687 c -5.37889,-1.28516 -10.86328,-1.9375 -16.29687,-1.9375 -2.03516,0 -4.08203,0.0937 -6.08985,0.27343 -17.53515,1.57813 -34.30468,10.02735 -46.00781,23.1836 -0.125,0.14453 -0.28125,0.17187 -0.39062,0.17187 -0.0937,0 -0.23047,-0.0234 -0.34766,-0.1289 -0.22656,-0.19922 -0.25,-0.54297 -0.0547,-0.76172 4.61719,-5.1836 10.05469,-9.69141 16.16797,-13.39844 l 1.96875,-1.19531 -0.64844,-2.21485 c -0.0156,-0.0664 -0.0234,-0.1289 -0.0195,-0.16797 2.16016,-22.35937 -7.02343,-45.39843 -23.968743,-60.1289 -0.222656,-0.19531 -0.246093,-0.53906 -0.05859,-0.75781 0.140625,-0.16016 0.316406,-0.1836 0.410156,-0.1836 0.128906,0 0.242187,0.043 0.351563,0.13672 2.687504,2.33203 5.257814,4.96094 7.644534,7.82031 l 1.45703,1.73828 c 0,0 2.15625,-0.96484 2.20313,-0.98828 l 69.99999,-23.13281 c 0.0586,-0.0195 0.11719,-0.0273 0.17579,-0.0273 0.14453,0 0.33984,0.0625 0.45703,0.25 20.1289,32.0664 37.52343,66.15234 51.69922,101.30859 l 0.30468,0.76172 0.24219,0.18359 1.56641,4.4336 c 0.52343,1.48047 1.17578,3.71484 0.79297,5.95312 -0.97657,5.58203 -7.32032,8.19141 -10.7461,9.60156 l -30.72656,12.63672 6.78516,19.69922 -11.65235,-5.1914 -7.02734,10.96484 -5.35156,-18.37891 -23.90235,9.82813 c -0.0742,0.0273 -0.15625,0.0351 -0.21484,0.0351 -0.15625,0 -0.375,-0.082 -0.48047,-0.3125 l -5.89844,-12.60156 c -0.0391,-0.10547 -0.0742,-0.20703 -0.11719,-0.30078 l -1.05859,-2.46484 -2.56641,0.77734 c -6.89843,2.09375 -13.95703,4.09375 -20.97265,5.94141 l -3.80078,1 1.96875,3.40234 c 18.04687,31.1875 52.53906,53.42969 90.00781,58.04688 5.23047,0.64453 10.58984,0.96875 15.92187,0.96875 31.72266,0 63.62891,-11.3711 89.83985,-32.01954 l 2.0625,-1.625 -1.33594,-2.25781 c -0.71875,-1.22265 -1.20312,-2.60937 -1.58203,-3.8164 -11.23828,-35.30079 -11.94531,-74.39454 -2,-110.08204 4.78125,-17.15234 11.98437,-33.625 21.41016,-48.97265 l 1.74218,-2.85938 c 6.66407,-10.96093 15.79297,-25.97265 27.19141,-31.72656 2.5625,-1.29687 5.37891,-2.04687 8.14844,-2.17187 l 2.62109,-0.11329 0.23438,-2.61328 c 1.125,-12.44922 1.08203,-25.05078 -0.13282,-37.44922 z m -315.835935,133.3086 -0.585937,-0.94922 0.609374,0.30469 c -0.01562,0.21484 -0.02344,0.42968 -0.02344,0.64453 z m 0,0"
       style="fill:#ae7878;fill-opacity:1;fill-rule:nonzero;stroke:none"
       id="path2931"
       inkscape:connector-curvature="0" />
    <path
       d="m 363.76172,4.660156 c -0.6875,-0.398437 -1.49219,-0.59375 -2.46094,-0.59375 -1.16406,0 -2.40625,0.28125 -3.45703,0.546875 C 335.36719,10.25 313.67969,20.640625 295.12109,34.660156 l -3.76562,2.847656 4.17578,2.203126 c 1.96484,1.035156 3.72266,2 5.36719,2.953124 l 2.01953,1.164063 1.6289,-1.664063 c 8.92188,-9.125 20.66797,-15.589843 33.07422,-18.203124 1.41797,-0.300782 2.73047,-0.449219 3.89844,-0.449219 2.66797,0 4.47266,0.742187 5.50781,2.269531 1.59375,2.347656 0.3125,5.886719 -1.88281,7.71875 -0.76562,0.632812 -1.69141,1.191406 -2.75781,1.65625 l -4.61328,2.003906 3.95312,3.105469 c 1.36719,1.074219 2.28906,2.574219 2.53125,4.125 0.26563,1.644531 -0.20703,3.445313 -1.29687,4.933594 -0.51563,0.703125 -1.16797,1.324219 -1.88282,1.789062 l -3.01171,1.96875 2.48046,2.609375 c 2.17579,2.292969 3.33204,5.367188 3.16797,8.449219 -0.14453,2.828125 -1.44922,5.617187 -3.57422,7.644531 l -2.01562,1.921875 1.76953,2.152344 c 2.47266,3.011719 4.77344,6.039063 6.83594,8.996094 l 3.11719,4.460937 2.10937,-5.019531 C 361.51562,61.554688 366.50391,36.550781 366.38281,11.980469 366.36719,9.304688 366.0625,6.0625 363.76172,4.660156 Z m 0,0"
       style="fill:#ae7878;fill-opacity:1;fill-rule:nonzero;stroke:none"
       id="path2933"
       inkscape:connector-curvature="0" />
    <path
       d="m 337.45703,195.3125 c 8.71094,-6.38672 15.15625,-15.25781 18.14063,-24.97266 2.625,-8.49609 2.86718,-17.44531 3.10546,-26.18359 0.0899,-3.46094 -0.004,-7.05078 -2.22265,-9.63672 -2.38281,-2.77344 -6.16406,-3.27734 -9.83985,-3.55859 -0.35937,-0.0234 -0.72265,-0.0469 -1.08593,-0.0664 -0.33203,-0.0195 -0.66407,-0.0391 -0.9961,-0.0625 l -3.98437,-0.28906 0.83594,3.91015 c 4.07031,19 1.02343,39.78125 -8.35938,57.00391 z m 0,0"
       style="fill:#ae7878;fill-opacity:1;fill-rule:nonzero;stroke:none"
       id="path2935"
       inkscape:connector-curvature="0" />
    <path
       d="m 363.65625,120.19531 -1.66797,-4.40234 C 348.80859,81.027344 320.65625,51.445312 286.67969,36.652344 269.44922,29.152344 250.0625,25.1875 230.60937,25.1875 c -19.30468,0 -38.55859,3.910156 -55.67578,11.304688 -34.20312,14.765624 -62.51562,44.449218 -75.738278,79.402342 l -1.652343,4.3711 4.664061,-0.31641 c 0.25,-0.0195 1.30078,-0.10156 1.30078,-0.10156 5.13672,-0.38282 10.66797,-0.73438 16.89844,-1.07813 l 1.83594,-0.10156 0.74609,-1.67969 c 8.76172,-19.765624 26.37891,-35.160155 47.12109,-41.183592 6.57422,-1.90625 13.44141,-2.871094 20.41407,-2.871094 14.41015,0 28.875,4.25 40.73437,11.964844 l 1.72656,1.125 1.66797,-1.207032 c 11.21485,-8.109375 25.19922,-12.570312 39.38282,-12.570312 6.82812,0 13.50781,1.023437 19.84765,3.046875 19.42578,6.1875 35.71875,22.023437 42.52344,41.328121 l 0.66797,1.89454 2.00781,0.10546 c 7.19141,0.36719 13.69531,0.76563 19.87891,1.22657 z m 0,0"
       style="fill:#ae7878;fill-opacity:1;fill-rule:nonzero;stroke:none"
       id="path2937"
       inkscape:connector-curvature="0" />
    <path
       d="m 116.05469,23.511719 c 1.16797,0 2.48047,0.148437 3.89453,0.449219 13.05469,2.761718 25.23828,9.695312 34.3164,19.527343 l 1.66016,1.796875 2.09375,-1.261718 c 1.78125,-1.070313 3.64453,-2.140626 5.54688,-3.175782 l 4.03125,-2.195312 -3.62891,-2.808594 C 145.05859,21.207031 122.84375,10.410156 99.734375,4.617188 98.738281,4.363281 97.449219,4.070312 96.261719,4.070312 c -0.960938,0 -1.757813,0.191407 -2.476563,0.605469 -2.277344,1.359375 -2.589844,4.613281 -2.605468,7.304688 -0.121094,25.828125 5.367187,51.984375 15.871092,75.640625 l 2.21875,5 3.02344,-4.558594 c 2.38672,-3.597656 4.96094,-7.128906 7.65234,-10.492188 l 2.10157,-2.628906 -2.85157,-1.789062 c -3.11328,-1.949219 -5.16015,-5.402344 -5.34765,-9.011719 -0.15625,-3.078125 1,-6.160156 3.17578,-8.449219 l 2.49219,-2.621094 -3.03516,-1.964843 c -0.71094,-0.457031 -1.34375,-1.0625 -1.875,-1.773438 -1.08594,-1.492187 -1.55859,-3.300781 -1.30469,-4.941406 0.25,-1.546875 1.17578,-3.054687 2.54297,-4.125 l 3.96875,-3.117187 -4.63672,-1.996094 c -1.07812,-0.46875 -1.98047,-1.007813 -2.7539,-1.652344 -2.19532,-1.828125 -3.47266,-5.367188 -1.875,-7.722656 1.03125,-1.527344 2.83203,-2.265625 5.50781,-2.265625 z m 0,0"
       style="fill:#ae7878;fill-opacity:1;fill-rule:nonzero;stroke:none"
       id="path2939"
       inkscape:connector-curvature="0" />
    <path
       d="m 119.88672,130.65625 -4.32813,0.33594 c -3.37109,0.26562 -7.16796,0.77734 -9.53515,3.52734 -2.21094,2.57422 -2.30469,6.17188 -2.21094,9.63281 0.22266,8.66016 0.45703,17.61328 3.08984,26.1875 2.02735,6.57032 5.69141,12.8711 10.60157,18.21485 l 4.93359,-3.27735 c -7.27734,-15.88281 -8.61719,-33.80078 -3.76562,-50.45312 z m 0,0"
       style="fill:#ae7878;fill-opacity:1;fill-rule:nonzero;stroke:none"
       id="path2941"
       inkscape:connector-curvature="0" />
    <path
       d="m 182.44531,253.07031 -1.30469,-2.11719 2.14063,-3.16406 -74.94531,24.76172 2.22265,3.28516 c 1.76172,2.60547 3.35547,5.3125 4.75,8.05468 l 1.20313,2.375 51.99609,-18.94921 0.27344,0.69921 c 8.01562,20.33594 17.41406,40.47657 27.93359,59.85938 l 0.34766,0.64062 0.60547,0.41016 c 1.37109,0.93359 2.55078,1.78906 3.60156,2.60938 3.12109,2.45312 7.52734,6.3125 9.74609,11.5 2.21485,5.17187 1.71875,10.9414 -1.26171,14.69531 l -1.21485,1.53125 7.08594,13.4375 8.39062,-3.46094 c 4.5625,-1.87109 9.32813,-4.37891 10.08594,-8.79297 0.40235,-2.32422 -0.41797,-4.67578 -1.44922,-7.28515 -13.73828,-34.64844 -30.6289,-68.32422 -50.20703,-100.08985 z m 0,0"
       style="fill:#ffd1ba;fill-opacity:1;fill-rule:nonzero;stroke:none"
       id="path2943"
       inkscape:connector-curvature="0" />
    <path
       d="m 507.98047,469.87891 -0.0937,-1.42188 c -0.17578,-2.62891 -1.125,-5.27344 -2.6836,-7.45312 l -1.51953,-2.13672 -2.07422,1.09375 c -1.73437,-0.25391 -3.49609,-0.39453 -5.26171,-0.4375 l 0.52734,-3.94922 c -3.33984,-0.83985 -7.04688,-0.85938 -10.33203,-0.87891 -1.38281,0 -2.98438,-0.008 -4.51563,-0.0859 -4.82812,-0.2539 -9.79297,-0.27343 -14.0664,-0.27343 h -1.75782 l -0.008,0.0117 h -2.99219 c -2.24218,0 -4.48437,0 -6.70703,-0.0234 l -50.08203,-0.57813 c -0.18359,0 -0.35156,-0.10156 -0.44531,-0.26172 -0.0977,-0.17187 -0.0977,-0.375 -0.008,-0.53515 l 11.78906,-20.5 h -0.004 l 13.71485,-23.85156 -0.0195,0.0117 10.30468,-17.92187 -10.08593,-2.40234 -23.58204,32.23046 -0.11328,0.15235 -2.68359,3.66797 h 0.004 l -6.35938,8.69531 c -1.12109,1.52734 -2.14062,2.91016 -3.24219,4.32422 l -2.65234,3.41406 -0.20703,0.0117 -0.81641,0.85937 c -2.32422,2.44922 -4.58984,4.28907 -6.94531,5.64063 -0.71094,0.41406 -1.50391,0.8125 -2.49219,1.25 l -1.73828,0.76953 -1.96094,0.55859 c -5.0625,1.44922 -10.5,1.63282 -14.67187,1.63282 0,0 -0.004,0 -0.004,0 -1.22265,0 -2.41797,-0.0156 -3.58203,-0.0352 l -1.85156,-0.0312 v 0.004 l -31.97656,-0.58203 -1.69141,-0.0312 -2.30078,-0.0391 -50.15625,-0.90625 1.33984,4.02344 c 1.16797,3.50781 1.88672,6.85547 2.13672,9.95313 l 0.17578,2.21484 -0.0195,0.0117 -0.082,1.78125 c -0.0273,0.58984 -0.0664,1.17578 -0.12891,1.76172 -0.27734,2.59375 -0.96484,5.10547 -2.04297,7.46093 l -1.875,4.10157 8.14454,0.26562 -0.0117,0.008 35.84375,1.17188 0.004,0.008 47.91016,1.57813 -0.004,0.004 21.69922,0.71485 32.5,1.07812 h -0.004 l 36.52343,1.19922 v 0.004 l 17.1211,0.5664 c 0.90625,0.0312 1.78515,0.0781 2.66015,0.125 l -0.008,0.0156 2.33594,0.125 0.17969,0.0117 2.64843,0.14062 c 1.70313,0.0899 2.99219,0.12891 4.17969,0.12891 5.26953,0 10.88281,-0.71875 16.21094,-5.91406 l 0.84765,-0.81641 c 2.87891,-2.79688 5.00782,-4.99219 6.14063,-7.80078 l 0.77344,-1.91016 0.27734,0.0195 -0.0391,-0.60547 0.55469,-1.375 z m 0,0"
       style="fill:#f5b36e;fill-opacity:1;fill-rule:nonzero;stroke:none"
       id="path2945"
       inkscape:connector-curvature="0" />
    <path
       d="m 232.35156,184.50391 c -0.26562,0 -0.53125,0.0117 -0.80078,0.0312 -4.02734,0.32812 -8.12891,2.82812 -11.55859,7.04687 -4.48438,5.51953 -7.04297,12.95313 -6.35938,18.5 0.71094,5.72656 4.10156,10.37109 6.82422,13.25781 3.12109,3.32032 6.92188,6.07813 10.24219,8.40235 l 1.53515,1.07422 1.64063,-0.90625 c 8.46875,-4.6875 14.21875,-14.25391 14.30859,-23.80079 0.0625,-6.01953 -3.08984,-15.51562 -8.30078,-20.35546 -2.32422,-2.15625 -4.85937,-3.25 -7.53125,-3.25 z m 0,0"
       style="fill:#f5b36e;fill-opacity:1;fill-rule:nonzero;stroke:none"
       id="path2947"
       inkscape:connector-curvature="0" />
    <path
       d="m 119.0625,451.34375 h -0.32422 l -16.50781,-0.0117 v 0.004 l -19.515626,-0.0703 0.0039,-0.004 -4.074219,-0.0195 c -7.441406,-0.0274 -15.007812,-0.0742 -22.734375,-0.1211 l -3.453125,-0.0195 -0.0039,0.004 -20.179687,-0.15235 -0.0039,-0.004 -3.324219,-0.0195 c -3.121093,0 -5.457031,0.10156 -7.574218,0.33203 l -0.933594,0.10156 -0.01563,-0.19531 -1.390625,0.34765 -0.472656,0.0508 0.0039,0.0625 -1.582031,0.39453 c -3.230469,0.80078 -5.820313,2.07422 -7.914063,3.88672 -5.449218,4.67968 -5.464844,9.6914 -4.519531,13.07421 1.800781,6.42969 8.449219,11.98829 15.800781,13.21875 1.890625,0.31641 3.949219,0.47266 6.296875,0.47266 2.640625,0 5.28125,-0.19531 7.835938,-0.38281 l 0.125,-0.008 c 7.882812,-0.58594 16,-1.3086 23.242187,-1.96094 15.460938,-1.375 31.449219,-2.79688 47.132818,-3.24219 4.00391,-0.11328 8.29687,-0.16797 13.50391,-0.16797 h 1.07031 l 0.0195,-0.0195 5.63281,0.0703 c 7.84375,0.0899 15.78516,0.30469 22.61328,0.4961 l 0.26172,0.008 c 8.58984,0.23437 17.45313,0.48047 26.19922,0.52734 l 0.0156,0.0195 h 4.63672 l -0.34765,-3.3164 c -0.15235,-1.44922 -0.19922,-2.90625 -0.14453,-4.47656 0.0195,-0.63282 0.0742,-1.26563 0.1289,-1.89844 l 0.19141,-2.17188 0.28906,-1.69531 c 0.54297,-3.17578 1.4375,-6.30469 2.66797,-9.29297 l 1.71875,-4.1875 -4.52734,0.0469 c -18.3711,0.20703 -37.94532,0.30859 -59.84766,0.32031 z m 0,0"
       style="fill:#f5b36e;fill-opacity:1;fill-rule:nonzero;stroke:none"
       id="path2949"
       inkscape:connector-curvature="0" />
    <path
       d="m 174.61719,390.70703 6.5,22.32422 8.44922,-13.17969 14.23828,6.34766 -8.31641,-24.07813 z m 0,0"
       style="fill:#eb6b66;fill-opacity:1;fill-rule:nonzero;stroke:none"
       id="path2951"
       inkscape:connector-curvature="0" />
    <path
       d="m 312.52344,129.36719 c -4.59766,-0.0937 -9.23828,-0.14453 -13.79297,-0.14453 -5.29688,0 -10.61328,0.0664 -15.78906,0.1914 -0.77344,0.0195 -1.5586,0.0234 -2.34375,0.0234 l -1.51172,-0.004 c -0.47266,-0.008 -0.9336,-0.008 -1.39453,-0.008 -6.96485,0 -16.50782,0 -17.90625,11.56641 -1.55469,12.80468 -0.39454,24.05859 3.4375,33.4375 0.89062,2.19531 1.98828,4.375 3.26953,6.47656 l 1.05468,1.73047 1.875,-0.3125 c 2.20313,0.39453 4.48047,0.59765 6.76563,0.59765 11.15234,0 22.24609,-4.76171 29.67187,-12.73437 9.02344,-9.69531 12.74219,-24.20313 9.52735,-37.07031 l 1.38672,-3.66407 z m -26.96094,32.6914 c -0.82813,0.31641 -1.75,0.48438 -2.67188,0.48438 -2.23046,0 -4.43359,-0.94141 -5.89843,-2.51953 -2.75391,-2.96485 -2.29297,-7.94922 -0.25,-11.0586 1.28906,-1.97265 3.11328,-3.05859 5.1289,-3.05859 0.69141,0 1.40235,0.125 2.11719,0.37891 3.625,1.27343 6.20313,4.92187 6.26563,8.86718 0.043,3.22657 -1.66797,5.73828 -4.69141,6.90625 z m 0,0"
       style="fill:#f8d787;fill-opacity:1;fill-rule:nonzero;stroke:none"
       id="path2953"
       inkscape:connector-curvature="0" />
    <path
       d="m 184.92578,129.42969 c -0.47656,0 -3.01562,0.008 -3.01562,0.008 -0.78516,0 -1.56641,-0.004 -2.33204,-0.0234 -4.98046,-0.125 -10.17187,-0.1875 -15.42187,-0.1875 -3.97656,0 -8.09375,0.0391 -12.23438,0.10938 l -2.39843,0.0937 -0.47266,2.23047 c -4.90234,12.73828 -2.69922,27.9414 5.625,38.76562 7.39844,9.61328 19.63281,15.58594 31.92578,15.58594 1.35156,0 2.71094,-0.0703 4.04297,-0.21485 l 1.70313,0.35938 1.14843,-1.53516 c 2.39063,-3.19531 4.33985,-6.625 5.79297,-10.17968 3.83594,-9.39063 4.99219,-20.64454 3.44141,-33.44922 -1.41406,-11.5625 -10.88672,-11.5625 -17.80469,-11.5625 z m -2.63672,32.6289 c -0.82422,0.31641 -1.74609,0.48438 -2.66797,0.48438 -2.22656,0 -4.43359,-0.94141 -5.89843,-2.51953 -2.7461,-2.96094 -2.28516,-7.94532 -0.25,-11.0586 1.29296,-1.97265 3.11328,-3.05859 5.1289,-3.05859 0.69141,0 1.40235,0.125 2.11719,0.37891 3.62891,1.27343 6.20312,4.92187 6.26562,8.86718 0.0391,3.22657 -1.66796,5.73828 -4.69531,6.90625 z m 0,0"
       style="fill:#f8d787;fill-opacity:1;fill-rule:nonzero;stroke:none"
       id="path2955"
       inkscape:connector-curvature="0" />
    <path
       d="m 105.91406,170.64453 c 6.02344,19.5625 25.24219,34.42188 45.69141,35.33203 0.66797,0.0273 1.33594,0.043 2.00781,0.043 19.76563,0 39.15234,-12.85547 46.63281,-31.18359 3.90235,-9.5586 5.08203,-20.98828 3.50782,-33.96875 -1.52735,-12.60157 -11.94141,-12.54688 -20.29688,-12.47657 -1.29687,0.008 -2.58984,0.0195 -3.85937,-0.0156 -13.44532,-0.33203 -27.07813,-0.24219 -40.52735,0.26172 -7.73437,0.28906 -15.57031,0.72656 -23.28515,1.29297 -3.71485,0.27343 -7.89844,0.82422 -10.54688,3.91406 -2.66406,3.09766 -2.54687,7.45703 -2.46875,10.33984 0.23438,8.75 0.47656,17.79688 3.14453,26.46094 z m 45.8711,31.29297 c -8.35938,-0.37109 -16.48829,-3.28125 -23.4336,-7.97266 -0.0508,-0.14453 -0.11328,-0.28125 -0.19922,-0.41406 -11.18359,-17.34375 -14.21093,-40.15234 -8.03515,-59.85156 6.28515,-0.42578 12.61328,-0.77735 18.88672,-1.01563 -5.15625,13.04688 -4.78907,28.21875 1.09375,40.96094 5.38281,11.66797 15.3164,21.15234 27.14453,26.15625 -4.98828,1.60547 -10.22266,2.37109 -15.45703,2.13672 z m 21.10546,-4.36719 c -12.6875,-4.0039 -23.55078,-13.53515 -29.125,-25.61719 -5.65625,-12.2539 -5.80078,-26.94921 -0.38671,-39.30859 0.0117,-0.0312 0.0195,-0.0664 0.0312,-0.0937 1.42578,-0.0469 2.85156,-0.0937 4.27734,-0.12891 -4.48047,12.83204 -2.13281,27.84766 6.16797,38.63282 7.6875,9.99218 20.19531,15.99609 32.76953,15.99609 0.30859,0 0.61719,-0.0195 0.92578,-0.0273 -4.16406,4.38281 -9.17969,7.98047 -14.66016,10.54687 z m 6.60547,-65.15625 c 1.3125,0.0352 2.64844,0.0234 3.98828,0.0156 9.39844,-0.0625 15.21875,0.33593 16.26172,8.92578 1.49219,12.28906 0.40235,23.03906 -3.23828,31.95312 -1.38672,3.39844 -3.22265,6.58594 -5.41015,9.51563 -0.19141,-0.0352 -0.39063,-0.0508 -0.59375,-0.0312 -12.59766,1.41406 -25.72266,-4.16016 -33.44922,-14.19922 -7.72657,-10.04297 -9.75,-24.16016 -5.16016,-35.97266 0.0391,-0.0937 0.0586,-0.1914 0.082,-0.28515 9.17969,-0.16407 18.39453,-0.14844 27.51953,0.0781 z m -71.1914,4.0625 c 1.58984,-1.85547 4.54297,-2.26562 7.48437,-2.49219 -5.04297,17.33985 -3.57031,36.19532 3.92188,52.53907 -4.5,-4.90235 -7.98047,-10.71094 -9.9375,-17.07032 -2.50391,-8.13281 -2.73828,-16.89843 -2.96485,-25.375 -0.082,-2.99609 -0.0273,-5.83203 1.4961,-7.60156 z m 0,0"
       style="fill:#000000;fill-opacity:1;fill-rule:nonzero;stroke:none"
       id="path2957"
       inkscape:connector-curvature="0" />
    <path
       d="m 346.72266,129.93359 c -7.71875,-0.57031 -15.55079,-1.0039 -23.28907,-1.29687 -13.44531,-0.50391 -27.07812,-0.59375 -40.52343,-0.25781 -1.27344,0.0273 -2.56641,0.0195 -3.86329,0.0117 -8.35546,-0.0469 -18.76562,-0.12109 -20.29687,12.48047 -1.57422,12.97657 -0.39453,24.40625 3.50781,33.96485 3.57422,8.75781 9.8711,16.26172 17.6211,21.71484 0.1914,0.19141 0.41015,0.35156 0.66015,0.45703 8.34375,5.67969 18.29688,9.01172 28.35547,9.01172 0.66797,0 1.33594,-0.0156 2.00781,-0.043 6.20703,-0.27734 12.29688,-1.84375 17.94532,-4.43359 0.10546,0.0156 0.21093,0.0469 0.3164,0.0469 0.64063,0 1.26563,-0.30078 1.65625,-0.85937 0.0508,-0.0703 0.0937,-0.14063 0.14453,-0.21094 11.98438,-6.16406 21.66407,-17 25.62891,-29.875 2.66797,-8.66016 2.91016,-17.71094 3.14453,-26.45703 0.0742,-2.88281 0.19141,-7.24219 -2.46875,-10.34375 -2.65234,-3.08984 -6.83594,-3.64063 -10.54687,-3.91016 z m -83.96094,11.42188 c 0.99219,-8.17578 6.30859,-8.92969 14.92969,-8.92969 0.4375,0 0.8789,0.004 1.33203,0.004 1.33593,0.0117 2.67578,0.0195 3.98437,-0.0156 9.76563,-0.24219 19.63281,-0.2539 29.45313,-0.0508 -0.13672,0.37109 -0.16407,0.78516 -0.0586,1.19531 3.11328,11.96094 -0.3164,25.53516 -8.73828,34.58203 -8.41797,9.04688 -21.71094,13.44922 -33.86328,11.19922 -0.25391,-0.0469 -0.50391,-0.0352 -0.74219,0.008 -1.17578,-1.92579 -2.20312,-3.94141 -3.05859,-6.03907 -3.64063,-8.91406 -4.73047,-19.66797 -3.23828,-31.95312 z m 9.34375,42.38281 c 1.34765,0.14063 2.69922,0.21484 4.05469,0.21484 11.33593,0 22.74609,-4.76562 30.46093,-13.05859 9.33985,-10.03516 13.14063,-25.08984 9.69141,-38.35547 -0.008,-0.0234 -0.0234,-0.0469 -0.0312,-0.0742 1.17187,0.0312 2.34375,0.0664 3.51172,0.10547 2.28125,13.00391 -0.50391,26.82813 -7.64453,37.92969 -6.96875,10.83984 -18.01953,18.96484 -30.42578,22.4375 -3.61329,-2.61328 -6.875,-5.70703 -9.61719,-9.19922 z m 38.61719,18.19922 c -8.5625,0.39062 -17.1211,-1.90234 -24.58204,-6.15625 11.98438,-4.17969 22.53907,-12.41406 29.40625,-23.09375 7.53125,-11.71484 10.54688,-26.23828 8.35157,-39.98438 5.39843,0.20704 10.82812,0.50391 16.24218,0.85157 4.98829,21.71875 0.5586,45.39453 -11.9375,63.84765 -5.46484,2.65625 -11.41015,4.26563 -17.48046,4.53516 z m 44.97656,-57.85938 c -0.22656,8.47657 -0.46094,17.24219 -2.96485,25.375 -2.89453,9.39844 -9.10546,17.61329 -17.05468,23.4375 9.72265,-17.83984 12.92187,-39.18359 8.66406,-59.0664 0.69141,0.0469 1.39062,0.082 2.08203,0.13281 3.03516,0.22656 6.13672,0.60547 7.77734,2.51953 1.52344,1.76953 1.57422,4.60547 1.4961,7.60156 z m 0,0"
       style="fill:#000000;fill-opacity:1;fill-rule:nonzero;stroke:none"
       id="path2959"
       inkscape:connector-curvature="0" />
    <path
       d="m 179.625,165.53906 c 1.27734,0 2.55469,-0.22265 3.75,-0.68359 4.20312,-1.625 6.67187,-5.26563 6.60156,-9.73828 -0.0781,-5.1836 -3.47656,-9.98047 -8.26172,-11.66407 -4.12109,-1.44921 -8.23828,0.0352 -10.7539,3.875 -2.63672,4.01563 -3.33594,10.54688 0.55468,14.73829 2.08594,2.24218 5.10547,3.47265 8.10938,3.47265 z m -5.28516,-16 c 0.69922,-1.0625 2.08203,-2.60156 4.2461,-2.60156 0.54687,0 1.14062,0.10156 1.78906,0.32812 3.59375,1.26172 5.51953,4.9375 5.5625,7.91407 0.0273,1.61328 -0.46094,4.53515 -4.01563,5.90625 -2.47656,0.95703 -5.60546,0.21093 -7.4414,-1.76953 -2.3711,-2.55469 -1.92188,-7.0625 -0.14063,-9.77735 z m 0,0"
       style="fill:#000000;fill-opacity:1;fill-rule:nonzero;stroke:none"
       id="path2961"
       inkscape:connector-curvature="0" />
    <path
       d="m 282.89453,165.53906 c 1.28125,0 2.55469,-0.22265 3.75,-0.68359 4.20313,-1.625 6.67188,-5.26563 6.60156,-9.73828 -0.0781,-5.1836 -3.47656,-9.98047 -8.26172,-11.66407 -4.12109,-1.44921 -8.23828,0.0352 -10.7539,3.875 -2.63281,4.01563 -3.33203,10.54688 0.55859,14.73829 2.07813,2.24218 5.10156,3.47265 8.10547,3.47265 z m -5.28516,-16 c 0.69922,-1.0625 2.08204,-2.60156 4.2461,-2.60156 0.54687,0 1.14062,0.10156 1.78906,0.32812 3.59375,1.26172 5.51953,4.9375 5.56641,7.91407 0.0234,1.61328 -0.46485,4.53515 -4.01953,5.90625 -2.47266,0.95703 -5.60157,0.21093 -7.44141,-1.76953 -2.37109,-2.55469 -1.92188,-7.0625 -0.14063,-9.77735 z m 0,0"
       style="fill:#000000;fill-opacity:1;fill-rule:nonzero;stroke:none"
       id="path2963"
       inkscape:connector-curvature="0" />
    <path
       d="m 503.73047,454.07031 c -5.34766,-3.3789 -11.6211,-3.41015 -17.15235,-3.4414 -1.51953,-0.008 -2.95703,-0.0156 -4.33593,-0.0859 -5.73047,-0.30078 -11.55078,-0.28516 -17.17969,-0.26953 -2.84375,0.004 -5.6875,0.0156 -8.52344,-0.0195 L 412.49609,449.75 445.63281,392.08203 c 0.5586,-0.96875 0.625,-2.14062 0.17969,-3.16797 -0.44141,-1.01953 -1.34375,-1.77734 -2.42969,-2.03125 l -11.13672,-2.63672 c -1.38281,-0.32422 -2.82812,0.20703 -3.66797,1.35547 l -32.94531,45.02735 c -3.48047,4.7539 -7.42187,10.14453 -12.59375,13.125 -6.78515,3.91015 -15.51172,3.7539 -23.21875,3.61718 l -76.41015,-1.375 c 12.57812,-5.48047 24.58984,-12.71875 35.60937,-21.58984 0.75,0.20312 1.51953,0.3125 2.30859,0.3125 3.71485,0 7.79297,-2.23828 11.73047,-6.55469 19.75391,-21.66406 35.42578,-49.54297 45.32422,-80.6289 5.2461,-16.46485 9.07031,-34.33204 11.3711,-53.09375 1.0625,-8.70704 1.82421,-17.8125 2.26171,-27.0625 0.0664,-1.44141 0.16016,-2.91797 0.25391,-4.42188 0.46094,-7.25391 0.98438,-15.47656 -1.25391,-22.74609 -1.83593,-5.96094 -5.86718,-10.52344 -11.34375,-12.85547 -0.65234,-0.27735 -1.3125,-0.51172 -1.98437,-0.71485 1.54687,-16.93359 0.99219,-34.01562 -1.69141,-50.80859 -0.11328,-0.72656 -0.44531,-1.36719 -0.91797,-1.86719 1.73438,-9.07422 1.98829,-18.30468 2.22657,-27.29687 0.10547,-3.96094 0.26562,-9.94922 -3.48438,-14.32031 -1.88672,-2.19922 -4.29297,-3.48047 -6.86719,-4.26172 -0.008,-0.36719 -0.0547,-0.74219 -0.1875,-1.10938 -3.32421,-9.34375 -7.6875,-18.332029 -12.92578,-26.804685 10.99219,-24.410156 16.73828,-51.4375 16.60938,-78.207031 -0.0117,-2.222656 -0.0391,-8.125 -4.64063,-10.8125 -3.26953,-1.90625 -6.96875,-0.984375 -8.95703,-0.484375 -24.24219,6.078125 -47.40234,17.46875 -67.02734,32.945312 -0.50781,-0.230469 -1.01172,-0.464843 -1.52344,-0.6875 -35.97656,-15.664062 -78.96094,-15.730469 -114.98437,-0.171875 -1.48829,0.644532 -2.95704,1.320313 -4.42188,2.015625 -0.20312,-0.308593 -0.44531,-0.601562 -0.75391,-0.847656 C 148.43359,18.285156 125.11719,6.789062 100.71094,0.667969 98.722656,0.167969 95.023438,-0.757812 91.753906,1.15625 87.15625,3.839844 87.125,9.742188 87.113281,11.964844 c -0.128906,26.949218 5.6875,54.167968 16.832029,78.707031 0.40625,0.902344 1.15235,1.542969 2.01563,1.855469 -4.53516,7.652346 -8.363284,15.703126 -11.359378,24.042966 -0.226562,0.625 -0.25,1.26953 -0.128906,1.87891 -2.164062,0.80078 -4.167968,2.01172 -5.789062,3.90234 -3.753906,4.3711 -3.59375,10.35547 -3.488282,14.32031 0.08984,3.35157 0.183594,6.73829 0.351563,10.13672 -8.101563,26.90235 -9.820313,51.36328 -5.113281,72.74219 -15.15625,21.69922 -25.046875,47.49219 -28.632813,74.70703 -3.65625,27.76172 -0.597656,55.79688 8.851563,81.07422 2.730468,7.30859 6.496094,15.41406 13.75,20.15625 4.855468,3.17578 10.335937,4.32031 16.058594,4.32031 5.570312,0 11.371092,-1.08203 17.062502,-2.42187 2.46484,-0.58203 4.92969,-1.1875 7.39062,-1.80078 12.48828,22.50781 32.91016,40.58203 57.11719,51.4414 -44.54687,0.4336 -89.171875,0.25 -141.605469,-0.15625 -6.757812,-0.0469 -16.960937,-0.1289 -24.019531,5.95703 -5.511719,4.7461 -7.5625,10.8711 -5.78125,17.2461 2.199219,7.875 10.210938,14.66406 19.046875,16.14453 2.339844,0.39453 4.660156,0.53125 6.960937,0.53125 2.796876,0 5.558594,-0.20703 8.269532,-0.40625 7.734375,-0.57422 15.605468,-1.27734 23.21875,-1.95703 15.429687,-1.3711 31.382812,-2.79297 46.976566,-3.23828 14.16015,-0.40625 28.62109,-0.008 42.60546,0.3789 9.125,0.25391 18.5586,0.51563 27.85157,0.55078 h 0.0117 c 0.62109,0 1.19921,-0.17187 1.70703,-0.45703 0.42187,0.96485 0.91015,1.87891 1.48047,2.73047 2.69531,4.03125 7.17187,6.42578 11.50781,6.42578 1.14844,0 2.29297,-0.16797 3.38672,-0.51953 1.77343,-0.57031 3.35937,-1.5664 4.76953,-2.9375 2.80859,2.64844 6.78125,4.14844 10.85937,4.14844 2.01953,0 4.06641,-0.36719 6.00782,-1.14063 1.98046,-0.78906 3.82421,-1.96484 5.48828,-3.4414 3.11328,2.97656 7.28125,4.86719 11.58203,5.13672 0.36719,0.0234 0.73437,0.0351 1.10156,0.0351 4.73438,0 9.46484,-1.90234 12.85547,-5.20312 3.14453,2.875 7.48047,4.4414 11.92969,4.4414 2.88281,0 5.8164,-0.65625 8.48828,-2.03906 1.99219,-1.02734 3.80469,-2.41797 5.40234,-4.07812 0.20703,0.0469 0.42188,0.0781 0.64063,0.0859 l 198.96484,6.57422 c 1.72266,0.0547 3.42969,0.16016 5.08203,0.26172 2.3711,0.14453 4.71094,0.28906 7.01563,0.28906 6.6875,0 13.07422,-1.21093 19.09765,-7.08984 l 0.8086,-0.78516 c 3.84765,-3.72656 8.20703,-7.94921 8.25781,-15.0625 0.0469,-6.14062 -3.19922,-12.17968 -8.26953,-15.38281 z M 376.90625,223.86328 c 3.53125,1.5 6.14453,4.49609 7.35547,8.42969 1.85547,6.03515 1.39844,13.24219 0.95703,20.21875 -0.0977,1.54297 -0.19531,3.05859 -0.26563,4.53906 -0.42578,9.07422 -1.17187,18 -2.21484,26.53125 -2.64844,21.63281 -7.48047,44.40234 -15.82422,64.65625 -5.84765,14.19531 -12.34765,28.48438 -20.64062,41.22266 -2.05469,3.15234 -24.5586,34.96484 -28.08594,23.87109 -5.65234,-17.76953 -8.33594,-34.41406 -8.73438,-53.14453 -0.125,-5.91797 0.125,-11.47266 0.76954,-17.35547 1.36718,-12.50391 2.62109,-25.10156 6.01171,-37.25781 1.54688,-5.5586 4.46485,-10.16797 6.33985,-15.6211 2.19531,-6.38671 4.51953,-12.73437 7.2539,-18.91015 0.0781,-0.17188 0.11719,-0.34375 0.14454,-0.51953 2.23828,-4.36719 4.6289,-8.66797 7.21093,-12.87891 0.5586,-0.91016 1.13672,-1.85937 1.73047,-2.83594 6.41797,-10.55468 15.20313,-25.01172 25.57422,-30.25 4.07813,-2.0664 8.60547,-2.32031 12.41797,-0.69531 z m -8.44922,-96.91406 c 1.82813,2.1289 1.88672,5.72265 1.78516,9.53125 -0.30078,11.20703 -0.60938,22.79687 -3.90625,33.5 -7.26172,23.57422 -30.41407,41.47656 -55.05469,42.57422 -24.64063,1.08203 -49.29688,-14.6875 -58.61719,-37.52735 -4.78125,-11.71093 -6.21094,-25.85547 -4.24609,-42.03906 1.23437,-10.17578 7.66797,-11.12109 18.91015,-11.12109 0.60157,0 1.22266,0 1.85157,0.004 1.75,0.0156 3.55468,0.0273 5.32812,-0.0195 17.75,-0.4375 35.73828,-0.32422 53.46875,0.34375 10.19141,0.38282 20.52735,0.95703 30.72656,1.70703 3.85547,0.28516 7.78516,0.75391 9.75391,3.04688 z m -176.33984,90.39453 c 2.28906,2.40234 6.03906,2.04687 8.40625,0.5 0.082,-0.0547 0.16015,-0.10938 0.24218,-0.16406 0.48829,1.16797 1.25782,2.17968 2.24219,2.91797 1.20313,0.90234 2.71485,1.3789 4.28516,1.3789 0.45312,0 0.91015,-0.0391 1.36719,-0.11719 1.60156,-0.28515 3.02734,-1.04687 4.08593,-2.13671 1.25,2.21093 2.82422,4.36718 4.7461,6.40625 3.80468,4.05078 8.28515,7.15625 12.62109,10.16015 0.60156,0.41406 1.30469,0.62891 2.01172,0.62891 0.48828,0 0.97656,-0.10156 1.4375,-0.30469 7.15234,-3.17969 12.80469,-9.08984 15.94922,-16.13672 0.42578,0.32813 0.88281,0.62891 1.3789,0.88281 1.27735,0.66016 2.64454,0.99219 3.98438,0.99219 1.00781,0 2,-0.1875 2.92578,-0.57031 2.14844,-0.88672 3.82813,-2.77344 4.59766,-5.17188 0.11328,-0.34765 0.20312,-0.69921 0.27343,-1.05078 0.92188,0.26953 1.90625,0.35547 2.88282,0.23438 2.80078,-0.35938 5.36328,-2.38281 6.52343,-5.15235 0.25,-0.58593 0.4336,-1.20703 0.5586,-1.84375 8.64844,5.4961 18.46875,9.15625 28.58594,10.40235 -21.45313,16.01562 -47.83985,24.83984 -74.64063,24.85937 h -0.0859 c -26.57422,0 -52.75781,-8.66015 -74.125,-24.41015 0.41407,0.008 0.82813,0.0273 1.2461,0.0273 13.62109,0 27.10156,-4.54687 38.375,-12.28125 -0.17188,0.375 -0.33985,0.74609 -0.4961,1.125 -1.5,3.69922 -1.28125,6.83203 0.6211,8.82422 z m 29.82031,-74.48828 c -0.0703,-2.1875 -0.20703,-4.41406 -0.41016,-6.67578 l 18.02344,-0.008 z m 18.75781,-2.79688 c -0.12109,2.07422 -0.18359,4.10938 -0.1875,6.11719 l -18.84765,8.6875 c 0.21093,-2.51172 0.32812,-5.08203 0.34375,-7.71094 z m -0.11719,10.53516 c 0.15625,3.92969 0.53907,7.72266 1.14844,11.37109 l -21.15234,1.16016 c 0.21484,-1.17969 0.41015,-2.36719 0.57812,-3.57813 z m 0.4961,-21.48828 -20.49219,0.004 c -3.33984,-14.46093 -16.54687,-14.37499 -27.30078,-14.30468 -1.69531,0.0117 -3.44531,0.0234 -5.10547,-0.0156 -17.89453,-0.44531 -36.03516,-0.32812 -53.91016,0.34375 -3.13671,0.11719 -6.28906,0.26172 -9.44531,0.41407 8.89844,-18.593755 25.7461,-32.988286 45.57422,-38.742192 20.66406,-5.992188 43.62891,-2.363282 61.42969,9.722656 0.71484,0.484375 1.66406,0.460937 2.35547,-0.0625 16.6875,-12.636719 39.4414,-16.535156 59.38281,-10.183594 18.75,5.980469 34.27344,20.789062 41.29297,39.12891 -2.20703,-0.0977 -4.41406,-0.19532 -6.61328,-0.27735 -17.875,-0.67187 -36.01172,-0.78906 -53.91016,-0.34375 -1.66016,0.0391 -3.41016,0.0273 -5.10547,0.0156 -10.77734,-0.0781 -24.01953,-0.15625 -27.32031,14.41015 -0.26953,-0.0664 -0.54688,-0.10937 -0.83203,-0.10937 z m -24.6875,48.59765 c 0.98437,-2.40625 1.83984,-4.90234 2.5625,-7.48046 0.14844,0.0195 0.29297,0.043 0.44531,0.043 0.0625,0 0.12891,0 0.19531,-0.004 l 23.31641,-1.28125 c 0.10937,-0.008 0.20703,-0.0352 0.3125,-0.0508 0.79687,3.03906 1.75781,5.96875 2.90234,8.77343 4.64453,11.375 12.69532,21.17579 22.63282,28.44532 0.10156,1.03906 -0.0274,2.05078 -0.39844,2.92578 -0.60547,1.44531 -1.9375,2.53515 -3.3125,2.71094 -1.10938,0.13671 -2.29297,-0.37891 -2.90625,-1.20704 -0.13281,-0.29296 -0.28516,-0.58203 -0.45703,-0.85546 -0.55078,-0.88672 -1.6875,-1.20704 -2.61719,-0.73829 -0.93359,0.46485 -1.35938,1.56641 -0.98047,2.53516 0.12891,0.32813 0.28516,0.64453 0.46484,0.94141 0.32032,0.86328 0.33204,1.90625 0.008,2.91015 -0.40235,1.2461 -1.25782,2.2461 -2.29297,2.67578 -1.03906,0.42969 -2.35156,0.32422 -3.51953,-0.27734 -0.71094,-0.36719 -1.28125,-0.90234 -1.69532,-1.5 0.75391,-2.62891 1.1836,-5.35937 1.21094,-8.13281 0.0664,-6.9375 -3.27344,-17.48438 -9.59765,-23.35938 -3.39063,-3.15234 -7.34766,-4.64062 -11.44922,-4.30078 -5.14063,0.42188 -10.24219,3.45703 -14.3711,8.54297 -5.22656,6.42969 -8.0664,14.89844 -7.23437,21.57031 0,0 0,0 0,0.004 0.21875,1.75781 0.67578,3.51562 1.32812,5.25 -0.30078,0.15625 -0.57031,0.38281 -0.76953,0.68359 -0.44922,0.69141 -1.2539,1.1875 -2.19922,1.35547 -0.94922,0.16016 -1.87109,-0.0234 -2.53125,-0.51953 -0.66015,-0.49219 -1.09765,-1.32422 -1.20312,-2.28125 -0.0586,-0.54687 -0.008,-1.07422 0.15234,-1.54297 0.26172,-0.42969 0.50781,-0.84765 0.73828,-1.25 0.52735,-0.89844 0.27735,-2.05469 -0.57422,-2.66015 -0.85156,-0.60547 -2.02343,-0.46094 -2.70312,0.32812 -0.44531,0.52344 -0.8125,1.11328 -1.08203,1.75 -0.69141,1.08594 -1.47656,2.11719 -2.44922,2.75391 -1,0.65625 -2.55078,0.84765 -3.26953,0.0937 -1.06641,-1.11328 -0.11719,-3.73828 0.19922,-4.51563 1.50781,-3.71094 3.83593,-7.13672 6.73437,-9.90625 0.46094,-0.4375 0.65625,-1.03906 0.60938,-1.625 5.86328,-5.99609 10.6289,-13.03515 13.80078,-20.80469 z m 28.80078,30.3711 c -0.082,8.59765 -5.24219,17.05078 -12.76172,21.21484 -3.48047,-2.43359 -6.95312,-4.98828 -9.78516,-8.0039 -2.41015,-2.5625 -5.41406,-6.65235 -6.02734,-11.56641 v 0.004 c -0.58594,-4.71094 1.76172,-11.39063 5.70703,-16.2461 2.90235,-3.57422 6.26563,-5.6914 9.46485,-5.95312 2.125,-0.16797 4.10937,0.62109 6.05859,2.43359 4.45703,4.14063 7.39453,12.71094 7.34375,18.11719 z M 358.57031,7.523438 c 0.86719,-0.21875 2.89453,-0.722657 3.67578,-0.265626 C 362.66406,7.5 363.36328,8.441406 363.38281,12 c 0.11719,24.261719 -4.77734,48.746094 -14.1875,71.140625 -2.20703,-3.152344 -4.53906,-6.214844 -6.98437,-9.1875 2.63281,-2.503906 4.30859,-5.980469 4.5039,-9.660156 0.20703,-3.949219 -1.30468,-7.839844 -3.99609,-10.667969 1.01172,-0.660156 1.92187,-1.515625 2.66406,-2.53125 1.55469,-2.132812 2.22656,-4.75 1.84375,-7.179688 -0.36719,-2.300781 -1.6875,-4.46875 -3.64844,-6.007812 1.22657,-0.535156 2.41407,-1.214844 3.48438,-2.101562 3.19141,-2.660157 5.03516,-7.890626 2.44531,-11.707032 -2.21875,-3.269531 -6.54297,-4.328125 -12.51172,-3.074218 -13.08593,2.761718 -25.25,9.484374 -34.59375,19.042968 -1.80468,-1.042968 -3.6289,-2.046875 -5.47656,-3.007812 18.25391,-13.792969 39.48047,-23.976563 61.64453,-29.535156 z m -24.16406,30.691406 c 0.19922,1.082031 1.23047,1.800781 2.3125,1.625 1.375,-0.226563 2.89453,0.175781 4.16797,1.097656 1.27734,0.917969 2.13281,2.238281 2.35156,3.613281 0.21484,1.371094 -0.19141,2.890625 -1.11719,4.160157 -0.92968,1.269531 -2.25,2.121093 -3.625,2.332031 -0.83984,0.128906 -1.50781,0.769531 -1.67578,1.601562 -0.16406,0.832031 0.20703,1.679688 0.9336,2.121094 3.13671,1.90625 5.11718,5.648437 4.92578,9.316406 -0.12891,2.527344 -1.3086,4.964844 -3.10157,6.761719 -9.71093,-11.15625 -21.07421,-20.875 -33.60156,-28.632812 8.69141,-8.628907 19.85938,-14.699219 31.85938,-17.230469 2.41015,-0.507813 6.70703,-1.007813 8.33203,1.386719 1.25781,1.855468 0.12109,4.828124 -1.6875,6.332031 -2.27735,1.890625 -5.58203,2.570312 -8.4961,3.167969 -1.07421,0.222656 -1.77734,1.265624 -1.57812,2.347656 z M 94.1875,12 c 0.01563,-3.558594 0.714844,-4.5 1.132812,-4.742188 0.785157,-0.457031 2.8125,0.050782 3.675782,0.265626 22.777346,5.710937 44.554686,16.316406 63.136716,30.691406 -1.90625,1.035156 -3.79687,2.117187 -5.65625,3.242187 -9.5,-10.296875 -22.19531,-17.535156 -35.90625,-20.429687 -5.96875,-1.257813 -10.29297,-0.199219 -12.51172,3.070312 -2.58984,3.816406 -0.74609,9.050782 2.44922,11.707032 1.07032,0.890624 2.25391,1.566406 3.48047,2.105468 -1.96094,1.535156 -3.27734,3.703125 -3.64453,6.007813 -0.38281,2.425781 0.28516,5.042969 1.84375,7.175781 0.74219,1.015625 1.65234,1.875 2.66016,2.535156 -2.6875,2.824219 -4.19922,6.714844 -3.99219,10.664063 0.24219,4.640625 2.83984,8.953125 6.74609,11.402343 -2.76172,3.453126 -5.36718,7.027344 -7.80468,10.710938 C 99.464844,63.136719 94.0625,37.449219 94.1875,12 Z m 26.55859,40.644531 c -0.16406,-0.835937 -0.83203,-1.476562 -1.67187,-1.601562 -1.375,-0.214844 -2.69531,-1.0625 -3.625,-2.332031 -0.92969,-1.269532 -1.33594,-2.789063 -1.11719,-4.164063 0.21875,-1.375 1.07422,-2.691406 2.34766,-3.613281 1.27734,-0.917969 2.79297,-1.320313 4.16797,-1.09375 1.08593,0.175781 2.11328,-0.546875 2.3125,-1.625 0.19922,-1.082032 -0.50391,-2.125 -1.57813,-2.347656 -2.91797,-0.597657 -6.21875,-1.277344 -8.49219,-3.167969 -1.8125,-1.507813 -2.94921,-4.476563 -1.6914,-6.332031 1.625,-2.394532 5.91797,-1.898438 8.33594,-1.386719 12.64843,2.667969 24.3789,9.269531 33.25781,18.65625 -12.25391,7.910156 -23.34766,17.707031 -32.79297,28.882812 -3.01563,-1.683593 -5.13281,-4.984375 -5.3125,-8.4375 -0.19141,-3.667969 1.78906,-7.410156 4.92969,-9.316406 0.72265,-0.441406 1.09765,-1.289063 0.92968,-2.121094 z m 55.375,-13.402343 c 34.25782,-14.792969 75.14063,-14.734376 109.35938,0.164062 33.40234,14.542969 60.77734,43.371094 73.70312,77.44531 -6.61718,-0.48828 -13.29297,-0.89453 -19.94531,-1.22656 -7.13672,-20.230469 -23.98437,-36.667969 -44.44922,-43.191406 -20.71875,-6.605469 -44.29297,-2.78125 -61.89062,9.953125 -18.60938,-12.113281 -42.28516,-15.65625 -63.62891,-9.460938 -21.625,6.273438 -39.90625,22.273438 -49.02734,42.851559 -5.66016,0.30469 -11.32813,0.66016 -16.95703,1.07422 -0.42188,0.0312 -0.84766,0.0664 -1.27735,0.10547 12.94532,-34.246092 40.50781,-63.199218 74.11328,-77.714842 z M 94.050781,126.95313 c 1.96875,-2.29688 5.898438,-2.76563 9.753909,-3.05079 10.19922,-0.75 20.53906,-1.32421 30.72656,-1.70703 17.73047,-0.66797 35.71875,-0.78125 53.47266,-0.33984 1.76953,0.043 3.57421,0.0312 5.32421,0.0195 12.38672,-0.0742 19.46094,0.39453 20.76172,11.11328 1.96485,16.18359 0.53516,30.32813 -4.24609,42.04297 -9.32422,22.83594 -33.97266,38.60937 -58.61719,37.52344 -24.64062,-1.09766 -47.79687,-19 -55.054685,-42.57422 -3.296875,-10.70313 -3.609375,-22.29297 -3.90625,-33.5 -0.101563,-3.8086 -0.04297,-7.40235 1.785156,-9.52734 z m 81.503909,336.83593 c -0.29297,0.94141 -0.49219,1.63281 -0.53516,1.85547 -0.60156,3.21484 0.71875,6.0625 0.43359,9.26172 -8.93359,0.92969 -18.55078,-0.19531 -27.55078,-0.44531 -30.30078,-0.83985 -60.199215,0.19531 -90.406246,2.88672 -7.585938,0.67578 -15.433594,1.375 -23.113282,1.94531 -4.519531,0.33594 -9.191406,0.68359 -13.539062,-0.0469 -6.167969,-1.03515 -11.933594,-5.79297 -13.40625,-11.07422 -1.03125,-3.6914 0.171875,-7.05468 3.582031,-9.99218 5.507813,-4.7461 18.464844,-3.24219 25.414063,-3.45313 7.917968,-0.24219 15.789062,0.0274 23.699218,0.27344 19.558594,0.60547 39.070313,-1.08203 58.601568,-0.75 9.90234,0.16797 19.80078,0.16797 29.70312,0.10156 9.94922,-0.0703 20.47656,-1.1914 30.34375,-0.22656 -0.11328,-0.008 -2.21484,6.36328 -3.22656,9.66406 z m 21.1875,12.75781 c -0.94141,2.71485 -2.61328,6.13282 -5.25391,6.97657 -2.46484,0.79297 -5.42187,-0.95703 -6.85547,-3.10157 -1.58984,-2.375 -2.28515,-5.65625 -2.1289,-10.03125 0.22265,-6.15625 1.90625,-12.21875 4.85937,-17.62109 3.63672,1.10156 7.33203,2.05078 11.07422,2.83594 1.19922,7 0.62891,14.22265 -1.69531,20.9414 z m 24.37109,-3.21875 c -1.45703,5.00391 -4.61719,8.90625 -8.44922,10.4336 -3.66797,1.46484 -8.24609,0.28906 -10.19531,-2.5 0.33984,-0.76172 0.66016,-1.55469 0.95312,-2.40235 2.4336,-7.04296 3.23438,-14.5625 2.35938,-21.9414 1.03906,0.15625 2.08203,0.30469 3.12891,0.43359 4.34765,0.53516 8.71875,0.84375 13.09765,0.95313 0.42188,5.7539 0.41016,10.55468 -0.89453,15.02343 z M 245.71094,470.75 c -0.23047,4.60547 -1.75,8.51562 -4.28125,11 -2.25,2.21484 -5.47657,3.41016 -8.625,3.21875 -2.83985,-0.17969 -5.58594,-1.5 -7.53516,-3.57031 1.10156,-1.85547 1.99219,-3.90235 2.63281,-6.08985 1.63282,-5.60156 1.58203,-11.45312 1.19141,-17.01562 5.00391,-0.13672 10.00781,-0.54297 14.99609,-1.22266 0.90625,4.52735 1.84375,9.20313 1.6211,13.67969 z m 26.30859,-1.58984 c -0.67969,6.15625 -3.94531,11.44921 -8.53125,13.8164 -4.37891,2.26172 -10.22656,1.28516 -13.07422,-2.02344 1.35156,-2.90625 2.17578,-6.23828 2.35547,-9.85156 0.26172,-5.26172 -0.72266,-10.29297 -1.69922,-15.16015 5.94922,-1.10547 11.85938,-2.58594 17.6836,-4.4375 2.75781,6.71093 3.83593,12.49218 3.26562,17.65625 z m -62.24609,-18.82422 c -36.85938,-4.53907 -70.14063,-26.08594 -87.77735,-56.57032 7.0586,-1.85546 14.08985,-3.84765 21.07813,-5.97265 0.0312,0.0742 0.0469,0.15234 0.082,0.22656 l 5.96484,12.76953 c 0.59766,1.28125 1.86719,2.03906 3.20313,2.03906 0.44922,0 0.90234,-0.0859 1.34375,-0.26562 L 174.49219,394 l 5.01953,17.24219 c 0.22265,0.76172 0.86719,1.32031 1.65234,1.4375 0.0977,0.0117 0.19141,0.0195 0.28906,0.0195 0.67969,0 1.32422,-0.34375 1.69922,-0.92969 l 6.80078,-10.60547 11.35938,5.0625 c 0.73828,0.32813 1.59375,0.1875 2.1875,-0.35547 0.59375,-0.54297 0.80859,-1.38672 0.54687,-2.14843 l -6.60937,-19.15625 28.11719,-11.5586 c 6.87109,-2.82422 13.12109,-7.10156 12.82031,-15.27734 -0.30469,-8.15235 -5.48047,-14.91016 -8.57813,-22.15235 -4.375,-10.21875 -9.01171,-20.32421 -13.90625,-30.30078 -9.89843,-20.17968 -20.84375,-39.84765 -32.79687,-58.88281 -0.86328,-1.37891 -2.55859,-1.98437 -4.10156,-1.47656 l -70.17188,23.1875 c -0.0898,0.0312 -0.16797,0.0781 -0.2539,0.11328 -2.4375,-2.91797 -5.10547,-5.65234 -7.98438,-8.15625 -1.472655,-1.28516 -3.703124,-1.12891 -4.984374,0.34766 -1.28125,1.47265 -1.128906,3.70312 0.34375,4.98437 16.226564,14.11328 25.019534,36.17578 22.953124,57.57813 -0.0469,0.45312 0.008,0.89453 0.125,1.30468 -6.25781,3.79688 -11.97265,8.48828 -16.84375,13.96875 -1.29687,1.45703 -1.16797,3.69141 0.28906,4.98828 1.46094,1.29688 3.69532,1.16797 4.99219,-0.28906 11.19531,-12.58984 27.24219,-20.67578 44.02734,-22.18359 16.60938,-1.4961 32.32032,2.76562 45.64844,13.01953 5.11328,3.93359 8.86328,9.07031 10.53516,15.38281 1.57422,5.95313 -3.73047,8.6211 -8.55078,10.6836 -30.04297,12.84765 -61.40235,23.16015 -93.21485,30.65625 -10.007809,2.35937 -20.27734,3.875 -27.628902,-0.9336 -5.542969,-3.625 -8.667969,-10.48437 -11,-16.71484 -3.324219,-8.89453 -5.796876,-18.10156 -7.4375,-27.45313 -1.53125,-8.71875 -3.476563,-19.00781 -2.425782,-27.875 2.078125,-17.53125 2.605469,-35.13281 8.144532,-52.17187 4.976562,-15.3125 12.210937,-29.88672 21.554687,-43.00391 0.59375,-0.83203 0.796875,-1.875 0.5625,-2.86719 -3.75,-15.86718 -3.648437,-33.68359 0.25,-53.125 0.425781,1.91016 0.914063,3.8125 1.496094,5.70313 7.667969,24.90234 31.218751,44.12891 57.031251,47.17969 -0.004,0.60156 0.25781,1.19922 0.76953,1.59765 22.54297,17.58203 50.69141,27.25782 79.28125,27.25782 h 0.0898 c 28.61328,-0.0195 56.78907,-9.73829 79.33203,-27.36719 0.36329,-0.28906 0.59766,-0.67969 0.70313,-1.09766 0.75781,0.0273 1.51172,0.043 2.26953,0.043 0.89844,0 1.80078,-0.0195 2.70313,-0.0586 25.09765,-1.11719 48.8125,-17.84766 58.94531,-40.75391 1.19922,12.26172 1.23828,24.62109 0.1289,36.89844 -3.16796,0.13672 -6.36718,0.96875 -9.37109,2.48437 -12.17187,6.15235 -21.56641,21.60547 -28.42578,32.89063 -0.58594,0.96875 -1.16016,1.90625 -1.71484,2.8125 -9.57422,15.60156 -16.88672,32.33203 -21.73438,49.73047 -10.10156,36.24218 -9.37891,75.94531 2.02734,111.79687 0.46485,1.46094 1.01954,3.01172 1.85938,4.42969 -30.14844,23.74609 -67.78516,34.83594 -103.53906,30.42969 z m -90.0586,-164.13672 48.17578,-17.5586 c 7.21875,18.26954 15.50782,36.26954 24.67579,53.6875 -12.69532,-6.79296 -27.34766,-9.89453 -41.71875,-8.60546 -8.55469,0.76953 -16.92579,3.10156 -24.69141,6.73437 0.60156,-11.73047 -1.69922,-23.53516 -6.44141,-34.25781 z m -1.73437,-3.66797 c -1.46484,-2.89453 -3.12109,-5.69141 -4.94141,-8.375 l 62.81641,-20.75781 -7.26172,10.71093 c -0.0781,0.0195 -0.15625,0.0312 -0.23438,0.0586 z m 53.58594,-15.61328 8.32421,-12.27344 c 19.48829,31.62109 36.29297,65.10547 49.97266,99.62109 0.85938,2.17579 1.55078,4.10547 1.28125,5.67188 -0.51562,2.96875 -4.47266,4.96875 -8.27734,6.53125 l -5.86328,2.41406 -4.89844,-9.28125 c 3.65234,-4.62109 4.30859,-11.57031 1.66797,-17.74219 -2.50391,-5.84765 -7.28125,-10.03906 -10.65625,-12.68359 -1.22266,-0.95703 -2.48438,-1.85937 -3.76563,-2.73437 -10.42969,-19.21485 -19.76562,-39.20313 -27.78515,-59.52344 z m 41.68359,103.50781 -59.15234,24.31641 -4.23438,-9.0625 c 17.66016,-5.60938 35.05859,-12.07032 52.03516,-19.33203 2.125,-0.91016 4.78515,-2.0625 7.17187,-3.84766 z m -19.55469,15.67969 5.01563,14.53906 -8.69922,-3.875 c -0.91016,-0.40625 -1.98438,-0.0859 -2.52344,0.75391 l -5.33984,8.32812 -3.89844,-13.39453 z m 310.28516,89.70312 c -1.69531,1.95703 -3.97266,3.32813 -6.33203,4.39063 -1.6211,0.72656 -3.26172,1.3164 -4.92969,1.78515 -8.34375,2.36329 -17.20703,1.79297 -25.84375,1.2461 -11.125,-0.70703 -22.32813,-0.77344 -33.47656,-1.07031 -52.1875,-1.39844 -104.5625,-1.94532 -156.66016,-3.83594 1.96094,-4.30078 1.69922,-7.76563 1.74609,-12.3086 0.0117,-1.4375 -0.14843,-13.03906 -1.66015,-13.0664 19.52734,0.35156 39.0625,0.27344 58.58984,0.49219 17.35938,0.1914 35.16016,2.33203 51.17578,-6.05469 19.15235,-10.02344 29.48047,-31.42188 40.94141,-48.66406 1.17578,-1.76954 3.07422,-6.32422 5.15234,-6.98829 1.19922,-0.38281 4.95703,0.47266 3.85157,2.30079 -6.78907,13.57421 -16.00391,26.41015 -23.875,39.39843 -1.91797,3.16407 -16.57813,22.13282 -5.33594,22.00782 8.29297,-0.0937 16.55078,0.20703 24.86719,0.58203 10.50781,0.47265 21.01562,0.94531 31.51953,1.41797 11.57422,0.51953 27.44922,-2.00782 37.80078,4.35156 2.48047,1.52344 4.53906,3.99219 4.89844,6.88281 0.32421,2.56641 -0.73438,5.17969 -2.42969,7.13281 z m 0,0"
       style="fill:#000000;fill-opacity:1;fill-rule:nonzero;stroke:none"
       id="path2965"
       inkscape:connector-curvature="0" />
  </g>
</svg>
