<?xml version="1.0" encoding="UTF-8" standalone="no"?>
<svg
   xmlns:dc="http://purl.org/dc/elements/1.1/"
   xmlns:cc="http://creativecommons.org/ns#"
   xmlns:rdf="http://www.w3.org/1999/02/22-rdf-syntax-ns#"
   xmlns:svg="http://www.w3.org/2000/svg"
   xmlns="http://www.w3.org/2000/svg"
   xmlns:sodipodi="http://sodipodi.sourceforge.net/DTD/sodipodi-0.dtd"
   xmlns:inkscape="http://www.inkscape.org/namespaces/inkscape"
   height="233.12013"
   version="1.1"
   viewBox="0 -57 225.0001 174.84011"
   width="300"
   id="svg2209"
   sodipodi:docname="storia_1.svg"
   inkscape:version="0.92.3 (unknown)">
  <metadata
     id="metadata2215">
    <rdf:RDF>
      <cc:Work
         rdf:about="">
        <dc:format>image/svg+xml</dc:format>
        <dc:type
           rdf:resource="http://purl.org/dc/dcmitype/StillImage" />
        <dc:title></dc:title>
      </cc:Work>
    </rdf:RDF>
  </metadata>
  <defs
     id="defs2213" />
  <sodipodi:namedview
     pagecolor="#ffffff"
     bordercolor="#666666"
     borderopacity="1"
     objecttolerance="10"
     gridtolerance="10"
     guidetolerance="10"
     inkscape:pageopacity="0"
     inkscape:pageshadow="2"
     inkscape:window-width="1366"
     inkscape:window-height="741"
     id="namedview2211"
     showgrid="false"
     fit-margin-top="0"
     fit-margin-left="0"
     fit-margin-right="0"
     fit-margin-bottom="0"
     units="px"
     inkscape:zoom="0.34570313"
     inkscape:cx="341.33372"
     inkscape:cy="265.14571"
     inkscape:window-x="0"
     inkscape:window-y="27"
     inkscape:window-maximized="1"
     inkscape:current-layer="svg2209" />
  <g
     id="surface1"
     transform="matrix(0.4394524,0,0,0.4394524,1.2721772e-4,-57.000108)">
    <path
       d="m 487.60156,66.082031 c -0.0937,-11.46875 -0.19922,-24.46875 -6.32812,-35.132812 C 473.57422,17.503906 457.73047,9.375 432.84375,6.09375 422.91406,4.785156 412.70703,4.121094 402.50391,4.121094 c -23.41016,0 -46.86719,3.40625 -69.71094,10.121094 l -2.3711,0.695312 8.89844,95.30859 -21.33984,-20.226559 -18.57031,30.691409 -2.25391,-93.007815 -4.21094,2.074219 c -8.14062,4.007812 -16.08594,8.503906 -23.61328,13.355468 -0.69531,0.445313 -1.35547,0.878907 -1.93359,1.269532 -1.60938,1.066406 -3.13672,2.066406 -4.57813,2.765625 l -1.69922,0.816406 0.15235,316.023435 5.02343,-4.59765 c 27.77735,-25.4375 64.9961,-42.23438 102.11329,-46.08985 5.79687,-0.60156 11.73828,-0.91015 17.66015,-0.91015 34.7461,0 69.65625,10.34375 98.30469,29.11718 l 2.73437,1.78907 -2.15625,-0.23047 c -0.14843,-0.0156 -0.21484,-0.0547 -0.2539,-0.0742 -28.63672,-19.04688 -63.65235,-29.53125 -98.58985,-29.53125 -5.89453,0 -11.8125,0.30469 -17.58984,0.90234 -33.56641,3.48828 -66.75781,17.30078 -93.45703,38.89063 l 3.23437,5.01562 c 2.08985,-1.05078 4.19922,-2.0664 6.3086,-3.0664 l 1.53906,3.70703 c 3.30469,-1.1875 6.63672,-2.30469 9.98047,-3.36328 l 0.56641,1.97656 c -7.17969,1.83984 -14.27735,3.98437 -21.27344,6.43359 l 1.01953,5.83203 167.44922,-1.51953 0.60547,-3.89062 c 2.66406,0.88281 5.3125,1.79687 7.94531,2.76953 l 0.74609,1.01953 1.58203,-0.0508 c 7.13282,-0.23047 14.59375,-0.94922 20.8125,-4.60156 l 5.40625,-3.17969 -0.84375,-0.31641 c 2.01172,-1.97265 3.73829,-4.38281 5.11329,-7.19531 l 0.48437,-0.99219 0.12891,0.0625 0.34375,-1.02734 0.34765,-0.71094 -0.0937,-0.0469 0.5,-1.48829 c 0.19532,-0.58984 0.39063,-1.17187 0.55469,-1.77343 l 0.76953,-2.77735 0.0937,0.0625 0.61328,-4.75 c 0.69532,-5.40625 0.75391,-11.03515 0.71485,-15.82812 z M 374.92969,112.76953 c -2.56641,-0.008 -6.08594,-0.0195 -8.44141,-1.80859 -2.96484,-2.25391 -3.54687,-6.8125 -3.92969,-9.83594 l -7.97265,-63.378906 c 13.41015,-3.257813 27.25,-5.382813 41.14453,-6.324219 5.42187,-0.363281 10.94922,-0.546875 16.42578,-0.546875 7.23437,0 14.53516,0.320312 21.67969,0.949219 0.86718,0.08594 1.7539,0.148437 2.65625,0.207031 7.78515,0.542969 13.46875,1.375 15.71875,7.210938 2.75,7.113281 3.14062,16.3125 3.51953,25.207031 l 3,-0.128907 -2.99219,0.230469 c 0.16797,4.039063 0.33203,7.847657 0.71094,11.359375 l 4.02344,37.332034 z m 0,0"
       style="fill:#f0f0fa;fill-opacity:1;fill-rule:nonzero;stroke:none"
       id="path2130"
       inkscape:connector-curvature="0" />
    <path
       d="M 249.74609,370.05078 250.5,364.15234 c -5.94922,-1.60156 -11.98438,-3.01562 -18.08594,-4.25781 l 0.57422,-1.99609 c 3.8125,1.42968 7.58984,2.9414 11.3125,4.54687 l 1.9375,-3.5039 c 0.10547,0.0742 0.21094,0.14453 0.31641,0.21875 l 3.73047,-4.6836 c -27.4961,-25.11328 -61.48047,-41 -98.27344,-45.94922 -8.14844,-1.09765 -16.5625,-1.65234 -25.00781,-1.65234 -34.886722,0 -69.19141,9.18359 -96.593754,25.85547 l -1.476562,0.89453 0.242187,11.48828 c 0,0 0.01172,0.38281 0.02344,0.50391 l 0.152343,2.15625 -0.125,0.0469 0.148438,2.25 c 0.292969,4.38281 0.957031,7.55078 2.160156,10.28125 l 0.402344,0.91797 -0.449219,0.19141 1.085938,1.25 0.15625,0.35547 0.113281,-0.0469 1.351562,1.55859 c 5.5,6.33985 14.734376,7.21094 23.902344,7.21094 0.539063,0 1.074219,-0.004 1.605469,-0.008 l 2.730469,-0.0234 0.421875,-0.1289 c 4.523437,-1.40235 9.058593,-2.70704 13.605469,-3.92969 l 0.535156,3.93359 z m 0,0"
       style="fill:#f0f0fa;fill-opacity:1;fill-rule:nonzero;stroke:none"
       id="path2132"
       inkscape:connector-curvature="0" />
    <path
       d="m 395.59766,29.46875 c -13.63282,0.917969 -27.28125,2.988281 -40.5625,6.152344 l -2.61719,0.625 4.80859,38.191406 18.28516,-21.199219 c 0.41797,-0.480469 1.39453,-1.613281 2.28125,-1.613281 0.0391,0 0.082,0.0039 0.125,0.0078 0.71094,0.07813 1.3789,0.902344 1.82422,1.457032 l 9.09765,11.199218 2.35547,-2.308593 c 2.89063,-2.839844 7.03516,-4.535157 11.08985,-4.535157 0.34375,0 0.68359,0.01172 1.01953,0.03516 4.46484,0.328125 8.74218,2.699219 11.43359,6.351562 l 2.00391,2.714844 7.63672,-7.152344 c 0.64062,-0.59375 1.43359,-1.335937 2.24218,-1.417969 0.0586,-0.0078 0.11328,-0.0078 0.16797,-0.0078 1.32422,0 2.60547,1.648438 3.14844,2.347656 l 18.58594,24.023438 1.89453,-0.464844 c 1.9375,-0.476562 3.73047,-0.722656 5.47656,-0.746094 l 3.28906,-0.04687 -0.78906,-7.382812 c -0.35547,-3.347657 -0.52344,-6.9375 -0.70312,-11.285157 -0.37891,-9.054687 -0.77344,-18.417968 -3.64844,-25.871093 -2.86719,-7.457031 -10.59766,-7.992188 -17.42188,-8.46875 -0.875,-0.05859 -1.73828,-0.113281 -2.58203,-0.191407 -7.23828,-0.644531 -14.60937,-0.972656 -21.90625,-0.972656 -5.51562,0 -11.07812,0.1875 -16.53515,0.558594 z m 0,0"
       style="fill:#d7deeb;fill-opacity:1;fill-rule:nonzero;stroke:none"
       id="path2134"
       inkscape:connector-curvature="0" />
    <path
       d="m 359.53125,92.734375 4.00781,-2.59375 c 4.28125,-2.773437 9.86719,-4.234375 16.16016,-4.234375 0.98047,0 1.98437,0.03516 2.98828,0.105469 5.79687,0.414062 11.50781,1.855469 17.04687,3.25 l 1.3711,0.339843 c 1.30469,0.320313 2.60937,0.644532 3.91797,0.953126 l 9.3789,2.125 -0.36718,-0.453126 c 2.28515,0.289063 4.41796,0.4375 6.46484,0.4375 2.70703,0 5.28906,-0.261718 7.68359,-0.773437 4.07813,-0.875 7.98438,-2.554687 11.8125,-4.195313 2.33594,-1.003906 4.44141,-1.898437 6.57422,-2.660156 l 3.89453,-1.394531 -19.03906,-24.59375 c -1.23047,-1.578125 -2.63672,-3.039063 -4.62109,-3.039063 h -0.21875 l -0.15235,0.01563 c -1.41015,0.148437 -2.5039,1.09375 -3.39062,1.945312 L 402.10547,77.523438 381.26953,51.855469 C 380.48047,50.886719 379.67187,50 378.48047,49.738281 l -0.28125,-0.08203 h -0.42969 c -1.55859,0 -2.71875,1.105469 -3.73828,2.292969 l -17.13281,19.871093 z m 0,0"
       style="fill:#9199a8;fill-opacity:1;fill-rule:nonzero;stroke:none"
       id="path2136"
       inkscape:connector-curvature="0" />
    <path
       d="m 418.09375,65.269531 -1.45703,-2.125 c -3.00391,-4.382812 -7.9336,-7.230469 -13.17969,-7.617187 -0.41406,-0.03125 -0.82422,-0.04687 -1.23828,-0.04687 -4.75781,0 -9.39453,1.988281 -12.72266,5.449219 l -1.83593,1.914062 14.25,17.554688 z m 0,0"
       style="fill:#ffffff;fill-opacity:1;fill-rule:nonzero;stroke:none"
       id="path2138"
       inkscape:connector-curvature="0" />
    <path
       d="m 257.33594,48.234375 c -1.46875,-0.140625 -3.07422,-0.566406 -4.90235,-1.304687 -3.48437,-1.410157 -6.90234,-3.230469 -10.22265,-4.996094 -2.94532,-1.570313 -5.73047,-3.054688 -8.65625,-4.332032 -12.42188,-5.4375 -25.49219,-9.84375 -38.85547,-13.085937 -18.94141,-4.597656 -38.42969,-6.929687 -57.91797,-6.929687 -8.34375,0 -16.80469,0.429687 -25.15234,1.277343 -30.703129,3.125 -60.808598,12.203125 -87.062504,26.25 l -1.621094,0.867188 5.960938,286.316401 4.386719,-2.51562 c 26.964843,-15.46094 60.269531,-23.97656 93.777341,-23.97656 8.47656,0 16.91797,0.55859 25.08985,1.65625 38.49218,5.17968 75.05468,22.96484 102.94921,50.07812 l 5.09766,4.94922 -0.15625,-313.999999 z m 0,0"
       style="fill:#ffffff;fill-opacity:1;fill-rule:nonzero;stroke:none"
       id="path2140"
       inkscape:connector-curvature="0" />
    <path
       d="m 503.40234,79.261719 -3.48437,0.828125 c -0.83203,0.199218 -1.67188,0.300781 -2.4961,0.300781 -1.51562,0 -3.02343,-0.328125 -4.35546,-0.949219 l -4.30469,-2.003906 2.01953,246.13281 c 0.0273,2.66797 -0.0234,5.33594 -0.14844,7.92578 l -0.16406,3.47266 15.57422,-1.53906 0.0937,-2.61719 c 3.03125,-82.26563 2.17969,-165.69531 -2.53125,-247.972656 z m 0,0"
       style="fill:#ae7878;fill-opacity:1;fill-rule:nonzero;stroke:none"
       id="path2142"
       inkscape:connector-curvature="0" />
    <path
       d="m 438.71094,369.40234 -362.417971,3.30078 0.84375,3.64454 c 1.019531,4.38671 0.9375,9.01171 -0.226563,13.38281 L 75.90625,393.5 l 359.55469,0.27344 -2.31641,-4.39844 c -2.41797,-4.59375 -1.73437,-10.78125 1.65234,-15.04688 z m 0,0"
       style="fill:#ae7878;fill-opacity:1;fill-rule:nonzero;stroke:none"
       id="path2144"
       inkscape:connector-curvature="0" />
    <path
       d="m 18.242188,104.55859 c -2.414063,1.97266 -5.585938,3.10157 -8.703126,3.10157 -0.636718,0 -1.300781,-0.0547 -1.976562,-0.16016 l -3.476562,-0.55859 0.175781,227.88671 4.25,-1.95312 c 4.019531,-1.84375 8.476562,-2.82031 12.894531,-2.82031 1.007812,0 2.027344,0.0508 3.023438,0.15234 l 3.371093,0.33984 -4.789062,-229.88671 z m 0,0"
       style="fill:#ae7878;fill-opacity:1;fill-rule:nonzero;stroke:none"
       id="path2146"
       inkscape:connector-curvature="0" />
    <path
       d="m 295.21484,28.660156 2.39453,98.792974 20.79297,-34.335942 23.35938,22.140622 -9.42969,-100.906248 -3.53516,1.105469 c -10.91015,3.402344 -21.61328,7.5625 -31.8164,12.371094 z m 0,0"
       style="fill:#eb6b66;fill-opacity:1;fill-rule:nonzero;stroke:none"
       id="path2148"
       inkscape:connector-curvature="0" />
    <path
       d="m 490.37109,335.47656 c -1.4414,17.10938 -6.41797,23.17578 -11.57812,27.1836 -8.32422,6.46093 -20.14844,6.5625 -28.78125,6.64062 l -12.5,0.12109 -0.73438,0.48047 c -0.0937,0.0625 -0.18359,0.125 -0.27343,0.19532 -6.42188,4.26171 -8.70313,13.68359 -4.98438,20.44921 l -0.61719,3.23047 20.80078,0.0117 c 15.53125,0 31.5625,-0.85156 41.92188,-11.0625 10.01172,-9.84765 11.44922,-25.17578 12.0625,-40.04297 l 0.42578,-11.24218 -15.53125,1.55078 z m 0,0"
       style="fill:#f8d787;fill-opacity:1;fill-rule:nonzero;stroke:none"
       id="path2150"
       inkscape:connector-curvature="0" />
    <path
       d="m 488.67187,66.082031 0.10547,13.46875 1.69532,0.648438 c 1.94921,1.378906 4.40625,2.140625 6.9414,2.140625 1.32422,0 2.62891,-0.203125 3.875,-0.601563 L 503.5,81.027344 503.36719,78.707031 c -0.47266,-8.035156 -0.9375,-15.4375 -1.42188,-22.640625 -0.35547,-5.207031 -0.875,-9.800781 -3.61328,-13.269531 -1.60937,-2.03125 -4.33203,-3.351563 -6.96094,-3.367187 -1.03906,0 -1.99609,0.214843 -2.84375,0.636718 l -2.0664,1.035156 0.47265,2.261719 c 1.60938,7.707031 1.67969,15.683594 1.73828,22.71875 z m 0,0"
       style="fill:#f8d787;fill-opacity:1;fill-rule:nonzero;stroke:none"
       id="path2152"
       inkscape:connector-curvature="0" />
    <path
       d="m 77.800781,393.50391 0.65625,-2.11329 c 1.664063,-5.37109 1.78125,-11.0625 0.332031,-16.45703 l -0.605468,-2.24218 -18.53125,0.16015 c -0.664063,0.008 -1.375,0.0195 -2.132813,0.0195 -8.480469,0 -18.949219,-0.93359 -24.667969,-8.20312 -4.457031,-5.67578 -4.621093,-13.75 -4.742187,-19.64844 l -0.34375,-16.40234 -2.59375,-0.30469 c -1.246094,-0.14453 -2.511719,-0.22266 -3.773437,-0.22266 -5.433594,0 -10.8125,1.35938 -15.558594,3.9336 L 4.269531,332.875 v 8.60937 c 0.011719,14.04688 0.601563,26.46094 7.773438,36.08594 10.386719,13.95703 30.257812,15.89844 50.183593,15.92188 z m 0,0"
       style="fill:#f8d787;fill-opacity:1;fill-rule:nonzero;stroke:none"
       id="path2154"
       inkscape:connector-curvature="0" />
    <path
       d="m 9.597656,109.61719 c 4.488282,0 8.824219,-1.94922 11.667969,-5.23438 l 1.808594,-0.65625 -1.058594,-50.992185 -2.664063,-0.25 c -0.292968,-0.02734 -0.582031,-0.04297 -0.878906,-0.04297 -5.265625,0 -9.75,4.183594 -11.6875,8.074219 -2.714844,5.449219 -2.714844,11.917969 -2.714844,17.699219 l 0.023438,30.550787 2.355469,0.51562 c 1.019531,0.22266 2.082031,0.33594 3.148437,0.33594 z m 0,0"
       style="fill:#f8d787;fill-opacity:1;fill-rule:nonzero;stroke:none"
       id="path2156"
       inkscape:connector-curvature="0" />
    <path
       d="m 459.27344,83.839844 -0.32032,-2.679688 h -2.6914 c -6.01953,0 -11.375,2.300782 -17.09766,4.757813 -3.6914,1.585937 -7.50781,3.226562 -11.38672,4.058593 -2.30078,0.488282 -4.75781,0.734376 -7.30859,0.734376 -5.43359,0 -10.875,-1.109376 -15.01172,-2.074219 -1.75,-0.40625 -3.5,-0.839844 -5.25781,-1.285157 -5.34375,-1.339843 -11.39844,-2.859374 -17.36328,-3.292968 -1.06641,-0.07813 -2.13282,-0.117188 -3.17188,-0.117188 -7.64844,0 -14.23828,2.039063 -19.05859,5.898438 l -1.3125,1.046875 1.32031,10.480471 c 0.53906,4.2539 1.34766,8.61719 4.6875,11.15625 2.65625,2.00781 6.06641,2.19531 9.62109,2.21484 l 87.73047,0.48047 z m 0,0"
       style="fill:#bdc7d7;fill-opacity:1;fill-rule:nonzero;stroke:none"
       id="path2158"
       inkscape:connector-curvature="0" />
    <path
       d="m 506.00391,55.792969 c -0.30469,-4.539063 -0.72657,-10.761719 -4.47266,-15.511719 -2.375,-3.007812 -6.24609,-4.894531 -10.10938,-4.921875 -0.0273,0 -0.0547,0 -0.0859,0 -1.1875,0 -2.32032,0.183594 -3.36719,0.527344 -0.84375,-2.390625 -1.87891,-4.726563 -3.16406,-6.964844 C 476.42969,14.3125 459.60547,5.523438 433.37891,2.0625 404.78906,-1.710938 375.70312,-0.300781 346.93359,6.25 c -28.58984,6.511719 -55.4414,17.773438 -79.80859,33.464844 -0.70313,0.453125 -1.35547,0.882812 -1.97266,1.292968 -5.0664,3.34375 -6.26953,4.136719 -11.19922,2.144532 -3.28906,-1.328125 -6.46875,-3.023438 -9.83203,-4.8125 -2.88281,-1.535156 -5.86328,-3.125 -8.93359,-4.46875 C 222.57422,28.347656 209.27344,23.867188 195.66016,20.5625 168.0625,13.859375 139.65234,11.929688 111.20703,14.816406 79.175781,18.074219 47.878906,27.675781 20.703125,42.585938 c -1.15625,0.632812 -1.863281,1.855468 -1.832031,3.171874 l 0.05078,2.605469 C 12.121094,48.117188 5.933594,53.089844 3.140625,58.695312 -0.0117188,65.027344 -0.00390625,72.339844 0,78.214844 L 0.203125,341.48828 C 0.210938,352.89062 0.222656,368.50781 8.777344,380 c 11.460937,15.39844 32.457031,17.53906 53.441406,17.55469 l 389.15234,0.30468 c 0.10938,0 0.21875,0 0.33203,0 16.41797,0 33.36329,-0.99609 44.77735,-12.23046 11.05859,-10.88282 12.61719,-27.09375 13.26953,-42.76954 3.95312,-95.3125 2.69531,-191.89453 -3.74609,-287.066401 z M 7.09375,110.45703 c 0.808594,0.12891 1.625,0.19922 2.445312,0.19922 3.816407,0 7.648438,-1.36719 10.605469,-3.77734 l 4.589844,220.34375 C 18.78125,326.625 12.695312,327.64844 7.261719,330.15234 Z m 476.99609,237.32031 c -33.7539,-16.84375 -74.36328,-23.88672 -114.7539,-19.83984 -30.77344,3.08594 -62.31641,12.57031 -92.38282,27.66797 26.08594,-21.09766 58.67188,-34.78906 91.875,-38.23828 39.51172,-4.10938 81.13672,6.15234 114.21875,28.14843 0.48829,0.32422 1.03516,0.4961 1.58204,0.55469 -0.16407,0.57813 -0.34766,1.14453 -0.53907,1.70703 z M 34.277344,359.14453 c -1.179688,-2.67969 -1.679688,-5.81641 -1.910156,-9.27344 0.109374,-0.0351 0.222656,-0.082 0.328124,-0.14062 34.433594,-19.25 75.058598,-28.13281 114.386718,-25.00781 34.96094,2.77734 69.42969,15.08984 98.41016,34.96484 C 178.88281,330.94922 101.10547,330.58203 34.277344,359.14453 Z M 147.40234,320.69531 c -39.55859,-3.13672 -80.406246,5.63281 -115.218746,24.71094 -0.0039,-0.16016 -0.0078,-0.31641 -0.0078,-0.47656 l -0.203125,-9.64063 C 65.597669,314.83203 110.29298,305.94141 151.6172,311.5 c 36.05078,4.85156 69.89062,20.75781 96.64062,45.1875 -29.65625,-20.46484 -65.0039,-33.14453 -100.85547,-35.99219 z m -1.14453,21.45703 c 29.64844,0.78907 59,6.51563 86.21094,16.6875 -54.36328,-11.03906 -113.86719,-7.65234 -170.5,9.92188 l -2.292969,0.0234 c -8.621093,0.0781 -18.167969,-0.35547 -23.21875,-6.17579 33.9375,-14.39062 71.847659,-21.48046 109.800779,-20.45703 z M 249.72266,367.05469 76.96875,368.625 c 58.17578,-15.55078 118.65625,-16.15625 172.75391,-1.57031 z m 182.72656,5.40625 c -4.01953,5.0625 -4.98828,12.55078 -1.96094,18.3125 L 79.804688,390.5 c 1.292968,-4.83984 1.382812,-9.94922 0.253906,-14.83203 z m -156.03516,-5.65235 c 53.53516,-18.75 113.58203,-19.29687 167.44922,-1.52343 z m 178.26172,-1.66797 c -0.22656,-0.30078 -0.53516,-0.54296 -0.91406,-0.68359 -49.8711,-18.48828 -105.6836,-21.08984 -157.27344,-7.92578 57.45313,-18.14063 121.24219,-16.87109 177.57031,4.41797 -5.33203,3.1289 -11.96093,3.95312 -19.38281,4.1914 z m 23.20313,-7.07031 c -61.06641,-23.77344 -131.07422,-24.16406 -192.7461,-1.96094 27.69141,-13.07421 56.48438,-21.33203 84.60938,-24.14843 39.74609,-3.98438 79.67968,2.96484 112.8164,19.57031 -1.19922,2.44531 -2.71875,4.66406 -4.67968,6.53906 z m 15.90234,-34.52734 -1.98047,-241.38672 c 1.75781,0.820312 3.6875,1.234375 5.62109,1.234375 1.07032,0 2.14063,-0.128906 3.1836,-0.378906 4.71484,82.273441 5.5664,165.410151 2.53125,247.687501 l -9.50781,0.94531 c 0.12109,-2.50781 0.17578,-5.19531 0.15234,-8.10156 z M 491.37109,42.429688 c 1.6875,0.01172 3.58203,0.929687 4.60938,2.230468 2.21094,2.804688 2.65625,6.917969 2.97265,11.609375 0.50782,7.527344 0.97266,15.066407 1.41797,22.609375 -2.74218,0.882813 -5.93359,0.507813 -8.24609,-1.191406 -0.11719,-0.08594 -0.23828,-0.15625 -0.36328,-0.210938 l -0.0937,-11.410156 c -0.0586,-7.121094 -0.125,-15.328125 -1.79688,-23.316406 0.42188,-0.207031 0.92188,-0.324219 1.5,-0.320312 z m -161.67578,-24.109376 8.33203,89.269528 -18.4414,-17.488278 c -0.44532,-0.417968 -1.0586,-0.617187 -1.66016,-0.535156 -0.60547,0.08203 -1.14062,0.433594 -1.45703,0.957032 l -16.10938,26.597652 -2.09765,-86.578121 c 10.17187,-4.789063 20.6914,-8.871094 31.43359,-12.222657 z M 269.04687,46.90625 c 0.59766,-0.394531 1.23047,-0.8125 1.90625,-1.25 7.50391,-4.832031 15.29688,-9.230469 23.31641,-13.1875 l 2.21875,91.66016 c 0.0234,0.89843 0.63281,1.67187 1.5,1.90234 0.17188,0.0469 0.34766,0.0703 0.51953,0.0703 0.69531,0 1.35547,-0.35937 1.73047,-0.97265 L 318.625,94.757812 339.14844,114.22266 c 0.60937,0.57812 1.51562,0.71484 2.27343,0.34765 0.75782,-0.36718 1.20313,-1.16406 1.125,-2.0039 l -8.91015,-95.449222 c 32.125,-9.441407 66.10937,-12.363282 98.8164,-8.046876 23.89454,3.152344 39.01563,10.796876 46.21875,23.367188 5.73438,9.992188 5.83594,22.578125 5.92579,33.679688 l 2.11328,257.480472 c 0.043,5.08203 -0.0391,10.3789 -0.69141,15.41796 -34.26953,-22.46093 -77.17969,-32.91406 -117.92187,-28.67968 -38.14063,3.96093 -75.48438,20.90625 -103.82813,46.86328 L 264.12109,49.867188 c 1.61719,-0.777344 3.19532,-1.820313 4.92578,-2.960938 z M 111.92578,21.851562 c 27.63672,-2.8125 55.25,-0.933593 82.06641,5.578126 13.21484,3.210937 26.12109,7.554687 38.35937,12.917968 2.82031,1.234375 5.55469,2.6875 8.44922,4.230469 3.37891,1.796875 6.87109,3.65625 10.50391,5.125 2.1875,0.886719 4.0625,1.351563 5.75,1.511719 l 0.14843,304.175776 c -28.41796,-27.62109 -65.26953,-45.59765 -104.64453,-50.89843 -41.46484,-5.58203 -86.230465,2.89062 -120.753902,22.6875 L 25.980469,47.761719 C 51.894531,33.890625 81.5625,24.9375 111.92578,21.851562 Z M 9.46875,61.847656 c 1.769531,-3.546875 5.78125,-6.734375 9.605469,-6.382812 l 0.960937,46.175786 c -0.339844,0.11328 -0.652344,0.3164 -0.898437,0.60937 -2.839844,3.42188 -7.707031,5.05078 -12.046875,4.10156 L 7.070312,78.210938 C 7.066406,72.808594 7.0625,66.6875 9.46875,61.847656 Z M 14.449219,375.77734 C 7.832031,366.88672 7.28125,354.98437 7.269531,341.48047 l -0.00391,-6.82031 c 5.332031,-2.89454 11.535156,-4.07813 17.554687,-3.3711 l 0.285157,13.78516 c 0.132812,6.32422 0.3125,14.98828 5.390625,21.44531 6.8125,8.66406 19.132812,9.34375 27.027344,9.34375 0.785156,0 1.53125,-0.008 2.21875,-0.0117 l 16.148437,-0.14844 c 1.296875,4.85157 1.195313,9.9961 -0.300781,14.78907 l -13.363282,-0.008 c -19.140624,-0.0156 -38.179687,-1.80859 -47.777343,-14.70703 z m 477.074221,4.81641 c -9.51563,9.36328 -24.86328,10.19922 -39.82032,10.19922 -0.10546,0 -0.21484,0 -0.32421,0 l -16.85157,-0.0156 c 0.0977,-0.47265 0.0312,-0.97656 -0.23047,-1.42578 -3.17968,-5.39062 -1.29687,-13.40625 3.95313,-16.8125 0.0625,-0.0391 0.11328,-0.0898 0.16797,-0.13281 l 11.625,-0.10547 c 9.0664,-0.0859 21.48437,-0.19922 30.58594,-7.26562 5.80468,-4.50391 11.21875,-11.35157 12.73828,-29.3086 l 9.61718,-0.95312 c -0.0976,2.59765 -0.1875,5.19922 -0.29687,7.79297 -0.59375,14.26171 -1.94141,28.94531 -11.16406,38.02734 z m 0,0"
       style="fill:#000000;fill-opacity:1;fill-rule:nonzero;stroke:none"
       id="path2160"
       inkscape:connector-curvature="0" />
    <path
       d="m 39.914062,108.78906 c 0.04297,0 0.08594,0 0.132813,-0.004 l 22.527344,-1.46875 c 1.113281,-0.0742 1.957031,-1.03516 1.886719,-2.14844 -0.07422,-1.11328 -1.054688,-1.95703 -2.148438,-1.88672 l -12.300781,0.80469 7.191406,-20.550784 c 0.183594,0.05469 0.375,0.08984 0.570313,0.08984 0.109374,0 0.222656,-0.01172 0.335937,-0.02734 l 22.09375,-3.710937 c 3.335937,6.550781 6.308594,13.292969 8.871094,20.203121 l -9.109375,1.51172 c -1.101563,0.17969 -1.84375,1.21875 -1.664063,2.32032 0.164063,0.98828 1.019531,1.6875 1.992188,1.6875 0.109375,0 0.21875,-0.008 0.332031,-0.0273 l 18.347656,-3.03906 c 1.101564,-0.18359 1.843754,-1.22266 1.664064,-2.32422 -0.18359,-1.101562 -1.226564,-1.847656 -2.32422,-1.660156 l -5.207031,0.863281 c -0.01953,-0.105469 -0.04297,-0.207031 -0.07813,-0.308594 -6.253906,-16.992187 -14.84375,-33.015625 -25.535156,-47.625 -0.441407,-0.605469 -1.183594,-0.914062 -1.925782,-0.804687 -0.742187,0.109375 -1.363281,0.621094 -1.609375,1.328125 L 45.890625,103.62891 c -0.08594,0.24218 -0.117187,0.48828 -0.109375,0.73437 l -6,0.39063 c -1.113281,0.0742 -1.957031,1.03515 -1.882812,2.14843 0.07031,1.07032 0.957031,1.88672 2.015624,1.88672 z M 66.484375,57.023438 C 70.78125,63.15625 74.691406,69.539062 78.230469,76.125 l -19.582031,3.285156 z m 0,0"
       style="fill:#000000;fill-opacity:1;fill-rule:nonzero;stroke:none"
       id="path2162"
       inkscape:connector-curvature="0" />
    <path
       d="m 100.55859,71.363281 c 40.62891,-7.984375 83.27344,-6.65625 123.32032,3.84375 0.17187,0.04297 0.34375,0.06641 0.51171,0.06641 0.89844,0 1.71485,-0.601563 1.95313,-1.507813 0.28516,-1.082031 -0.35938,-2.183594 -1.44141,-2.464844 -40.6289,-10.65625 -83.89843,-12.003906 -125.12109,-3.902343 -1.09375,0.21875 -1.808594,1.277343 -1.59375,2.375 0.214844,1.09375 1.28125,1.804687 2.37109,1.589843 z m 0,0"
       style="fill:#000000;fill-opacity:1;fill-rule:nonzero;stroke:none"
       id="path2164"
       inkscape:connector-curvature="0" />
    <path
       d="m 224.51172,87.554688 c -38.36328,-10.039063 -79.4336,-12.671876 -118.76953,-7.601563 -1.10547,0.140625 -1.88672,1.15625 -1.7461,2.261719 0.14454,1.105468 1.15625,1.890625 2.26172,1.746094 38.82422,-5.003907 79.36719,-2.40625 117.23438,7.5 0.16797,0.04297 0.33984,0.06641 0.51172,0.06641 0.89453,0 1.71484,-0.601563 1.95312,-1.511719 0.28125,-1.078125 -0.36328,-2.179687 -1.44531,-2.460937 z m 0,0"
       style="fill:#000000;fill-opacity:1;fill-rule:nonzero;stroke:none"
       id="path2166"
       inkscape:connector-curvature="0" />
    <path
       d="m 106.27734,95.386719 c -1.11328,0.113281 -1.91796,1.105469 -1.80468,2.214843 0.11328,1.109376 1.11328,1.929688 2.21484,1.804688 39.12109,-4.023438 78.36719,-1.503906 116.65234,7.48047 0.15625,0.0391 0.3125,0.0547 0.46485,0.0547 0.91797,0 1.74609,-0.62891 1.96484,-1.5586 0.25391,-1.08593 -0.41797,-2.17187 -1.50391,-2.42968 -38.72656,-9.089849 -78.42578,-11.636724 -117.98828,-7.566411 z m 0,0"
       style="fill:#000000;fill-opacity:1;fill-rule:nonzero;stroke:none"
       id="path2168"
       inkscape:connector-curvature="0" />
    <path
       d="m 54.351562,146.09766 c 57.031248,-9.0625 117.070308,-8.86719 173.628908,0.5664 0.24219,0.043 0.48437,0.0586 0.72656,0.0547 1.26172,-0.0273 2.39844,-0.64844 2.71875,-1.5625 0.37891,-1.08594 -0.55078,-2.17188 -2.07812,-2.42578 -57.38282,-9.57422 -118.30469,-9.76953 -176.167972,-0.57813 -1.535157,0.2461 -2.519532,1.32813 -2.195313,2.41407 0.324219,1.08984 1.835937,1.77343 3.367187,1.53125 z m 0,0"
       style="fill:#000000;fill-opacity:1;fill-rule:nonzero;stroke:none"
       id="path2170"
       inkscape:connector-curvature="0" />
    <path
       d="m 229.10547,158.99219 c -54.1836,-9.01563 -112.03516,-10.55469 -167.296876,-4.44141 -1.554688,0.16797 -2.636719,1.20313 -2.414063,2.30469 0.222657,1.10547 1.664063,1.86328 3.214844,1.68359 54.550785,-6.03125 111.652345,-4.51172 165.132815,4.38672 0.23828,0.043 0.48437,0.0586 0.72265,0.0547 1.26172,-0.0273 2.40235,-0.64844 2.71875,-1.5625 0.375,-1.08594 -0.55468,-2.17188 -2.07812,-2.42578 z m 0,0"
       style="fill:#000000;fill-opacity:1;fill-rule:nonzero;stroke:none"
       id="path2172"
       inkscape:connector-curvature="0" />
    <path
       d="m 62.851562,169.96484 c -1.5625,0.14453 -2.679687,1.15625 -2.496093,2.26172 0.179687,1.10938 1.597656,1.90235 3.152343,1.7461 54.980468,-5.0625 110.261718,-3.58594 164.316408,4.38281 0.21875,0.0312 0.4375,0.0469 0.65234,0.043 1.28906,-0.0273 2.44531,-0.67578 2.73438,-1.61328 0.33593,-1.08985 -0.63282,-2.16016 -2.16407,-2.38672 -54.67187,-8.0586 -110.58984,-9.55078 -166.195308,-4.4336 z m 0,0"
       style="fill:#000000;fill-opacity:1;fill-rule:nonzero;stroke:none"
       id="path2174"
       inkscape:connector-curvature="0" />
    <path
       d="m 54.351562,198.37109 c 57.031248,-9.0625 117.070308,-8.86718 173.628908,0.56641 0.24219,0.0391 0.48437,0.0586 0.72656,0.0508 1.26172,-0.0234 2.39844,-0.64453 2.71875,-1.55859 0.37891,-1.08594 -0.55078,-2.17188 -2.07812,-2.42578 -57.38282,-9.57422 -118.30469,-9.77344 -176.167972,-0.57813 -1.535157,0.24609 -2.519532,1.32422 -2.195313,2.41406 0.324219,1.08985 1.835937,1.77344 3.367187,1.53125 z m 0,0"
       style="fill:#000000;fill-opacity:1;fill-rule:nonzero;stroke:none"
       id="path2176"
       inkscape:connector-curvature="0" />
    <path
       d="m 229.10547,211.26562 c -54.1836,-9.01953 -112.03516,-10.55859 -167.296876,-4.44531 -1.554688,0.17188 -2.636719,1.20703 -2.414063,2.3086 0.222657,1.10156 1.664063,1.85937 3.214844,1.68359 54.550785,-6.03125 111.652345,-4.51563 165.132815,4.38672 0.23828,0.0391 0.48437,0.0586 0.72265,0.0508 1.26172,-0.0234 2.40235,-0.64453 2.71875,-1.55859 0.375,-1.08594 -0.55468,-2.17188 -2.07812,-2.42579 z m 0,0"
       style="fill:#000000;fill-opacity:1;fill-rule:nonzero;stroke:none"
       id="path2178"
       inkscape:connector-curvature="0" />
    <path
       d="m 62.851562,222.23828 c -1.5625,0.14453 -2.679687,1.15625 -2.496093,2.26563 0.179687,1.10546 1.597656,1.89843 3.152343,1.74218 54.980468,-5.05859 110.261718,-3.58593 164.316408,4.38282 0.21875,0.0312 0.4375,0.0469 0.65234,0.043 1.28906,-0.0234 2.44531,-0.67578 2.73438,-1.60937 0.33593,-1.09375 -0.63282,-2.16406 -2.16407,-2.39063 -54.67187,-8.0625 -110.58984,-9.55468 -166.195308,-4.43359 z m 0,0"
       style="fill:#000000;fill-opacity:1;fill-rule:nonzero;stroke:none"
       id="path2180"
       inkscape:connector-curvature="0" />
    <path
       d="m 54.351562,250.64453 c 57.031248,-9.06641 117.070308,-8.86719 173.628908,0.56641 0.24219,0.0391 0.48437,0.0586 0.72656,0.0508 1.26172,-0.0234 2.39844,-0.64453 2.71875,-1.5586 0.37891,-1.08593 -0.55078,-2.17187 -2.07812,-2.42578 -57.38282,-9.57422 -118.30469,-9.77343 -176.167972,-0.57812 -1.535157,0.24609 -2.519532,1.32422 -2.195313,2.41406 0.324219,1.08984 1.835937,1.77344 3.367187,1.53125 z m 0,0"
       style="fill:#000000;fill-opacity:1;fill-rule:nonzero;stroke:none"
       id="path2182"
       inkscape:connector-curvature="0" />
    <path
       d="m 229.10547,263.53906 c -54.1836,-9.01953 -112.03516,-10.55859 -167.296876,-4.44531 -1.554688,0.17187 -2.636719,1.20703 -2.414063,2.30859 0.222657,1.10157 1.664063,1.85938 3.214844,1.6836 54.550785,-6.03125 111.652345,-4.51563 165.132815,4.38672 0.23828,0.0391 0.48437,0.0547 0.72265,0.0508 1.26172,-0.0234 2.40235,-0.64453 2.71875,-1.5586 0.375,-1.08593 -0.55468,-2.17187 -2.07812,-2.42578 z m 0,0"
       style="fill:#000000;fill-opacity:1;fill-rule:nonzero;stroke:none"
       id="path2184"
       inkscape:connector-curvature="0" />
    <path
       d="m 62.851562,274.51172 c -1.5625,0.14062 -2.679687,1.15625 -2.496093,2.26172 0.179687,1.10547 1.597656,1.90234 3.152343,1.74609 54.980468,-5.0625 110.261718,-3.58594 164.316408,4.38281 0.21875,0.0312 0.4375,0.043 0.65234,0.0391 1.28906,-0.0234 2.44531,-0.67188 2.73438,-1.60938 0.33593,-1.08984 -0.63282,-2.16016 -2.16407,-2.38672 -54.67187,-8.0625 -110.58984,-9.55469 -166.195308,-4.43359 z m 0,0"
       style="fill:#000000;fill-opacity:1;fill-rule:nonzero;stroke:none"
       id="path2186"
       inkscape:connector-curvature="0" />
    <path
       d="m 282.73828,146.09375 c 56.9375,-9.63672 116.97266,-10.04688 173.62891,-1.18359 0.24218,0.0391 0.48437,0.0547 0.72265,0.0469 1.26172,-0.0352 2.39453,-0.67187 2.70313,-1.58984 0.36719,-1.08985 -0.57031,-2.16407 -2.09766,-2.40235 -57.48047,-8.99609 -118.39844,-8.57812 -176.16797,1.19922 -1.53125,0.25781 -2.50781,1.34766 -2.17187,2.4336 0.33203,1.08593 1.85156,1.7539 3.38281,1.49609 z m 0,0"
       style="fill:#000000;fill-opacity:1;fill-rule:nonzero;stroke:none"
       id="path2188"
       inkscape:connector-curvature="0" />
    <path
       d="m 457.61328,157.22656 c -54.27344,-8.47265 -112.13672,-9.42578 -167.33594,-2.75781 -1.55078,0.1875 -2.62109,1.23047 -2.39062,2.33203 0.23437,1.09766 1.68359,1.84375 3.23437,1.65234 54.48438,-6.58203 111.59766,-5.64062 165.16797,2.72266 0.23828,0.0352 0.48438,0.0508 0.71875,0.043 1.26172,-0.0352 2.39844,-0.66797 2.70703,-1.58594 0.36719,-1.08984 -0.57422,-2.16797 -2.10156,-2.40625 z m 0,0"
       style="fill:#000000;fill-opacity:1;fill-rule:nonzero;stroke:none"
       id="path2190"
       inkscape:connector-curvature="0" />
    <path
       d="m 291.47656,169.875 c -1.55859,0.15625 -2.66797,1.18359 -2.47265,2.28516 0.1914,1.10546 1.61718,1.88671 3.16796,1.71484 54.92579,-5.61328 110.21875,-4.69531 164.35157,2.72656 0.21875,0.0312 0.4414,0.0391 0.65625,0.0352 1.28906,-0.0391 2.4375,-0.69922 2.71875,-1.64063 0.32422,-1.09375 -0.65235,-2.15234 -2.1875,-2.36328 -54.75391,-7.51172 -110.6836,-8.4375 -166.23438,-2.75781 z m 0,0"
       style="fill:#000000;fill-opacity:1;fill-rule:nonzero;stroke:none"
       id="path2192"
       inkscape:connector-curvature="0" />
    <path
       d="m 283.26562,198.36328 c 56.9375,-9.63672 116.97266,-10.04687 173.625,-1.18359 0.2461,0.0391 0.48829,0.0547 0.72657,0.0469 1.26172,-0.0352 2.39453,-0.67187 2.70312,-1.58594 0.36719,-1.08984 -0.57031,-2.16796 -2.10156,-2.40625 -57.47656,-8.99609 -118.39453,-8.57812 -176.16406,1.19922 -1.53516,0.25782 -2.50782,1.34766 -2.17188,2.4336 0.33203,1.08593 1.85156,1.7539 3.38281,1.49609 z m 0,0"
       style="fill:#000000;fill-opacity:1;fill-rule:nonzero;stroke:none"
       id="path2194"
       inkscape:connector-curvature="0" />
    <path
       d="m 458.13672,209.49609 c -54.26953,-8.47265 -112.13281,-9.42578 -167.33203,-2.75781 -1.55078,0.1875 -2.625,1.23047 -2.39063,2.33203 0.23438,1.10156 1.6836,1.84375 3.23438,1.65235 54.48437,-6.58204 111.59765,-5.64063 165.16406,2.72265 0.24219,0.0352 0.48828,0.0508 0.72266,0.043 1.26171,-0.0352 2.39843,-0.66797 2.70703,-1.58594 0.36328,-1.08984 -0.57422,-2.16797 -2.10547,-2.40625 z m 0,0"
       style="fill:#000000;fill-opacity:1;fill-rule:nonzero;stroke:none"
       id="path2196"
       inkscape:connector-curvature="0" />
    <path
       d="m 292.00391,222.14453 c -1.5586,0.16016 -2.66407,1.18359 -2.47266,2.28906 0.19141,1.10157 1.61719,1.88282 3.16797,1.71094 54.92578,-5.61328 110.22265,-4.69531 164.35156,2.72656 0.21875,0.0312 0.44141,0.043 0.65625,0.0352 1.28906,-0.0391 2.4375,-0.69922 2.71875,-1.63672 0.32813,-1.09766 -0.65234,-2.15625 -2.1875,-2.36719 -54.75391,-7.50781 -110.68359,-8.4375 -166.23437,-2.75781 z m 0,0"
       style="fill:#000000;fill-opacity:1;fill-rule:nonzero;stroke:none"
       id="path2198"
       inkscape:connector-curvature="0" />
    <path
       d="m 283.79297,250.63281 c 56.93359,-9.63672 116.97265,-10.04687 173.625,-1.18359 0.24609,0.0391 0.48828,0.0547 0.72656,0.0469 1.26172,-0.0352 2.39453,-0.67187 2.70313,-1.58593 0.36718,-1.08985 -0.57032,-2.16797 -2.10157,-2.40625 -57.47656,-8.99219 -118.39453,-8.57813 -176.16406,1.19921 -1.53516,0.25782 -2.50781,1.34766 -2.17187,2.4336 0.33203,1.08594 1.85156,1.7539 3.38281,1.49609 z m 0,0"
       style="fill:#000000;fill-opacity:1;fill-rule:nonzero;stroke:none"
       id="path2200"
       inkscape:connector-curvature="0" />
    <path
       d="m 458.66406,261.76562 c -54.26953,-8.47265 -112.13281,-9.42578 -167.33203,-2.75781 -1.55078,0.1875 -2.625,1.23047 -2.39062,2.33203 0.23437,1.10157 1.68359,1.84375 3.23437,1.65235 54.48438,-6.58203 111.59766,-5.64063 165.16406,2.72265 0.24219,0.0391 0.48828,0.0508 0.72266,0.0469 1.26172,-0.0391 2.39844,-0.67188 2.70312,-1.58985 0.36719,-1.08984 -0.57031,-2.16796 -2.10156,-2.40625 z m 0,0"
       style="fill:#000000;fill-opacity:1;fill-rule:nonzero;stroke:none"
       id="path2202"
       inkscape:connector-curvature="0" />
    <path
       d="m 292.53125,274.41406 c -1.5625,0.16016 -2.66797,1.1836 -2.47656,2.28906 0.19531,1.10157 1.62109,1.88282 3.17187,1.71094 54.92578,-5.61328 110.21875,-4.69531 164.35156,2.72656 0.21875,0.0312 0.4375,0.043 0.65235,0.0352 1.28906,-0.0352 2.4375,-0.69922 2.71875,-1.63672 0.32812,-1.09765 -0.65235,-2.15625 -2.1875,-2.36719 -54.75,-7.50781 -110.67969,-8.4375 -166.23047,-2.75781 z m 0,0"
       style="fill:#000000;fill-opacity:1;fill-rule:nonzero;stroke:none"
       id="path2204"
       inkscape:connector-curvature="0" />
    <path
       d="m 359.58594,101.49609 c 0.41406,3.30469 1.10937,8.83204 5.08593,11.85157 3.14454,2.38672 7.25,2.41015 10.25,2.42578 l 86.625,0.47265 c 0.004,0 0.008,0 0.0117,0 0.57032,0 1.11719,-0.23828 1.5,-0.66406 0.38672,-0.42578 0.57032,-1 0.50782,-1.57031 L 459.42578,75.585938 C 459.05859,72.15625 458.89844,68.378906 458.72656,64.371094 458.33984,55.21875 457.94141,45.75 455.01562,38.164062 c -3.11328,-8.0625 -11.54296,-8.652343 -18.3164,-9.125 -0.875,-0.05859 -1.73828,-0.121093 -2.57422,-0.195312 -12.79297,-1.136719 -25.78125,-1.277344 -38.59766,-0.414062 -14.33984,0.964843 -28.64062,3.191406 -42.5039,6.617187 -0.9961,0.242187 -1.64844,1.195313 -1.51953,2.210937 z m 53.15234,-12.472652 c -0.0469,-0.07813 -0.0937,-0.160157 -0.15234,-0.230469 l -7.82422,-9.640625 20.32422,-18.996094 c 0.46875,-0.4375 1.17578,-1.097656 1.65625,-1.144531 0.82812,-0.08594 1.98047,1.445312 2.37109,1.945312 l 16.45313,21.257813 c -2.29688,0.8125 -4.54297,1.773437 -6.75782,2.726562 -3.66015,1.570313 -7.44922,3.199219 -11.2539,4.015625 -4.91797,1.054688 -10.00391,0.804688 -14.81641,0.06641 z M 402.21094,76.007812 391.66406,63.011719 c 2.95703,-3.082031 7.30469,-4.808594 11.56641,-4.488281 4.34375,0.316406 8.46875,2.730468 10.92578,6.320312 z m 4.39843,11.828126 c -0.30468,-0.06641 -0.60937,-0.136719 -0.91015,-0.207032 -1.75,-0.40625 -3.4961,-0.84375 -5.2461,-1.28125 -5.67578,-1.421875 -11.54296,-2.894531 -17.55078,-3.324218 -8.14453,-0.585938 -15.49218,1.039062 -20.99218,4.59375 l -1.8711,-14.847657 16.25781,-18.855469 c 1.03516,-1.199218 1.42188,-1.269531 1.4961,-1.25 0.1914,0.01953 0.57812,0.386719 1.14453,1.082032 z m 52.69922,24.359372 -84.36328,-0.46093 c -3.15234,-0.0156 -5.91406,-0.14844 -7.83203,-1.60157 -2.41797,-1.83984 -3.06641,-5.52343 -3.51953,-9.14062 l -1.10938,-8.816409 c 4.85547,-3.882812 11.9961,-5.710937 20.13282,-5.121093 5.65625,0.402343 11.34765,1.832031 16.85547,3.210937 1.76953,0.441406 3.53906,0.886719 5.3125,1.300781 4.79687,1.117188 10.17187,2.144532 15.68359,2.144532 2.62891,0 5.29297,-0.234376 7.93359,-0.804688 4.19141,-0.898438 8.16016,-2.605469 12.00391,-4.253906 5.37109,-2.308594 10.45312,-4.492188 15.85156,-4.492188 0.008,0 0.0195,0 0.0312,0 z M 395.80078,32.460938 c 12.60547,-0.847657 25.37891,-0.710938 37.96484,0.40625 0.86329,0.07812 1.75,0.140624 2.65235,0.203124 6.5,0.453126 12.64062,0.882813 14.82812,6.546876 2.6875,6.96875 3.07422,16.097656 3.44532,24.929687 0.17187,4.070313 0.33593,7.914063 0.71875,11.472656 l 0.4414,4.113281 c -2.10156,0.03125 -4.14844,0.339844 -6.14844,0.828126 L 432.30859,58.484375 c -0.88281,-1.136719 -2.96484,-3.78125 -5.97265,-3.492187 -1.83594,0.1875 -3.14063,1.40625 -4.00391,2.214843 l -5.18359,4.84375 c -3.17969,-4.304687 -8.28125,-7.164062 -13.625,-7.558593 -5.27344,-0.375 -10.66797,1.648437 -14.4336,5.355468 l -7.01562,-8.644531 c -0.66406,-0.816406 -1.89844,-2.339844 -3.83203,-2.554687 -2.48828,-0.261719 -4.25,1.757812 -5,2.628906 l -13.87891,16.09375 -3.62891,-28.824219 c 13.08985,-3.128906 26.5586,-5.175781 40.06641,-6.085937 z m 0,0"
       style="fill:#000000;fill-opacity:1;fill-rule:nonzero;stroke:none"
       id="path2206"
       inkscape:connector-curvature="0" />
  </g>
</svg>
