<svg xmlns="http://www.w3.org/2000/svg" height="512pt" version="1.1" viewBox="-82 0 512 512.00158" width="512pt">
<g id="surface1">
<path d="M 335.683594 10.105469 C 331.574219 6.640625 325.273438 6.457031 319.707031 6.289062 C 318.65625 6.261719 317.632812 6.222656 316.667969 6.171875 C 305.679688 5.589844 293.910156 5.125 280.699219 4.75 C 265.070312 4.300781 249.160156 4.070312 233.40625 4.070312 C 200.726562 4.070312 167.714844 5.046875 135.28125 6.972656 C 111.34375 8.394531 86.882812 10.390625 62.582031 12.914062 L 59.835938 13.199219 L 67.71875 414.6875 L 67.09375 418.21875 L 70.785156 418.109375 C 101.8125 417.152344 133.398438 416.667969 164.664062 416.667969 C 217.976562 416.667969 271.78125 418.070312 324.597656 420.835938 C 324.679688 420.847656 324.761719 420.859375 324.847656 420.871094 L 326.898438 421.09375 L 327.839844 419.257812 C 332.554688 410.078125 333.519531 397.945312 333.839844 387.289062 L 343.5 67.410156 C 343.566406 65.121094 343.734375 62.375 343.914062 59.402344 C 344.898438 43.367188 346.390625 19.128906 335.683594 10.105469 Z M 326.140625 173.449219 C 323.140625 177.414062 318.480469 179.933594 314.761719 181.679688 C 302.410156 187.445312 292.316406 190.367188 284.75 190.367188 C 278.316406 190.367188 273.902344 188.28125 271.25 183.980469 L 270.277344 182.40625 C 261.675781 168.445312 254.882812 157.417969 241.125 147.992188 C 241.125 147.992188 240.902344 147.851562 240.839844 147.808594 L 238.582031 146.210938 L 221.421875 166.769531 L 223.578125 168.703125 C 228.566406 173.167969 233.0625 178.054688 236.9375 183.21875 C 249.917969 200.550781 257.003906 222.339844 257.421875 246.230469 C 257.800781 268.097656 247.554688 281.46875 226.976562 285.96875 C 225.148438 286.363281 223.308594 286.730469 221.46875 287.085938 L 221.363281 287.109375 C 215.539062 288.257812 210.035156 289.347656 204.757812 291.578125 C 192.953125 296.585938 184.6875 306.191406 175.882812 316.421875 C 169.917969 323.359375 163.75 330.53125 156.382812 336 C 136.054688 351.105469 108.515625 352.101562 86.285156 352.898438 L 86.222656 352.898438 C 86.03125 352.898438 85.847656 352.789062 85.753906 352.625 C 85.652344 352.445312 85.660156 352.238281 85.777344 352.066406 C 102.382812 327.417969 105.3125 293.953125 93.242188 266.800781 C 93.167969 266.636719 93.179688 266.449219 93.28125 266.289062 C 93.371094 266.140625 93.53125 266.050781 93.714844 266.046875 L 139.144531 264.492188 L 137.941406 239.445312 L 89.417969 242.816406 C 89.285156 242.816406 89.144531 242.761719 89.03125 242.660156 C 88.894531 242.539062 88.863281 242.378906 88.859375 242.289062 L 88.859375 242.148438 C 88.53125 228.4375 88.195312 214.257812 90.539062 200.449219 C 93.160156 184.976562 99.066406 171.875 107.621094 162.558594 C 119.292969 149.867188 137.613281 142.589844 157.890625 142.589844 C 163.671875 142.589844 169.550781 143.179688 175.332031 144.34375 L 175.746094 144.4375 C 176.003906 144.5 176.257812 144.558594 176.511719 144.605469 L 179.515625 145.175781 L 180.03125 142.164062 C 180.304688 140.566406 180.578125 139.078125 180.84375 137.628906 L 181.011719 136.726562 C 181.328125 135.007812 181.640625 133.332031 181.941406 131.496094 L 182.46875 128.300781 L 179.242188 128.019531 C 172.074219 127.390625 164.476562 127.085938 156.011719 127.085938 C 150.09375 127.085938 143.871094 127.230469 136.40625 127.542969 C 136.179688 127.542969 135.996094 127.417969 135.910156 127.214844 L 120.5 90.210938 C 119.078125 86.8125 117.46875 82.964844 117.066406 78.941406 C 116.617188 74.417969 117.863281 70.320312 120.492188 67.699219 C 123.121094 65.070312 126.4375 64.519531 128.753906 64.519531 C 131.484375 64.519531 134.277344 65.265625 136.613281 66.621094 C 138.199219 67.542969 139.734375 68.761719 141.175781 70.253906 L 144.210938 73.390625 L 146.050781 69.433594 C 146.863281 67.683594 148.078125 66.183594 149.558594 65.09375 C 151.746094 63.492188 154.625 62.605469 157.671875 62.605469 C 160.308594 62.605469 162.933594 63.253906 165.261719 64.480469 C 168.058594 65.957031 170.640625 68.320312 172.71875 71.308594 L 174.972656 74.550781 L 177.492188 71.511719 C 180.671875 67.675781 185.625 65.292969 190.417969 65.292969 C 191.148438 65.292969 191.875 65.347656 192.582031 65.453125 C 197.734375 66.238281 202.429688 69.863281 204.832031 74.914062 L 206.539062 78.503906 L 209.523438 75.882812 C 212.921875 72.890625 217.441406 71.179688 221.917969 71.179688 C 223.574219 71.179688 225.195312 71.410156 226.738281 71.863281 C 232.363281 73.53125 237 78.210938 238.839844 84.074219 L 240.070312 88.003906 L 243.433594 85.628906 C 246.488281 83.46875 250.210938 82.28125 253.914062 82.28125 C 256.054688 82.28125 258.085938 82.675781 259.953125 83.457031 C 265.097656 85.605469 269.046875 90.828125 270.019531 96.765625 L 270.636719 100.53125 L 274.152344 99.042969 C 275.871094 98.3125 277.789062 97.929688 279.699219 97.929688 C 281.4375 97.929688 283.140625 98.238281 284.746094 98.84375 C 290.035156 100.855469 294.25 105.980469 295.742188 112.214844 C 296.625 115.921875 296.613281 120.035156 295.703125 124.441406 L 295.015625 128.050781 L 298.699219 128.050781 C 304.226562 128.050781 309.414062 131.039062 311.921875 135.667969 C 314.0625 139.621094 314.125 144.753906 312.089844 149.066406 L 310.160156 153.148438 L 314.667969 153.34375 C 321.324219 153.636719 325.785156 155.8125 327.941406 159.8125 C 330.058594 163.75 329.339844 169.230469 326.140625 173.449219 Z M 326.140625 173.449219 " style=" stroke:none;fill-rule:nonzero;fill:rgb(68.627451%,47.45098%,47.45098%);fill-opacity:1;" />
<path d="M 329.933594 460.457031 C 327.746094 459.125 324.96875 458.945312 322.539062 458.945312 C 321.910156 458.945312 321.277344 458.957031 320.640625 458.96875 L 319.546875 458.992188 L 251.941406 459.648438 C 235.46875 459.816406 217.484375 460.03125 195.351562 460.328125 L 195.210938 460.332031 C 179.738281 460.53125 164.28125 460.730469 148.808594 460.886719 L 145.6875 460.921875 L 146.328125 473.582031 L 306.921875 473.449219 C 314.863281 473.449219 324.761719 472.867188 330.824219 468.332031 C 331.890625 467.539062 333.136719 466.238281 333.035156 464.5 C 332.890625 462.53125 331.023438 461.117188 329.933594 460.457031 Z M 329.933594 460.457031 " style=" stroke:none;fill-rule:nonzero;fill:rgb(68.627451%,47.45098%,47.45098%);fill-opacity:1;" />
<path d="M 82.109375 461.308594 L 81.4375 461.3125 C 65.957031 461.3125 56.21875 456.082031 55.386719 447.316406 C 54.738281 440.460938 60.238281 434.890625 65.621094 432.613281 C 70.355469 430.609375 75.480469 430.335938 79.867188 430.335938 C 81.292969 430.335938 82.695312 430.371094 84.054688 430.402344 L 290.988281 434.890625 C 292.59375 434.921875 294.273438 434.960938 296 434.960938 C 303.074219 434.960938 311.195312 434.414062 317.808594 430.375 C 319.410156 429.398438 320.933594 428.214844 322.335938 426.847656 L 327.253906 422.054688 L 320.394531 421.703125 C 268.867188 419.070312 216.371094 417.734375 164.363281 417.734375 C 131.027344 417.734375 97.355469 418.285156 64.28125 419.371094 C 54.476562 419.703125 44.40625 420.609375 38.414062 427.546875 C 33.613281 433.085938 33.183594 439.425781 33.667969 443.753906 C 34.476562 451.191406 38.644531 458.535156 44.539062 462.917969 C 51.726562 468.269531 57.53125 470.128906 65.539062 472.34375 C 65.613281 472.363281 65.675781 472.398438 65.738281 472.445312 L 66.445312 472.992188 L 67.332031 473.0625 C 73.671875 473.566406 80.207031 473.628906 85.191406 473.628906 L 85.652344 473.628906 L 105.476562 473.617188 L 106.664062 461.238281 L 103.347656 461.25 C 96.28125 461.28125 89.207031 461.308594 82.109375 461.308594 Z M 82.109375 461.308594 " style=" stroke:none;fill-rule:nonzero;fill:rgb(68.627451%,47.45098%,47.45098%);fill-opacity:1;" />
<path d="M 37.601562 426.839844 C 41.082031 422.816406 46.097656 420.390625 53.378906 419.210938 L 55.945312 418.796875 L 48.605469 14.417969 L 45.226562 14.921875 C 34.269531 16.554688 20.648438 19.722656 12.480469 29.8125 C 4.03125 40.246094 3.742188 54.625 4.199219 69.679688 L 14.199219 405.019531 C 14.820312 425.875 16.472656 445.6875 29.707031 458.859375 C 31.203125 460.34375 32.871094 461.75 34.675781 463.039062 L 38.777344 458.746094 C 35.367188 454.402344 33.175781 449.121094 32.601562 443.875 C 31.894531 437.433594 33.667969 431.386719 37.601562 426.839844 Z M 37.601562 426.839844 " style=" stroke:none;fill-rule:nonzero;fill:rgb(68.627451%,47.45098%,47.45098%);fill-opacity:1;" />
<path d="M 319.230469 453.664062 C 318.5 452.128906 317.957031 450.480469 317.609375 448.773438 L 317.246094 446.980469 L 317.199219 444.945312 C 317.191406 444.675781 317.183594 444.40625 317.1875 444.167969 C 317.207031 443.640625 317.21875 443.105469 317.230469 442.554688 L 317.230469 442.367188 C 317.269531 440.542969 317.3125 438.660156 317.554688 436.800781 L 318.199219 431.882812 L 313.546875 433.59375 C 307.679688 435.75 301.179688 436.027344 296.175781 436.027344 C 294.382812 436.027344 292.636719 435.988281 290.96875 435.953125 L 144.261719 432.769531 L 144.867188 444.785156 L 144.863281 444.785156 L 145.632812 459.863281 L 148.515625 459.832031 C 164.070312 459.660156 179.613281 459.460938 195.167969 459.261719 L 196.863281 459.242188 C 214.914062 459.007812 233.582031 458.761719 251.929688 458.582031 L 321.242188 457.90625 Z M 319.230469 453.664062 " style=" stroke:none;fill-rule:nonzero;fill:rgb(100%,82.352941%,73.333333%);fill-opacity:1;" />
<path d="M 106.765625 460.167969 L 108.515625 442.058594 L 108.503906 442.058594 L 109.480469 432.019531 L 84.039062 431.46875 C 82.644531 431.441406 81.238281 431.40625 79.835938 431.40625 C 75.570312 431.40625 70.59375 431.667969 66.035156 433.597656 C 61.007812 435.71875 55.863281 440.886719 56.457031 447.210938 C 56.828125 451.128906 60.042969 460.242188 81.839844 460.242188 L 82.101562 460.238281 C 89.445312 460.238281 96.75 460.210938 104.054688 460.179688 Z M 106.765625 460.167969 " style=" stroke:none;fill-rule:nonzero;fill:rgb(100%,82.352941%,73.333333%);fill-opacity:1;" />
<path d="M 272.15625 183.425781 C 273.804688 186.089844 277.355469 189.269531 284.917969 189.269531 C 287.796875 189.269531 291.121094 188.8125 294.804688 187.914062 L 298.445312 187.027344 L 296.742188 183.597656 C 291.804688 166.3125 278.289062 150.75 256.566406 137.335938 C 227.683594 119.5 192.707031 109.679688 158.078125 109.679688 C 150.160156 109.679688 142.226562 110.191406 134.5 111.203125 L 130.617188 111.714844 L 136.753906 126.457031 L 138.835938 126.378906 C 145.316406 126.128906 151.023438 126.007812 156.289062 126.007812 C 181.175781 126.007812 200.628906 128.808594 217.507812 134.816406 C 226.1875 137.90625 234.335938 142.042969 241.726562 147.117188 C 255.660156 156.65625 262.851562 168.316406 271.175781 181.816406 Z M 272.15625 183.425781 " style=" stroke:none;fill-rule:nonzero;fill:rgb(96.862745%,70.196078%,43.529412%);fill-opacity:1;" />
<path d="M 102.050781 343.839844 C 120.691406 343.839844 139.3125 336.929688 153.140625 324.882812 C 161.640625 317.488281 168.433594 308.265625 175 299.34375 L 175.117188 299.1875 C 181.179688 290.933594 187.441406 282.398438 195.078125 275.332031 C 209.90625 261.609375 230.054688 253.738281 250.351562 253.738281 C 251.277344 253.738281 252.207031 253.753906 253.136719 253.789062 L 256.070312 253.890625 L 256.234375 250.957031 C 256.296875 249.828125 256.328125 248.664062 256.328125 247.488281 L 256.328125 244.632812 L 253.476562 244.492188 C 252.015625 244.421875 250.527344 244.386719 249.058594 244.386719 C 219.789062 244.386719 191.53125 258.039062 173.464844 280.910156 C 169.875 285.460938 166.664062 290.394531 163.507812 295.234375 C 158.957031 302.203125 154.25 309.410156 148.363281 315.382812 C 136.792969 327.140625 119.855469 334.160156 103.050781 334.160156 C 101.585938 334.160156 100.074219 334.097656 98.433594 333.976562 L 96.230469 333.8125 L 95.417969 335.867188 C 94.925781 337.117188 94.4375 338.277344 93.929688 339.417969 L 92.191406 343.3125 L 96.445312 343.628906 C 98.292969 343.769531 100.179688 343.839844 102.050781 343.839844 Z M 102.050781 343.839844 " style=" stroke:none;fill-rule:nonzero;fill:rgb(96.862745%,70.196078%,43.529412%);fill-opacity:1;" />
<path d="M 218.3125 164.289062 L 220.601562 166.085938 L 237.648438 145.65625 L 234.5625 143.871094 C 229.058594 140.6875 223.199219 137.980469 217.144531 135.824219 C 207.828125 132.507812 197.769531 130.199219 186.394531 128.773438 L 183.511719 128.410156 L 183.058594 131.28125 C 182.726562 133.367188 182.378906 135.238281 181.992188 137.300781 L 181.886719 137.855469 C 181.578125 139.515625 181.28125 141.128906 180.992188 142.902344 L 180.558594 145.535156 L 183.121094 146.273438 C 195.707031 149.886719 207.871094 156.117188 218.3125 164.289062 Z M 218.3125 164.289062 " style=" stroke:none;fill-rule:nonzero;fill:rgb(96.862745%,70.196078%,43.529412%);fill-opacity:1;" />
<path d="M 139.71875 265.542969 L 94.648438 267.085938 L 96.113281 270.992188 C 97.398438 274.425781 98.492188 278.074219 99.359375 281.835938 L 99.964844 284.457031 L 162.863281 276.957031 L 161.890625 234.484375 C 161.808594 230.851562 161.515625 227.097656 158.964844 224.589844 C 156.589844 222.253906 153.15625 221.984375 150.777344 221.984375 C 149.832031 221.984375 148.902344 222.03125 148.109375 222.074219 L 89.691406 225.574219 L 89.699219 228.410156 C 89.710938 231.855469 89.773438 235.324219 89.839844 238.5625 L 89.90625 241.710938 L 138.453125 238.328125 C 138.574219 238.328125 138.6875 238.375 138.8125 238.488281 C 138.945312 238.601562 138.980469 238.753906 138.984375 238.839844 L 140.234375 264.996094 C 140.242188 265.121094 140.191406 265.261719 140.085938 265.371094 C 139.992188 265.480469 139.867188 265.535156 139.71875 265.542969 Z M 139.71875 265.542969 " style=" stroke:none;fill-rule:nonzero;fill:rgb(96.862745%,70.196078%,43.529412%);fill-opacity:1;" />
<path d="M 106.441406 474.789062 L 103.367188 506.683594 L 108.789062 502.660156 C 114.355469 498.527344 119.152344 496.601562 123.882812 496.601562 C 124.308594 496.601562 124.738281 496.617188 125.183594 496.652344 C 130.347656 497.03125 134.640625 499.613281 139.175781 502.34375 C 140.191406 502.960938 141.195312 503.566406 142.191406 504.128906 L 146.945312 506.824219 L 143.339844 435.835938 L 143.339844 432.753906 L 110.550781 432.039062 L 106.5625 473.539062 L 106.648438 473.972656 C 106.664062 474.046875 106.671875 474.109375 106.671875 474.148438 C 106.671875 474.257812 106.648438 474.320312 106.636719 474.34375 Z M 106.441406 474.789062 " style=" stroke:none;fill-rule:nonzero;fill:rgb(92.941176%,42.745098%,40%);fill-opacity:1;" />
<path d="M 313.25 154.414062 C 311.425781 154.414062 309.371094 154.542969 307.09375 154.804688 C 306.878906 154.804688 306.671875 154.65625 306.601562 154.464844 C 306.511719 154.234375 306.589844 153.972656 306.796875 153.828125 C 312.203125 150.054688 314.117188 141.96875 310.976562 136.167969 C 308.695312 131.960938 303.734375 129.136719 298.632812 129.136719 C 296.964844 129.136719 295.375 129.4375 293.910156 130.027344 C 293.84375 130.054688 293.773438 130.066406 293.703125 130.066406 C 293.625 130.066406 293.476562 130.046875 293.328125 129.90625 C 293.179688 129.765625 293.132812 129.550781 293.207031 129.347656 C 295.375 123.277344 295.890625 117.441406 294.699219 112.472656 C 293.292969 106.574219 289.332031 101.734375 284.363281 99.84375 C 282.910156 99.292969 281.363281 99.015625 279.761719 99.015625 C 275.464844 99.015625 271.53125 101.007812 269.496094 104.214844 C 269.351562 104.445312 269.117188 104.460938 269.050781 104.460938 C 268.976562 104.460938 268.898438 104.445312 268.828125 104.410156 C 268.578125 104.292969 268.453125 104.019531 268.53125 103.765625 C 270.867188 96.308594 266.753906 87.464844 259.550781 84.453125 C 257.785156 83.710938 255.871094 83.335938 253.855469 83.335938 C 247.890625 83.335938 242.113281 86.660156 239.480469 91.613281 C 239.367188 91.828125 239.148438 91.902344 239 91.902344 C 238.945312 91.902344 238.894531 91.890625 238.855469 91.878906 C 238.601562 91.800781 238.445312 91.558594 238.476562 91.296875 C 239.460938 83.40625 234.058594 75.152344 226.429688 72.890625 C 224.988281 72.464844 223.476562 72.25 221.933594 72.25 C 215.355469 72.25 209.078125 76.078125 206.308594 81.78125 C 206.203125 82 205.992188 82.078125 205.832031 82.078125 C 205.789062 82.078125 205.746094 82.074219 205.707031 82.066406 C 205.472656 82.007812 205.300781 81.792969 205.300781 81.546875 C 205.328125 74.332031 199.546875 67.589844 192.417969 66.511719 C 191.757812 66.410156 191.074219 66.359375 190.390625 66.359375 C 183.859375 66.359375 177.527344 70.949219 175.65625 77.035156 C 175.585938 77.257812 175.386719 77.410156 175.105469 77.421875 C 174.921875 77.421875 174.734375 77.289062 174.652344 77.085938 C 172.429688 71.753906 168.917969 67.613281 164.757812 65.421875 C 162.574219 64.277344 160.121094 63.671875 157.660156 63.671875 C 154.855469 63.671875 152.203125 64.484375 150.183594 65.960938 C 146.597656 68.597656 145.019531 73.605469 146.507812 77.613281 L 146.585938 77.820312 L 146.691406 78.015625 C 146.953125 78.492188 147.207031 78.957031 147.445312 79.40625 C 147.578125 79.65625 147.492188 79.96875 147.253906 80.113281 C 147.167969 80.164062 147.074219 80.191406 146.976562 80.191406 C 146.890625 80.191406 146.675781 80.167969 146.546875 79.984375 C 146.226562 79.515625 145.949219 79.011719 145.71875 78.488281 L 145.65625 78.347656 L 145.582031 78.214844 C 143.734375 74.933594 140.734375 70.257812 136.074219 67.539062 C 133.910156 66.289062 131.324219 65.597656 128.789062 65.597656 C 125.769531 65.597656 123.089844 66.613281 121.238281 68.453125 C 118.882812 70.8125 117.714844 74.691406 118.125 78.835938 C 118.503906 82.613281 119.988281 86.195312 121.425781 89.664062 L 131.398438 113.601562 L 133.683594 113.289062 C 137.222656 112.808594 140.507812 112.453125 143.71875 112.195312 L 145.945312 112.019531 L 147.71875 111.921875 C 150.496094 111.765625 153.269531 111.675781 156.191406 111.648438 L 158.347656 111.625 L 160.164062 111.648438 C 164.285156 111.695312 168.398438 111.878906 172.386719 112.1875 L 174.300781 112.335938 L 176.351562 112.539062 C 179.28125 112.832031 182.15625 113.183594 184.898438 113.585938 L 187.230469 113.925781 L 188.832031 114.195312 C 192.640625 114.835938 196.394531 115.578125 199.992188 116.402344 L 202.054688 116.875 L 203.859375 117.328125 C 206.847656 118.074219 209.953125 118.941406 213.089844 119.90625 L 214.933594 120.46875 L 216.90625 121.117188 C 219.964844 122.117188 223.023438 123.210938 225.996094 124.363281 L 227.445312 124.925781 L 229.75 125.871094 C 232.890625 127.160156 236.0625 128.574219 239.179688 130.078125 L 240.988281 130.949219 L 242.804688 131.871094 C 245.585938 133.28125 248.382812 134.796875 251.109375 136.375 L 252.566406 137.214844 L 255.539062 139.011719 C 257.753906 140.371094 259.96875 141.832031 262.316406 143.464844 L 263.832031 144.523438 L 265.550781 145.800781 C 268.089844 147.695312 270.457031 149.597656 272.585938 151.460938 L 274.101562 152.789062 L 275.519531 154.132812 C 277.410156 155.925781 279.191406 157.757812 280.8125 159.578125 L 282.097656 161.023438 L 283.328125 162.546875 C 284.8125 164.390625 286.226562 166.328125 287.523438 168.308594 L 288.539062 169.859375 L 289.535156 171.609375 C 291.886719 175.742188 293.691406 179.996094 294.882812 184.214844 L 295.125 187.929688 L 298.75 186.824219 C 303.460938 185.386719 308.691406 183.328125 314.300781 180.707031 C 318.121094 178.925781 322.417969 176.59375 325.296875 172.796875 C 328.238281 168.910156 328.917969 163.894531 326.996094 160.316406 C 324.855469 156.34375 320.363281 154.414062 313.25 154.414062 Z M 313.25 154.414062 " style=" stroke:none;fill-rule:nonzero;fill:rgb(97.647059%,84.705882%,53.72549%);fill-opacity:1;" />
<path d="M 250.316406 251.78125 C 229.558594 251.78125 208.941406 259.835938 193.742188 273.886719 C 186 281.0625 179.664062 289.683594 173.535156 298.023438 C 167 306.910156 160.25 316.097656 151.851562 323.40625 C 138.355469 335.164062 120.1875 341.910156 102.011719 341.910156 C 99.816406 341.910156 97.5 341.792969 95.128906 341.5625 L 93.066406 341.363281 L 92.148438 343.222656 C 91.507812 344.523438 90.820312 345.824219 90.101562 347.085938 L 87.417969 351.8125 L 92.847656 351.566406 C 119.660156 350.351562 139.535156 347.175781 155.746094 335.136719 C 163.007812 329.753906 169.132812 322.632812 175.101562 315.6875 L 175.171875 315.605469 C 183.601562 305.816406 192.316406 295.695312 204.351562 290.597656 C 209.761719 288.296875 215.605469 287.152344 221.261719 286.039062 L 222.023438 285.890625 C 223.601562 285.578125 225.179688 285.265625 226.730469 284.917969 C 243.734375 281.203125 253.515625 271.21875 255.800781 255.242188 L 256.273438 251.925781 L 252.925781 251.820312 C 252.054688 251.792969 251.1875 251.78125 250.316406 251.78125 Z M 250.316406 251.78125 " style=" stroke:none;fill-rule:nonzero;fill:rgb(97.647059%,84.705882%,53.72549%);fill-opacity:1;" />
<path d="M 236.082031 183.859375 C 221.390625 164.253906 199.179688 150.234375 175.152344 145.398438 C 169.265625 144.214844 163.394531 143.617188 157.703125 143.617188 C 138.15625 143.617188 119.726562 150.972656 108.414062 163.289062 C 99.996094 172.4375 94.179688 185.347656 91.59375 200.628906 C 90.851562 204.996094 90.34375 209.601562 90.046875 214.703125 L 89.96875 216.027344 L 89.945312 216.03125 L 89.914062 216.964844 L 89.851562 217.992188 L 89.878906 217.992188 L 89.851562 218.828125 C 89.789062 220.660156 89.742188 222.484375 89.71875 224.3125 L 89.683594 227.535156 L 148.230469 224.035156 C 149.25 223.972656 150.023438 223.945312 150.742188 223.945312 C 154.039062 223.945312 156.152344 224.574219 157.589844 225.988281 C 159.613281 227.976562 159.851562 231.164062 159.933594 234.519531 L 159.960938 236.027344 L 163.980469 236.222656 L 160.707031 264.371094 L 160.617188 264.59375 L 160.859375 275.222656 L 99.582031 282.527344 L 100.160156 285.671875 C 103.007812 301.105469 101.847656 317.140625 96.800781 332.046875 L 95.535156 335.777344 L 99.46875 336.003906 C 100.660156 336.070312 101.875 336.105469 103.078125 336.105469 C 120.390625 336.105469 137.839844 328.875 149.757812 316.761719 C 155.824219 310.605469 160.585938 303.292969 165.191406 296.230469 L 165.28125 296.089844 C 168.347656 291.40625 171.511719 286.558594 175.015625 282.125 C 192.699219 259.726562 220.394531 246.355469 249.109375 246.355469 C 250.441406 246.355469 251.789062 246.386719 253.117188 246.445312 L 256.382812 246.589844 L 256.25 243.324219 C 255.332031 220.8125 248.359375 200.25 236.082031 183.859375 Z M 236.082031 183.859375 " style=" stroke:none;fill-rule:nonzero;fill:rgb(97.647059%,84.705882%,53.72549%);fill-opacity:1;" />
<path d="M 61.796875 12.996094 L 58.539062 13.347656 L 53.253906 13.90625 C 52.15625 14.027344 51.058594 14.164062 49.941406 14.296875 L 46.652344 14.699219 L 53.988281 419.03125 L 57.214844 418.726562 C 59.234375 418.535156 61.46875 418.402344 64.253906 418.308594 L 70.550781 418.101562 L 69.675781 414.640625 Z M 61.796875 12.996094 " style=" stroke:none;fill-rule:nonzero;fill:rgb(97.647059%,84.705882%,53.72549%);fill-opacity:1;" />
<path d="M 338.308594 6.996094 C 333.113281 2.621094 325.75 2.398438 319.832031 2.222656 C 318.816406 2.191406 317.828125 2.160156 316.890625 2.113281 C 306.0625 1.535156 294.265625 1.066406 280.816406 0.679688 C 232.425781 -0.714844 183.382812 0.0390625 135.042969 2.914062 C 107.6875 4.539062 80.019531 6.878906 52.8125 9.867188 C 37.1875 11.582031 19.652344 14.484375 9.320312 27.25 C 0.00390625 38.753906 -0.34375 53.941406 0.132812 69.796875 L 10.136719 405.140625 C 10.757812 425.988281 12.558594 447.53125 26.828125 461.742188 C 41.554688 476.402344 63.703125 477.703125 85.195312 477.703125 C 85.347656 477.703125 85.5 477.703125 85.65625 477.703125 L 102.074219 477.691406 L 99.148438 508.128906 C 99.007812 509.578125 99.773438 510.964844 101.074219 511.621094 C 101.578125 511.875 102.125 512 102.664062 512 C 103.519531 512 104.367188 511.691406 105.03125 511.09375 C 111.195312 505.554688 117.808594 500.21875 124.886719 500.707031 C 129.070312 501.015625 132.964844 503.359375 137.082031 505.839844 C 139.972656 507.578125 142.957031 509.375 146.261719 510.613281 C 147.375 511.03125 148.625 510.859375 149.589844 510.15625 C 150.550781 509.453125 151.09375 508.3125 151.03125 507.125 L 149.539062 477.652344 L 306.933594 477.523438 C 315.507812 477.515625 326.246094 476.835938 333.265625 471.589844 C 335.867188 469.648438 337.230469 467.089844 337.101562 464.390625 C 336.964844 461.507812 335.171875 458.878906 332.050781 456.980469 C 329.753906 455.578125 327.195312 455.09375 324.746094 454.945312 C 322.417969 451.949219 321.144531 448.074219 321.261719 444.28125 C 321.28125 443.710938 321.289062 443.128906 321.300781 442.535156 C 321.371094 438.863281 321.445312 434.707031 323.332031 432.605469 C 323.84375 432.042969 324.125 431.359375 324.207031 430.65625 C 335.324219 420.6875 337.429688 403.40625 337.914062 387.417969 L 347.566406 67.53125 C 347.636719 65.292969 347.804688 62.554688 347.980469 59.65625 C 349.011719 42.800781 350.570312 17.328125 338.308594 6.996094 Z M 53.582031 16.890625 C 55.339844 16.699219 57.097656 16.515625 58.855469 16.332031 L 66.683594 414.851562 C 66.683594 414.980469 66.703125 415.109375 66.726562 415.230469 C 65.871094 415.257812 65.011719 415.28125 64.152344 415.308594 C 61.789062 415.386719 59.359375 415.507812 56.933594 415.742188 L 49.703125 17.347656 C 51.007812 17.1875 52.304688 17.035156 53.582031 16.890625 Z M 17.203125 404.929688 L 7.195312 69.585938 C 6.765625 55.109375 7.023438 41.320312 14.8125 31.695312 C 21.878906 22.96875 33.789062 19.664062 45.675781 17.894531 L 52.902344 416.253906 C 46.230469 417.328125 39.871094 419.632812 35.332031 424.878906 C 30.851562 430.0625 28.820312 436.925781 29.621094 444.207031 C 30.261719 450.074219 32.734375 455.898438 36.421875 460.597656 C 34.796875 459.445312 33.257812 458.164062 31.816406 456.730469 C 19.378906 444.34375 17.804688 425.160156 17.203125 404.929688 Z M 85.648438 470.632812 C 85.492188 470.632812 85.34375 470.632812 85.1875 470.632812 C 79.292969 470.632812 73.351562 470.53125 67.574219 470.066406 C 67.226562 469.796875 66.820312 469.585938 66.371094 469.460938 C 58.421875 467.257812 53.105469 465.554688 46.324219 460.511719 C 41.078125 456.613281 37.371094 450.066406 36.644531 443.433594 C 36.234375 439.679688 36.597656 434.21875 40.675781 429.503906 C 45.890625 423.472656 55.246094 422.675781 64.382812 422.375 C 149.296875 419.574219 235.355469 420.363281 320.242188 424.699219 C 319.054688 425.863281 317.730469 426.90625 316.253906 427.804688 C 308.945312 432.273438 299.023438 432.058594 291.050781 431.886719 L 84.117188 427.398438 C 77.9375 427.261719 70.917969 427.113281 64.445312 429.847656 C 58.089844 432.535156 51.609375 439.238281 52.402344 447.59375 C 53.410156 458.230469 64.496094 464.484375 82.136719 464.304688 C 89.210938 464.304688 96.285156 464.28125 103.359375 464.25 L 102.746094 470.621094 Z M 314.230469 442.402344 C 314.21875 442.964844 314.207031 443.519531 314.195312 444.058594 C 314.183594 444.46875 314.203125 444.878906 314.207031 445.292969 C 312.441406 446.398438 315.789062 454.960938 316.523438 454.953125 C 316.519531 454.953125 251.898438 455.582031 251.898438 455.582031 C 233.035156 455.765625 213.851562 456.015625 195.300781 456.257812 C 179.695312 456.460938 164.089844 456.660156 148.480469 456.828125 C 148.128906 449.832031 147.773438 442.835938 147.417969 435.84375 L 290.898438 438.953125 C 298.105469 439.113281 306.734375 439.296875 314.578125 436.414062 C 314.308594 438.46875 314.265625 440.527344 314.230469 442.402344 Z M 105.363281 441.003906 C 104.804688 447.015625 104.199219 455.570312 104.042969 457.175781 C 96.738281 457.210938 89.4375 457.234375 82.105469 457.234375 C 78.472656 457.257812 60.394531 456.941406 59.441406 446.925781 C 59.007812 442.328125 63.015625 438.128906 67.199219 436.359375 C 72.277344 434.210938 78.21875 434.339844 83.964844 434.464844 C 83.964844 434.464844 106.164062 434.945312 106.179688 434.945312 C 105.988281 434.941406 105.683594 437.554688 105.363281 441.003906 Z M 140.730469 499.785156 C 136.078125 496.984375 131.269531 494.085938 125.402344 493.65625 C 118.53125 493.140625 112.433594 496.222656 107.003906 500.253906 L 109.378906 475.5625 C 109.566406 475.128906 109.671875 474.652344 109.671875 474.152344 C 109.671875 473.890625 109.640625 473.636719 109.585938 473.390625 L 113.265625 435.101562 L 140.335938 435.691406 C 140.335938 435.699219 140.332031 435.710938 140.335938 435.71875 L 143.667969 501.523438 C 142.699219 500.96875 141.726562 500.382812 140.730469 499.785156 Z M 330.039062 464.722656 C 330.046875 464.890625 329.78125 465.367188 329.03125 465.925781 C 323.679688 469.925781 314.40625 470.445312 306.925781 470.453125 L 149.179688 470.582031 L 148.839844 463.890625 C 164.355469 463.726562 179.875 463.527344 195.390625 463.324219 C 213.9375 463.082031 233.113281 462.835938 251.96875 462.652344 L 319.371094 461.996094 C 319.8125 461.988281 320.261719 461.980469 320.714844 461.972656 C 323.535156 461.910156 326.46875 461.855469 328.371094 463.011719 C 329.5625 463.738281 330.023438 464.445312 330.039062 464.722656 Z M 340.921875 59.222656 C 340.742188 62.179688 340.570312 64.972656 340.5 67.316406 L 330.84375 387.207031 C 330.507812 398.445312 329.4375 409.574219 325.167969 417.890625 C 325.082031 417.882812 325 417.859375 324.914062 417.855469 C 240.609375 413.429688 155.121094 412.515625 70.695312 415.113281 C 70.710938 415 70.726562 414.890625 70.722656 414.773438 L 62.890625 15.902344 C 86.96875 13.398438 111.335938 11.40625 135.464844 9.96875 C 183.597656 7.105469 232.429688 6.359375 280.613281 7.746094 C 294.003906 8.132812 305.746094 8.597656 316.515625 9.171875 C 317.507812 9.222656 318.550781 9.257812 319.621094 9.289062 C 324.695312 9.441406 330.441406 9.613281 333.753906 12.402344 C 343.296875 20.445312 341.808594 44.71875 340.921875 59.222656 Z M 340.921875 59.222656 " style=" stroke:none;fill-rule:nonzero;fill:rgb(0%,0%,0%);fill-opacity:1;" />
<path d="M 314.800781 150.355469 C 317.167969 145.328125 317.257812 139.226562 314.558594 134.238281 C 311.449219 128.5 305.089844 125.050781 298.699219 125.050781 C 298.679688 125.050781 298.660156 125.050781 298.644531 125.050781 C 299.636719 120.261719 299.648438 115.664062 298.660156 111.523438 C 296.945312 104.335938 292.019531 98.40625 285.808594 96.042969 C 281.550781 94.425781 276.898438 94.617188 272.980469 96.28125 C 271.882812 89.570312 267.445312 83.339844 261.113281 80.695312 C 254.785156 78.046875 247.25 79.261719 241.703125 83.183594 C 239.628906 76.578125 234.367188 71 227.589844 68.996094 C 220.597656 66.929688 212.902344 68.921875 207.539062 73.628906 C 204.820312 67.910156 199.34375 63.449219 193.03125 62.488281 C 186.371094 61.480469 179.445312 64.460938 175.179688 69.597656 C 172.835938 66.222656 169.925781 63.550781 166.660156 61.832031 C 160.488281 58.582031 152.90625 58.921875 147.78125 62.679688 C 145.824219 64.117188 144.324219 66.039062 143.332031 68.171875 C 141.820312 66.609375 140.097656 65.183594 138.121094 64.03125 C 132.40625 60.707031 123.785156 60.171875 118.367188 65.582031 C 115.101562 68.839844 113.539062 73.820312 114.078125 79.246094 C 114.523438 83.671875 116.226562 87.761719 117.730469 91.375 L 133.140625 128.371094 C 133.710938 129.738281 135.0625 130.59375 136.550781 130.542969 C 150.480469 129.964844 164.824219 129.765625 178.980469 131.011719 C 178.664062 132.957031 178.335938 134.71875 177.992188 136.554688 C 177.6875 138.179688 177.375 139.851562 177.074219 141.664062 C 176.699219 141.585938 176.328125 141.488281 175.953125 141.414062 C 148.371094 135.871094 121.347656 143.199219 105.414062 160.53125 C 96.464844 170.265625 90.300781 183.898438 87.578125 199.953125 C 85.183594 214.089844 85.53125 228.464844 85.863281 242.367188 C 85.886719 243.332031 86.304688 244.246094 87.019531 244.894531 C 87.730469 245.546875 88.6875 245.875 89.640625 245.804688 L 135.089844 242.648438 L 136 261.597656 L 93.605469 263.050781 C 92.429688 263.089844 91.351562 263.710938 90.726562 264.707031 C 90.105469 265.703125 90.015625 266.945312 90.492188 268.019531 C 102.160156 294.25 99.328125 326.582031 83.285156 350.390625 C 82.539062 351.492188 82.480469 352.917969 83.125 354.078125 C 83.746094 355.203125 84.933594 355.898438 86.214844 355.898438 C 86.257812 355.898438 86.296875 355.898438 86.339844 355.898438 C 108.929688 355.09375 137.046875 354.097656 158.167969 338.410156 C 165.8125 332.734375 172.105469 325.417969 178.191406 318.339844 C 186.710938 308.4375 194.753906 299.082031 205.929688 294.347656 C 210.949219 292.21875 216.339844 291.160156 222.046875 290.035156 C 223.902344 289.671875 225.761719 289.304688 227.605469 288.902344 C 249.472656 284.117188 260.816406 269.347656 260.414062 246.179688 C 259.988281 221.652344 252.699219 199.261719 239.335938 181.421875 C 235.269531 175.996094 230.640625 171 225.582031 166.46875 L 239.105469 150.261719 C 239.210938 150.332031 239.320312 150.398438 239.421875 150.46875 C 252.675781 159.546875 259.328125 170.359375 267.757812 184.039062 L 268.695312 185.566406 C 271.90625 190.773438 277.273438 193.375 284.75 193.375 C 292.769531 193.375 303.214844 190.382812 316.023438 184.398438 C 320.050781 182.515625 325.109375 179.78125 328.527344 175.265625 C 332.421875 170.128906 333.246094 163.347656 330.574219 158.394531 C 327.269531 152.242188 320.511719 150.597656 314.800781 150.355469 Z M 162.929688 234.457031 C 162.839844 230.613281 162.519531 226.625 159.6875 223.84375 C 156.585938 220.800781 152.058594 220.804688 148.054688 221.039062 L 92.71875 224.351562 C 92.738281 222.542969 92.785156 220.734375 92.851562 218.925781 L 151.464844 216.859375 C 155.441406 216.71875 159.894531 216.792969 162.214844 219.425781 C 164.394531 221.902344 164.132812 225.921875 163.679688 229.828125 L 162.964844 235.972656 Z M 139.824219 268.539062 C 140.769531 268.507812 141.660156 268.097656 142.304688 267.402344 C 142.945312 266.707031 143.277344 265.785156 143.234375 264.839844 L 141.980469 238.699219 C 141.933594 237.75 141.507812 236.859375 140.796875 236.230469 C 140.089844 235.597656 139.15625 235.273438 138.203125 235.34375 L 92.847656 238.496094 C 92.773438 235.148438 92.714844 231.777344 92.707031 228.398438 L 148.296875 225.074219 C 151.578125 224.878906 154.9375 224.84375 156.855469 226.726562 C 158.609375 228.449219 158.820312 231.410156 158.890625 234.550781 L 159.800781 274.304688 L 102.28125 281.160156 C 101.402344 277.351562 100.285156 273.597656 98.917969 269.941406 Z M 253.242188 250.789062 C 231.15625 250.015625 209.257812 258.121094 193.039062 273.128906 C 185.234375 280.351562 178.863281 289.023438 172.699219 297.40625 C 166.195312 306.25 159.472656 315.394531 151.167969 322.625 C 136.417969 335.46875 116.191406 342.109375 96.675781 340.640625 C 97.210938 339.429688 97.726562 338.207031 98.207031 336.96875 C 99.816406 337.09375 101.429688 337.164062 103.046875 337.164062 C 120.585938 337.164062 138.203125 329.988281 150.503906 317.492188 C 156.625 311.277344 161.425781 303.917969 166.066406 296.796875 C 169.140625 292.085938 172.320312 287.210938 175.828125 282.773438 C 194.132812 259.585938 223.816406 246.058594 253.335938 247.492188 C 253.332031 248.617188 253.304688 249.71875 253.242188 250.789062 Z M 226.09375 281.992188 C 224.300781 282.386719 222.492188 282.742188 220.683594 283.097656 C 214.875 284.238281 208.867188 285.421875 203.175781 287.835938 C 190.476562 293.214844 181.507812 303.644531 172.835938 313.730469 C 167.003906 320.511719 160.972656 327.527344 153.957031 332.734375 C 137.5625 344.910156 116.527344 347.492188 92.714844 348.566406 C 93.460938 347.246094 94.167969 345.90625 94.84375 344.550781 C 97.222656 344.78125 99.613281 344.90625 102.007812 344.90625 C 120.777344 344.90625 139.6875 337.976562 153.820312 325.671875 C 162.460938 318.148438 169.320312 308.820312 175.953125 299.796875 C 182.003906 291.566406 188.261719 283.054688 195.78125 276.09375 C 211.15625 261.863281 231.933594 254.152344 252.832031 254.820312 C 250.722656 269.59375 241.929688 278.53125 226.09375 281.992188 Z M 233.679688 185.660156 C 245.628906 201.609375 252.359375 221.542969 253.25 243.449219 C 222.554688 242.066406 191.695312 256.152344 172.65625 280.269531 C 169.035156 284.851562 165.808594 289.804688 162.683594 294.59375 C 158.148438 301.542969 153.460938 308.730469 147.625 314.660156 C 135.273438 327.207031 117.214844 334.015625 99.640625 333.007812 C 104.816406 317.707031 106.035156 301.007812 103.105469 285.128906 L 162.101562 278.097656 C 163.136719 277.972656 163.90625 277.085938 163.882812 276.042969 L 163.632812 265.144531 C 163.632812 265.132812 163.636719 265.125 163.640625 265.113281 L 167.691406 230.296875 C 168.226562 225.699219 168.523438 220.480469 165.246094 216.757812 C 161.761719 212.796875 156.234375 212.648438 151.324219 212.824219 L 93.039062 214.878906 C 93.316406 210.257812 93.785156 205.664062 94.550781 201.132812 C 97.039062 186.429688 102.597656 174.042969 110.621094 165.316406 C 121.804688 153.148438 144.472656 142.296875 174.558594 148.34375 C 197.875 153.027344 219.421875 166.628906 233.679688 185.660156 Z M 220.164062 161.925781 C 209.414062 153.511719 197.050781 147.144531 183.953125 143.386719 C 184.269531 141.445312 184.597656 139.6875 184.941406 137.855469 C 185.300781 135.941406 185.664062 133.957031 186.019531 131.753906 C 196.296875 133.039062 206.417969 135.191406 216.140625 138.648438 C 222.058594 140.753906 227.722656 143.382812 233.0625 146.46875 Z M 274.714844 181.855469 L 273.777344 180.332031 C 265.261719 166.503906 257.910156 154.5625 243.421875 144.636719 C 235.800781 139.410156 227.417969 135.15625 218.511719 131.988281 C 192.921875 122.882812 165.121094 122.371094 138.722656 123.378906 L 134.890625 114.179688 C 176.0625 108.78125 219.675781 118.082031 254.992188 139.890625 C 276.136719 152.953125 289.234375 168 293.914062 184.613281 C 293.953125 184.753906 294.027344 184.875 294.097656 185 C 284.214844 187.410156 277.515625 186.402344 274.714844 181.855469 Z M 322.898438 170.992188 C 320.429688 174.25 316.527344 176.359375 313.035156 177.992188 C 308.253906 180.222656 303.117188 182.722656 297.949219 183.847656 C 295.382812 176.734375 294.242188 169.753906 289.441406 163.566406 C 284.871094 157.679688 278.609375 153.398438 272.90625 148.710938 C 259.003906 137.292969 243.375 127.972656 226.6875 121.242188 C 211.621094 115.167969 195.710938 111.210938 179.566406 109.453125 C 171.367188 108.5625 163.109375 108.238281 154.867188 108.492188 C 153.191406 108.542969 133.480469 110.804688 133.28125 110.324219 C 133.28125 110.324219 124.253906 88.65625 124.253906 88.65625 C 122.875 85.34375 121.449219 81.921875 121.113281 78.542969 C 120.789062 75.289062 121.628906 72.3125 123.359375 70.582031 C 126.117188 67.832031 131.222656 68.195312 134.566406 70.140625 C 138.308594 72.316406 140.984375 76.175781 142.96875 79.691406 C 143.269531 80.382812 143.636719 81.046875 144.070312 81.675781 C 145.140625 83.210938 147.214844 83.648438 148.8125 82.675781 C 150.410156 81.707031 150.972656 79.660156 150.101562 78.007812 C 149.851562 77.535156 149.59375 77.054688 149.320312 76.566406 C 148.335938 73.910156 149.429688 70.238281 151.96875 68.375 C 154.90625 66.214844 159.59375 66.09375 163.363281 68.082031 C 166.90625 69.949219 169.933594 73.554688 171.878906 78.238281 C 172.449219 79.617188 173.832031 80.507812 175.3125 80.414062 C 176.800781 80.34375 178.082031 79.34375 178.523438 77.921875 C 180.191406 72.488281 186.351562 68.628906 191.96875 69.476562 C 197.589844 70.332031 202.320312 75.855469 202.300781 81.535156 C 202.292969 83.1875 203.429688 84.621094 205.039062 84.992188 C 206.644531 85.359375 208.296875 84.574219 209.015625 83.089844 C 211.871094 77.195312 219.304688 73.914062 225.582031 75.773438 C 231.863281 77.628906 236.3125 84.429688 235.5 90.925781 C 235.289062 92.617188 236.316406 94.21875 237.941406 94.734375 C 239.566406 95.25 241.328125 94.53125 242.128906 93.023438 C 245.050781 87.53125 252.648438 84.8125 258.390625 87.214844 C 264.128906 89.613281 267.535156 96.929688 265.675781 102.867188 C 265.144531 104.558594 265.953125 106.382812 267.5625 107.128906 C 269.167969 107.878906 271.085938 107.3125 272.03125 105.816406 C 274.132812 102.507812 279.183594 101.085938 283.296875 102.648438 C 287.351562 104.191406 290.605469 108.21875 291.785156 113.164062 C 292.839844 117.582031 292.355469 122.832031 290.382812 128.34375 C 289.914062 129.652344 290.257812 131.117188 291.261719 132.082031 C 292.265625 133.046875 293.738281 133.332031 295.03125 132.8125 C 299.714844 130.917969 305.933594 133.160156 308.34375 137.601562 C 310.746094 142.046875 309.222656 148.476562 305.078125 151.367188 C 303.75 152.292969 303.222656 154 303.796875 155.515625 C 304.371094 157.03125 305.902344 157.964844 307.507812 157.777344 C 316.828125 156.703125 322.34375 157.996094 324.355469 161.738281 C 325.714844 164.265625 325.113281 168.070312 322.898438 170.992188 Z M 322.898438 170.992188 " style=" stroke:none;fill-rule:nonzero;fill:rgb(0%,0%,0%);fill-opacity:1;" />
</g>
</svg>